<?xml version="1.0" encoding="UTF-8"?>
<!DOCTYPE svg PUBLIC "-//W3C//DTD SVG 1.0//EN" "http://www.w3.org/TR/2001/REC-SVG-20010904/DTD/svg10.dtd">
<!-- Creator: CorelDRAW 2018 (64-Bit) -->
<svg xmlns="http://www.w3.org/2000/svg" xml:space="preserve" width="3.93701in" height="3.93701in" version="1.0" style="shape-rendering:geometricPrecision; text-rendering:geometricPrecision; image-rendering:optimizeQuality; fill-rule:evenodd; clip-rule:evenodd"
viewBox="0 0 3937.01 3937.01"
 xmlns:xlink="http://www.w3.org/1999/xlink">
 <defs>
  <style type="text/css">
   <![CDATA[
    .fil6 {fill:#1A1609}
    .fil7 {fill:#3C3410}
    .fil5 {fill:#63582B}
    .fil1 {fill:#877A56}
    .fil2 {fill:#906F0A}
    .fil9 {fill:#988731}
    .fil0 {fill:#ABABA4}
    .fil4 {fill:#B38A07}
    .fil3 {fill:#D9D6CA}
    .fil8 {fill:#DBA604}
   ]]>
  </style>
 </defs>
 <g id="Layer_x0020_1">
  <metadata id="CorelCorpID_0Corel-Layer"/>
  <g id="_1978756922192">
   <g>
    <path class="fil0" d="M1736.96 2913.87c-4.61,14.94 -4.83,8.76 0.38,23.13 13.72,37.89 1.89,29.31 5.52,52.11 5.91,37.12 16.69,47.58 20.5,66.02 8.94,43.4 0.51,44.88 14.36,70.13 10.93,19.93 7.76,47.65 23.44,67.91 3.41,-18.1 3.2,-4.12 -6.7,-39.41 -3.76,-13.38 -5.24,-22.19 -9.34,-33.2 -5.75,-15.43 -7.52,-14.86 -8.2,-33.7 -1.28,-35.13 -23.94,-77.9 -25.07,-103.13 -0.66,-14.75 0.73,-21.94 -1.8,-35.18 -3.54,-18.51 -4,-21.59 -13.08,-34.68z"/>
    <path class="fil0" d="M1803.4 3202.8c-2.33,15.72 1.32,21.71 4.06,33.91 3.37,15.02 0.75,15.96 11.66,29.35 1.06,-14.11 -5.15,-49.07 -15.71,-63.26z"/>
   </g>
   <g>
    <path class="fil1" d="M1944.87 344.8l-16.28 -0.61c-6.46,4.67 -7.74,7.04 -13.96,12.86l6.12 34.2c2.47,10.5 4.94,-3.28 0.22,14.22 38.97,14.89 20.35,-5.65 41.91,0.69 5.11,-15 2.08,-17.15 3.15,-33.75 1.35,-20.81 1.82,-16.48 -21.17,-27.6z"/>
    <path class="fil1" d="M1950.06 84.98c-12.94,-0.68 -13.07,-4.87 -27.36,3.16l-0.52 21.24c13.85,5.46 14.48,4.17 29.24,4.14 5.43,-12.36 2.57,-15.47 -1.36,-28.55z"/>
    <path class="fil1" d="M1947.2 59.72c-11.17,13.3 -3.9,12.38 -22.72,2.28 5.52,-8.83 1.97,-12.45 13.55,-11.82 12.01,0.65 9.02,9.27 9.17,9.54zm-3.09 -13.26l-13.47 -5.47 -15.79 23.7c41.69,22.78 52.44,-7.81 29.26,-18.24z"/>
   </g>
   <g>
    <path class="fil2" d="M1962.89 406.15c-21.56,-6.33 -2.94,14.21 -41.91,-0.69 -1.1,0.07 -7.86,0.05 -8.04,0.07 -10.22,1.36 1.52,-1.66 -10.24,2.13 -16.13,4.43 -62.55,-3.3 -79.93,-10.11 -1.05,0.31 -1.8,0.63 -3.29,0.16l-6.57 0.6c-18.58,4.47 -13.52,6.48 -15.7,19.65 -6.47,39.1 -24.46,80.2 -15.03,119.16l52.95 27.86c18.4,6.85 30.14,11.86 47.73,10.65l-1.04 -4.46c-20.59,-6.01 -34.82,-3.81 -52.92,-18.59 -7.1,-5.8 -10.88,-10.41 -12.98,-19.33 -3.19,-13.59 0.61,-12.22 2.06,-25.26 2.33,-20.98 -9.23,-16.21 4.26,-47.15 9.21,-21.12 7.33,-30.93 14.83,-49.83 24.93,4.38 56.89,1.97 72.74,7.66l-0.59 1.75c14.78,-10.9 4.06,-6.36 21.93,-7.22 3.84,-0.19 12.64,0.12 18.12,0.43 17.91,1.01 23.02,2.11 37.36,-2.73l-23.74 -4.75z"/>
    <path class="fil2" d="M2057.71 395.57c-9.69,0.26 -13.26,0.69 -22.48,4.39 -10.72,5.86 -10.22,3.89 -20.89,10.79 22.91,0.39 18.65,-8.31 41.4,8.56l8.91 87.43c3.63,39.91 5.55,46.99 -58.17,64.26 15.35,2.67 0.8,3.48 18.21,-0.19 2.63,-0.56 12.01,-4.56 16.15,-6.02 9.75,-3.43 21.26,-6.35 30.16,-8.61 23.11,-31.82 33,-37.07 29.89,-53.62 -0.96,-5.12 -0.78,-3.68 -1.7,-8.56l-3.44 -17c-16.49,-62.55 9.49,-27.91 -10.58,-63.11 -3.21,-5.63 1.6,-13.96 -27.45,-18.31z"/>
    <path class="fil2" d="M2056.41 753.89c-17.22,-1.43 -2.06,4.17 -24.53,5.38 -19.06,1.02 -36.78,-10.67 -33.92,18.51 1.94,19.8 -2.69,5.35 7.33,16.76 23.41,-1.93 39.08,-7.02 38.87,-24.5 9.67,9.59 8.64,6.97 13.6,6.8 3.82,-12.59 3.59,-13.03 -1.35,-22.95z"/>
   </g>
   <g>
    <path class="fil3" d="M1977.85 3732.2l-0.56 -237.69c0.83,-19.42 7.51,-26.4 -12.64,-27.65 -14.18,3.44 -7.55,41.41 -8.2,68.71l-3.6 212.9c-44.82,-19.21 -11.33,-94.49 -76.3,-80.83 -12.66,2.66 -1.28,-1.28 -13.22,4.17 22,10.44 24.76,5.36 41.99,7.51 7.17,10.66 7.51,9.29 9.92,22.72 10.09,56.21 2.37,19.8 40.42,66.09 -7.91,44.1 -6.39,25.63 0.8,38.48 2.33,-8.52 3.05,-18.18 4.05,-20.32 4.5,-9.63 4.37,-1.14 11.65,-15.4 5.42,-10.61 2.63,-24.07 5.69,-38.7z"/>
    <path class="fil3" d="M1640.15 3599.67c-10.42,19.09 -2.57,18.74 -2.93,38.59 -0.61,33.32 5.99,48.63 38.98,32.96l-24.31 -6.53c-15.17,-45.63 4.39,-41.58 -11.74,-65.03z"/>
    <path class="fil3" d="M1924.48 62.01c18.83,10.09 11.56,11.01 22.72,-2.28 -0.15,-0.26 2.84,-8.88 -9.17,-9.54 -11.58,-0.63 -8.03,2.99 -13.55,11.82z"/>
   </g>
   <g>
    <path class="fil4" d="M2014.34 410.74c-10.45,2.48 -16.1,3.56 -27.71,0.15 -14.33,4.84 -19.45,3.74 -37.36,2.73 -5.48,-0.31 -14.28,-0.61 -18.12,-0.43 -17.87,0.86 -7.15,-3.68 -21.93,7.22 12.07,3.24 38.36,7.39 49.41,6.59 18.35,-1.33 23.31,-4.29 53.6,13.56 -1.72,14.68 -5.88,13.22 -4.78,28.11 1.32,17.84 10.81,1.75 -4.8,30.94 9.77,6.85 14.51,9.85 15.11,28.93 0.11,3.36 1.06,-0.58 -0.28,9.36 -1.69,12.58 -7.44,20.49 -14.26,30.64l3.27 2.45c63.71,-17.27 61.79,-24.35 58.17,-64.26l-8.91 -87.43c-22.76,-16.87 -18.5,-8.17 -41.4,-8.56z"/>
    <path class="fil4" d="M1909.81 418.67c-15.85,-5.69 -47.81,-3.28 -72.74,-7.66 -7.5,18.9 -5.63,28.72 -14.83,49.83 -13.48,30.94 -1.93,26.17 -4.26,47.15 -1.45,13.05 -5.26,11.68 -2.06,25.26 2.09,8.92 5.88,13.53 12.98,19.33 18.1,14.78 32.33,12.58 52.92,18.59 14.58,8.06 46.7,10.48 61.98,9.64 12.07,-0.66 20.18,-2.3 31.76,-3.86 19.53,-2.63 17.62,-0.24 27.66,-8.41 -16.69,-8.15 -27.94,0.2 -44.39,2.75 -45.45,7.05 -59.16,-5.54 -89.06,-16.09 -21.92,-7.73 -12.06,-11.2 -3.96,-36.9 -5.5,-4.83 5.77,3.55 -2.32,-0.46 -1.42,-0.7 -0.86,0.81 -3.91,-3.07 10.04,-24.69 2.31,-18.44 0.76,-35.57l1.26 -24.37c0.06,-0.78 0.02,-2 0.12,-2.75 3.09,-22.7 19.48,-24.93 32.76,-28.45l15.33 -4.97z"/>
   </g>
   <g>
    <path class="fil5" d="M2071 556.17c-8.9,2.26 -20.41,5.18 -30.16,8.61 -4.14,1.46 -13.52,5.46 -16.15,6.02 -17.42,3.67 -2.86,2.86 -18.21,0.19l-3.27 -2.45c-10.04,8.18 -8.13,5.78 -27.66,8.41 -11.57,1.56 -19.68,3.2 -31.76,3.86 -15.28,0.83 -47.4,-1.59 -61.98,-9.64l1.04 4.46 16.11 10.99c-1.56,6.95 -2.71,4.4 -1.96,13.06 0.04,0.43 2.04,8.67 2.22,9.16 0.34,0.91 1,1.94 1.39,2.82 5.67,12.78 5.88,4.22 6.14,21.2 0.42,27.49 -5.85,13.45 -0.52,48.28 4.51,29.44 -6.13,0.09 7.52,39.85 15.48,45.06 -3.12,35.93 -9.93,38.95 -6.54,2.9 -5.08,-9 -12.97,11.09 -4.98,12.69 -10.67,1.82 1.47,13.74 16.89,-32.05 48.12,-9.88 76.71,-23.85 -13.46,-10.37 -4.41,-13.97 13.8,-16.43l9.49 -0.65c-16.31,-16.07 -4.08,-3.41 -10.96,-29.71 -5.22,-19.95 -3.23,-1.26 1.95,-38.72l-0.34 -30.02c-0.51,-22.02 11.3,-30.5 -3.81,-57.02 25.25,-12.45 61.44,-19.41 91.83,-32.2z"/>
    <path class="fil5" d="M1994.46 3746.29c-11.59,-1.5 -4.91,-9.4 -10.79,0.86l-5.81 -14.96c-3.06,14.63 -0.27,28.09 -5.69,38.7 -7.28,14.26 -7.15,5.77 -11.65,15.4 -1,2.14 -1.72,11.8 -4.05,20.32 2.95,11.22 2,45.76 2.46,64.72 0.33,13.49 0.15,22.65 0.02,35.98 -0.19,18.38 -5.34,22.89 12.96,29.7 7.6,-11.89 5.93,-74.02 6.52,-91.47 1.4,-40.67 -3,-71.4 16.03,-99.24z"/>
    <path class="fil5" d="M2135.66 819.17l-1.42 0.23 11.75 -19.31c-28.6,-15.31 -54.27,13.4 -92.52,16.93 -13.14,1.21 -19.62,0.58 -30.05,5.77l6.54 35.33c10.61,-3.24 14.54,-6.9 23.52,-9.66 22.07,-6.78 5.7,5.91 51.17,-18.39 25.38,-13.56 12.16,-12.22 31.01,-10.89z"/>
    <path class="fil5" d="M2057.71 395.57c29.05,4.35 24.24,12.69 27.45,18.31 20.07,35.2 -5.91,0.57 10.58,63.11l3.44 17c0.92,4.88 0.74,3.44 1.7,8.56 3.11,16.55 -6.78,21.8 -29.89,53.62l32.58 -13.13c11.19,-19.05 22.28,-17.29 17.06,-43.1 -3.09,-15.28 -8.17,-21.12 -9.73,-38.91 -1.86,-21.13 -8.86,-64.84 -22.42,-80.07 -13.88,5.27 -17.6,3.55 -30.78,14.61z"/>
    <path class="fil5" d="M1950.06 84.98c3.93,13.07 6.78,16.19 1.36,28.55 -14.76,0.03 -15.39,1.32 -29.24,-4.14l0.52 -21.24c14.28,-8.03 14.41,-3.84 27.36,-3.16zm1.92 -41.35l-3.14 -2.78 -4.73 5.61c23.18,10.42 12.43,41.02 -29.26,18.24l15.79 -23.7c-10.77,2.84 2.39,-10.4 -12.78,7.28 -6.09,7.09 -4.2,4.52 -4.04,12.53 0.53,25.48 8.91,-0.35 5.27,21.12 -15.65,2.66 -23.54,-5.3 -41.89,-12.22 -14.44,19.52 -20.24,25.28 4.24,36.62 11.05,5.12 34.24,10.44 45.04,11.47 44.04,4.2 69.64,-24.36 21.87,-40.94 11.46,-11.34 10.37,-6.76 13.67,-22.47l-10.04 -10.76z"/>
    <path class="fil5" d="M1944.87 344.8c22.99,11.12 22.52,6.8 21.17,27.6 -1.07,16.6 1.95,18.74 -3.15,33.75l23.74 4.75c11.61,3.41 17.26,2.33 27.71,-0.15 10.66,-6.9 10.17,-4.93 20.89,-10.79 -23.7,-7.03 4.6,3.62 -14.68,-12.33 -6.29,-5.2 -12.98,-8.69 -20,-12.86 -0.06,-1 0.28,-2.34 0.39,-2.99l4.8 -22.13c-14.29,-6.44 -48.48,-11.54 -60.87,-4.84z"/>
    <path class="fil5" d="M1822.77 397.56l-28.86 -12.65c-8.83,14.54 -28.45,118.32 -26.95,132.13l0.59 17.04c18.68,8.74 47.99,35.07 67.59,30.91l-52.95 -27.86c-9.43,-38.95 8.56,-80.06 15.03,-119.16 2.18,-13.17 -2.88,-15.18 15.7,-19.65l6.57 -0.6c1.49,0.47 2.24,0.16 3.29,-0.16z"/>
    <path class="fil5" d="M1926.15 3442.47c19.58,10.46 41.09,14.17 58.6,11.35 14.13,-2.27 36.19,-7.01 45.83,-22.26 -18.47,-7.89 -16.88,-0.76 -36.44,2.09 -36.57,5.33 -46.25,-5.9 -67.99,8.82z"/>
    <path class="fil5" d="M1928.59 344.18l-15.2 -4.26c-14.92,14.47 -32.31,15.55 -15.55,57.79 1.26,3.16 0.87,4.02 4.85,9.96 11.76,-3.79 0.02,-0.77 10.24,-2.13 0.18,-0.02 6.94,-0 8.04,-0.07 4.72,-17.5 2.25,-3.72 -0.22,-14.22l-6.12 -34.2c6.22,-5.82 7.5,-8.19 13.96,-12.86z"/>
    <path class="fil5" d="M2104.85 736.39c-2.52,1.12 -2.91,2.71 -4.32,2.43l-25.44 5.8c-3.57,16.13 -3.01,17.37 2.17,30.17 6.68,-0.44 24.07,-5.69 35.99,-17.85l-8.4 -20.54z"/>
   </g>
   <g>
    <path class="fil6" d="M1984.75 3453.82c-17.52,2.81 -39.02,-0.89 -58.6,-11.35 21.74,-14.72 31.42,-3.49 67.99,-8.82 19.56,-2.85 17.97,-9.98 36.44,-2.09 -9.64,15.25 -31.7,19.99 -45.83,22.26zm50.24 -3334.93c-0.51,-1.31 0.1,-2.53 -1.32,-4.01 -1.37,-1.43 -0.94,-2.88 -1.18,-3.9 -9.11,-38.76 6.69,-7.33 -18.87,-33.67 -19.67,-20.27 1.08,-11.83 -16.95,-26.93 -27.55,-23.08 -26.51,-29.5 -41.64,-23.62 -4.39,-9.28 -1.08,-5.65 -3.91,5.83 -5.93,24.03 0.24,-5.15 -2.29,8.27l3.14 2.78c14.13,-3.34 8.09,-2.85 19.98,2.37 0.03,1.35 0.44,5.15 0.46,6.04l0.14 6.27c-0.33,27.19 -3.83,12.06 6.06,26.41 23.93,34.74 -8.92,19.48 14.88,56.29l5.29 8.76c-9.69,17.3 -20.23,31.76 -15.56,48.07l3.46 7.84c0.31,0.81 0.88,1.89 1.16,2.71 10.06,29.49 -5.83,43.86 -1.92,75.26 7.94,63.74 -78.04,43.13 -88.59,34.18l-6.52 -13.91c-7.07,-16.82 -5.07,-17.89 -4.57,-34.72l-0.06 -23.85c-0.01,-0.9 -0.04,-2.08 -0.04,-2.99 -0.29,-71.39 25.39,-37.3 4.72,-81.31 -0.38,-0.81 -0.87,-1.91 -1.22,-2.74 -0.35,-0.81 -0.74,-1.94 -1.06,-2.76 -9.91,-25.24 -3.26,-24.44 -4.22,-37.18 -45.74,-26.77 -17.24,-16.86 -30.41,-43.59 -29.2,9.14 -16.36,40.47 -14.5,49.34 13.73,65.67 7.05,0.92 15.61,82.13 4.26,40.46 2.33,36.29 -30.27,51.83 -32.56,15.52 -25.95,24.53 -32.92,54.68l2.25 8.03c1.41,21.89 -6.93,20.56 -8.07,42.5 -0.04,0.85 -0.1,2.05 -0.1,2.89 0,0.85 0.05,2.09 0.09,2.91l1.35 8.75c9.08,-0.47 26.93,0.78 32,-0.89 20.54,-6.71 0.54,-16.08 15.38,-35.18 8.16,-10.51 7.44,-8.33 36.39,-4.37 15.33,2.1 25.25,1.61 42.24,2.52l15.2 4.26 16.28 0.61c12.38,-6.7 46.58,-1.6 60.87,4.84l-4.8 22.13c-0.11,0.65 -0.45,1.99 -0.39,2.99 7.02,4.17 13.71,7.66 20,12.86 19.28,15.96 -9.02,5.31 14.68,12.33 9.22,-3.7 12.8,-4.13 22.48,-4.39 13.17,-11.06 16.9,-9.34 30.78,-14.61 13.56,15.22 20.56,58.94 22.42,80.07 1.57,17.79 6.64,23.63 9.73,38.91 5.22,25.81 -5.87,24.06 -17.06,43.1 -9.94,19.92 -14.11,13.18 -27.7,24.41 18.68,46.3 9.33,-7.39 15,48.24 1.55,15.23 5.81,13.8 18.62,21.42 -5.21,9.57 -22.13,63.37 16.24,73.44 19.15,5.02 6.39,-8.04 32.5,8.54l-25.15 44.11c9.79,12.62 2.85,5.51 18.29,7.59l20.21 4.1c-3.85,9.76 -13.98,32.76 -22.83,39.3l-14.52 5.21 1.42 -0.23c-8.07,11.33 -16.87,33.33 -25.52,50.33 8.95,4.95 4.86,-1.54 11.17,3.11 7.84,5.77 3.8,19.36 4.13,28.58l16.11 168.87 -5.44 108.64c-0.25,0.74 -0.67,1.89 -1,2.57 -4.44,9.15 -3.86,3.48 -11.84,11.35 2.42,5.26 3.01,7.84 3.53,13.59 16.86,-11.49 -2.54,-10.72 19.3,-6.85 -21.87,38.87 9.01,17.54 -17.44,64.63 20.33,12.52 13.57,16.26 9.95,33.5l-2.05 12.53c-0.24,1.12 -0.34,2.17 -0.64,3.31 -11.45,43.65 -12.44,17.43 -7.15,73.01l-0.22 26.54c15.87,1.05 -17.12,3.7 7.81,-3.46 9.07,-2.61 -0.19,-4.63 13.36,-2.25 -4.87,8.6 -9.8,15.57 -12.07,24.82l-5.17 22.81c-1.76,5.06 -2.53,4.06 -3.59,9.6l0.09 8.13c3.75,14.59 13.44,16.69 12.24,35.82l-3.43 27.95c-2.32,13.94 -17.39,32.65 -19.78,47.65l13.63 -19.27 24.06 13.85c-13.81,25.51 -17.26,24.61 -8.94,32.15 -16.82,14.47 0.94,6.17 -20.47,4.28 7.72,16.79 5.04,27.78 5.62,44.85 0.77,22.71 -2.07,-20.28 1.24,8.42 0.1,0.86 0.42,2.01 0.5,2.89l-0.42 12.42c-2.38,19 -7.74,31.48 -17.12,48.88 16.41,6.66 26.59,-15.54 80.31,13.63 -19.21,23.05 -22.46,3.06 -24.65,37.86 23.6,13.91 24.43,5.84 48.14,20.39 -8.17,18.69 -6.57,19.19 -19.96,29.89 -25.1,-4.03 0.29,-4.15 -37.78,-16.4 -14.91,-4.8 -29.04,-16.65 -33.74,-26.68 -6.94,3.35 -7.54,2.52 -14.35,7.53 -9.42,6.91 0.02,3.04 -8.47,8.24 12.59,9.05 9.27,10.9 20.38,21.33 -11.06,22.76 -24.05,39.38 -16.25,63.98l2.15 6.35c2.66,7.91 -13.24,27.71 -16.1,34.93 -10.32,26.05 9.69,-5.37 -5.7,26.86 31.17,18.43 12.71,10.32 17.42,27.85l6.76 36.77c4.83,11.36 -2.83,-0.87 4.44,7.2 4.91,5.45 6.83,4.7 10.89,8.68 9.28,9.1 8.46,1.4 7.81,13.68 1.97,7.28 7.12,-0.36 -3.22,22.69 -3.01,6.7 -3.7,5.4 -5.88,13.32 -0.27,0.98 -0.44,2.08 -0.63,3.04l-5.28 54.65c16.31,1.49 -3.35,-9.55 23.72,5.28l-30.6 56.39c23.54,13.28 7.24,4.24 10.91,12.72l-10.52 31.71c-0,0.59 0.27,1.94 0.15,2.9l4.63 2.63c7.89,-6.09 13.12,-5.74 20.81,-6.72 -16.34,27.58 -13.89,17.37 -31.87,16.03l-8.92 16.18 17.95 0.69c-10.39,19.23 1.49,26.54 3.66,44.6 32.87,-19.62 24.61,-9.74 58.13,10.35 -7.74,6.41 -17.51,24.09 -17.93,31.58 7.49,11.75 29.16,15.65 47.75,25.48l-15.73 42.22c-12.72,-6.66 -20.71,-14.98 -34.3,-25.04 -17.65,-13.07 -11.29,-14.95 -32.21,-25.58 -36.03,16.81 -19.09,28.05 -0.77,54.99 8.1,11.91 -4.91,-2.6 7.3,10.2l-19.78 35.16c9.05,11.82 2.72,-1.22 6.5,13.27l1.15 14.63c8.99,1 0.13,7.96 10.41,-7.56 2.87,14.68 -9.82,30.82 -17.7,45.33l20.44 12.12c-12.86,23.45 -17.1,17.75 2.22,29.08 -14.68,26.08 -20.63,46.47 -22.31,75.13l-0.4 6.11c-4.06,33.57 -14.74,20.24 -19.09,23.33 -10.56,7.52 2.2,7.38 2.39,29.07 0.12,14.2 -13.06,4.02 10.17,17.61l-25.63 53.07c-7.84,12.88 -10.75,31.98 -12.88,47.71 -2.56,18.93 0.28,17.81 20.15,29.37 -19.87,37.09 -7.76,18.65 -9.85,45.02 -0.96,12.06 -1.8,6.13 -5.4,16.95 -4.92,14.8 -1.89,7.36 -2.95,12.58l-1.01 6.4c-5.55,18.76 -12.71,14.23 -19.08,37.17l28.65 22.71 -6.85 9.17c-0.12,0.13 -6.16,5.94 -6.55,6.33 -14.45,14.44 -10.27,19.1 -27.51,17.48 2.3,16.48 -1.22,10.19 -3.5,26.82 -0.13,0.98 -0.22,2.15 -0.33,3.1l-1.35 15.87c14.89,-1.43 13.89,-1.15 30.8,8.15 -12.31,21.69 -22.19,24.66 -45.41,31.42l-8.49 2.42c-17.41,4.79 -24.33,7.75 -43.29,1.65 -12.02,-3.87 -12.45,-5.03 -23.28,-4.31l-58 -8.79c-13.24,-5.93 -20.71,-8.84 -32.82,-15.02l0.74 -23.19c20.3,-5.72 12.64,-13.5 26.35,-37.48l-49.72 -30.64c3.49,-5.36 5.08,-8.63 8.8,-12.44 12.81,-13.09 18.04,-5.26 33.15,-9.91 -0.7,-17.72 2.48,-3.57 -4.74,-18 -6.95,-13.89 -4.7,-6.32 -8.32,-21.96l-2.51 -11.31c-1.69,-13.4 2.59,-24.66 10.47,-38.54 -5.03,-2.85 -12.1,-6.24 -16.68,-9.13l-22.33 -36.76c-3.33,-6.85 2.98,0.79 -4.94,-7.58 8.91,-13.48 12.13,-13.05 20.73,-29.54 -10.61,-14.62 -23.06,-32.08 -18.91,-51.54 2.21,-10.35 3.93,-5.33 11.26,-17.93l-18.62 -6.43c4.38,-14.07 9.53,-19.37 11.32,-24.02 4.17,-10.78 -2.66,-15.52 -0.42,-24.31 2.99,-11.72 23.07,-22.11 -12.14,-26.59l-7.35 -0.59c0.15,-2.66 -0.37,-14.74 -0.34,-15.09 0.07,-0.99 0.13,-2.14 0.26,-3.15 0.13,-1.04 0.32,-2.16 0.51,-3.21 1.07,-6.12 1.72,-5.32 2.62,-9.73 0.2,-1 0.61,-2.12 0.75,-3.1 1.5,-10.08 -2.48,-16.07 -8.06,-24.22 0.87,-0.81 3.5,-1.07 2.96,-2.03l10.49 -8.21c4.69,-4.85 5.82,-7.85 9.23,-13.85l-16.55 -21.63c-8.18,-8.93 -11.81,-16.15 -10.97,-27.76l0.97 -6.38c5.95,-32 -7.52,-23.56 9.11,-52.72 -32.69,-21.04 9.67,-5.45 -18.8,-24.63l15.71 -28.14c-21.21,-13.31 -9.5,-8.77 -10.54,-27.17 -1.77,-31.28 -13.67,-1.81 -4.7,-58.33 0.09,-0.59 0.4,-1.9 0.28,-2.84 12.35,-2.94 -8.84,-11.04 17.16,1.33 0.11,-2.74 -0.65,-4.33 1.59,-10.52 1.13,-3.12 3.2,-6.33 4.87,-9.24 -11.8,-7.01 -25.44,-6.12 -30.24,-17.85 -0.14,-0.34 -0.7,18.37 -0.61,-3.26 0.01,-1.62 -2.58,1.94 1.85,-8.61 11.96,3.04 1.19,3.9 13.3,-0.18l-1.88 -17.45c-3.84,4.24 1.56,7.75 -13.83,5.32l5.1 -58.61c0.08,-0.78 0.16,-2.05 0.29,-2.78 4.68,-26.03 9.55,-8.44 17.63,-13.66 -19.62,-14.52 -19.6,-25.09 -24.24,-46.89l-2.81 -74.38c1.93,-9.09 7.41,-16.56 12.02,-24.97 -14.88,-22.29 -8.57,-3.61 -6.59,-27.04 1.02,-11.99 1.05,-4.67 -1.09,-14.1l-1.8 -26.63c-0.67,-37.09 15.19,-37.31 -4.44,-55.06 14.52,-23.2 9.94,-5.49 21.18,-22.62 -6.03,-7.5 -12.99,-10.98 -14.78,-21.15 -0.16,-0.93 -0.1,-2.13 -0.2,-3.06 -2.33,-20.56 -7.7,-20.46 -8.61,-42.38l-1.18 -17.14c-3.8,-13.57 -6.39,1.76 -3.25,-17.69 5.7,-35.34 9.98,-0.31 0.78,-38.4 -3.6,-14.91 1.15,-31.26 0.47,-45.07l-2.02 -41.05c-0.1,-0.83 -0.3,-2.01 -0.42,-2.83l-1.43 -8.6c-0.11,-0.87 -0.28,-2.05 -0.37,-2.93l-0.53 -5.95c-0.02,-1.25 0.09,-4.93 0.19,-6.2 3.28,-40.68 -3.76,-32.04 -2.22,-47.07 0.05,-0.48 2.49,-9.83 2.53,-9.96l-0.69 -74.42c2.62,-10.1 7.32,-14.55 8,-22.79 0.06,-0.78 0.09,-1.97 0.04,-2.71 -0.6,-9.11 -9.91,-19.86 -14.76,-28.05 -18.79,-31.73 -2.15,-32.5 4.74,-67.06l-0.2 -15.31c-0.15,-9.67 9.09,-22.85 6.85,-34.5 -2.68,-13.95 -17.36,-20.89 -28.9,-27.57 5.73,-10.67 13.55,-26.39 15.22,-32.51 0.13,-0.5 0.42,-1.6 0.5,-2.09l1.73 -41.88c-3.26,-12.82 -3.19,-4.46 -5.09,-13.59 -2.11,-10.16 1.56,-24.24 6.3,-34.66 -9.18,-1.84 -4.14,-0.38 -15.67,-4.44l7.93 -53.13c0.48,-7.98 0.41,-6.27 2.76,-13.16l8.14 -25.36c0.38,-12.31 -2.39,-9.52 -7.76,-21.54 -0.42,-0.94 -2.98,-8.14 -3.03,-8.26 -5.01,-14.95 -1.87,-34.8 -4.66,-46.39 -4,-16.65 8.83,-33.77 8.3,-50.51l-1 -6c6.66,-5.16 8.62,4.15 12.52,-7.37l-9.18 -47.59c-10.6,-21.3 7.12,9.9 -2.42,-3.61 -0.25,-0.35 -1.26,-1.44 -1.48,-1.72 -0.22,-0.28 -1.17,-1.03 -1.58,-1.68 8.94,-17.13 13.46,-23.68 14.52,-39.45l-0.01 -11.79c-0.03,-19.11 11.89,-30.85 14.49,-49.09l0.33 -5.75c-0.3,-10.3 -5.54,-14.28 -8.22,-30.47 -1.7,-10.26 2.15,-8.35 -5.2,-16.09 13.93,-12 14.17,0.35 26.68,2.09 10.86,1.51 6.88,-26.64 5.35,-31.71 -12.33,-41.11 -3.13,-26.37 8.7,-29.5l-3.48 -76.48c-1.44,-10.91 -2.31,2.33 -0.2,-15.83 0.39,-3.34 1.61,-10.99 2.39,-15.88 0.17,-1.04 0.21,-3.93 1.43,-7.44 6.31,-18.09 -0.24,-3.14 2.94,-4.43 -39.45,-26 3.49,-5.29 -21.41,-22.98 -8.55,-6.07 -19.59,-10.7 -24.5,-20.82 -15.44,-31.8 1.99,15 -2.3,-9 -11.64,-7.63 -4.58,-2.17 -12.44,-15.17l-8.78 17.54c-12.93,20.02 -36.85,197.43 -43.32,233.19 -4.5,24.85 -6.4,54.14 -8.52,76.74 -11.99,127.61 -29.94,244.52 -27.75,380.59l-4.6 225.32c-0.33,145.65 9.91,301.78 11.02,441.29l6.68 147.06c0.63,26.81 3.43,48.33 3.17,73.81 -0.26,24.2 4.15,46.82 4.57,72.67l9.62 221.4c-0.02,11.27 -0.66,28.76 0.58,38.74 1.83,14.75 3.69,15.41 4.03,34.45 0.5,27.64 6.14,46.39 4.13,72.76 -2.8,36.57 18.05,243.46 25.92,291.73 3.91,23.99 0.65,43.65 5.1,67.68 9.07,13.08 9.54,16.17 13.08,34.68 2.53,13.24 1.13,20.43 1.8,35.18 1.13,25.24 23.8,68 25.07,103.13 0.69,18.84 2.46,18.28 8.2,33.7 4.1,11 5.59,19.82 9.34,33.2 9.9,35.29 10.11,21.31 6.7,39.41l2.25 9.63c10.57,14.2 16.77,49.15 15.71,63.26 4.56,8.02 11.95,37.92 15.52,49.5 3.57,11.58 5.97,49.71 4.5,55.15 -4.07,15.11 -32.13,24.51 -44.09,32.77l-144.99 92.1c-29.12,21.24 4.17,79.61 -9.91,104.09 16.13,23.45 -3.42,19.4 11.74,65.03l24.31 6.53c6.66,-5.75 33.1,-2.03 45.78,-2.48 16.89,-0.61 30.59,0.28 47.57,-0.65 17.85,-0.98 80.32,-1.35 93.78,3.71 11.94,-5.44 0.56,-1.5 13.22,-4.17 64.96,-13.66 31.47,61.62 76.3,80.83l3.6 -212.9c0.65,-27.3 -5.98,-65.28 8.2,-68.71 20.15,1.25 13.48,8.23 12.64,27.65l0.56 237.69 5.81 14.96c5.88,-10.26 -0.81,-2.37 10.79,-0.86l8.06 0.22c45.87,-65.91 -16.76,-81.56 93.59,-74.61l129.89 -2.15c25.4,2.22 45.51,1.76 66.39,2.08 13.5,-24.94 6.74,-61.36 6.52,-84.5l3.39 -84.56 -207.37 -127.59c0.71,-39.45 5.28,-66.3 15.8,-104.66 8.93,-32.56 15.5,-71.81 24.69,-105.83 3.73,-13.83 6.43,-17.22 7.67,-29.65 4.5,-44.99 21.98,-87.73 32.35,-131.39l2.52 -39.13c1.65,-27.85 13.94,-39.9 17.47,-64.58 2.81,-19.68 -0.87,-25.22 1.33,-48.09l15.97 -209.23c2.31,-72.61 16.96,-72.04 13.48,-194.65 -0.74,-26.26 17.71,-32.44 20.68,-56.24 3.72,-29.86 -16.83,-10.84 -17.2,-43.58 -0.32,-28.2 -0.01,-70.78 1.53,-98.23l5.31 -198.54c1.07,-32.55 3.23,-64.96 1.51,-98.98 -6.34,-125.54 23.18,-124.19 22.58,-155.5 -0.55,-28.39 -16.13,-14.09 -18.33,-42.63l0.66 -199.87c-2.78,-130.03 -3.09,-261.21 -11.68,-390.35 -9.35,-140.64 -22.84,-245.94 -42.8,-381.69 -10.89,-74.04 -65.72,-363.76 -85.25,-420.99 -42.16,-123.55 4.63,-61.93 -80.69,-123.76 0.53,-9.98 1.53,-19.82 1.42,-30.24 -0.54,-49.3 -11.48,-9.06 7.95,-61.72 6.39,-17.32 0.04,-14.05 3.11,-26.76z"/>
    <path class="fil6" d="M1860.74 22.08c-4.13,9.61 -3.29,8.21 -0.2,19.07l4.86 11.65c0.71,0.57 0.69,1.22 1.04,1.82l17.29 10.68 5.32 -33.91c0.98,0.2 10.02,2.54 10.26,2.54 16.08,-0.42 3.69,1.8 14.43,-4.52l-44.98 -19.08 -8.03 11.75z"/>
   </g>
   <g>
    <path class="fil7" d="M2056.41 753.89c4.94,9.92 5.17,10.36 1.35,22.95 -4.96,0.17 -3.93,2.79 -13.6,-6.8 0.21,17.47 -15.46,22.57 -38.87,24.5 -10.02,-11.41 -5.4,3.04 -7.33,-16.76 -2.86,-29.19 14.87,-17.49 33.92,-18.51 22.47,-1.21 7.31,-6.81 24.53,-5.38zm20.86 20.89c-5.18,-12.8 -5.75,-14.04 -2.17,-30.17l25.44 -5.8c1.41,0.28 1.8,-1.31 4.32,-2.43l8.4 20.54c-11.92,12.16 -29.31,17.4 -35.99,17.85zm58.39 44.39c-18.85,-1.33 -5.63,-2.67 -31.01,10.89 -45.47,24.3 -29.1,11.62 -51.17,18.39 -8.99,2.76 -12.92,6.42 -23.52,9.66l-6.54 -35.33c10.43,-5.19 16.91,-4.56 30.05,-5.77 38.25,-3.53 63.92,-32.24 92.52,-16.93l-11.75 19.31 14.52 -5.21c8.85,-6.54 18.98,-29.54 22.83,-39.3l-20.21 -4.1c-15.44,-2.08 -8.5,5.03 -18.29,-7.59l25.15 -44.11c-26.11,-16.58 -13.35,-3.52 -32.5,-8.54 -38.37,-10.07 -21.44,-63.86 -16.24,-73.44 -12.81,-7.63 -17.07,-6.19 -18.62,-21.42 -5.67,-55.63 3.68,-1.95 -15,-48.24 13.59,-11.24 17.76,-4.49 27.7,-24.41l-32.58 13.13c-30.39,12.79 -66.58,19.75 -91.83,32.2 15.1,26.52 3.3,35 3.81,57.02l0.34 30.02c-5.18,37.46 -7.17,18.78 -1.95,38.72 6.89,26.3 -5.35,13.64 10.96,29.71l-9.49 0.65c-18.21,2.46 -27.26,6.06 -13.8,16.43l20.32 13.53c-12.9,37.7 -10.15,18.06 -22.27,22.05 -24.8,8.17 -54.1,11 -74.76,-11.72 -12.15,-11.92 -6.45,-1.06 -1.47,-13.74 7.89,-20.1 6.44,-8.2 12.97,-11.09 6.81,-3.02 25.41,6.11 9.93,-38.95 -13.66,-39.76 -3.01,-10.41 -7.52,-39.85 -5.34,-34.83 0.93,-20.79 0.52,-48.28 -0.26,-16.98 -0.48,-8.42 -6.14,-21.2 -0.39,-0.88 -1.05,-1.91 -1.39,-2.82 -0.19,-0.5 -2.19,-8.73 -2.22,-9.16 -0.75,-8.65 0.4,-6.11 1.96,-13.06l-16.11 -10.99c-17.59,1.22 -29.33,-3.8 -47.73,-10.65 -19.59,4.16 -48.91,-22.17 -67.59,-30.91 4.3,24.01 -13.13,-22.8 2.3,9 4.91,10.12 15.96,14.75 24.5,20.82 24.9,17.69 -18.04,-3.02 21.41,22.98 -3.19,1.3 3.37,-13.65 -2.94,4.43 -1.22,3.51 -1.26,6.4 -1.43,7.44 -0.79,4.89 -2.01,12.54 -2.39,15.88 -2.1,18.17 -1.24,4.92 0.2,15.83l3.48 76.48c-11.83,3.13 -21.03,-11.61 -8.7,29.5 1.52,5.07 5.5,33.22 -5.35,31.71 -12.51,-1.74 -12.75,-14.08 -26.68,-2.09 7.35,7.73 3.5,5.83 5.2,16.09 2.68,16.19 7.92,20.17 8.22,30.47l-0.33 5.75c-2.59,18.24 -14.52,29.98 -14.49,49.09l0.01 11.79c-1.06,15.77 -5.58,22.32 -14.52,39.45 0.41,0.65 1.35,1.4 1.58,1.68 0.22,0.28 1.23,1.36 1.48,1.72 9.54,13.52 -8.18,-17.69 2.42,3.61l9.18 47.59c-3.9,11.52 -5.86,2.21 -12.52,7.37l1 6c0.54,16.74 -12.3,33.86 -8.3,50.51 2.78,11.59 -0.35,31.44 4.66,46.39 0.04,0.13 2.61,7.32 3.03,8.26 5.37,12.02 8.14,9.22 7.76,21.54l-8.14 25.36c-2.35,6.89 -2.28,5.18 -2.76,13.16l-7.93 53.13c11.54,4.07 6.49,2.6 15.67,4.44 -4.74,10.42 -8.41,24.5 -6.3,34.66 1.9,9.13 1.83,0.77 5.09,13.59l-1.73 41.88c-0.09,0.48 -0.37,1.59 -0.5,2.09 -1.67,6.12 -9.49,21.84 -15.22,32.51 11.54,6.68 26.22,13.62 28.9,27.57 2.24,11.65 -6.99,24.82 -6.85,34.5l0.2 15.31c-6.89,34.56 -23.54,35.32 -4.74,67.06 4.85,8.19 14.16,18.94 14.76,28.05 0.05,0.74 0.02,1.94 -0.04,2.71 -0.67,8.24 -5.37,12.69 -8,22.79l0.69 74.42c-0.04,0.14 -2.48,9.48 -2.53,9.96 -1.54,15.04 5.5,6.39 2.22,47.07 -0.1,1.28 -0.21,4.95 -0.19,6.2l0.53 5.95c0.09,0.88 0.26,2.06 0.37,2.93l1.43 8.6c0.12,0.83 0.32,2.01 0.42,2.83l2.02 41.05c0.68,13.8 -4.07,30.16 -0.47,45.07 9.21,38.09 4.93,3.06 -0.78,38.4 -3.14,19.45 -0.56,4.13 3.25,17.69l1.18 17.14c0.91,21.92 6.28,21.83 8.61,42.38 0.1,0.93 0.04,2.13 0.2,3.06 1.79,10.17 8.75,13.65 14.78,21.15 -11.24,17.13 -6.66,-0.58 -21.18,22.62 19.64,17.75 3.78,17.97 4.44,55.06l1.8 26.63c2.14,9.44 2.11,2.11 1.09,14.1 -1.99,23.43 -8.3,4.75 6.59,27.04 -4.62,8.42 -10.1,15.89 -12.02,24.97l2.81 74.38c4.64,21.8 4.62,32.37 24.24,46.89 -8.09,5.22 -12.96,-12.37 -17.63,13.66 -0.13,0.73 -0.21,2 -0.29,2.78l-5.1 58.61c15.39,2.43 10,-1.08 13.83,-5.32l1.88 17.45c-12.11,4.08 -1.33,3.22 -13.3,0.18 -4.44,10.55 -1.85,6.99 -1.85,8.61 -0.09,21.64 0.47,2.93 0.61,3.26 4.8,11.73 18.44,10.84 30.24,17.85 -1.67,2.91 -3.74,6.12 -4.87,9.24 -2.24,6.2 -1.48,7.78 -1.59,10.52 -26,-12.36 -4.8,-4.27 -17.16,-1.33 0.12,0.94 -0.19,2.25 -0.28,2.84 -8.98,56.52 2.93,27.05 4.7,58.33 1.04,18.41 -10.67,13.87 10.54,27.17l-15.71 28.14c28.46,19.18 -13.9,3.59 18.8,24.63 -16.63,29.16 -3.17,20.72 -9.11,52.72l-0.97 6.38c-0.84,11.61 2.8,18.83 10.97,27.76l16.55 21.63c-3.41,6 -4.54,8.99 -9.23,13.85l-10.49 8.21c0.55,0.96 -2.08,1.21 -2.96,2.03 5.58,8.15 9.56,14.14 8.06,24.22 -0.14,0.98 -0.54,2.1 -0.75,3.1 -0.9,4.41 -1.55,3.61 -2.62,9.73 -0.19,1.05 -0.37,2.17 -0.51,3.21 -0.13,1.01 -0.19,2.16 -0.26,3.15 -0.02,0.34 0.5,12.43 0.34,15.09l7.35 0.59c35.21,4.48 15.13,14.88 12.14,26.59 -2.24,8.79 4.59,13.53 0.42,24.31 -1.8,4.65 -6.94,9.94 -11.32,24.02l18.62 6.43c-7.33,12.59 -9.05,7.57 -11.26,17.93 -4.15,19.46 8.3,36.93 18.91,51.54 -8.6,16.5 -11.82,16.07 -20.73,29.54 7.93,8.37 1.61,0.74 4.94,7.58l22.33 36.76c4.58,2.89 11.65,6.28 16.68,9.13 -7.88,13.89 -12.15,25.14 -10.47,38.54l2.51 11.31c3.61,15.64 1.37,8.07 8.32,21.96 7.22,14.44 4.04,0.28 4.74,18 -15.11,4.66 -20.34,-3.18 -33.15,9.91 -3.72,3.81 -5.31,7.08 -8.8,12.44l49.72 30.64c-13.72,23.99 -6.06,31.76 -26.35,37.48l-0.74 23.19c12.11,6.19 19.59,9.09 32.82,15.02l58 8.79c10.83,-0.71 11.27,0.44 23.28,4.31 18.95,6.11 25.87,3.15 43.29,-1.65l8.49 -2.42c23.22,-6.76 33.1,-9.73 45.41,-31.42 -16.91,-9.29 -15.91,-9.57 -30.8,-8.15l1.35 -15.87c0.11,-0.95 0.19,-2.13 0.33,-3.1 2.28,-16.63 5.8,-10.34 3.5,-26.82 17.24,1.62 13.06,-3.04 27.51,-17.48 0.39,-0.38 6.43,-6.2 6.55,-6.33l6.85 -9.17 -28.65 -22.71c6.37,-22.94 13.53,-18.41 19.08,-37.17l1.01 -6.4c1.06,-5.22 -1.96,2.22 2.95,-12.58 3.59,-10.82 4.44,-4.89 5.4,-16.95 2.09,-26.37 -10.02,-7.93 9.85,-45.02 -19.87,-11.56 -22.7,-10.44 -20.15,-29.37 2.13,-15.73 5.04,-34.83 12.88,-47.71l25.63 -53.07c-23.23,-13.59 -10.05,-3.41 -10.17,-17.61 -0.19,-21.7 -12.94,-21.56 -2.39,-29.07 4.35,-3.09 15.04,10.24 19.09,-23.33l0.4 -6.11c1.69,-28.66 7.63,-49.04 22.31,-75.13 -19.32,-11.33 -15.07,-5.63 -2.22,-29.08l-20.44 -12.12c7.88,-14.5 20.57,-30.65 17.7,-45.33 -10.29,15.52 -1.43,8.56 -10.41,7.56l-1.15 -14.63c-3.77,-14.49 2.55,-1.45 -6.5,-13.27l19.78 -35.16c-12.2,-12.8 0.8,1.72 -7.3,-10.2 -18.32,-26.94 -35.26,-38.18 0.77,-54.99 20.93,10.63 14.57,12.51 32.21,25.58 13.59,10.06 21.57,18.38 34.3,25.04l15.73 -42.22c-18.59,-9.83 -40.26,-13.73 -47.75,-25.48 0.41,-7.49 10.19,-25.17 17.93,-31.58 -33.53,-20.09 -25.26,-29.97 -58.13,-10.35 -2.17,-18.06 -14.06,-25.37 -3.66,-44.6l-17.95 -0.69 8.92 -16.18c17.99,1.33 15.54,11.55 31.87,-16.03 -7.69,0.98 -12.92,0.63 -20.81,6.72l-4.63 -2.63c0.12,-0.96 -0.15,-2.31 -0.15,-2.9l10.52 -31.71c-3.67,-8.48 12.64,0.55 -10.91,-12.72l30.6 -56.39c-27.07,-14.83 -7.41,-3.79 -23.72,-5.28l5.28 -54.65c0.19,-0.96 0.35,-2.06 0.63,-3.04 2.18,-7.93 2.87,-6.62 5.88,-13.32 10.34,-23.05 5.2,-15.41 3.22,-22.69 0.66,-12.28 1.47,-4.57 -7.81,-13.68 -4.06,-3.98 -5.97,-3.23 -10.89,-8.68 -7.27,-8.08 0.39,4.16 -4.44,-7.2l-6.76 -36.77c-4.71,-17.53 13.75,-9.42 -17.42,-27.85 15.39,-32.22 -4.62,-0.81 5.7,-26.86 2.86,-7.22 18.76,-27.02 16.1,-34.93l-2.15 -6.35c-7.8,-24.6 5.19,-41.22 16.25,-63.98 -11.11,-10.43 -7.79,-12.28 -20.38,-21.33 8.48,-5.2 -0.95,-1.33 8.47,-8.24 6.81,-5.01 7.42,-4.18 14.35,-7.53 4.7,10.03 18.83,21.88 33.74,26.68 38.07,12.25 12.68,12.37 37.78,16.4 13.39,-10.7 11.8,-11.2 19.96,-29.89 -23.71,-14.55 -24.54,-6.48 -48.14,-20.39 2.19,-34.8 5.44,-14.81 24.65,-37.86 -53.72,-29.17 -63.9,-6.97 -80.31,-13.63 9.38,-17.4 14.74,-29.88 17.12,-48.88l0.42 -12.42c-0.07,-0.87 -0.4,-2.03 -0.5,-2.89 -3.31,-28.7 -0.48,14.29 -1.24,-8.42 -0.57,-17.07 2.1,-28.07 -5.62,-44.85 21.41,1.88 3.65,10.19 20.47,-4.28 -8.31,-7.55 -4.87,-6.65 8.94,-32.15l-24.06 -13.85 -13.63 19.27c2.39,-15 17.46,-33.71 19.78,-47.65l3.43 -27.95c1.2,-19.14 -8.49,-21.24 -12.24,-35.82l-0.09 -8.13c1.06,-5.55 1.83,-4.54 3.59,-9.6l5.17 -22.81c2.28,-9.24 7.2,-16.22 12.07,-24.82 -13.55,-2.38 -4.29,-0.35 -13.36,2.25 -24.93,7.17 8.07,4.52 -7.81,3.46l0.22 -26.54c-5.3,-55.58 -4.31,-29.37 7.15,-73.01 0.3,-1.15 0.4,-2.19 0.64,-3.31l2.05 -12.53c3.63,-17.25 10.39,-20.98 -9.95,-33.5 26.44,-47.1 -4.44,-25.77 17.44,-64.63 -21.84,-3.87 -2.44,-4.64 -19.3,6.85 -0.52,-5.75 -1.11,-8.33 -3.53,-13.59 7.98,-7.86 7.4,-2.2 11.84,-11.35 0.33,-0.69 0.75,-1.84 1,-2.57l5.44 -108.64 -16.11 -168.87c-0.34,-9.22 3.71,-22.81 -4.13,-28.58 -6.3,-4.64 -2.22,1.85 -11.17,-3.11 8.65,-17 17.44,-38.99 25.52,-50.33z"/>
    <path class="fil7" d="M1951.98 43.63l10.04 10.76c-3.3,15.71 -2.21,11.13 -13.67,22.47 47.77,16.58 22.17,45.14 -21.87,40.94 -10.81,-1.03 -33.99,-6.35 -45.04,-11.47 -24.48,-11.35 -18.69,-17.1 -4.24,-36.62 18.35,6.93 26.24,14.88 41.89,12.22 3.64,-21.46 -4.74,4.36 -5.27,-21.12 -0.17,-8.01 -2.05,-5.44 4.04,-12.53 15.17,-17.68 2.01,-4.44 12.78,-7.28l13.47 5.47 4.73 -5.61c2.52,-13.41 -3.64,15.76 2.29,-8.27 2.83,-11.48 -0.48,-15.11 3.91,-5.83 15.13,-5.89 14.09,0.54 41.64,23.62 18.03,15.1 -2.72,6.67 16.95,26.93 25.56,26.33 9.76,-5.09 18.87,33.67 0.24,1.02 -0.19,2.48 1.18,3.9 1.43,1.48 0.81,2.7 1.32,4.01 7.39,-16.45 10.72,-26.34 -1,-39.25 -22.65,-24.96 -13.5,-0.37 -16.97,-30.28 -112.13,-74.4 -53.14,-12.78 -139,-43.61 -20.26,-7.28 -7.13,-7.58 -19.89,-1.27 -5.57,16.83 -5.5,5.33 2.62,17.6l8.03 -11.75 44.98 19.08c-10.74,6.31 1.65,4.09 -14.43,4.52 -0.24,0 -9.27,-2.34 -10.26,-2.54l-5.32 33.91 -17.29 -10.68 -12.5 20.17c13.17,26.74 -15.34,16.82 30.41,43.59 0.95,12.74 -5.69,11.94 4.22,37.18 0.32,0.81 0.71,1.94 1.06,2.76 0.35,0.82 0.84,1.93 1.22,2.74 20.67,44.01 -5,9.92 -4.72,81.31 0,0.91 0.03,2.09 0.04,2.99l0.06 23.85c-0.5,16.83 -2.5,17.91 4.57,34.72l6.52 13.91c10.55,8.96 96.54,29.56 88.59,-34.18 -3.92,-31.41 11.97,-45.78 1.92,-75.26 -0.28,-0.82 -0.85,-1.9 -1.16,-2.71l-3.46 -7.84c-4.67,-16.31 5.87,-30.78 15.56,-48.07l-5.29 -8.76c-23.8,-36.81 9.05,-21.56 -14.88,-56.29 -9.88,-14.35 -6.39,0.78 -6.06,-26.41l-0.14 -6.27c-0.02,-0.89 -0.43,-4.68 -0.46,-6.04 -11.88,-5.21 -5.84,-5.71 -19.98,-2.37z"/>
    <path class="fil7" d="M1913.4 339.92c-16.99,-0.9 -26.9,-0.42 -42.24,-2.52 -28.94,-3.96 -28.22,-6.13 -36.39,4.37 -14.84,19.1 5.16,28.47 -15.38,35.18 -5.07,1.66 -22.93,0.42 -32,0.89l-1.35 -8.75c-0.04,-0.81 -0.09,-2.06 -0.09,-2.91 0,-0.84 0.06,-2.04 0.1,-2.89 1.14,-21.95 9.48,-20.61 8.07,-42.5l-2.25 -8.03c-9.57,23.9 -53.1,192.9 -45.54,223.69l8.78 -17.54c7.85,13.01 0.8,7.54 12.44,15.17l-0.59 -17.04c-1.5,-13.81 18.12,-117.59 26.95,-132.13l28.86 12.65c17.38,6.8 63.8,14.54 79.93,10.11 -3.98,-5.94 -3.59,-6.8 -4.85,-9.96 -16.76,-42.24 0.63,-43.32 15.55,-57.79z"/>
   </g>
   <path class="fil8" d="M1909.22 420.42l0.59 -1.75 -15.33 4.97c-13.29,3.52 -29.67,5.75 -32.76,28.45 -0.1,0.76 -0.06,1.97 -0.12,2.75l-1.26 24.37c1.55,17.12 9.28,10.88 -0.76,35.57 3.04,3.88 2.49,2.37 3.91,3.07 8.09,4.01 -3.19,-4.37 2.32,0.46 -8.1,25.69 -17.96,29.17 3.96,36.9 29.9,10.55 43.61,23.14 89.06,16.09 16.44,-2.55 27.7,-10.9 44.39,-2.75 6.83,-10.15 12.57,-18.06 14.26,-30.64 1.34,-9.94 0.39,-6 0.28,-9.36 -0.6,-19.08 -5.35,-22.08 -15.11,-28.93 15.61,-29.19 6.12,-13.1 4.8,-30.94 -1.1,-14.89 3.06,-13.43 4.78,-28.11 -30.29,-17.85 -35.25,-14.89 -53.6,-13.56 -11.05,0.8 -37.33,-3.35 -49.41,-6.59z"/>
   <path class="fil9" d="M1969.05 760.93c-28.59,13.97 -59.82,-8.2 -76.71,23.85 20.66,22.72 49.96,19.89 74.76,11.72 12.12,-3.99 9.37,15.66 22.27,-22.05l-20.32 -13.53z"/>
  </g>
 </g>
</svg>
