<?xml version="1.0" encoding="UTF-8"?>
<!DOCTYPE svg PUBLIC "-//W3C//DTD SVG 1.0//EN" "http://www.w3.org/TR/2001/REC-SVG-20010904/DTD/svg10.dtd">
<!-- Creator: CorelDRAW 2018 (64-Bit) -->
<svg xmlns="http://www.w3.org/2000/svg" xml:space="preserve" width="3.93701in" height="3.93701in" version="1.0" style="shape-rendering:geometricPrecision; text-rendering:geometricPrecision; image-rendering:optimizeQuality; fill-rule:evenodd; clip-rule:evenodd"
viewBox="0 0 3937.01 3937.01"
 xmlns:xlink="http://www.w3.org/1999/xlink">
 <defs>
  <style type="text/css">
   <![CDATA[
    .fil2 {fill:#B20501}
    .fil0 {fill:#F7F7F7}
    .fil5 {fill:#FC1C01}
    .fil4 {fill:#FD6502}
    .fil1 {fill:#FDB709}
    .fil3 {fill:#FEFB03}
   ]]>
  </style>
 </defs>
 <g id="Layer_x0020_1">
  <metadata id="CorelCorpID_0Corel-Layer"/>
  <g id="_1978933168416">
   <g>
    <path class="fil0" d="M638.59 2093.13c14.12,-26.07 41.38,-93.62 45.54,-125.11l-124.28 -25.67c10.72,47.54 64.45,99.39 78.74,150.78z"/>
    <path class="fil0" d="M3535.04 1611.05l17.11 87.03 15.75 6.44c7.37,-56.18 86.28,-90.2 111,-129.14 -27.78,1.25 -129.68,19.19 -143.86,35.67z"/>
    <path class="fil0" d="M643.58 2325.74c47.67,-31.51 136.15,-54.43 144.66,-117.51l-29.13 -0.45 -13.22 -0.21 -33.95 1.36 -68.37 116.8z"/>
   </g>
   <g>
    <path class="fil1" d="M460.67 1929.77c2.07,25.33 -2.55,6.45 6.09,23.85l41.79 57.26c9.7,12.67 7.67,8.86 18.02,21.83l49.26 56.49c32.24,36.24 22.93,37.15 27.6,28.33 0.65,-1.22 2.44,2.93 3.98,6.02l26.3 -5.72 4.87 -24.69c-14.29,-51.39 -68.02,-103.25 -78.74,-150.78l124.28 25.67 32.53 -85.56c-34.69,2.65 -72.07,5.25 -104.88,7.1 -18.12,1.02 -40.21,2.31 -58.12,2.41 -26.55,0.16 -35.74,5.93 -39.1,-15.59 -25.85,13.08 -34.1,32.08 -53.88,53.38z"/>
    <path class="fil1" d="M2775.24 2116.24l6.62 39.78c136.06,50.22 233.58,-48.41 201.59,-201.24 -11.51,-20.06 -22.75,-33.09 -50.96,-42 -0.17,56.77 -8.32,110.43 -33.83,145.05 -30.52,41.42 -74.35,33.12 -128.89,23.46l5.47 34.95z"/>
    <path class="fil1" d="M72.11 1728.65l161.74 1.61c23.92,8.43 9.11,122.5 12.84,162.86 3.44,18.85 -5.02,5.64 11.88,10.9l68.74 -74.57c-9.06,-6.9 -13.81,-1.75 -15.01,-41.67 -2.78,-92.83 19.37,-114.8 -34.93,-118.24 -11.07,-0.7 -28.41,0.23 -40.17,0.3 -57.94,0.36 -108.08,-11.67 -165.08,58.8z"/>
    <path class="fil1" d="M426.96 1729.77c37.91,1.7 76.12,0.86 114.13,0.85 17.89,-0.01 35.61,-0.19 53.48,-0.39 24.55,-0.28 39.66,-6.7 43.07,10.52 17.49,-11.22 54.83,-44.28 59.91,-69.58 -52.37,-3.75 -110.2,-0.98 -163.32,-1.48 -41.11,-0.38 -41.25,-5.49 -66.97,17.18 -21.33,18.8 -28.25,21.72 -40.29,42.89z"/>
    <path class="fil1" d="M1625.56 2185.22c71.89,-0.86 23.43,-50.89 14.57,-56.48 -30.31,-19.12 -103.93,-12.87 -141.59,-9.19l0.04 65.37 126.97 0.29z"/>
    <path class="fil1" d="M1496.78 1961.72c27.45,-1.16 54.59,-1.17 81.83,-0.66 34.79,0.65 63.96,9.93 58.5,-26.03 -7.34,-48.33 -92.51,-43.28 -139.2,-35.21l-1.13 61.9z"/>
    <path class="fil1" d="M915.32 1929.31l77.33 -0.94c-1.85,-15.05 -8.81,-46.76 -14.14,-62.72 -16.06,-48.1 -12.15,-43.22 -27.78,-53.44l-35.41 117.11z"/>
   </g>
   <g>
    <path class="fil2" d="M3868.26 2166.47c22.9,-2.92 49.54,-14.85 68.74,-28.89l-2.26 -571.19 -228.81 -4.71c-24.91,31.54 -77.73,280.15 -92.5,334.2 -11.88,-18.09 -57.07,-162.22 -61.28,-197.81l-17.11 -87.03 -13.53 -51.06 -238.9 2 -2.34 579.06 146.24 -1.11 8.53 -414.35 112.33 415.7 126.83 -2.91 51.59 -198.98c16.47,13.3 22.02,5.96 20.46,59.46 -0.91,31.37 -8.33,144.41 5.9,158.58 13.13,17.62 89.12,4.45 116.12,9.03z"/>
    <path class="fil2" d="M1498.59 2184.93l-0.04 -65.37c37.65,-3.69 111.28,-9.94 141.59,9.19 8.86,5.59 57.31,55.62 -14.57,56.48l-126.97 -0.29zm-0.68 -285.11c46.69,-8.07 131.87,-13.12 139.2,35.21 5.46,35.96 -23.71,26.68 -58.5,26.03 -27.24,-0.51 -54.38,-0.5 -81.83,0.66l1.13 -61.9zm-102.88 460.78c340.84,-10.04 447.48,49.57 451.66,-256.05 1.72,-125.94 -25.98,-104.51 -31.1,-145.15 -2.43,-19.31 2.17,-29.78 -1.47,-53.52 -15.36,-104.71 -84.11,-129.36 -189.39,-128.65 -104.74,0.7 -213.78,-3.75 -317.74,-0.02l2.1 439.67c-4.49,39.04 -6.87,104.46 0.63,142.79l85.32 0.94z"/>
    <path class="fil2" d="M327.31 1829.45l-68.74 74.57c-11.8,27.24 -21.11,26.73 -41.48,48.57 -11.66,12.5 -31.26,30.2 -34.98,41.65l-1.32 -216.84 -177.61 -0.19 -0.37 580.31 177.91 0.16c-0.25,-59.02 -9.42,-124.11 12.84,-151.46 17.66,-21.7 54.13,-67.86 85.77,-85.33 9.62,32.2 32.61,51.99 37.98,83.17l79.74 151.39 215.07 3.89c-9.55,-43.15 -190.87,-321.83 -214.17,-360.85l62.74 -68.71c19.78,-21.3 28.03,-40.3 53.88,-53.38 18.35,-26.22 38.61,-40.06 63.65,-65.02 18.98,-18.91 45.93,-50.06 59.43,-70.62 -3.41,-17.22 -18.52,-10.8 -43.07,-10.52 -17.87,0.2 -35.59,0.38 -53.48,0.39 -38.01,0.01 -76.22,0.85 -114.13,-0.85 -27.12,17.39 -80.12,70.71 -99.65,99.68z"/>
    <path class="fil2" d="M2184.13 1827.63c170.89,-51.72 207.81,258.98 68.66,303.2 -54.93,17.46 -149.56,-19.3 -157.7,-111.95 -7.94,-90.31 4.19,-165.57 89.05,-191.25zm280.01 352.49c43.33,-76.57 63.97,-157.18 45.06,-267.33 -23.96,-285.35 -533.97,-329.1 -588.74,-0.14 -47,282.34 152.15,413.96 386.12,365.32 84.75,-17.62 117.05,-53.46 157.56,-97.85z"/>
    <path class="fil2" d="M2932.48 1912.78c28.21,8.91 39.45,21.94 50.96,42 50.37,39.53 29.46,206.63 -7.5,245.72 -54.44,57.55 -178.15,38.7 -194.08,-44.48l-6.62 -39.78c-20.37,-34.11 0.24,-133.84 19.85,-162.67 22.64,-33.29 78,-66.85 137.39,-40.79zm82.63 438.98c37.12,-13.83 63.29,-29.86 87.82,-50.67 30.44,-25.83 34.19,-42.78 60.76,-76.31 16.45,-91.95 32.61,-137.49 17.91,-239.72 -7.83,-54.46 -18.77,-52.5 -38.72,-91.5 -84.09,-164.4 -353.89,-155.43 -466.62,-59.18 -111.26,95 -103.9,308.32 -44.87,406.45 66.52,110.57 214.6,158.75 383.72,110.94z"/>
    <path class="fil2" d="M950.73 1812.2c15.62,10.22 11.72,5.34 27.78,53.44 5.33,15.96 12.3,47.67 14.14,62.72l-77.33 0.94 35.41 -117.11zm-132.71 -193.61l-42.91 113.57 -54.83 4.5 43.96 24.31c-4.98,23.62 -35.3,105.39 -47.58,121.49l-32.53 85.56c-4.15,31.49 -31.42,99.04 -45.54,125.11l-4.87 24.69 -8.76 32.98c48.39,17.44 116.87,10.51 173.8,10.35 12.82,-2.46 44.7,-65.4 53.96,-82.76l187.61 -10.31 22.38 86.38 184.24 0.26c-1.83,-64.16 -78.11,-229.33 -105.44,-301.14l-108.7 -281.87 -193.76 -0.37 -21.03 47.26z"/>
   </g>
   <g>
    <path class="fil3" d="M1814.12 1905.87c3.64,23.75 -0.96,34.22 1.47,53.52 5.11,40.64 32.82,19.21 31.1,145.15 -4.18,305.63 -110.81,246.02 -451.66,256.05 -37,81.43 -229.29,252.33 -297.24,330.47l244.22 -155.54c43.5,-24.8 85.67,-48.44 138.1,-66.76 83.74,-29.26 108.87,-18.43 106.04,71.43 27.14,-21.75 48.31,-69.55 95.74,-62.8 47.67,75.57 -4.94,233.31 -2.36,318.89 31.65,-66.47 96.28,-285.48 149.96,-307.42 12.78,18.6 10.5,24.98 13.47,51.45 14.17,-22.73 9.69,-33.51 32.78,-44.62 42.19,36.44 56.65,259.99 61.96,334.95 15.77,-65.2 9.08,-241.2 56.97,-270.61 24.4,12.07 36.82,49.74 43.58,77.24l5.74 -84.49c26.82,6.09 22.92,5.61 36.69,27.44 9.31,14.76 14.95,26.49 23.09,42.85 15.09,30.28 25.42,52.97 39.47,85.94 12.9,30.27 72.29,161.42 71.65,177.9 -0.19,-86.06 -88.19,-300.7 -32.15,-382.64 46.53,-4.9 58.05,34 90.36,50.37 -3.88,-42.19 -14.3,-52.54 -0.5,-93.09 69.16,-24.54 229.1,125.59 280.44,174.81 25.52,24.47 59.24,48.76 80.3,73.16 -39.86,-59.98 -265.83,-297.8 -259.78,-377.88 27.87,-4.07 41.2,6.22 64.68,11.48 -12.93,-30.92 -69.01,-84.93 -19.37,-92.47 57.48,-8.73 207.49,84.25 259.84,101.86 -25.07,-13.08 -83.89,-63.04 -108.79,-83.25 -30.09,-24.43 -89.26,-83.74 -105.79,-89.16 -40.51,44.39 -72.8,80.23 -157.56,97.85 -233.96,48.64 -433.12,-82.98 -386.12,-365.32 54.77,-328.96 564.77,-285.21 588.74,0.14 22.78,-4.58 32.63,-6.09 42.34,-26.28 -7.24,-16.73 -0.5,-4.69 -14.02,-15.15 -2.54,-1.97 -14.36,-7.71 -19.05,-11.28 19.64,-27.67 25.19,-13.32 47.65,-29.52 13.57,-9.79 41.14,-76.07 144.89,-112.43 42.32,-14.83 95.47,-22.87 149.42,-22.28 120.04,1.31 87.6,25.97 145.32,26.57 -31.97,-54.46 -148.07,-68.7 -228.83,-57.55 -97.45,13.45 -144.18,52.51 -186.2,109.09l-61.93 -10.87c4.84,-42 51.33,-50.88 80.89,-74.59 -40.33,2.57 -73.64,15.36 -109,-3.72 -9.94,-64.96 213.72,-216.71 216.89,-217.81 -57.38,18.49 -223.61,125.17 -282.48,117.87 0.54,-28.32 54.1,-76.66 72.59,-93.02 -27.2,8.82 -45.78,26.24 -83.54,17.03 -29.35,-63.26 160.87,-332.29 188.46,-379.11l-159.18 164.97c-26.45,27.09 -138.75,147.7 -191.44,139.78 -4.97,-34.91 5.51,-37.78 6.74,-66.15 -6.54,12.72 -132.53,175.15 -145.46,-5.08 -2.68,-37.31 -0.07,-76.93 0.42,-114.48 -1.37,1.54 -3.13,1.93 -3.72,4.94l-19.2 51.55c-13.08,54.43 -32.91,152.02 -81.43,159.04 -16.41,-27.07 -19.39,-51.68 -34.09,-69.2 -3.72,26.89 -1.83,52.13 -17.01,71.82 -24.41,-20.29 -33.46,-90.31 -40.53,-128.28 -4.74,-25.45 -8.89,-43.83 -13.62,-71.55 -1.96,-11.46 -3.98,-25.9 -6.68,-39.18 -8.29,-40.69 10.34,-3.73 -13.91,-37.99 -1.63,53.51 1.4,164.04 -30.97,199.13 -27.78,-7.05 -50.66,-60.28 -56.05,-87.58 -4.35,33.6 -4.31,57.31 -15.83,83.19 -44.2,1.41 -64.22,-34.57 -84.67,-61.77 -35.35,-47 -153.61,-237.64 -164.35,-272.67 8.33,55.2 137.51,331.91 93.2,376.6 -1.06,1.08 -0.94,24.83 -43.16,-9.24 -16.83,-13.59 -24.59,-21.79 -36.87,-31.19 7.76,27.57 21.82,54.72 3.81,83.87 -84.77,46.81 -370.92,-189.24 -434.94,-217.5 57.58,71.54 362.59,327.8 401.22,416.06l-168.99 2.22 -13.73 32.55 -216.35 -71.32c39.34,10.75 146.05,79 194.94,101.33 46.06,-34.68 35.72,-21.18 158.57,-21.06 93.7,0.09 237.91,-8.77 312.57,46.15 52.17,38.39 31.94,132.82 22.25,147.18z"/>
    <path class="fil3" d="M2184.13 1827.63c-84.86,25.69 -96.99,100.94 -89.05,191.25 8.14,92.65 102.78,129.41 157.7,111.95 139.15,-44.22 102.24,-354.93 -68.66,-303.2z"/>
   </g>
   <g>
    <path class="fil4" d="M643.58 2325.74l68.37 -116.8 33.95 -1.36 13.22 0.21 29.13 0.45c-8.51,63.08 -96.99,86 -144.66,117.51zm1865.61 -412.95c18.91,110.15 -1.74,190.76 -45.06,267.33 16.53,5.41 75.7,64.73 105.79,89.16 24.9,20.21 83.72,70.17 108.79,83.25 -52.35,-17.61 -202.36,-110.59 -259.84,-101.86 -49.64,7.54 6.44,61.55 19.37,92.47 -23.48,-5.26 -36.81,-15.56 -64.68,-11.48 -6.05,80.08 219.92,317.9 259.78,377.88 -21.06,-24.4 -54.78,-48.69 -80.3,-73.16 -51.34,-49.22 -211.28,-199.35 -280.44,-174.81 -13.8,40.54 -3.38,50.89 0.5,93.09 -32.31,-16.37 -43.83,-55.27 -90.36,-50.37 -56.04,81.94 31.96,296.58 32.15,382.64 0.64,-16.48 -58.75,-147.63 -71.65,-177.9 -14.05,-32.97 -24.39,-55.65 -39.47,-85.94 -8.15,-16.36 -13.78,-28.09 -23.09,-42.85 -13.77,-21.82 -9.86,-21.35 -36.69,-27.44l-5.74 84.49c-6.76,-27.51 -19.18,-65.18 -43.58,-77.24 -47.89,29.41 -41.2,205.41 -56.97,270.61 -5.31,-74.96 -19.76,-298.52 -61.96,-334.95 -23.09,11.11 -18.61,21.89 -32.78,44.62 -2.97,-26.46 -0.69,-32.85 -13.47,-51.45 -53.68,21.94 -118.31,240.95 -149.96,307.42 -2.58,-85.59 50.03,-243.32 2.36,-318.89 -47.43,-6.76 -68.6,41.05 -95.74,62.8 2.83,-89.87 -22.3,-100.69 -106.04,-71.43 -52.43,18.31 -94.61,41.96 -138.1,66.76l-244.22 155.54c67.95,-78.13 260.24,-249.04 297.24,-330.47l-85.32 -0.94c-7.5,-38.33 -5.12,-103.75 -0.63,-142.79l-2.1 -439.67c103.96,-3.73 213,0.72 317.74,0.02 105.28,-0.71 174.04,23.94 189.39,128.65 9.69,-14.35 29.93,-108.79 -22.25,-147.18 -74.65,-54.92 -218.87,-46.06 -312.57,-46.15 -122.85,-0.11 -112.52,-13.62 -158.57,21.06 -48.9,-22.33 -155.6,-90.58 -194.94,-101.33l216.35 71.32 13.73 -32.55 168.99 -2.22c-38.63,-88.26 -343.63,-344.52 -401.22,-416.06 64.03,28.26 350.17,264.31 434.94,217.5 18.01,-29.15 3.95,-56.3 -3.81,-83.87 12.28,9.39 20.03,17.6 36.87,31.19 42.22,34.07 42.1,10.32 43.16,9.24 44.31,-44.69 -84.87,-321.4 -93.2,-376.6 10.74,35.03 129,225.67 164.35,272.67 20.45,27.19 40.48,63.18 84.67,61.77 11.53,-25.89 11.48,-49.59 15.83,-83.19 5.39,27.3 28.27,80.53 56.05,87.58 32.37,-35.1 29.33,-145.63 30.97,-199.13 24.25,34.26 5.63,-2.7 13.91,37.99 2.7,13.28 4.72,27.72 6.68,39.18 4.73,27.72 8.88,46.1 13.62,71.55 7.07,37.97 16.12,107.99 40.53,128.28 15.17,-19.69 13.29,-44.93 17.01,-71.82 14.7,17.52 17.67,42.13 34.09,69.2 48.52,-7.02 68.35,-104.61 81.43,-159.04l19.2 -51.55c0.58,-3.01 2.35,-3.39 3.72,-4.94 -0.49,37.56 -3.1,77.17 -0.42,114.48 12.93,180.23 138.92,17.8 145.46,5.08 -1.23,28.37 -11.7,31.24 -6.74,66.15 52.69,7.92 164.99,-112.7 191.44,-139.78l159.18 -164.97c-27.59,46.81 -217.81,315.85 -188.46,379.11 37.76,9.21 56.33,-8.2 83.54,-17.03 -18.48,16.36 -72.05,64.7 -72.59,93.02 58.87,7.31 225.1,-99.37 282.48,-117.87 -3.17,1.09 -226.83,152.85 -216.89,217.81 35.37,19.08 68.68,6.29 109,3.72 -29.56,23.72 -76.05,32.59 -80.89,74.59l61.93 10.87c42.02,-56.58 88.74,-95.64 186.2,-109.09 80.76,-11.15 196.86,3.09 228.83,57.55 -57.72,-0.6 -25.28,-25.27 -145.32,-26.57 -53.95,-0.59 -107.1,7.45 -149.42,22.28 -103.75,36.35 -131.32,102.64 -144.89,112.43 -22.46,16.2 -28.01,1.85 -47.65,29.52 4.69,3.56 16.51,9.31 19.05,11.28 13.52,10.47 6.77,-1.57 14.02,15.15 -9.71,20.19 -19.56,21.69 -42.34,26.28zm-1691.18 -294.2l21.03 -47.26 193.76 0.37 108.7 281.87c27.33,71.81 103.61,236.98 105.44,301.14l-184.24 -0.26 -22.38 -86.38 -187.61 10.31c-9.26,17.36 -41.14,80.3 -53.96,82.76 -56.93,0.15 -125.41,7.09 -173.8,-10.35l8.76 -32.98 -26.3 5.72c-1.54,-3.09 -3.34,-7.24 -3.98,-6.02 -4.67,8.83 4.64,7.92 -27.6,-28.33l-49.26 -56.49c-10.35,-12.97 -8.31,-9.17 -18.02,-21.83l-41.79 -57.26c-8.64,-17.39 -4.02,1.48 -6.09,-23.85l-62.74 68.71c23.31,39.02 204.63,317.7 214.17,360.85l-215.07 -3.89c26.86,14.69 119.16,4.77 158.94,6.57 -58.2,52.63 -452.2,170.96 -553.31,215.39 74.55,-6.31 173.05,-35.08 256.15,-48.91 94.48,-15.72 182.76,-29.09 280.37,-36.63 460.76,-35.57 175.46,238.55 160.35,266.47 36.37,-8.11 66.02,-27.11 111.41,-18.07 16.46,84.58 -239.04,347.22 -299.68,404.82l-347.88 354.34c34.01,-13.73 98.89,-64.76 132.39,-87.47 188.83,-128 479.17,-324.44 690.66,-393.08 242.5,-78.69 215.22,51.49 208.93,161.94 45.89,-39.62 88.15,-118.09 149.28,-140.92 149.88,-55.97 83.97,387.15 73.51,457.15 -8.66,57.93 -36.48,199.54 -34.59,249.41 3.08,-23.25 55.78,-149.43 68.41,-182.5 31.34,-82.1 175.35,-494.59 258.57,-501.48 27.75,32.33 19.84,87.32 21.66,139.5 23.26,-41.87 24.81,-109.51 70.84,-126.08 82.38,2.81 128.65,654.66 135.28,737.94 6.89,-70.46 47.21,-846.99 177.5,-522.31 13.33,33.24 22.15,69.84 35.5,99.87 4.02,-63.38 -13.97,-147.15 16.19,-195.06 50.55,2.94 91.94,99.93 117.47,150.86 29.93,59.7 55.61,117.37 83.19,180.94 53.41,123.13 99.3,254.01 152.7,372.4 -2.04,-45.45 -30.9,-148.65 -42.3,-198.54 -25.36,-111.03 -121.38,-558.44 -29.45,-606.18 95.01,-12 153.33,91.68 198.14,124.82 -17.34,-99.22 -74.55,-286.08 104.74,-208.56 131.52,56.87 347.71,244.23 451.86,341.13l204.49 189.48 -307.1 -377.61c-35.92,-44.72 -288.42,-355.43 -249.4,-427.82 31.13,-31.73 118.46,25.13 147.9,33.96 -20.76,-52.84 -112.62,-120.51 -93.81,-199.29 114.99,-58.89 484.28,178.57 588.5,212.8 -43.85,-46.07 -478.21,-336.7 -479.34,-433.02 -169.12,47.81 -317.2,-0.37 -383.72,-110.94 -59.03,-98.13 -66.39,-311.45 44.87,-406.45 112.74,-96.26 382.54,-105.22 466.62,59.18 19.95,39.01 30.89,37.05 38.72,91.5 14.7,102.23 -1.46,147.77 -17.91,239.72 50.4,-2.77 14.9,-9.54 53.02,-16.14 19.79,-3.43 58.09,0.46 80.02,-0.2 51.69,-1.57 65.89,-35.46 116.45,-48.43l17.79 46.89c209,10.46 129.53,-34.37 227.7,-49.1l3.26 49.32c30.05,1.24 94.54,4 122.09,0.04 21.07,-3.03 71.9,-25.36 84.23,-40.67 -27,-4.58 -102.99,8.59 -116.12,-9.03 -14.22,-14.17 -6.81,-127.21 -5.9,-158.58 1.55,-53.5 -3.99,-46.16 -20.46,-59.46l-51.59 198.98 -126.83 2.91 -112.33 -415.7 -8.53 414.35 -146.24 1.11 2.34 -579.06c-45.7,1.88 -85.94,-6.47 -110.35,-32.27 2.43,-67.1 148.02,-114.75 201.46,-150.19 -80.61,-0.25 -192.44,51.75 -260.65,-3.09 -11.02,-65.15 57.16,-123.95 87.37,-153.98 42.56,-42.3 80.53,-74.11 125.33,-112.56l264.95 -204.38c-111.2,49.53 -447.5,242.53 -568.1,265.54 -145.26,27.72 101.76,-178.81 115.28,-203.19 -36.36,9.88 -134.15,81.64 -176.54,45.06 -112.88,-78.19 373.7,-751.73 399.1,-809.11 -110.97,120.66 -224.87,237.38 -345.26,357.7 -38.11,38.09 -320.82,333.07 -393.15,295.01 -30.45,-32.54 4.8,-101.02 13,-140.51 -43.38,26.51 -231.16,307.1 -292.99,96.23 -46.85,-159.77 3.9,-342.94 0.69,-496.69 -13.34,55.39 -173.38,871.86 -277.56,509.72 -5.52,-19.19 -27.16,-108.79 -26.29,-117.42 -8.28,61.02 -2.85,183.9 -37.67,218.61 -71.89,-30.5 -123.85,-553.71 -156.89,-658.18 -7.94,115.98 3.91,440.45 -67.75,493.56 -68.74,-7.24 -79.78,-137.8 -119.39,-185.09 -2.76,140.79 -19.86,248.99 -138.63,127.42 -115.34,-118.06 -268.47,-397.45 -356.74,-555.06 -19.11,-34.13 -43.74,-87.83 -64.43,-112.69 16.85,100.51 292.04,694.98 203.7,818.51 -69.76,6.76 -138.99,-79.24 -170.62,-109.21 7.54,47.26 53.12,121.59 21.67,172.9 -79.24,129.27 -616.6,-243.66 -702.95,-301.35l-251.83 -170.78 485.97 465.26c50.52,48.99 456.32,441.97 419.32,511.9 -38.79,26.65 -109.52,-19.84 -143.72,-30.16 29.55,21.65 107.96,70.36 109.06,115.08 -71.2,25.79 -365.72,-78.52 -441.78,-103.74l-411.95 -142.69c33.1,7 272.83,135.93 320.06,162.02 80.94,44.72 152.62,83.81 226.92,136.49 37.81,26.8 57.41,31.8 56.75,57.94z"/>
    <path class="fil4" d="M317.3 2204.06c-5.37,-31.17 -28.36,-50.97 -37.98,-83.17 -31.64,17.47 -68.11,63.63 -85.77,85.33 -22.26,27.35 -13.09,92.44 -12.84,151.46l-177.91 -0.16 0.37 -580.31 177.61 0.19 1.32 216.84c3.72,-11.44 23.32,-29.15 34.98,-41.65 20.37,-21.84 29.69,-21.33 41.48,-48.57 -16.9,-5.26 -8.44,7.94 -11.88,-10.9 -3.74,-40.37 11.07,-154.43 -12.84,-162.86l-161.74 -1.61c-20.58,9.3 -52.42,33.26 -72.11,52.15l2.56 578.23c37.74,3.93 77.62,1.42 115.74,1.71 59.33,0.46 58.83,7.73 87.69,-29.7 18.47,-23.96 88.39,-115.88 111.3,-126.98z"/>
    <path class="fil4" d="M3521.51 1559.99l13.53 51.06c14.19,-16.48 116.09,-34.42 143.86,-35.67 -24.72,38.93 -103.63,72.96 -111,129.14l-15.75 -6.44c4.2,35.59 49.39,179.72 61.28,197.81 14.77,-54.05 67.59,-302.66 92.5,-334.2l228.81 4.71c-22.09,-15.86 -129.09,-6.58 -165.28,-7.88 28.37,-21.7 36.02,-8.11 80.68,-28.8l-328.64 30.27z"/>
    <path class="fil4" d="M2775.24 2116.24l-5.47 -34.95c54.54,9.66 98.37,17.96 128.89,-23.46 25.51,-34.62 33.66,-88.28 33.83,-145.05 -59.39,-26.06 -114.75,7.5 -137.39,40.79 -19.61,28.83 -40.23,128.56 -19.85,162.67z"/>
   </g>
   <path class="fil5" d="M2781.86 2156.02c15.93,83.18 139.64,102.03 194.08,44.48 36.97,-39.08 57.87,-206.19 7.5,-245.72 32,152.83 -65.52,251.46 -201.59,201.24z"/>
  </g>
 </g>
</svg>
