<?xml version="1.0" encoding="UTF-8"?>
<!DOCTYPE svg PUBLIC "-//W3C//DTD SVG 1.0//EN" "http://www.w3.org/TR/2001/REC-SVG-20010904/DTD/svg10.dtd">
<!-- Creator: CorelDRAW 2018 (64-Bit) -->
<svg xmlns="http://www.w3.org/2000/svg" xml:space="preserve" width="3.93701in" height="3.93701in" version="1.0" style="shape-rendering:geometricPrecision; text-rendering:geometricPrecision; image-rendering:optimizeQuality; fill-rule:evenodd; clip-rule:evenodd"
viewBox="0 0 3937.01 3937.01"
 xmlns:xlink="http://www.w3.org/1999/xlink">
 <defs>
  <style type="text/css">
   <![CDATA[
    .fil1 {fill:#00A0E3}
    .fil0 {fill:#393185}
    .fil2 {fill:#111214}
   ]]>
  </style>
 </defs>
 <g id="Layer_x0020_1">
  <metadata id="CorelCorpID_0Corel-Layer"/>
  <path class="fil0" d="M1665.38 1968.33c25.57,-45.44 23.32,-128.68 1.3,-175.91 -8.67,2.48 -17.73,-4.95 -24.38,36.38 -5.11,31.72 -13.54,128.3 23.08,139.54zm294.81 864.83c-2.22,-56.44 -8.48,-334 4.42,-368.21 -30.15,10.11 -70.59,4.43 -103.74,4.65 2.35,23.2 14.33,44.5 21.44,63.24 1.04,2.74 1.98,5.28 2.81,8.11l27.55 233.03c0.56,76.8 -10.53,45.39 47.52,59.19zm9.07 179.47l0 308.63c-0,17.3 -0.67,34.98 -0.65,52.06 0.03,24.02 5.51,20.69 16.13,30.52l0 175.5 -25.81 15.48c0,23.79 3.11,50.04 -4.77,71.51 -5.4,29.36 -2.14,101.46 -2.69,140.19 -0.29,20.48 -2.61,34.48 7.49,47.48l15.48 0.53c13.81,-18.38 7.48,-51.72 7.45,-73.89 -0.03,-25.9 0.06,-51.77 -0.17,-77.67 -0.46,-54.61 5.7,-26.58 15.42,-59.5 5.31,-18 3.06,-48.6 7.94,-70.02 80.26,-14.24 287.08,13.89 348.42,-6.91 5.98,-26.85 10.41,-110.85 -5.8,-132.93 -24.07,-32.8 -270.19,-79.38 -327.78,-105.62l19.27 -317.09c-14.67,7.08 -18.18,5.85 -39.14,5.63 -14.91,-0.16 -20.19,0.36 -30.81,-3.91zm-2.28 -1923.89c5.16,24.57 2.29,54.06 2.28,80.12 -0.01,13.97 -0.26,27.96 -0.3,41.89 -0.09,34.56 -2.68,34.48 30.96,35.78 41.22,1.6 55.94,8.11 91.36,19.67 36,11.75 75.21,23.63 82.58,68.27 2.94,17.8 5.38,35.26 7.41,52.6 13.97,-1.52 25.45,-2.49 46.52,-4.28 52.35,-4.45 3.69,15.86 61.95,-10.46 39.39,10.96 45.3,5 87.7,7.12 25.21,29.61 11.37,0.21 18.78,40.76 0.81,4.46 1.33,13.47 1.64,26.04 2.72,-1.91 5.59,-3.73 8.61,-5.42 -13.43,-35.03 7.79,-408.4 -7.22,-464.69l-26.72 -3.74c-23.41,34.69 -4.93,310.77 -10.87,381.48l-77.5 0.21 -58.99 -198.05c-8.28,-24.77 -65.29,-177.55 -73.96,-184.09 -24.54,-2.89 -27.86,-9.18 -48.19,-17.8 -3.15,-1.33 -43.6,-11.2 -15.04,-12.38 0,49.93 14.73,60.87 26.62,131.89 3.57,21.33 7.85,11.76 9.51,43.55 -36.7,-1.88 -16.27,-4.15 -43.12,-10.32 -48.62,-11.19 -102.81,-15.29 -114,-18.16zm66.47 461.6c-21.73,-1.23 -35.37,-4.7 -64.19,-4.7l0 294.27c24.02,0 64.95,4.55 59.59,27.02l3.14 -10.87c6.4,0.4 10.8,0.48 14.07,0.62 -2.06,-79.09 -3.63,-182.37 10.02,-207.44 -2.08,-45.39 -9.09,-20.09 -19.28,-63.28 -4.39,-18.61 -3.96,-23.15 -3.35,-35.61zm14.19 368.02c-4.02,0.59 -8.24,1.41 -12.56,2.74 2.08,14.11 25.26,47.13 -0.33,96.16 29.05,21.11 -6.06,-4.22 37.02,9.25l10.76 29.83c-31.28,20.72 -8.27,24.4 -50.6,30.74l-3.74 -10.65c9.23,29.04 -41.92,10.76 -53.76,26.66 -18,18 9.07,305.8 -9.81,361.85 31.36,-11.89 77.78,-4.55 113.07,-5.02 7.15,-29.56 23.2,-45.54 35.94,-71.67l42.59 -101.69c1.83,-5.24 7.58,-17.59 8.42,-21.89 4.56,-23.3 -28.91,-44.83 -44.05,-59.94 -6.89,-6.89 -8.57,-7.9 -14.56,-16.45 -0.91,-1.3 -5.52,-8.82 -6.33,-10.31 -0.71,-1.32 -1.39,-2.82 -2.02,-4.06l43.37 -58.71c14.27,-13.62 6.38,-8.96 24.38,-16.37l84.5 74.04c18.91,18.35 3.5,1.44 13.28,19.96 19.07,36.14 8.4,-9.56 34.15,31.46 -0.67,-13.47 11.24,-66.75 13.06,-90.02 2.8,-35.65 0.51,-71.4 1.95,-107.13l49.73 -2.15 0.33 217.93c0.13,28.02 4.38,42.48 34.95,35.21 15.48,-36.97 5.41,-562.43 6.11,-652.5 -2.13,2.64 -4.38,5.16 -6.72,7.56 -1.81,149.47 -3.33,329.8 9.26,378.22l-39.67 9.63c-97.52,-56.59 -219.74,-53.24 -318.67,-77.71 0.19,-5.89 0.13,-14.45 -0.06,-24.96zm-84.27 -998.31c11.56,39.57 4.26,123.95 3.62,168.69 11.19,2.87 65.38,6.98 114,18.16 26.85,6.17 6.42,8.44 43.12,10.32 -1.65,-31.79 -5.94,-22.22 -9.51,-43.55 -11.24,-67.18 -25.04,-80.61 -26.5,-124.11 -0.08,-2.49 -0.13,-5.07 -0.13,-7.78 -17.12,0.71 -9.44,4.54 0.13,7.78 6.4,2.17 13.65,4.07 14.91,4.6 20.32,8.62 23.64,14.91 48.19,17.8 -10.96,-32.92 -23.94,-54.38 -44.24,-74.98 -11.7,-11.87 -47.48,-45.51 -70.77,-43l-21.7 -4.37c20.3,18.22 48.78,41.17 58.46,82.47 -38.59,-2.57 -61.54,-14.83 -109.58,-12.03zm-185.82 380.17c15.08,-2.49 15.76,-5.85 29.97,-12.33 17.59,-13.19 85.01,-35.72 103.52,-38.27l54.51 -1.33c5.43,21.78 51.2,106.26 87.94,172.83 33.8,-26.54 62.96,-26.43 113.75,-32.45 5.15,-0.61 9.71,-1.13 14.02,-1.59 -2.02,-17.34 -4.46,-34.8 -7.41,-52.6 -7.37,-44.64 -46.58,-56.52 -82.58,-68.27 -35.42,-11.56 -50.14,-18.07 -91.36,-19.67 -33.63,-1.3 -31.05,-1.23 -30.96,-35.78 0.04,-13.93 0.29,-27.92 0.3,-41.89 0.01,-26.07 2.88,-55.56 -2.28,-80.12 -60.49,-5.13 -122.13,34.22 -143.73,63.13 -26.05,34.86 -64.48,128.45 -45.71,148.35zm160.41 241.77c-43.49,-5.41 -82.48,17 -119.73,24.46 -9.17,-18.42 -57.52,-98.88 -58.72,-117.06 -31.5,36.25 17.41,172.94 -49.08,187.35 10.8,20.67 39.01,42.04 62.8,68.87 9.59,10.81 19.85,18.26 29.52,32.1 9.31,13.33 14.53,25.2 27.31,35.06 -19.11,12 -16.72,10.23 -20.75,36.11 21.11,14.14 12.25,16.69 33.51,14.81 22.11,-1.95 -3.74,-5.7 28.17,10.11 -9.44,15.46 -6.08,4.41 -10.33,22.73 9.23,4.06 8.56,4.96 16.92,5.89l14.41 -0.01c27.11,5.13 9.11,24.31 15.39,44.54 33.09,8.51 25.63,-7.39 56.85,-11.04 34.12,-3.98 31.15,15.39 60.36,9.62 11.06,-36.85 -9.01,-7.58 4.27,-38.61 5.36,-22.46 -35.57,-27.02 -59.59,-27.02l0 -294.27c28.82,0 42.46,3.47 64.19,4.7 0.2,-4.17 0.43,-9.24 0.49,-16.01 0.09,-9.45 -0.22,-17.62 -0.55,-25.14 -18.93,-38.11 -48.15,-81.2 -61.35,-111.77 -5.01,6.44 -3.35,2.56 -5.27,14.48l-0.11 125.08 -28.71 5.02zm-77.46 574.59c15.7,-1.04 8.27,-6.22 10.37,21.92 6.46,86.58 13.16,111.65 72.62,165.5 -66.71,-3.24 -138.98,-65.52 -132.25,-106.69 -16.13,9.3 -21.3,19.17 -31.72,30.86l-28.04 30.02c15.95,5.8 10.68,2.97 17.36,25.11 31.59,104.68 73.16,145.95 78.94,179.61 -19.9,2.23 -39.26,-3.17 -51.77,6.87 4.58,28.33 46.14,58.08 68.24,171.67 9.97,51.24 49.27,628.96 48.27,689.54 -68.81,13.59 -153.98,42.07 -222.56,62.04 -102.3,29.77 -121.4,8.27 -115.93,140.26 0.9,21.7 -2.78,17.04 8.81,30.23 22.76,17.74 291.34,5.9 344.33,7.27 9.13,47.42 -5.34,71.6 26.98,95.56 7.88,-21.47 4.77,-47.72 4.77,-71.51l25.81 -15.48 0 -175.5c-10.62,-9.84 -16.1,-6.5 -16.13,-30.52 -0.02,-17.08 0.64,-34.76 0.65,-52.06l0 -308.63 -48.48 -4.49 -4.6 -106.24 98.79 -5.15 0.72 -59.39 -55.5 -4.21c-58.04,-13.8 -46.96,17.61 -47.52,-59.19l-27.55 -233.03c-0.83,-2.82 -1.78,-5.36 -2.81,-8.11 -7.11,-18.74 -19.09,-40.04 -21.44,-63.24 33.15,-0.22 73.59,5.46 103.74,-4.65 18.88,-56.06 -8.19,-343.85 9.81,-361.85 11.84,-15.9 62.99,2.38 53.76,-26.66 -14.69,-31.73 6.06,-2.66 -4.34,-38.11 -26.37,-6.99 -23.7,8.4 -54.52,7.15 -29.13,-1.18 -28.69,-13 -60.41,-12.87 -15.07,31.01 5.72,11.42 -13.52,48.69 -13.85,-1.08 -18.05,-5.15 -32.09,-0.88 -12.79,37.11 16.55,-1.18 -2.81,36.17zm-49.26 80.73c-6.73,41.18 65.54,103.45 132.25,106.69 -59.46,-53.85 -66.15,-78.92 -72.62,-165.5 -2.1,-28.14 5.33,-22.96 -10.37,-21.92 -27.33,12.07 -24.55,-10.62 -47.59,22.67 8.13,21.51 9.72,9.85 19.81,31.72l-21.48 26.35zm-134.69 139.06c19.07,6.57 4.74,-6.15 31.73,32.94l87.74 100.47c12.51,-10.04 31.87,-4.64 51.77,-6.87 -5.78,-33.65 -47.35,-74.93 -78.94,-179.61 -6.69,-22.14 -1.41,-19.31 -17.36,-25.11l-37.42 38.75c-6.56,7.6 -10.01,12.11 -16.61,19.04l-14.1 13.79c-0.8,0.78 -2.76,4.25 -3.35,3.26 -0.61,-1.01 -2.35,2.18 -3.45,3.33zm-11.16 -368.05c-36.63,-11.24 -28.19,-107.81 -23.08,-139.54 6.65,-41.33 15.71,-33.9 24.38,-36.38 22.02,47.24 24.27,130.47 -1.3,175.91zm-32.37 259.76l29.37 -26.52c-17.81,0.71 -18.61,-13.39 -21.14,-33.82 -4.08,-32.89 -10.61,-111.03 18.35,-133.26 37.16,22.28 25.92,114.88 15.17,153.26 1.15,-0.83 2.8,-3.61 3.32,-2.64 0.52,0.96 2.56,-2.02 3.27,-2.61 35.03,-29.41 67.26,-71.31 86.64,-81.22 19.2,9.42 12.38,14.51 24.3,16.84 13.57,2.65 -4.43,10.34 8.11,-2l-1.46 -297.33 -30.94 21.6c-20.76,-15.62 -19.39,-21.3 -35.54,-37.13 -27.19,-26.66 -42.75,-32.67 -74.53,-69.85 -9.31,-10.89 -6.02,-10.39 -15.21,-20.56l-24.62 -17.46c9.19,59.65 3.73,221.27 1.21,288.23l-50.86 -0.13 2.27 -325.78c-10.74,-11.31 1.29,0.55 -12,-10.88l-23.96 -22.52c-0.75,-0.91 -1.69,-2.15 -2.41,-3.06l-7.5 -10.03c6.68,61.7 3.03,492.29 1.72,615.91 -0.41,38.37 -7.79,61.15 35.25,51.37 15.1,-33.14 4.85,-199.14 6.64,-251.87l50.8 -1.42c1.31,35.55 -0.99,71.05 1.86,105.97 2.53,30.98 13.01,71.26 11.9,96.9zm144.24 -1252.54c-45.15,102.12 -106.29,268.86 -128.11,378.69l-80.35 -0.45c-5.42,-85.24 11.21,-320.19 -5.03,-378.09l-27.27 -3.22c-22.06,33.71 -9.84,164.56 -9.84,217.04 0,75.7 0.14,151.41 -0.03,227.11 -1.22,33.2 1.98,6.44 -11.54,15.34l14.85 11.54c26.63,19.13 18.19,18.26 37.74,36.31l0.39 -82.94 72.61 -1.45c-3.35,33.83 -15.61,68.12 -11.13,102.06l2.72 12.58c9.91,-59.4 46.81,-111.98 77.65,-146.24 5.21,-19.23 14.94,-24.11 31.26,-36.03 6.55,-4.78 9.97,-7.08 18.43,-12.76 16.07,-10.79 4.51,5.59 17.94,-14.81 -18.77,-19.9 19.67,-113.49 45.71,-148.35 21.6,-28.91 83.24,-68.26 143.73,-63.13 0.65,-44.74 7.94,-129.11 -3.62,-168.69 -78,-3.1 -129.13,19.4 -186.11,55.49zm-114.87 1226.01l12.37 -13.82c10.76,-38.37 22,-130.98 -15.17,-153.26 -28.96,22.22 -22.43,100.37 -18.35,133.26 2.53,20.43 3.33,34.53 21.14,33.82zm-32.84 -704.07c-0.73,1.32 -1.16,3.19 -1.52,4.28l-12.2 33.18 49.15 51.74c15.54,17.01 28.96,36.34 45.45,50.07 66.48,-14.41 17.57,-151.09 49.08,-187.35 -10.16,-17.48 -7.15,-6.33 -19.48,-21.55 -7.09,-8.75 -6.16,-9.13 -11.72,-19.8 -8.77,-16.83 -14.81,-22.02 -18.4,-44.23 -30.84,34.26 -67.74,86.84 -77.65,146.24l-2.72 -12.58zm342.5 -100.07c13.2,30.57 42.42,73.66 61.35,111.77 -1.17,-26.41 -2.54,-44.76 12.82,-82 2.46,-2.16 4.88,-4.17 7.28,-6.06 -36.74,-66.57 -82.52,-151.05 -87.94,-172.83l-54.51 1.33c-7.93,2.86 -9.24,8.02 -13.56,12.15 6.65,18.52 25.13,50.87 34.25,68.05 11.69,22.04 30.52,45.2 40.33,67.59zm-8.68 -477.36c48.04,-2.8 70.99,9.46 109.58,12.03 -9.67,-41.31 -38.15,-64.25 -58.46,-82.47l21.7 4.37c-16.93,-16.94 -45.17,-17.7 -71.5,-17.8l-1.33 83.87zm-162.98 1196.06c17.97,-4.43 9.12,-19.9 16.43,-36.48 11.19,-25.37 15.55,-1.3 39.28,-12.54 7.76,-23.92 -14.28,-13.88 6.74,-33.96 22.6,-21.59 6.5,4.95 34.61,-7.17 7.96,-22.91 -6.5,-20.79 -7.65,-51.84 -1.13,-30.43 10.32,-31.35 11.77,-56.19 -26.87,-15.23 -18.09,8.41 -36.88,-9.65 -26.53,-25.5 16.94,-22.95 -15.61,-35.72 -19.78,-7.76 -29.04,6.46 -32.95,-21.41 -3.07,-21.87 8.47,-10.08 -17.2,-32.37l1.46 297.33zm7.12 -828.22c14.37,7.29 3.74,-1.88 14.61,12.78 11.59,15.62 102.49,201.96 126.7,230.7l-10.87 10.63 28.71 -5.02 0.11 -125.08c1.92,-11.91 0.26,-8.04 5.27,-14.48 -9.81,-22.39 -28.63,-45.56 -40.33,-67.59 -9.12,-17.18 -27.59,-49.54 -34.25,-68.05 4.32,-4.14 5.63,-9.3 13.56,-12.15 -18.51,2.55 -85.93,25.08 -103.52,38.27zm-239.84 191.92c4.74,11.84 38.27,44.38 48.15,55.13l12.2 -33.18c0.35,-1.09 0.78,-2.95 1.52,-4.28 -4.48,-33.94 7.78,-68.23 11.13,-102.06l-72.61 1.45 -0.39 82.94zm50.41 215.57c-17.48,-2.65 -30.34,-29.09 -47.38,-37.67l-2.27 325.78 50.86 0.13c2.52,-66.96 7.98,-228.58 -1.21,-288.23zm346.52 769.57c-12.9,34.2 -6.64,311.77 -4.42,368.21l55.5 4.21 -0.72 59.39 -98.79 5.15 4.6 106.24 48.48 4.49c10.61,4.27 15.9,3.75 30.81,3.91 20.96,0.23 24.47,1.46 39.14,-5.63 -0.26,-75.18 17.47,-339.33 35.32,-405.63 29.89,-111.02 73.65,-144.13 123.81,-205.99 11.18,-13.79 34.24,-48.39 47.15,-61.48 1.13,-1.46 2.42,-2.87 3.91,-4.22 4.62,-4.2 7.39,-10.15 10.89,-15.35l12.8 -23.35 0 -2.07 1.11 0 7.85 -14.78c3.76,-7.8 2.81,-8.89 4.52,-17.29 2.64,-13.02 6.85,-18.07 8.01,-22.89l2.68 -11.32c0.19,-0.6 0.39,-1.2 0.61,-1.79l-0.51 -0.48c-25.75,-41.02 -15.08,4.68 -34.15,-31.46 -9.78,-18.53 5.62,-1.61 -13.28,-19.96l-84.5 -74.04c-18,7.41 -10.11,2.76 -24.38,16.37l-43.37 58.71c0.63,1.24 1.31,2.74 2.02,4.06 0.81,1.5 5.42,9.02 6.33,10.31 5.98,8.56 7.67,9.57 14.56,16.45 15.14,15.12 48.61,36.65 44.05,59.94 -0.84,4.3 -6.59,16.65 -8.42,21.89l-42.59 101.69c-12.74,26.12 -28.78,42.1 -35.94,71.67 -35.3,0.47 -81.71,-6.87 -113.07,5.02zm325.13 -1092.61c-58.27,26.32 -9.6,6.02 -61.95,10.46 -27.58,2.35 -38.72,3.3 -60.54,5.88 -54.39,6.44 -83.98,5.87 -121.03,38.51 -19.74,47.84 -11.84,64.51 -12.27,107.14 -0.27,27.02 -2.99,26.79 2.86,51.63 10.19,43.19 17.2,17.89 19.28,63.28 -20.33,37.31 -6.9,247.89 -8.39,294.1 98.94,24.47 221.15,21.12 318.67,77.71l39.67 -9.63c-21.46,-82.51 -1.94,-548 -9.83,-591.19 -7.41,-40.55 6.43,-11.15 -18.78,-40.76 -42.39,-2.13 -48.31,3.83 -87.7,-7.12zm-512.19 -72.11c-13.43,20.41 -1.86,4.02 -17.94,14.81 -8.46,5.68 -11.89,7.98 -18.43,12.76 -16.32,11.92 -26.05,16.8 -31.26,36.03 3.58,22.21 9.63,27.4 18.4,44.23 5.56,10.67 4.63,11.05 11.72,19.8 12.33,15.22 9.32,4.07 19.48,21.55 1.19,18.17 49.54,98.63 58.72,117.06 37.25,-7.46 76.24,-29.87 119.73,-24.46l10.87 -10.63c-24.21,-28.73 -115.11,-215.08 -126.7,-230.7 -10.88,-14.66 -0.24,-5.49 -14.61,-12.78 -14.21,6.48 -14.89,9.85 -29.97,12.33zm-0.29 -324.68c56.99,-36.09 108.11,-58.59 186.11,-55.49l1.33 -83.87c-99.25,3.57 -160.96,60.6 -187.44,139.35z"/>
  <path class="fil0" d="M2177.91 2202.47c-17.43,-30.99 -15.91,-87.74 -0.89,-119.95 5.91,1.69 12.09,-3.37 16.62,24.81 3.49,21.63 9.24,87.48 -15.74,95.15zm-205.66 -599.76c-3.52,16.75 -1.56,36.86 -1.55,54.63 0,9.53 0.18,19.06 0.2,28.56 0.06,23.56 1.83,23.51 -21.11,24.4 -28.11,1.09 -38.15,5.53 -62.29,13.41 -24.55,8.01 -51.28,16.11 -56.31,46.55 -2,12.14 -3.67,24.04 -5.05,35.87 -9.53,-1.04 -17.35,-1.7 -31.72,-2.92 -35.7,-3.04 -2.51,10.81 -42.24,-7.13 -26.85,7.47 -30.89,3.41 -59.8,4.85 -17.19,20.19 -7.75,0.14 -12.8,27.79 -0.56,3.04 -0.91,9.19 -1.12,17.76 -1.86,-1.31 -3.81,-2.54 -5.87,-3.69 9.16,-23.88 -5.31,-278.48 4.92,-316.86l18.22 -2.55c15.96,23.65 3.36,211.91 7.41,260.12l52.85 0.14 40.22 -135.04c5.65,-16.89 44.52,-121.07 50.43,-125.53 16.74,-1.97 19,-6.25 32.86,-12.13 2.14,-0.91 29.73,-7.64 10.25,-8.44 0,34.04 -10.04,41.5 -18.15,89.93 -2.43,14.55 -5.35,8.02 -6.48,29.7 25.02,-1.28 11.09,-2.83 29.4,-7.04 33.16,-7.63 70.11,-10.43 77.74,-12.39zm-45.32 314.75c14.82,-0.84 24.12,-3.21 43.77,-3.21l0 200.65c-16.37,0 -44.29,3.11 -40.63,18.42l-2.14 -7.41c-4.36,0.27 -7.37,0.33 -9.6,0.42 1.41,-53.93 2.48,-124.35 -6.83,-141.44 1.42,-30.95 6.2,-13.7 13.15,-43.15 2.99,-12.69 2.7,-15.78 2.29,-24.28zm-9.67 250.94c2.74,0.4 5.62,0.96 8.56,1.87 -1.42,9.61 -17.22,32.14 0.23,65.56 -19.81,14.39 4.13,-2.88 -25.24,6.31l-7.33 20.34c21.32,14.13 5.64,16.63 34.5,20.96l2.55 -7.26c-6.29,19.8 28.59,7.33 36.67,18.17 5.77,5.77 4.75,52.2 3.38,103.76l-17.71 -5.35c-31.08,-8 -62.38,-15.83 -93.98,-21.33 3.23,-2.8 6.27,-5.4 8.65,-7.78 4.7,-4.69 5.85,-5.39 9.93,-11.22 0.62,-0.88 3.76,-6.01 4.31,-7.03 0.48,-0.9 0.94,-1.93 1.38,-2.77l-29.57 -40.03c-9.73,-9.29 -4.35,-6.11 -16.63,-11.17l-57.61 50.48c-12.89,12.52 -2.39,0.98 -9.06,13.62 -1.11,2.11 -2.08,3.81 -2.93,5.18l-22.68 -3.2c-2.37,-14.25 -5.81,-32.04 -6.58,-41.91 -1.91,-24.31 -0.35,-48.69 -1.33,-73.05l-33.91 -1.46 -0.16 102.21c-9.65,-5.85 -19.4,-11.37 -29.24,-16.61 -1.93,-117.06 1.51,-313.85 1.17,-357.91 1.45,1.8 2.98,3.52 4.58,5.16 1.24,101.92 2.27,224.88 -6.32,257.9l27.05 6.57c66.49,-38.59 149.83,-36.3 217.29,-52.99 -0.13,-4.02 -0.09,-9.85 0.04,-17.02zm57.46 -680.72c-7.88,26.98 -2.91,84.52 -2.47,115.02 -7.63,1.96 -44.58,4.76 -77.74,12.39 -18.31,4.21 -4.37,5.75 -29.4,7.04 1.13,-21.67 4.05,-15.15 6.48,-29.7 7.67,-45.81 17.07,-54.96 18.07,-84.63 0.06,-1.7 0.09,-3.46 0.09,-5.3 11.67,0.48 6.44,3.09 -0.09,5.3 -4.36,1.48 -9.31,2.78 -10.17,3.14 -13.86,5.88 -16.12,10.17 -32.86,12.13 7.47,-22.44 16.33,-37.08 30.17,-51.12 7.98,-8.09 32.37,-31.03 48.26,-29.32l14.8 -2.98c-13.84,12.43 -33.26,28.07 -39.86,56.24 26.31,-1.76 41.96,-10.11 74.72,-8.2zm126.7 259.23c-10.28,-1.7 -10.74,-3.99 -20.43,-8.41 -11.99,-8.99 -57.96,-24.36 -70.59,-26.09l-37.17 -0.9c-3.7,14.85 -34.91,72.45 -59.97,117.85 -23.05,-18.09 -42.93,-18.03 -77.56,-22.13 -3.52,-0.41 -6.62,-0.77 -9.56,-1.09 1.38,-11.82 3.05,-23.72 5.05,-35.87 5.03,-30.44 31.76,-38.54 56.31,-46.55 24.15,-7.88 34.19,-12.33 62.29,-13.41 22.94,-0.89 21.17,-0.84 21.11,-24.4 -0.03,-9.5 -0.2,-19.04 -0.2,-28.56 -0.01,-17.78 -1.96,-37.88 1.55,-54.63 41.24,-3.49 83.28,23.34 98,43.05 17.76,23.77 43.97,87.59 31.17,101.16zm-109.38 164.85c29.66,-3.69 56.24,11.59 81.64,16.68 6.26,-12.56 39.22,-67.42 40.04,-79.81 21.48,24.72 -11.87,117.92 33.46,127.74 -7.36,14.09 -26.6,28.67 -42.82,46.96 -6.54,7.37 -13.53,12.45 -20.13,21.89 -6.35,9.09 -9.91,17.18 -18.62,23.91 13.03,8.19 11.41,6.98 14.15,24.62 -14.4,9.64 -8.36,11.38 -22.85,10.09 -15.07,-1.33 2.56,-3.88 -19.21,6.9 6.44,10.54 4.15,3 7.05,15.5 -6.3,2.77 -5.83,3.39 -11.54,4.02l-9.83 -0.01c-18.48,3.5 -6.21,16.58 -10.5,30.37 -22.57,5.81 -17.47,-5.04 -38.76,-7.52 -23.27,-2.72 -21.24,10.5 -41.16,6.56 -7.54,-25.12 6.15,-5.17 -2.91,-26.33 -3.65,-15.31 24.26,-18.42 40.63,-18.42l0 -200.65c-19.65,0 -28.95,2.37 -43.77,3.21 -0.46,-9.45 -0.38,-18.61 0.04,-28.06 12.91,-25.99 32.83,-55.37 41.83,-76.21 3.42,4.39 2.28,1.74 3.59,9.87l0.07 85.29 19.57 3.43zm52.82 391.8c-10.71,-0.71 -5.64,-4.24 -7.07,14.94 -3.15,42.18 -6.39,62.94 -22.75,84.76 -2.57,0.86 -5.05,1.74 -7.37,2.64 -6.4,2.48 -5.47,1.83 -11.38,-0l-25.73 -7.78c1.37,-51.56 2.39,-97.99 -3.38,-103.76 -8.08,-10.84 -42.96,1.62 -36.67,-18.17 10.02,-21.64 -4.13,-1.81 2.96,-25.99 17.98,-4.77 16.16,5.73 37.18,4.87 19.86,-0.8 19.57,-8.87 41.19,-8.78 10.28,21.15 -3.9,7.78 9.22,33.2 9.45,-0.74 12.31,-3.52 21.89,-0.6 8.72,25.31 -11.28,-0.8 1.92,24.67zm23.78 84.03c7.39,-9.95 11.25,-20.18 9.81,-28.98 10.9,6.29 14.46,12.96 21.44,20.83 -11.01,2.61 -21.79,5.42 -31.26,8.15zm9.81 -28.98c1.44,8.81 -2.43,19.03 -9.81,28.98 -3.1,0.89 -6.07,1.78 -8.85,2.65 -13.82,4.3 -30.82,8.38 -44.75,13.02 16.37,-21.81 19.6,-42.58 22.75,-84.76 1.43,-19.19 -3.64,-15.65 7.07,-14.94 18.63,8.23 16.74,-7.24 32.45,15.45 -5.54,14.67 -6.63,6.72 -13.51,21.63l14.65 17.96zm99.45 -156.14c24.97,-7.66 19.22,-73.52 15.74,-95.15 -4.54,-28.18 -10.71,-23.12 -16.62,-24.81 -15.02,32.21 -16.55,88.96 0.89,119.95zm18.82 106.33c0.73,-23.67 -1.61,-51.05 -14.87,-61.22 -23.04,13.81 -18.8,67.28 -12.32,96.54l-2.89 4.07c-23.74,-20.04 -45.56,-48.34 -58.7,-55.07 -13.09,6.42 -8.44,9.9 -16.57,11.48 -9.25,1.8 3.02,7.05 -5.53,-1.37l1 -202.74 21.1 14.72c14.16,-10.65 13.22,-14.52 24.23,-25.31 18.54,-18.18 29.15,-22.28 50.82,-47.63 6.35,-7.43 4.1,-7.08 10.37,-14.02l16.79 -11.91c-6.27,40.68 -2.54,150.87 -0.83,196.54l34.69 -0.09 -1.55 -222.14c7.32,-7.71 -0.88,0.37 8.18,-7.42l16.34 -15.35c2.35,-2.83 4.55,-5.97 6.76,-8.92 -2.93,27.11 -2.94,158.73 -2.34,271.44 -8.9,8.76 -17.88,17.8 -27.26,27.22 0.04,-6 0.01,-11.23 -0.13,-15.41l-34.64 -0.96c-0.65,17.79 0.02,35.56 -0.35,53.17 -4.16,4.72 -8.26,9.51 -12.28,14.37zm-95.11 -783.28c30.79,69.63 72.48,183.33 87.36,258.21l54.79 -0.31c3.69,-58.12 -7.65,-218.33 3.43,-257.8l18.59 -2.2c15.04,22.98 6.71,112.2 6.71,147.99 0,51.62 -0.1,103.24 0.02,154.86 0.83,22.64 -1.35,4.39 7.86,10.46l-10.12 7.87c-18.16,13.05 -12.41,12.46 -25.73,24.76l-0.27 -56.55 -49.51 -0.99c2.29,23.07 10.64,46.45 7.59,69.59l-1.86 8.57c-6.75,-40.5 -31.92,-76.35 -52.95,-99.71 -3.55,-13.11 -10.19,-16.44 -21.31,-24.57 -4.46,-3.26 -6.8,-4.83 -12.57,-8.7 -10.96,-7.36 -3.07,3.81 -12.23,-10.1 12.8,-13.57 -13.41,-77.39 -31.17,-101.16 -14.73,-19.71 -56.76,-46.54 -98,-43.05 -0.44,-30.5 -5.41,-88.04 2.47,-115.02 53.19,-2.11 88.05,13.23 126.9,37.84zm67.92 818.59c-6.48,-29.26 -10.72,-82.72 12.32,-96.54 13.26,10.18 15.61,37.55 14.87,61.22 -9.49,11.45 -18.58,23.26 -27.19,35.31zm32.81 -462.69c0.5,0.9 0.79,2.17 1.03,2.91l8.32 22.63 -33.51 35.28c-10.59,11.6 -19.75,24.78 -30.99,34.14 -45.33,-9.82 -11.98,-103.02 -33.46,-127.74 6.93,-11.92 4.87,-4.31 13.28,-14.69 4.83,-5.97 4.2,-6.23 7.99,-13.5 5.98,-11.48 10.1,-15.01 12.54,-30.16 21.03,23.36 46.2,59.21 52.95,99.71l1.86 -8.57zm-233.54 -68.23c-9,20.85 -28.92,50.22 -41.83,76.21 0.8,-18.01 1.74,-30.52 -8.74,-55.91 -1.67,-1.47 -3.32,-2.85 -4.96,-4.13 25.06,-45.4 56.27,-103 59.97,-117.85l37.17 0.9c5.41,1.95 6.3,5.47 9.25,8.29 -4.54,12.63 -17.13,34.69 -23.35,46.4 -7.98,15.02 -20.81,30.82 -27.5,46.09zm5.92 -325.5c-32.76,-1.91 -48.41,6.45 -74.72,8.2 6.6,-28.17 26.02,-43.81 39.86,-56.24l-14.8 2.98c11.54,-11.55 30.8,-12.07 48.75,-12.13l0.91 57.19zm111.13 815.55c-12.25,-3.02 -6.22,-13.57 -11.2,-24.87 -7.62,-17.3 -10.6,-0.89 -26.78,-8.56 -5.3,-16.31 9.74,-9.46 -4.59,-23.15 -15.41,-14.72 -4.43,3.37 -23.6,-4.89 -5.43,-15.62 4.43,-14.17 5.22,-35.35 0.77,-20.74 -7.04,-21.37 -8.03,-38.32 18.32,-10.38 12.33,5.74 25.15,-6.58 18.09,-17.39 -11.56,-15.65 10.64,-24.36 13.49,-5.29 19.8,4.41 22.47,-14.6 2.09,-14.91 -5.78,-6.87 11.73,-22.07l-1 202.74zm-4.86 -564.74c-9.8,4.97 -2.55,-1.28 -9.96,8.72 -7.9,10.65 -69.89,137.71 -86.39,157.3l7.41 7.25 -19.57 -3.43 -0.07 -85.29c-1.31,-8.13 -0.18,-5.48 -3.59,-9.87 6.69,-15.27 19.52,-31.07 27.5,-46.09 6.22,-11.71 18.81,-33.78 23.35,-46.4 -2.94,-2.82 -3.84,-6.33 -9.25,-8.29 12.62,1.74 58.59,17.11 70.59,26.09zm163.54 130.87c-3.23,8.07 -26.09,30.26 -32.83,37.59l-8.32 -22.63c-0.24,-0.74 -0.53,-2.01 -1.03,-2.91 3.05,-23.14 -5.3,-46.53 -7.59,-69.59l49.51 0.99 0.27 56.55zm-34.37 146.99c11.92,-1.81 20.69,-19.83 32.31,-25.69l1.55 222.14 -34.69 0.09c-1.71,-45.66 -5.44,-155.86 0.83,-196.54zm-442.82 344.38c0.85,-1.37 1.81,-3.07 2.93,-5.18 6.67,-12.63 -3.83,-1.1 9.06,-13.62l57.61 -50.48c12.28,5.05 6.9,1.88 16.63,11.17l29.57 40.03c-0.43,0.85 -0.89,1.87 -1.38,2.77 -0.55,1.02 -3.7,6.15 -4.31,7.03 -4.08,5.83 -5.22,6.53 -9.93,11.22 -2.38,2.37 -5.41,4.98 -8.65,7.78 -12.85,-2.23 -25.74,-4.08 -38.69,-5.4l-52.85 -5.31zm-15.16 -564.65c39.73,17.94 6.55,4.1 42.24,7.13 18.8,1.6 26.4,2.25 41.28,4.01 37.09,4.39 57.26,4 82.52,26.26 13.46,32.62 8.07,43.99 8.37,73.06 0.19,18.42 2.04,18.26 -1.95,35.2 -6.94,29.45 -11.72,12.2 -13.15,43.15 13.87,25.44 4.71,169.03 5.72,200.54 -67.46,16.69 -150.8,14.4 -217.29,52.99l-27.05 -6.57c14.64,-56.26 1.32,-373.66 6.71,-403.12 5.05,-27.65 -4.39,-7.6 12.8,-27.79 28.91,-1.45 32.94,2.61 59.8,-4.85zm349.24 -49.17c9.16,13.91 1.27,2.74 12.23,10.1 5.77,3.87 8.1,5.44 12.57,8.7 11.13,8.13 17.76,11.45 21.31,24.57 -2.44,15.15 -6.56,18.68 -12.54,30.16 -3.79,7.27 -3.15,7.54 -7.99,13.5 -8.41,10.38 -6.35,2.77 -13.28,14.69 -0.81,12.39 -33.78,67.26 -40.04,79.81 -25.4,-5.08 -51.98,-20.37 -81.64,-16.68l-7.41 -7.25c16.51,-19.59 78.49,-146.65 86.39,-157.3 7.42,-10 0.17,-3.74 9.96,-8.72 9.69,4.42 10.15,6.72 20.43,8.41zm0.2 -221.39c-38.85,-24.61 -73.72,-39.95 -126.9,-37.84l-0.91 -57.19c67.67,2.44 109.75,41.32 127.81,95.02z"/>
  <path class="fil0" d="M2256.17 1968.33c-25.56,-45.44 -23.32,-128.68 -1.3,-175.91 8.67,2.48 17.73,-4.95 24.38,36.38 5.11,31.72 13.54,128.3 -23.08,139.54zm-294.81 864.83c2.22,-56.44 8.48,-334 -4.42,-368.21 30.15,10.11 70.59,4.43 103.74,4.65 -2.35,23.2 -14.34,44.5 -21.44,63.24 -1.04,2.74 -1.98,5.28 -2.82,8.11l-27.55 233.03c-0.56,76.8 10.53,45.39 -47.52,59.19zm-9.07 179.47l0 308.63c0,17.3 0.66,34.98 0.64,52.06 -0.03,24.02 -5.51,20.69 -16.13,30.52l0 175.5 25.81 15.48c0,23.79 -3.11,50.04 4.77,71.51 5.4,29.36 2.14,101.46 2.69,140.19 0.29,20.48 2.61,34.48 -7.49,47.48l-15.48 0.53c-13.81,-18.38 -7.48,-51.72 -7.45,-73.89 0.04,-25.9 -0.06,-51.77 0.17,-77.67 0.47,-54.61 -5.69,-26.58 -15.42,-59.5 -5.31,-18 -3.06,-48.6 -7.95,-70.02 -80.25,-14.24 -287.08,13.89 -348.42,-6.91 -5.98,-26.85 -10.41,-110.85 5.8,-132.93 24.08,-32.8 270.19,-79.38 327.78,-105.62l-19.27 -317.09c14.67,7.08 18.19,5.85 39.14,5.63 14.91,-0.16 20.2,0.36 30.81,-3.91zm2.28 -1923.89c-5.16,24.57 -2.29,54.06 -2.28,80.12 0.01,13.97 0.26,27.96 0.3,41.89 0.09,34.56 2.68,34.48 -30.96,35.78 -41.22,1.6 -55.94,8.11 -91.36,19.67 -36,11.75 -75.21,23.63 -82.58,68.27 -2.94,17.8 -5.38,35.26 -7.41,52.6 -13.97,-1.52 -25.44,-2.49 -46.51,-4.28 -52.35,-4.45 -3.69,15.86 -61.96,-10.46 -39.39,10.96 -45.3,5 -87.69,7.12 -25.21,29.61 -11.37,0.21 -18.78,40.76 -0.81,4.46 -1.33,13.47 -1.64,26.04 -2.73,-1.91 -5.59,-3.73 -8.61,-5.42 13.43,-35.03 -7.79,-408.4 7.22,-464.69l26.72 -3.74c23.41,34.69 4.93,310.77 10.87,381.48l77.5 0.21 58.98 -198.05c8.29,-24.77 65.29,-177.55 73.96,-184.09 24.54,-2.89 27.86,-9.18 48.19,-17.8 3.14,-1.33 43.59,-11.2 15.04,-12.38 0,49.93 -14.74,60.87 -26.63,131.89 -3.57,21.33 -7.85,11.76 -9.51,43.55 36.7,-1.88 16.27,-4.15 43.12,-10.32 48.63,-11.19 102.81,-15.29 114.01,-18.16zm-66.47 461.6c21.73,-1.23 35.37,-4.7 64.19,-4.7l0 294.27c-24.02,0 -64.95,4.55 -59.59,27.02l-3.14 -10.87c-6.4,0.4 -10.8,0.48 -14.07,0.62 2.06,-79.09 3.63,-182.37 -10.02,-207.44 2.08,-45.39 9.09,-20.09 19.28,-63.28 4.39,-18.61 3.96,-23.15 3.35,-35.61zm-14.19 368.02c4.02,0.59 8.24,1.41 12.56,2.74 -2.08,14.11 -25.26,47.13 0.33,96.16 -29.05,21.11 6.06,-4.22 -37.02,9.25l-10.76 29.83c31.28,20.72 8.27,24.4 50.6,30.74l3.74 -10.65c-9.23,29.04 41.92,10.76 53.77,26.66 18,18 -9.07,305.8 9.81,361.85 -31.36,-11.89 -77.78,-4.55 -113.07,-5.02 -7.15,-29.56 -23.2,-45.54 -35.93,-71.67l-42.59 -101.69c-1.84,-5.24 -7.58,-17.59 -8.43,-21.89 -4.56,-23.3 28.91,-44.83 44.05,-59.94 6.89,-6.89 8.58,-7.9 14.56,-16.45 0.91,-1.3 5.52,-8.82 6.33,-10.31 0.71,-1.32 1.38,-2.82 2.02,-4.06l-43.37 -58.71c-14.27,-13.62 -6.38,-8.96 -24.39,-16.37l-84.49 74.04c-18.91,18.35 -3.51,1.44 -13.29,19.96 -19.07,36.14 -8.4,-9.56 -34.15,31.46 0.67,-13.47 -11.23,-66.75 -13.06,-90.02 -2.8,-35.65 -0.51,-71.4 -1.95,-107.13l-49.73 -2.15 -0.33 217.93c-0.14,28.02 -4.38,42.48 -34.96,35.21 -15.48,-36.97 -5.41,-562.43 -6.11,-652.5 2.14,2.64 4.38,5.16 6.72,7.56 1.81,149.47 3.33,329.8 -9.27,378.22l39.67 9.63c97.52,-56.59 219.73,-53.24 318.67,-77.71 -0.19,-5.89 -0.13,-14.45 0.06,-24.96zm84.27 -998.31c-11.56,39.57 -4.26,123.95 -3.61,168.69 -11.19,2.87 -65.38,6.98 -114.01,18.16 -26.85,6.17 -6.42,8.44 -43.12,10.32 1.66,-31.79 5.94,-22.22 9.51,-43.55 11.25,-67.18 25.04,-80.61 26.5,-124.11 0.08,-2.49 0.13,-5.07 0.13,-7.78 17.12,0.71 9.44,4.54 -0.13,7.78 -6.4,2.17 -13.65,4.07 -14.91,4.6 -20.33,8.62 -23.65,14.91 -48.19,17.8 10.96,-32.92 23.94,-54.38 44.24,-74.98 11.7,-11.87 47.47,-45.51 70.77,-43l21.7 -4.37c-20.3,18.22 -48.78,41.17 -58.46,82.47 38.59,-2.57 61.54,-14.83 109.58,-12.03zm185.82 380.17c-15.08,-2.49 -15.76,-5.85 -29.97,-12.33 -17.59,-13.19 -85.01,-35.72 -103.52,-38.27l-54.51 -1.33c-5.43,21.78 -51.2,106.26 -87.95,172.83 -33.8,-26.54 -62.96,-26.43 -113.75,-32.45 -5.15,-0.61 -9.7,-1.13 -14.02,-1.59 2.03,-17.34 4.47,-34.8 7.41,-52.6 7.37,-44.64 46.57,-56.52 82.58,-68.27 35.42,-11.56 50.14,-18.07 91.36,-19.67 33.63,-1.3 31.05,-1.23 30.96,-35.78 -0.04,-13.93 -0.29,-27.92 -0.3,-41.89 -0.02,-26.07 -2.88,-55.56 2.28,-80.12 60.48,-5.13 122.12,34.22 143.72,63.13 26.05,34.86 64.48,128.45 45.71,148.35zm-160.41 241.77c43.5,-5.41 82.49,17 119.73,24.46 9.17,-18.42 57.52,-98.88 58.72,-117.06 31.5,36.25 -17.41,172.94 49.08,187.35 -10.8,20.67 -39.01,42.04 -62.8,68.87 -9.59,10.81 -19.85,18.26 -29.52,32.1 -9.31,13.33 -14.53,25.2 -27.31,35.06 19.11,12 16.72,10.23 20.75,36.11 -21.11,14.14 -12.25,16.69 -33.51,14.81 -22.1,-1.95 3.75,-5.7 -28.17,10.11 9.44,15.46 6.08,4.41 10.34,22.73 -9.24,4.06 -8.56,4.96 -16.92,5.89l-14.41 -0.01c-27.11,5.13 -9.11,24.31 -15.4,44.54 -33.09,8.51 -25.63,-7.39 -56.85,-11.04 -34.12,-3.98 -31.15,15.39 -60.36,9.62 -11.06,-36.85 9.01,-7.58 -4.27,-38.61 -5.36,-22.46 35.57,-27.02 59.59,-27.02l-0 -294.27c-28.82,0 -42.46,3.47 -64.19,4.7 -0.2,-4.17 -0.43,-9.24 -0.49,-16.01 -0.09,-9.45 0.22,-17.62 0.55,-25.14 18.93,-38.11 48.15,-81.2 61.35,-111.77 5.01,6.44 3.35,2.56 5.28,14.48l0.11 125.08 28.71 5.02zm77.47 574.59c-15.7,-1.04 -8.27,-6.22 -10.37,21.92 -6.46,86.58 -13.16,111.65 -72.62,165.5 66.71,-3.24 138.98,-65.52 132.25,-106.69 16.13,9.3 21.3,19.17 31.72,30.86l28.04 30.02c-15.95,5.8 -10.68,2.97 -17.37,25.11 -31.59,104.68 -73.16,145.95 -78.94,179.61 19.89,2.23 39.26,-3.17 51.77,6.87 -4.58,28.33 -46.15,58.08 -68.24,171.67 -9.97,51.24 -49.27,628.96 -48.27,689.54 68.81,13.59 153.98,42.07 222.56,62.04 102.3,29.77 121.4,8.27 115.93,140.26 -0.9,21.7 2.77,17.04 -8.81,30.23 -22.76,17.74 -291.34,5.9 -344.34,7.27 -9.13,47.42 5.35,71.6 -26.98,95.56 -7.88,-21.47 -4.77,-47.72 -4.77,-71.51l-25.81 -15.48 0 -175.5c10.62,-9.84 16.1,-6.5 16.13,-30.52 0.02,-17.08 -0.64,-34.76 -0.64,-52.06l0 -308.63 48.47 -4.49 4.6 -106.24 -98.79 -5.15 -0.71 -59.39 55.5 -4.21c58.04,-13.8 46.96,17.61 47.52,-59.19l27.55 -233.03c0.84,-2.82 1.78,-5.36 2.82,-8.11 7.1,-18.74 19.09,-40.04 21.44,-63.24 -33.15,-0.22 -73.59,5.46 -103.74,-4.65 -18.88,-56.06 8.19,-343.85 -9.81,-361.85 -11.85,-15.9 -63,2.38 -53.77,-26.66 14.69,-31.73 -6.06,-2.66 4.34,-38.11 26.37,-6.99 23.7,8.4 54.52,7.15 29.13,-1.18 28.69,-13 60.41,-12.87 15.07,31.01 -5.72,11.42 13.52,48.69 13.85,-1.08 18.06,-5.15 32.1,-0.88 12.78,37.11 -16.55,-1.18 2.81,36.17zm49.26 80.73c6.74,41.18 -65.54,103.45 -132.25,106.69 59.46,-53.85 66.16,-78.92 72.62,-165.5 2.1,-28.14 -5.33,-22.96 10.37,-21.92 27.33,12.07 24.55,-10.62 47.58,22.67 -8.12,21.51 -9.72,9.85 -19.81,31.72l21.48 26.35zm134.7 139.06c-19.07,6.57 -4.74,-6.15 -31.73,32.94l-87.74 100.47c-12.51,-10.04 -31.87,-4.64 -51.77,-6.87 5.78,-33.65 47.35,-74.93 78.94,-179.61 6.69,-22.14 1.41,-19.31 17.37,-25.11l37.42 38.75c6.56,7.6 10.01,12.11 16.61,19.04l14.1 13.79c0.8,0.78 2.76,4.25 3.35,3.26 0.6,-1.01 2.35,2.18 3.45,3.33zm11.15 -368.05c36.63,-11.24 28.19,-107.81 23.08,-139.54 -6.65,-41.33 -15.71,-33.9 -24.38,-36.38 -22.02,47.24 -24.26,130.47 1.3,175.91zm32.37 259.76l-29.37 -26.52c17.81,0.71 18.61,-13.39 21.15,-33.82 4.07,-32.89 10.61,-111.03 -18.35,-133.26 -37.16,22.28 -25.92,114.88 -15.17,153.26 -1.15,-0.83 -2.8,-3.61 -3.32,-2.64 -0.52,0.96 -2.56,-2.02 -3.27,-2.61 -35.02,-29.41 -67.26,-71.31 -86.64,-81.22 -19.2,9.42 -12.38,14.51 -24.3,16.84 -13.57,2.65 4.43,10.34 -8.11,-2l1.46 -297.33 30.94 21.6c20.76,-15.62 19.4,-21.3 35.54,-37.13 27.19,-26.66 42.75,-32.67 74.53,-69.85 9.31,-10.89 6.02,-10.39 15.21,-20.56l24.61 -17.46c-9.19,59.65 -3.73,221.27 -1.21,288.23l50.86 -0.13 -2.27 -325.78c10.74,-11.31 -1.28,0.55 12,-10.88l23.96 -22.52c0.75,-0.91 1.69,-2.15 2.41,-3.06l7.5 -10.03c-6.68,61.7 -3.03,492.29 -1.72,615.91 0.41,38.37 7.79,61.15 -35.25,51.37 -15.1,-33.14 -4.85,-199.14 -6.64,-251.87l-50.8 -1.42c-1.31,35.55 0.98,71.05 -1.86,105.97 -2.53,30.98 -13.01,71.26 -11.9,96.9zm-144.24 -1252.54c45.15,102.12 106.29,268.86 128.11,378.69l80.36 -0.45c5.41,-85.24 -11.21,-320.19 5.02,-378.09l27.27 -3.22c22.06,33.71 9.84,164.56 9.84,217.04 0,75.7 -0.14,151.41 0.03,227.11 1.22,33.2 -1.98,6.44 11.53,15.34l-14.85 11.54c-26.63,19.13 -18.19,18.26 -37.73,36.31l-0.4 -82.94 -72.6 -1.45c3.35,33.83 15.61,68.12 11.13,102.06l-2.72 12.58c-9.91,-59.4 -46.81,-111.98 -77.65,-146.24 -5.21,-19.23 -14.94,-24.11 -31.26,-36.03 -6.55,-4.78 -9.97,-7.08 -18.43,-12.76 -16.07,-10.79 -4.51,5.59 -17.94,-14.81 18.77,-19.9 -19.67,-113.49 -45.71,-148.35 -21.6,-28.91 -83.24,-68.26 -143.72,-63.13 -0.65,-44.74 -7.94,-129.11 3.61,-168.69 78,-3.1 129.13,19.4 186.11,55.49zm114.87 1226.01l-12.37 -13.82c-10.76,-38.37 -22,-130.98 15.17,-153.26 28.96,22.22 22.43,100.37 18.35,133.26 -2.54,20.43 -3.33,34.53 -21.15,33.82zm32.85 -704.07c0.73,1.32 1.16,3.19 1.51,4.28l12.2 33.18 -49.15 51.74c-15.54,17.01 -28.96,36.34 -45.45,50.07 -66.48,-14.41 -17.57,-151.09 -49.08,-187.35 10.16,-17.48 7.15,-6.33 19.48,-21.55 7.09,-8.75 6.16,-9.13 11.71,-19.8 8.77,-16.83 14.81,-22.02 18.4,-44.23 30.84,34.26 67.75,86.84 77.65,146.24l2.72 -12.58zm-342.51 -100.07c-13.2,30.57 -42.42,73.66 -61.35,111.77 1.17,-26.41 2.54,-44.76 -12.82,-82 -2.46,-2.16 -4.87,-4.17 -7.28,-6.06 36.74,-66.57 82.52,-151.05 87.95,-172.83l54.51 1.33c7.93,2.86 9.25,8.02 13.56,12.15 -6.65,18.52 -25.13,50.87 -34.24,68.05 -11.7,22.04 -30.52,45.2 -40.33,67.59zm8.68 -477.36c-48.04,-2.8 -70.98,9.46 -109.58,12.03 9.68,-41.31 38.16,-64.25 58.46,-82.47l-21.7 4.37c16.93,-16.94 45.17,-17.7 71.5,-17.8l1.33 83.87zm162.98 1196.06c-17.97,-4.43 -9.12,-19.9 -16.43,-36.48 -11.18,-25.37 -15.55,-1.3 -39.28,-12.54 -7.76,-23.92 14.28,-13.88 -6.74,-33.96 -22.59,-21.59 -6.5,4.95 -34.61,-7.17 -7.96,-22.91 6.5,-20.79 7.65,-51.84 1.13,-30.43 -10.32,-31.35 -11.77,-56.19 26.87,-15.23 18.09,8.41 36.87,-9.65 26.53,-25.5 -16.94,-22.95 15.61,-35.72 19.78,-7.76 29.04,6.46 32.95,-21.41 3.07,-21.87 -8.47,-10.08 17.2,-32.37l-1.46 297.33zm-7.13 -828.22c-14.37,7.29 -3.74,-1.88 -14.61,12.78 -11.59,15.62 -102.49,201.96 -126.7,230.7l10.87 10.63 -28.71 -5.02 -0.11 -125.08c-1.93,-11.91 -0.26,-8.04 -5.28,-14.48 9.81,-22.39 28.63,-45.56 40.33,-67.59 9.11,-17.18 27.59,-49.54 34.24,-68.05 -4.31,-4.14 -5.63,-9.3 -13.56,-12.15 18.51,2.55 85.93,25.08 103.52,38.27zm239.84 191.92c-4.74,11.84 -38.27,44.38 -48.15,55.13l-12.2 -33.18c-0.35,-1.09 -0.78,-2.95 -1.51,-4.28 4.47,-33.94 -7.78,-68.23 -11.13,-102.06l72.6 1.45 0.4 82.94zm-50.42 215.57c17.49,-2.65 30.34,-29.09 47.38,-37.67l2.27 325.78 -50.86 0.13c-2.52,-66.96 -7.98,-228.58 1.21,-288.23zm-346.52 769.57c12.9,34.2 6.64,311.77 4.42,368.21l-55.5 4.21 0.71 59.39 98.79 5.15 -4.6 106.24 -48.47 4.49c-10.61,4.27 -15.91,3.75 -30.81,3.91 -20.96,0.23 -24.47,1.46 -39.14,-5.63 0.26,-75.18 -17.47,-339.33 -35.32,-405.63 -29.89,-111.02 -73.65,-144.13 -123.81,-205.99 -11.18,-13.79 -34.24,-48.39 -47.15,-61.48 -1.13,-1.46 -2.42,-2.87 -3.91,-4.22 -4.61,-4.2 -7.39,-10.15 -10.89,-15.35l-12.8 -23.35 0 -2.07 -1.1 0 -7.86 -14.78c-3.76,-7.8 -2.81,-8.89 -4.51,-17.29 -2.64,-13.02 -6.85,-18.07 -8.02,-22.89l-2.68 -11.32c-0.19,-0.6 -0.39,-1.2 -0.61,-1.79l0.51 -0.48c25.76,-41.02 15.08,4.68 34.15,-31.46 9.78,-18.53 -5.62,-1.61 13.29,-19.96l84.49 -74.04c18,7.41 10.11,2.76 24.39,16.37l43.37 58.71c-0.63,1.24 -1.31,2.74 -2.02,4.06 -0.81,1.5 -5.42,9.02 -6.33,10.31 -5.98,8.56 -7.67,9.57 -14.56,16.45 -15.14,15.12 -48.61,36.65 -44.05,59.94 0.84,4.3 6.59,16.65 8.43,21.89l42.59 101.69c12.73,26.12 28.78,42.1 35.93,71.67 35.3,0.47 81.71,-6.87 113.07,5.02zm-325.13 -1092.61c58.27,26.32 9.61,6.02 61.96,10.46 27.57,2.35 38.72,3.3 60.54,5.88 54.39,6.44 83.98,5.87 121.03,38.51 19.74,47.84 11.84,64.51 12.27,107.14 0.27,27.02 2.99,26.79 -2.86,51.63 -10.19,43.19 -17.19,17.89 -19.28,63.28 20.33,37.31 6.91,247.89 8.39,294.1 -98.94,24.47 -221.15,21.12 -318.67,77.71l-39.67 -9.63c21.46,-82.51 1.94,-548 9.83,-591.19 7.41,-40.55 -6.43,-11.15 18.78,-40.76 42.39,-2.13 48.31,3.83 87.69,-7.12zm512.19 -72.11c13.43,20.41 1.86,4.02 17.94,14.81 8.46,5.68 11.89,7.98 18.43,12.76 16.32,11.92 26.05,16.8 31.26,36.03 -3.58,22.21 -9.63,27.4 -18.4,44.23 -5.56,10.67 -4.62,11.05 -11.71,19.8 -12.33,15.22 -9.32,4.07 -19.48,21.55 -1.19,18.17 -49.54,98.63 -58.72,117.06 -37.24,-7.46 -76.24,-29.87 -119.73,-24.46l-10.87 -10.63c24.21,-28.73 115.11,-215.08 126.7,-230.7 10.88,-14.66 0.24,-5.49 14.61,-12.78 14.21,6.48 14.89,9.85 29.97,12.33zm0.29 -324.68c-56.99,-36.09 -108.11,-58.59 -186.11,-55.49l-1.33 -83.87c99.25,3.57 160.96,60.6 187.44,139.35z"/>
  <path class="fil1" d="M1967.27 1166.41c4.42,8.93 1.96,19.65 1.95,29.12 -0.01,5.08 -0.22,10.16 -0.26,15.22 -0.08,12.56 -2.3,12.53 26.52,13 35.32,0.58 47.93,2.95 78.28,7.15 30.85,4.27 64.44,8.59 70.76,24.81 2.52,6.47 4.61,12.81 6.35,19.12 11.97,-0.55 21.8,-0.91 39.85,-1.56 35.8,-1.29 16.48,3.15 32.6,0.13l0 73.32 -196.44 0c-4.73,-8.64 -2.46,-8.7 -2.24,-18.37 0.37,-15.5 -6.41,-21.56 10.51,-38.94 31.74,-11.86 57.09,-11.65 103.7,-14 18.69,-0.94 28.24,-1.28 51.87,-2.14 35.8,-1.29 16.48,3.15 32.6,0.13l0 -32.91 -34.85 -49.63c-7.1,-9 -55.94,-64.53 -63.37,-66.91 -21.03,-1.05 -23.87,-3.33 -41.29,-6.47 -2.69,-0.48 -37.35,-4.07 -12.88,-4.5 0,18.15 12.63,22.12 22.81,47.94 3.06,7.75 6.73,4.28 8.15,15.83 -31.44,-0.69 -13.94,-1.51 -36.94,-3.75 -41.67,-4.06 -88.09,-5.56 -97.69,-6.6zm56.96 167.77c-18.62,-0.45 -30.31,-1.71 -55,-1.71l0 12.39 -190.48 0c3.78,-16.95 -6,-39.19 10.76,-47.37 1.02,6.61 42.45,35.85 50.31,42.54 31.91,-2.71 65.32,-10.86 102.59,-8.89l24.6 -1.83 0.09 -45.46c1.65,-4.33 0.22,-2.92 4.52,-5.26 11.31,11.11 36.34,26.77 52.57,40.62 0.28,2.74 0.55,5.7 0.47,9.14 -0.06,2.46 -0.25,4.3 -0.42,5.82 -18.62,-0.45 -30.31,-1.71 -55,-1.71l0 12.39 27.19 0 4.43 1.87 26.05 0c-3.53,-6.44 -3.17,-8.11 -2.66,-12.56zm-60.05 -229.08c9.9,14.38 3.65,45.05 3.09,61.31 9.59,1.04 56.02,2.54 97.69,6.6 23,2.24 5.5,3.07 36.94,3.75 -1.42,-11.55 -5.09,-8.07 -8.15,-15.83 -9.63,-24.42 -21.45,-29.3 -22.7,-45.11 -0.07,-0.91 -0.11,-1.85 -0.11,-2.83 -14.67,0.26 -8.09,1.65 0.11,2.83 5.48,0.79 11.69,1.48 12.77,1.67 17.41,3.13 20.26,5.42 41.29,6.47 -9.39,-11.96 -20.51,-19.76 -37.9,-27.25 -10.02,-4.31 -40.68,-16.54 -60.64,-15.63l-18.59 -1.59c17.39,6.62 41.8,14.96 50.09,29.97 -33.07,-0.93 -52.73,-5.39 -93.89,-4.37zm-159.22 138.17c12.92,-0.9 13.5,-2.13 25.68,-4.48 15.07,-4.8 72.84,-12.98 88.7,-13.91l46.7 -0.48c4.65,7.92 43.87,38.62 75.35,62.82 28.96,-9.65 53.95,-9.61 97.46,-11.8 4.41,-0.22 8.31,-0.41 12.02,-0.58 -1.74,-6.3 -3.83,-12.65 -6.35,-19.12 -6.32,-16.22 -39.91,-20.54 -70.76,-24.81 -30.34,-4.2 -42.96,-6.57 -78.28,-7.15 -28.82,-0.47 -26.6,-0.44 -26.52,-13 0.03,-5.06 0.25,-10.15 0.26,-15.22 0.01,-9.48 2.47,-20.19 -1.95,-29.12 -51.83,-1.86 -104.64,12.44 -123.15,22.94 -22.31,12.67 -55.25,46.69 -39.17,53.92zm-0.25 -118c-31.32,30.05 -71.63,75.5 -95.76,112.91l0 49.97c11.85,-8.45 25.54,-15.85 38.06,-21.75 4.47,-6.99 12.8,-8.76 26.79,-13.1 5.61,-1.74 8.54,-2.57 15.79,-4.63 13.77,-3.92 3.87,2.03 15.37,-5.39 -16.08,-7.23 16.85,-41.25 39.17,-53.92 18.51,-10.51 71.32,-24.81 123.15,-22.94 0.56,-16.26 6.81,-46.93 -3.09,-61.31 -66.83,-1.13 -110.64,7.05 -159.46,20.17zm-25.96 219.59c3.78,-16.95 -6,-39.19 10.76,-47.37 -8.7,-6.35 -6.13,-2.3 -16.69,-7.83 -6.07,-3.18 -5.28,-3.32 -10.04,-7.2 -7.51,-6.12 -12.69,-8 -15.76,-16.07 -12.53,5.9 -26.22,13.3 -38.06,21.75l0 56.72 69.8 0zm192.86 -66.26c11.31,11.11 36.34,26.77 52.57,40.62 -1,-9.6 -2.18,-16.27 10.98,-29.8 2.1,-0.78 4.18,-1.52 6.23,-2.2 -31.48,-24.2 -70.7,-54.9 -75.35,-62.82l-46.7 0.48c-6.8,1.04 -7.93,2.91 -11.62,4.42 5.7,6.73 21.53,18.49 29.34,24.73 10.02,8.01 26.15,16.43 34.56,24.57zm-7.43 -173.5c41.16,-1.02 60.82,3.44 93.89,4.37 -8.29,-15.01 -32.69,-23.35 -50.09,-29.97l18.59 1.59c-14.5,-6.15 -38.7,-6.43 -61.26,-6.46l-1.13 30.48zm-133.54 133.69c12.31,2.65 3.2,-0.69 12.52,4.65 9.93,5.67 87.81,73.4 108.56,83.85l-9.31 3.86 24.6 -1.83 0.09 -45.46c1.65,-4.33 0.22,-2.92 4.52,-5.26 -8.41,-8.14 -24.54,-16.56 -34.56,-24.57 -7.81,-6.24 -23.64,-18 -29.34,-24.73 3.7,-1.5 4.83,-3.38 11.62,-4.42 -15.86,0.93 -73.63,9.11 -88.7,13.91zm-25.68 4.48c-11.5,7.42 -1.6,1.46 -15.37,5.39 -7.25,2.06 -10.19,2.9 -15.79,4.63 -13.98,4.33 -22.32,6.11 -26.79,13.1 3.07,8.07 8.25,9.96 15.76,16.07 4.76,3.88 3.96,4.02 10.04,7.2 10.56,5.53 7.98,1.48 16.69,7.83 1.02,6.61 42.45,35.85 50.31,42.54 31.91,-2.71 65.32,-10.86 102.59,-8.89l9.31 -3.86c-20.74,-10.44 -98.63,-78.17 -108.56,-83.85 -9.32,-5.33 -0.2,-2 -12.52,-4.65 -12.18,2.35 -12.76,3.58 -25.68,4.48zm-0.25 -118c48.82,-13.12 92.63,-21.3 159.46,-20.17l1.13 -30.48c-85.04,1.3 -137.91,22.02 -160.6,50.65z"/>
  <path class="fil2" d="M1471.89 2236.52l12.13 -3.09c1.12,-0.32 2.63,-0.71 3.76,-1.06l29.97 -13.52c15.64,-7.9 0.09,-1.33 14.65,-6.93 14.45,-12.46 43.8,-14.22 52.94,-29.36l25.55 -16.06c12.92,-4.6 11.19,-1.75 24.81,-6.18 46.52,-15.14 58.02,-27.22 93.06,-42.13 20.8,-8.85 25.52,-5.42 47.9,-18.62l-8.11 -36.85c30.42,-15.19 15.1,-9.04 36.49,-3.51 27.24,7.05 17.65,-6.94 32.39,-22.25 24.26,-25.19 5.26,14 38.98,-0.75 23.88,-10.44 -1.32,-11.38 23.03,-30.38 22.4,10.85 18.87,21.78 47.41,32.38 29.13,10.82 32.7,-3.35 50.82,12.77 0.44,30.61 -17.93,5.58 -6.63,34.72 10.51,27.1 9.67,2.89 28.8,19.22 1.31,26.22 -22.59,21.05 -3.44,41.09 12.52,13.1 30.21,10.84 27.42,29.14 6.6,16.31 6.38,-3.26 -1.26,8.26 -6.71,10.12 -8.81,1.87 -24.86,16.01 1.74,21.69 28.11,67.51 41.88,111.12 0.28,0.88 2.25,3.91 1.17,4.02 -1.11,0.11 0.83,2.7 1.16,4.08l8.03 16.71 13.27 37.29c8.09,32.39 21.46,57.47 33.74,91.22l345.72 931.37c33.17,74.44 73.08,206.92 106.52,283.81 24.91,57.3 27.57,159.8 137.61,113.8 90.19,-37.7 122.69,-53.81 74.73,-150.41 -77.53,-156.15 -168.95,-380.54 -248.38,-544.96 -58.31,-120.71 -108.06,-239.1 -165.11,-362.22l-168.11 -361.37c-0.65,-1.46 -2.93,-4.3 -1.76,-4.46 1.14,-0.17 -1.33,-3.31 -1.73,-4.34l-7.35 -18.3c-3.88,-8.76 -6.72,-13.67 -11.23,-22.64l-21.48 -49.4 -17.01 -37.39c-6.81,-14.1 -13.95,-22.66 -16.37,-41.11l-16.12 -29.93c-24.06,0.94 -13.9,6.89 -36.88,6.16 -21.94,-34.02 -2.03,-22.77 -2.73,-52.64 -27.1,-32.18 -2.95,9.58 -32.34,-16.44 1.43,-14.61 6.8,-16.93 13.1,-29.31 -27.07,-32.05 -16.93,-5.33 -39.81,-31.13 12.02,-29.35 22.77,-24.43 35.01,-50.88 12.95,-28 -2.29,-31.42 14.26,-53.11 36.73,3.97 1.93,12 36.87,10.58l11.27 0.62c10.34,-41.53 -1.85,-21.69 -9.03,-58.51l-31.68 -1.48c-28.93,34.65 7.91,11.9 -22.71,30.66 -35.5,-42.41 -74.88,-33.63 -88.71,-37.11 2.52,-26.93 20.6,-43.72 -9.06,-52.47 -4.97,-1.46 -26.15,2.33 -28.42,3.38 -17.73,8.17 -12.96,4.85 -23.81,27.04l8.84 7.06c23.59,24.15 4.23,-5.59 34.04,18.72 -5.85,29.2 -22.61,19.04 -31.99,52.09 -8.58,30.24 8.97,29.43 -11.56,56.75 -21.09,-1.93 -31.93,-25.91 -47.04,-2.82l-5.5 13.31c-4.06,7.37 -4.63,6.4 -11.92,13.37 -15.29,-10.94 -6.37,-3.61 -17.04,-18.24 -26.81,23.44 -13.46,0.99 -20.12,22.16 -6.4,20.36 -5.36,11.2 -26.51,25.3 -22.36,-13.63 -21.63,-10.74 -25.41,-32.99 -14,8.03 -26.97,8.31 -42.84,11.81 -16.49,3.63 -27.3,10.26 -40.96,14.98 -33.89,11.72 -64.43,29.6 -87.65,31.67 -19,9.98 -41.99,14.98 -63.65,22.83l-66.61 25.61c-13.71,5.02 -56.6,23.54 -69.36,23.39 -24.15,11.15 -20.12,3.69 -47.98,20.97l-16.34 9.3c-0.11,-0.02 -417.07,146.83 -490.46,179.49l-328.52 122.48c-27.92,9.6 -53.91,21.5 -81.94,31.09 -37.86,12.94 -232.19,83.77 -244.95,95.78 -36.71,34.55 -19.31,66.65 -7.98,92.69 33.11,76.07 36.27,123.04 128.99,84.52l239.27 -108.93c53.33,-26.42 105.57,-46.02 159.72,-72.19 28.91,-13.97 47.71,-22.3 79.82,-36.19l238.61 -110.83c148.76,-71.53 329.44,-144.96 476.79,-218.32z"/>
  <path class="fil2" d="M1804.11 1420.18l6.4 10.76c0.56,1.02 1.35,2.36 1.91,3.4l11.63 30.75c5.47,16.65 -0.88,1 5.46,15.25 1.41,19.03 20.91,41.02 16.67,58.19l6.71 29.43c5.88,12.39 6.68,9.15 13.17,21.92 22.19,43.59 21.78,60.27 36.01,95.59 8.44,20.97 14.22,21.88 20.7,47.04l-31.8 20.32c10.77,32.25 4.29,17.07 23.32,28.28 24.25,14.28 7.57,17.39 7.17,38.63 -0.66,34.96 13.62,-6.18 27.03,28.09 9.5,24.27 -8.98,7.11 -5.2,37.76 23.51,8.17 28.74,-2.06 56.42,10.63 28.24,12.94 20.76,25.49 44.96,26.91 21.95,-21.33 -8.73,-16.62 19.87,-29.23 26.59,-11.73 8.88,4.79 33.95,6.77 19.47,-17.62 -1.09,-30.86 26.62,-31.49 18.11,-0.41 29.03,13.69 39.99,-1.21 16.2,-6.86 2.2,6.82 4.95,-6.73 2.41,-11.91 -4.91,-7.55 -6.26,-28.89 16.57,-14.11 67.61,-27.86 108.19,-48.96 0.82,-0.43 4.35,-1.17 3.66,-2.02 -0.7,-0.86 2.5,-1.32 3.71,-2.06l17.5 -6.14 35.75 -16.99c28.63,-17.18 55.81,-25.46 88.35,-40.64l903.04 -414.12c76.09,-29.18 197.98,-94.64 276,-125.37 58.13,-22.9 132.49,-93.49 177.78,16.84 37.11,90.43 48.71,124.8 -53.52,159.2 -165.24,55.59 -388.55,149.61 -560.98,209.71 -126.59,44.12 -245.48,92.66 -372.88,139.38l-374.41 136.65c-1.49,0.58 -5.11,0.97 -4.4,1.91 0.69,0.93 -3.28,1.4 -4.3,1.85l-18.13 7.75c-8.93,3.44 -14.41,4.91 -23.95,8.06l-50.12 19.74 -38.47 14.42c-14.78,5.15 -25.88,6.16 -40.65,17.5l-32.56 9.76c-16.35,-17.69 -4.96,-14.7 -21.72,-30.44 -39.57,8.55 -17.54,14.67 -39.15,35.29 -41.92,3.59 4.69,-8.85 -34.5,-11.24 -9.32,11.34 -7.16,16.78 -11.47,29.99 -41.8,3.52 -15.74,-8.2 -50.16,-6.14 -12.26,29.25 -1.17,33.37 -11.22,60.73 -10.64,28.96 -23.84,20.6 -27.47,47.64 28.78,23.17 9.85,-7.12 33.55,18.59l8.4 7.53c-22.06,36.68 -16.64,14.02 -47.76,34.98l-23.44 -21.36c4.04,-44.96 14,-2.82 5.62,-37.74 -55.09,4.89 -76.73,-29.17 -88.96,-36.48 -17.26,20.82 -16.35,45.48 -43.5,30.69 -4.55,-2.48 -16.84,-20.13 -17.7,-22.48 -6.76,-18.31 -5.73,-12.59 2.28,-35.96l11.24 1.26c33.76,-0.39 -0.96,6.95 37.31,10.83 16.52,-24.78 -2.53,-29.45 14.21,-59.45 15.32,-27.45 27.15,-14.46 31.95,-48.3 -16.28,-13.55 -40.9,-4.26 -35.26,-31.27l5.52 -13.31c2.34,-8.08 1.25,-7.8 1.03,-17.89 -18.56,-3.07 -7.06,-1.96 -24.96,0.85 -2.39,-35.54 -8.82,-10.22 1.44,-29.9 9.87,-18.92 4.13,-11.71 -0.85,-36.63 -25.45,-6.18 -22.9,-7.7 -41.3,5.35 -4.22,-15.57 -13.19,-24.94 -21.94,-38.65 -9.09,-14.23 -12.05,-26.56 -18.36,-39.56 -15.68,-32.25 -24.63,-66.49 -39.59,-84.37 -6.37,-20.49 -19.09,-40.29 -28.86,-61.15l-29 -65.21c-6.15,-13.24 -23.38,-56.67 -32.5,-65.58 -9.19,-24.96 -11.62,-16.83 -19.11,-48.76l-4.98 -18.14c-0.09,-0.07 -191.09,-398.73 -219.89,-473.73l-145.69 -318.91c-12.95,-26.53 -22.91,-53.33 -35.96,-79.92 -17.62,-35.93 -104.95,-223.42 -105.48,-240.93 -1.52,-50.39 33.48,-60.78 59.9,-71.18 77.2,-30.38 112.65,-61.36 150.97,31.44l92.17 246.21c19.03,56.39 42.11,107.2 61.89,163.98 10.56,30.32 17.97,49.5 30.85,82.03l90.35 247.09c54.61,155.77 130.45,335.46 182.77,491.52z"/>
 </g>
</svg>
