<?xml version="1.0" encoding="UTF-8"?>
<!DOCTYPE svg PUBLIC "-//W3C//DTD SVG 1.1//EN" "http://www.w3.org/Graphics/SVG/1.1/DTD/svg11.dtd">
<!-- Creator: CorelDRAW 2018 (64-Bit) -->
<svg xmlns="http://www.w3.org/2000/svg" xml:space="preserve" width="3.93701in" height="3.93701in" version="1.1" style="shape-rendering:geometricPrecision; text-rendering:geometricPrecision; image-rendering:optimizeQuality; fill-rule:evenodd; clip-rule:evenodd"
viewBox="0 0 3937.01 3937.01"
 xmlns:xlink="http://www.w3.org/1999/xlink">
 <defs>
  <style type="text/css">
   <![CDATA[
    .fil15 {fill:#111214}
    .fil9 {fill:#1A1C14}
    .fil12 {fill:#252B1C}
    .fil4 {fill:#292D1E}
    .fil7 {fill:#2D291E}
    .fil8 {fill:#2D321E}
    .fil5 {fill:#3B3C2C}
    .fil6 {fill:#41452E}
    .fil3 {fill:#494E36}
    .fil13 {fill:#4C5435}
    .fil2 {fill:#555A41}
    .fil0 {fill:#595E3E}
    .fil14 {fill:#5A6141}
    .fil1 {fill:#5E6445}
    .fil10 {fill:#7E8274}
    .fil11 {fill:#8C927B}
   ]]>
  </style>
 </defs>
 <g id="Layer_x0020_1">
  <metadata id="CorelCorpID_0Corel-Layer"/>
  <g id="_1672831776720">
   <g>
    <g>
     <path class="fil0" d="M2014.98 2586.48c6.99,-6.54 5.05,-2.8 13.6,-7.67 8.61,-4.89 -0.46,2.91 7.44,-5.85 0.54,-0.59 5.94,-8.73 6.7,-9.87l26.48 -32.36c-15.07,-1.57 -9.12,-0.7 -12.72,2.2 -0.56,-0.83 -1.98,-2.33 -1.15,-2.77l-3.14 -8.96c-5.82,-17.42 -5.01,-22.75 0.73,-49.22l1.43 -5.28c7.96,-28.85 -1.8,-23.85 1.62,-33.56 0.76,-2.16 2.72,-4.13 3.7,-5.14 0.56,-0.57 1.51,-1.24 2.09,-1.76 0.63,-0.57 1.8,-1.35 2.36,-1.82 0.58,-0.49 1.69,-1.21 2.48,-1.87 -27.74,3.43 -68.74,-1.83 -104.75,-0.28l0 163.74c7.33,2.01 17.35,0.09 30.39,-1.74 1.77,-8.3 2.76,-23.02 2.19,-43.75 -0.22,-7.79 -0.91,-17.82 1.29,-25.19 0.44,-1.5 4.6,-8.33 4.61,-8.35 5.24,-5.32 2.13,-4.04 10.37,-5.15 4.24,10.01 7.68,31.39 10.55,43.79 8.96,38.71 0.22,15.26 -6.28,40.86z"/>
     <path class="fil0" d="M1998.15 3775.51c-6.21,-11.8 1.13,-8.86 -9.68,1.84 -14.26,14.12 1.31,52.36 -13.83,55.72 -7.76,1.72 -11.31,0.55 -12.78,-2.72l0 92.76c4.51,3.47 3.51,9.59 12.78,13.52 10.83,-9.7 -0.44,0 6.91,-10.73 8.25,-12.06 10.56,-6.53 12.43,-17.38l4.17 -133zm-36.29 37.46c0.48,-5.5 0.83,-11.79 0,-18.47l0 18.47z"/>
    </g>
    <g>
     <path class="fil1" d="M2515.47 1617.35l-0.8 -139.67c0.1,-28.52 4.62,-34.51 -4.78,-38.67 3.34,16.45 1.05,83.01 0.55,104.29 -1.4,59.77 5.14,61.52 -30.07,77.21 0.67,-19.65 0.67,-59.06 -17.19,-66.39 -11.47,27.57 -10.2,28.04 -11.32,63.14 -42.96,-0 -30.55,3.92 -36.91,-7.76l-56.7 -1.48c12.06,4.13 4.97,0.35 13.11,10.71 -37.95,0 -32.13,-4.03 -47.15,-3.58 -15.14,0.46 -37.94,-24.93 -46.73,-36.52l86.85 89.33c-4.17,4.97 1.26,1.26 -6.97,4.67 -9.67,4.02 -2.23,0.29 -2.38,-0.51 6.8,9.15 5.27,12.88 3.98,25.36 11.52,9.52 6.3,1.7 3.46,15.05 14.57,4.03 5.95,-2.2 12.24,11.43 13.14,-3.85 2.79,-2.33 9.13,-4.11 0.54,-0.15 1.5,-0.42 2.02,-0.51l3.74 -0.12c0.44,0.02 1.38,0.23 1.82,0.28l7.94 1.53c0.63,0.13 1.74,0.33 2.33,0.47l5.04 1.37c-0.5,0.11 1.87,0.37 2.66,0.86l-22.52 4.64c-7.7,1.24 -14.13,2.33 -21.64,4.33 15.67,17.61 -7.72,17.83 34.04,27.91 7.44,1.79 18.96,5.81 26.63,6.55 10.5,1.01 8.08,-4.07 11.9,-2.55 0.08,0.03 0.58,0.41 0.66,0.46l93.61 31.29c-2.39,-14.69 -5.76,-23.46 6.57,-29.78 3.83,3.9 3.85,10.81 4.08,15.49 0.35,7.06 0.05,15.92 0.43,23.65 14.24,2.67 18.94,5.73 34.82,6.56 0,-29.02 0.97,-168.74 -16.61,-176.54 -0.1,-0.04 -0.78,-0.13 -0.89,-0.18 -3.82,-1.69 -18.72,-12.61 -31.06,-12.11l-19.93 -0.52c-0.48,-0.07 -1.47,-0.17 -1.93,-0.24 -9.81,-1.55 -6.78,2.32 -10.93,-4.9 6.89,-18.12 0.16,-5.25 9.22,-11.69l9.66 11.25z"/>
     <path class="fil1" d="M2138.58 1959.94l0.02 9.84c19.47,-2.24 15.87,-7.32 32.77,3.23l1.55 -7.32c3.87,-5.34 -6.26,-1.92 7.79,-4.5l46.7 -0.23c17.39,2.7 5.39,3.19 14.19,5.55 5.78,-8.54 2.48,-7.54 -0.63,-14.17l-1.67 -35.86c1,-8.63 4.48,-8.51 8.46,-11.41 -13.69,5.74 -12.3,-3.9 -12.65,-4.19l8.41 -6.58c-33.56,0 -10.64,1.42 -19.67,-9.81 22.23,-13.09 15.24,-1.12 32.07,-28.36 -10.02,3.06 -21.57,5.51 -20.59,11.94 3.54,-7.37 3.59,-14.13 3.37,-26.25l3.22 1.29c0.2,-0.01 1.2,-0.19 1.4,-0.22 0.24,-0.04 1.39,-0.42 1.61,-0.46 0.24,-0.06 1.23,-0.26 1.73,-0.61 -5.01,-12.54 6.48,-37.54 -3.49,-51.92 -2.52,-3.63 -37.88,-23.74 -45.57,-28 -5.7,2.52 -15.39,6.69 -19.67,9.11l-9.92 -24.65c-7.5,5.31 4.13,4.03 -15.79,5.8 -9.92,0.88 -19.86,-1.15 -30.03,-1.01 -2.77,5.85 -6.48,23.94 -6,31.57 1.88,29.83 6.02,-6.94 1.59,10.85 -0.16,0.65 -4.9,9.23 -5.71,11.42 -3.57,9.6 -11.05,63.03 -12.2,74.74 19.35,-2.22 40.54,-0.19 61.66,-0.85l49.35 -0.78c15.72,3.5 6.68,-1.78 16.21,9.63 -14.8,9.43 -39,6.96 -62.28,6.57 -24.62,-0.42 -46.69,0.18 -71.02,-1.34l1.74 74.2c20.12,5.82 33.57,-4.98 43.05,-7.23z"/>
    </g>
    <g>
     <path class="fil2" d="M1961.87 2278.34l25.83 2.47c21.63,1.16 82.52,-4.34 115.74,0.23l23.86 -9.48c-4.2,-28.15 -21.6,-39.39 -19.71,-75.9l8.04 16.37c17.87,-5.51 25.44,-13.52 44.02,-14.06 19.36,-0.56 23.13,-12.18 42.87,-12.97 35.23,-1.41 54.11,-25.51 60.7,-62.61 -8.88,-2.08 -7.3,4.88 -5.85,-31.22 0.72,-17.78 -0.73,-15.87 5.48,-29.49l3.59 -6.63c-13.74,-5.25 -6.11,-6.31 -15.55,-17.33 -5.75,-6.71 -12.03,-9.42 -17.24,-15.48 -3.59,1 -10.78,4.6 -11.38,4.7 -0.13,0.02 0.36,3.33 -2.01,-2.31l-33.77 1.96c7.61,24.95 7.4,18.6 1.28,20.12 0.39,-0.2 5.31,8.74 -0.02,-11.35l-56.22 1.2c-0.32,-1.77 -1.36,-3.04 -0.6,-3.43l-2.75 -21.29c-1.23,-14.9 1.33,-19.12 3.83,-32.25 -21.39,5.97 -16.61,2.85 -36.05,2.52l-3.11 53.2c-6.34,-7.74 -9.09,-21.13 -11.82,-31.05l-9.7 -57.5c-3.04,-1.52 -4.98,3.76 -11.44,-8.52l-2.32 6.9c-4.37,8.51 9.06,-4.27 -3.02,4.49 -9.71,7.04 -26.54,-19.68 -26.54,-19.69 -0.69,-0.96 -1.25,-1.75 -1.93,-2.67l-4.6 -5.82c-6.06,10.38 -1.52,6.54 -19.8,6.43l-22.83 114.17 104.08 0.06c17.6,2.44 5.96,-1.61 12.94,6.34l-7.1 3.72c-0.86,0.27 -1.78,0.61 -2.77,0.87 -2.61,0.67 -12.54,1.59 -16.15,1.69 -26.63,0.71 -69,-2.2 -91.83,0.29l-13.06 150.99c-0.29,7.79 -1.98,14.14 -3.09,19.83l0 15.12c0.47,1.43 1.13,2.87 2.01,4.34 -0.63,-0.25 -1.3,-0.57 -2.01,-0.94l0 33.94z"/>
     <path class="fil2" d="M1961.87 815.01c0.44,0.37 0.94,0.79 1.52,1.26 22.04,17.88 34.45,-1.7 43.22,-9.66 19.89,-18.06 36.98,1.13 83.88,-7.26l-6.56 -43.38c-3.85,-2.32 0.85,-1.75 -1.13,1.97l-3.61 6.69c-3.01,-5.26 2.85,-4.63 -8.12,-8.48l-94.32 1.57c-0.49,-0.08 -1.52,-0.42 -1.95,-0.56l-5.72 -4.44c5.3,-4.86 1.73,-3.45 11.97,-6.02l80.96 -0.53 7.85 -9.41c0.5,-0.42 1.62,-1.16 2.05,-1.49 0.44,-0.34 2.75,-1.17 2.21,-1.41 -0.55,-0.25 1.55,-0.87 2.3,-1.34l-33.77 -41.48c-4.18,-3.27 -2.66,-2.33 -8.04,-4.98 -16.1,-7.92 2.31,2.32 -6.13,-2.24 7.41,-4.42 23.4,-2.65 34.89,-3.02 0.96,-30.45 4.66,-4.68 -2,-37.35 -12.36,6.38 -7.41,6.85 -19.67,13.26 -18.11,9.46 -46.35,15.17 -70.41,14.56 -2.45,-0.06 -5.68,-0.29 -9.41,-0.67l0 144.4zm0 -168.54c0.39,-0.46 0.82,-0.94 1.3,-1.46 3.39,-3.59 -7.74,-8.56 11.77,-7.56 17.25,0.89 2.46,10.53 37.57,3.18 18.95,-3.97 6.29,-0.54 14.87,1.35 19.14,4.22 20.58,-0.68 39.06,-0.85l-9.83 -29.49c-1.39,0.18 -2.77,0.52 -4.13,0.84 -16.75,3.88 -15.02,5.72 -31.94,5.72l0.72 -7.91c-0.88,-9.88 -0.84,-1.78 -0.34,-12.28 0.81,-17.11 1.39,-20.14 -10.2,-31.04 -16.85,6.27 -5.7,2.26 -13.11,13.65l-35.74 0.83 0 65zm0 -75.86c14.31,0.91 32.79,-1.34 39.46,-4.3 -1.58,-12.73 2.45,-5.08 -5.32,-11.73 -6.29,-5.39 -24.67,-7.51 -32.19,-8.08l13.19 -5.38c8.06,-3.66 2.55,3.08 7.52,-5.85l-22.66 -2.66 0 38z"/>
    </g>
    <path class="fil3" d="M1961.87 1134.7c14.86,-0.52 29.97,-0.84 39.11,-1.57l27.92 1.78c9.39,19.28 -1.84,154.27 4.13,191.87 -13.59,-7.96 -12.24,-12.08 -24.11,-24.46 -6.81,-7.09 -13.2,-15.2 -24.94,-17.78 1.66,13.15 15.7,21.28 36.24,43.87l4.06 4.39c-10.69,-2.49 -34.9,-1.54 -48.66,-1.89 1.73,-12.62 2.86,-57.48 -0.96,-67.05 -10.78,7.38 -4.19,54.89 -3.36,68.85 -3.28,-0.3 -6.42,-0.52 -9.41,-0.68l0 12.11c8.96,-4.15 18.91,-3.5 31.34,2.33 24.69,11.57 4.89,22.22 34.59,28.49l3.63 -25.17c10.44,14.15 -3.73,26.68 -3.15,42.79l3.58 12.16c-0.93,0.67 1.02,2.16 1.81,3.04 10.41,-12.46 12.53,-30.17 17.57,-47.3 6.18,5.05 8.48,8.63 13.93,13.51 14.08,12.58 16.71,18.26 31.61,27.45 10.73,6.62 10.76,13.62 20.15,22.48 18.59,17.54 30.85,35.7 51.17,49.68 0.38,-0.75 0.33,-1.99 0.35,-2.5 0.02,-0.48 0.2,-1.82 0.2,-2.39l-0.02 -13.15c0.12,-0.37 3.25,-5.62 3.35,-5.83 3.08,25.89 -4.68,78.3 0.87,100.93 7.3,-6.67 4.1,-31.34 4.05,-43.41 0.78,-0.69 2.01,-1.18 2.72,-1.54 0.69,-0.35 1.84,-1.05 2.67,-1.45 0.79,-0.38 1.76,-0.88 2.59,-1.26 11.45,-5.25 1.75,3.13 10.41,-3.93l-0.98 -2.33c12.07,-2.23 13.11,-2.35 13.11,-25.57l-10.69 -7.06c-21.8,-14.13 -3.41,-5.25 -16.58,-25.65l-5.49 -6.64c-4.54,14.44 -7.61,13.31 -11.27,24.54 -10.29,-7.06 -12.02,-13.09 -25.26,-24.19l-17.89 -14.92c-43.5,-27.46 -7.31,-15.34 -37.42,-41.38l-19.83 -19.61c-1.18,-1.21 -5.62,-5.16 -6.95,-6.47l5.41 -9.95c9.39,-20.92 -1.2,16.53 1.5,-5.17 1.45,-11.63 -0.96,-11.71 3.25,-24.4 4.94,-14.87 8.96,-29.43 13.67,-45.39l14.5 -43.65c10.04,-50.86 24.04,-97.21 37.89,-146.28 4.88,-17.29 8.01,-31.13 11.91,-46.94 3.2,-12.98 7.75,-39.51 10.7,-46.28 2.32,1.4 7.05,5.04 13,10.01l-0.08 -11.73c-3.22,-3.81 -6.02,-7.44 -8.19,-10.75l8.06 -8.88 -0.11 -15.54c-11.35,8.46 -16.64,11.13 -12.61,14.57 9,-6.12 4.49,-10.07 5.75,-17.49l6.65 -27.04 -0.29 -42.41c-7.58,27.39 -19.86,57.69 -22.59,84.01 -11.5,-11.54 0.3,-7.57 -17.87,-14.96 0.95,17.67 -2.11,6.32 6.07,17.13 8.69,11.48 0.08,-3.79 7.77,7.33 -8.74,27.22 -32.53,30.95 -41.46,56.88 10.13,-3.14 33.44,-25.89 33.41,-25.92 -0.65,-0.41 1.65,-1.47 2.55,-2.12 -11.24,25.78 -18.24,59.31 -25.06,87.39 -11.72,48.2 -63.83,232.9 -65.05,257.51 -7.88,-9.27 -7.36,-10.04 -3.41,-22.78 11.3,-36.45 6.48,-164.47 2.09,-200.06l9.59 -1.02c11.94,-0.35 14.42,1.91 29.73,-0.52 4.64,-12.49 6.48,-18.94 0,-28.02 -1.07,15.18 2.59,10.59 -6.54,19.73 -14.87,0 -16.37,-1.21 -30.78,3.33 2.61,-42.37 20.93,-136.46 21.08,-185.39 39.31,18.79 58.64,-2.61 50.45,-27.66 -6.37,-19.52 -3.57,-3.74 -14.56,-16.39 -11.95,0.7 -19,0.22 -28.75,7.4l-13.16 12.49c-22.04,19.35 -12.62,15.18 -16.83,78.28l-11.14 123.24c-4.17,7.48 6.8,6.39 -15.35,5.8l-5.51 -20.83c-1.29,35.14 2.53,25.74 -33.72,24.93 -5.17,-0.11 -10.61,-0.25 -16.17,-0.37l0 22.87zm0 413.09l0 -36.75c11,0.29 19.81,0.12 24.47,-1.05 -7.2,-9.62 -12.33,-10.03 -24.47,-9.76l0 -141.15c2.52,-1.46 5.75,-3.62 11.52,-5.56 6.06,14.33 2.78,18.76 13.68,27.4 0.5,0.39 1.61,1 2.32,1.63 0.23,8.67 0.11,19.44 2.31,27.04l2.78 6.86c5.43,17.65 -1.4,16.58 3.96,39.06 3.67,15.35 0.2,16.23 -8.17,25.45l5.47 5.54c3.94,5.05 -0.13,-4.76 2.51,4.3l-14.64 29.39c-5.02,11.16 -9.95,22.08 -14.21,30.65 -0.1,-0.06 -4.89,-2.72 -5.59,-2.8 -0.83,-0.1 -1.45,-0.19 -1.93,-0.26zm0 -665.02l0 -5.15c43.99,0.11 90.38,-3.02 97.28,-7.9l10.6 -12.03c26.43,0 2.83,-1.1 13.08,5.91 -3.45,9.14 -1.57,5.01 -5.77,11.07l-17.18 18.62c-33.76,0.5 -23.14,-6.19 -37.35,-10.47l-60.67 -0.06z"/>
    <g>
     <path class="fil4" d="M1961.87 1596.66c17.26,5.13 39.58,16.7 41.88,35.54 -15.62,-1.28 -28.46,-7.62 -41.88,-13.02l0 15.69c3.96,1.23 7.85,2.8 11.66,4.76 12.2,6.26 31.61,26.78 40.64,38.19 18.3,12.8 3.85,4.04 9.48,-0.02 -0.26,-8.15 -1.83,-1.98 10.19,-16.39 6.59,-7.91 -8.06,0.17 3.1,-3.31 0.13,0.06 12.88,4.93 13.65,5.04 12.97,1.73 15.47,-2.06 19.13,-5.02 -4.66,-8.55 -0.98,-5.68 -11.18,-9.89 -15.29,-6.3 -12.7,-0.35 -13.53,0.02 9.7,-2.53 18.39,0.01 31.26,0.01 0,-24.91 -1.95,-27.13 -9.89,-47.97 -10.88,-28.57 -16.23,-17.06 -29.46,-24.17 -1.76,-22.76 -3.12,-41.68 3.28,-65.64l39.36 1.85 -0.06 112.99c-0.17,12.13 -1.63,20.43 2.31,28.92 6.13,13.17 -5.43,-1.15 5.14,6.52 -2.34,1.78 1.54,-1.11 -1.76,0.05l-8.9 3.87c0.93,17.35 -3.58,13.85 8.84,21.52 2.16,1.34 19.21,6.45 22.35,7.7l20.17 6.47c6.08,1.6 18.86,14.87 34.09,9.78 12.73,-4.26 4.09,1.41 12.88,-8.13 -18.15,-5.31 17.5,-7.2 -9.28,-5.26 -5,0.37 -3.66,5.34 -3.84,3.62l-55.14 -24.14c-0.6,-0.33 -1.49,-0.76 -2.04,-1.12 -1.91,-1.26 -6.24,-1.29 -7.18,-9.65 7.24,1.23 2.74,0.61 8.48,3.55l29.67 12.86 3.33 -7.65c2.36,-3.05 5.61,-5.63 9.79,-8.7 7.07,6.97 4.48,9.22 9.83,15.82l2.34 -6.59c3.32,-4.29 -7.22,-0.25 8.63,-4.82 23.22,-6.69 31.02,-8.08 54.15,-3.9 1.79,0.33 13.13,2.46 14.25,2.47 1.56,0.01 4.78,-0.14 6.06,-0.37 9.51,-1.67 2.22,1.5 9.44,-3.47 -2.67,-14.45 1.93,-12.16 -12.91,-15.25l10.7 0.24 1.91 0.14c0.45,0.04 1.43,0.25 1.87,0.29 12.19,1.05 10.41,-0.93 18.3,-14.52 -73.75,0.41 -53.2,-22.66 -73.53,17.44l-18.35 -0.12c-0.22,-29.94 -3.61,-9.35 -11.38,-24.74 -3.46,-6.86 -2.37,-25.08 -1.77,-35.65 9.98,-7.2 20.31,-14.18 31,-12.33 19.51,3.39 -13.78,5.89 16.45,3.52 -10.52,-17.77 -19.8,-15.42 -43.47,-15.69l0.89 -17.39c-5.54,-22.63 2.21,-75.04 -0.87,-100.93 -0.09,0.21 -3.22,5.47 -3.35,5.83l0.02 13.15c0,0.57 -0.19,1.91 -0.2,2.39 -0.02,0.5 0.03,1.75 -0.35,2.5 -20.32,-13.97 -32.58,-32.13 -51.17,-49.68 -9.39,-8.86 -9.42,-15.86 -20.15,-22.48 -14.9,-9.19 -17.53,-14.87 -31.61,-27.45 -5.46,-4.87 -7.75,-8.46 -13.93,-13.51 -5.04,17.13 -7.15,34.84 -17.57,47.3 -0.78,-0.88 -2.73,-2.37 -1.81,-3.04l-3.58 -12.16c-0.58,-16.11 13.59,-28.64 3.15,-42.79l-3.63 25.17c-29.69,-6.27 -9.89,-16.92 -34.59,-28.49 -12.43,-5.83 -22.39,-6.48 -31.34,-2.33l0 14.96c2.52,-1.46 5.75,-3.62 11.52,-5.56 6.06,14.33 2.78,18.76 13.68,27.4 0.5,0.39 1.61,1 2.32,1.63 0.23,8.67 0.11,19.44 2.31,27.04l2.78 6.86c5.43,17.65 -1.4,16.58 3.96,39.06 3.67,15.35 0.2,16.23 -8.17,25.45l5.47 5.54c3.94,5.05 -0.13,-4.76 2.51,4.3l-14.64 29.39c-5.02,11.16 -9.95,22.08 -14.21,30.65 -0.1,-0.06 -4.89,-2.72 -5.59,-2.8 -0.83,-0.1 -1.45,-0.19 -1.93,-0.26l0 48.87zm0 187.13c57.44,-29.74 39.48,-98.45 0,-118.57l0 25.67c10.58,9.18 15.95,25.39 12.01,41.04 -2.22,8.82 -6.45,16.17 -12.01,22.03l0 29.84zm0 -272.75c11,0.29 19.81,0.12 24.47,-1.05 -7.2,-9.62 -12.33,-10.03 -24.47,-9.76l0 10.8zm0 -633.42c43.99,0.11 90.38,-3.02 97.28,-7.9l10.6 -12.03c26.43,0 2.83,-1.1 13.08,5.91 -1.61,-12.02 5.41,-35.13 9.84,-48.59l12.2 0 -0.66 26.25 53.72 4.04 -51.72 4.3c-0.25,2.99 -0.33,14.46 -0.35,15.4l-3.35 15.91c10.99,12.65 8.18,-3.13 14.56,16.39 8.19,25.04 -11.14,46.45 -50.45,27.66 -0.15,48.94 -18.47,143.02 -21.08,185.39 14.41,-4.55 15.91,-3.33 30.78,-3.33 9.13,-9.14 5.46,-4.55 6.54,-19.73 6.48,9.08 4.64,15.53 0,28.02 -15.31,2.42 -17.79,0.17 -29.73,0.52l-9.59 1.02c4.39,35.59 9.2,163.61 -2.09,200.06 -3.95,12.74 -4.47,13.51 3.41,22.78 1.22,-24.61 53.33,-209.31 65.05,-257.51 6.82,-28.07 13.82,-61.61 25.06,-87.39 -0.9,0.65 -3.2,1.71 -2.55,2.12 0.04,0.02 -23.28,22.78 -33.41,25.92 8.93,-25.93 32.72,-29.66 41.46,-56.88 -7.69,-11.11 0.92,4.15 -7.77,-7.33 -8.18,-10.8 -5.12,0.54 -6.07,-17.13 18.18,7.39 6.38,3.42 17.87,14.96 2.73,-26.31 15.01,-56.61 22.59,-84.01l-0.33 -49.4c-9.83,-24.48 -5.61,-39.17 -50.13,-71.37 -27.69,-20.02 -18.22,-5.27 -26.55,-45.82 -5.18,-25.22 -7.27,-33.83 -6.06,-61.4 -42.54,-45.44 -18.33,-51.19 -27.36,-95.65 -7.23,-35.61 -40.67,-70.31 -61.89,-26.78 -11.75,-7.42 -6.69,-1.58 -13.01,-4.34 -14.22,-6.21 4.54,-3.76 -8.63,-6.84 -1.19,-0.28 -1.09,-1.43 -1.75,-2.04 -2.77,5.55 -4.81,10 -9.5,11.41l0 12.4 22.66 2.66c-4.97,8.94 0.54,2.2 -7.52,5.85l-13.19 5.38c7.51,0.57 25.89,2.69 32.19,8.08 7.78,6.65 3.74,-1 5.32,11.73 -6.67,2.96 -25.15,5.2 -39.46,4.3l0 10.87 35.74 -0.83c7.41,-11.4 -3.74,-7.39 13.11,-13.65 11.59,10.91 11,13.94 10.2,31.04 -0.5,10.49 -0.54,2.4 0.34,12.28l-0.72 7.91c16.93,0 15.19,-1.84 31.94,-5.72 1.35,-0.31 2.73,-0.66 4.13,-0.84l9.83 29.49c-18.48,0.17 -19.92,5.07 -39.06,0.85 -8.57,-1.89 4.08,-5.32 -14.87,-1.35 -35.11,7.35 -20.32,-2.29 -37.57,-3.18 -19.52,-1 -8.38,3.96 -11.77,7.56 -0.48,0.51 -0.91,1 -1.3,1.46l0 24.14c3.73,0.37 6.96,0.6 9.41,0.67 24.06,0.6 52.3,-5.1 70.41,-14.56 12.26,-6.41 7.31,-6.88 19.67,-13.26 6.66,32.67 2.96,6.9 2,37.35 -11.49,0.37 -27.48,-1.4 -34.89,3.02 8.44,4.56 -9.97,-5.68 6.13,2.24 5.38,2.65 3.86,1.71 8.04,4.98l33.77 41.48c-0.75,0.47 -2.85,1.09 -2.3,1.34 0.54,0.24 -1.77,1.06 -2.21,1.41 -0.43,0.33 -1.56,1.07 -2.05,1.49l-7.85 9.41 -80.96 0.53c-10.24,2.56 -6.67,1.16 -11.97,6.02l5.72 4.44c0.43,0.13 1.46,0.47 1.95,0.56l94.32 -1.57c10.97,3.85 5.11,3.22 8.12,8.48l3.61 -6.69c1.99,-3.72 -2.72,-4.29 1.13,-1.97l6.56 43.38c-46.91,8.39 -63.99,-10.8 -83.88,7.26 -8.77,7.96 -21.17,27.54 -43.22,9.66 -0.58,-0.47 -1.08,-0.89 -1.52,-1.26l0 62.61z"/>
     <path class="fil4" d="M2509.89 1439.01c-13.04,-9.42 -74.17,-3.53 -94.11,-2.05l-0.82 172.54c6.36,11.68 -6.05,7.76 36.91,7.76 1.12,-35.09 -0.15,-35.57 11.32,-63.14 17.85,7.33 17.86,46.74 17.19,66.39 35.2,-15.69 28.67,-17.44 30.07,-77.21 0.5,-21.28 2.79,-87.84 -0.55,-104.29z"/>
    </g>
    <path class="fil5" d="M2180.72 1961.18c-14.05,2.59 -3.92,-0.84 -7.79,4.5l-1.55 7.32c-16.91,-10.55 -13.3,-5.47 -32.77,-3.23l-0.02 -9.84c-9.48,2.25 -22.93,13.06 -43.05,7.23l-1.74 -74.2c24.33,1.52 46.4,0.93 71.02,1.34 23.28,0.39 47.48,2.86 62.28,-6.57 -9.53,-11.41 -0.49,-6.13 -16.21,-9.63l-49.35 0.78c-21.11,0.66 -42.31,-1.38 -61.66,0.85 1.15,-11.71 8.62,-65.14 12.2,-74.74 0.81,-2.19 5.55,-10.77 5.71,-11.42 4.43,-17.78 0.28,18.98 -1.59,-10.85 -0.48,-7.63 3.22,-25.72 6,-31.57 10.17,-0.15 20.11,1.89 30.03,1.01 19.93,-1.77 8.29,-0.49 15.79,-5.8l9.92 24.65c4.29,-2.42 13.97,-6.6 19.67,-9.11 7.69,4.26 43.04,24.36 45.57,28 9.98,14.39 -1.52,39.39 3.49,51.92 -0.5,0.35 -1.49,0.56 -1.73,0.61 -0.22,0.04 -1.36,0.43 -1.61,0.46 -0.2,0.03 -1.2,0.21 -1.4,0.22l-3.22 -1.29c0.22,12.12 0.17,18.87 -3.37,26.25 -0.97,-6.44 10.57,-8.88 20.59,-11.94 -16.83,27.24 -9.85,15.27 -32.07,28.36 9.03,11.22 -13.88,9.81 19.67,9.81l-8.41 6.58c0.35,0.29 -1.04,9.93 12.65,4.19 -3.98,2.9 -7.46,2.77 -8.46,11.41l1.67 35.86c3.1,6.63 6.41,5.63 0.63,14.17 -8.79,-2.36 3.21,-2.85 -14.19,-5.55l-46.7 0.23zm-218.85 283.22l0 -3.4c0.47,1.43 1.13,2.87 2.01,4.34 -0.63,-0.25 -1.3,-0.57 -2.01,-0.94zm0 -18.52l0 -401.05c2.26,-0.75 4.44,-1.55 6.54,-2.39 6.53,-2.61 19.11,-12.75 24.92,-17.76 43.27,-37.25 34.6,-83.65 20.84,-126.87 18.3,12.8 3.85,4.04 9.48,-0.02 -0.26,-8.15 -1.83,-1.98 10.19,-16.39 6.59,-7.91 -8.06,0.17 3.1,-3.31 0.13,0.06 12.88,4.93 13.65,5.04 12.97,1.73 15.47,-2.06 19.13,-5.02 -4.66,-8.55 -0.98,-5.68 -11.18,-9.89 -15.29,-6.3 -12.7,-0.35 -13.53,0.02 9.7,-2.53 18.39,0.01 31.26,0.01 0,-24.91 -1.95,-27.13 -9.89,-47.97 -10.88,-28.57 -16.23,-17.06 -29.46,-24.17 -1.76,-22.76 -3.12,-41.68 3.28,-65.64l39.36 1.85 -0.06 112.99c-0.17,12.13 -1.63,20.43 2.31,28.92 6.13,13.17 -5.43,-1.15 5.14,6.52 -2.34,1.78 1.54,-1.11 -1.76,0.05l-8.9 3.87c0.93,17.35 -3.58,13.85 8.84,21.52 2.16,1.34 19.21,6.45 22.35,7.7l20.17 6.47c6.08,1.6 18.86,14.87 34.09,9.78 12.73,-4.26 4.09,1.41 12.88,-8.13 -18.15,-5.31 17.5,-7.2 -9.28,-5.26 -5,0.37 -3.66,5.34 -3.84,3.62l-55.14 -24.14c-0.6,-0.33 -1.49,-0.76 -2.04,-1.12 -1.91,-1.26 -6.24,-1.29 -7.18,-9.65 7.24,1.23 2.74,0.61 8.48,3.55l29.67 12.86 3.33 -7.65c2.36,-3.05 5.61,-5.63 9.79,-8.7 7.07,6.97 4.48,9.22 9.83,15.82l2.34 -6.59c3.32,-4.29 -7.22,-0.25 8.63,-4.82 23.22,-6.69 31.02,-8.08 54.15,-3.9 1.79,0.33 13.13,2.46 14.25,2.47 1.56,0.01 4.78,-0.14 6.06,-0.37 9.51,-1.67 2.22,1.5 9.44,-3.47 -2.67,-14.45 1.93,-12.16 -12.91,-15.25l12.61 0.39c0.45,0.04 1.43,0.25 1.87,0.29 12.19,1.05 10.41,-0.93 18.3,-14.52 -73.75,0.41 -53.2,-22.66 -73.53,17.44l-18.35 -0.12c-0.22,-29.94 -3.61,-9.35 -11.38,-24.74 -3.46,-6.86 -2.37,-25.08 -1.77,-35.65 9.98,-7.2 20.31,-14.18 31,-12.33 19.51,3.39 -13.78,5.89 16.45,3.52 13.46,11.65 -6.37,16.79 29.08,19.42 -0.22,-37.01 -1.81,-75.86 -0.2,-112.3 2.18,-49.21 -8.94,-87.03 14.85,-94.43 6.81,20.99 0.63,69.17 3.32,84.61l2.71 8.7c0.26,0.74 0.73,1.88 1.27,2.72 7.92,-11.26 6.25,-25.24 13.11,-38.3l22.94 -0.89c12.98,23.17 0.84,36.32 16.4,38.15 6.2,-29.98 -5.15,-65.09 4.43,-94.89 14.12,3.12 -0.49,-0.2 13.92,9.02 4.62,62.3 0.5,117.63 0.31,177.24l1.59 19.02c0.22,0.93 0.71,2.07 0.91,2.8 0.2,0.73 0.57,1.88 1,2.75l17.17 0.69c12.06,4.13 4.97,0.35 13.11,10.71 -37.95,0 -32.13,-4.03 -47.15,-3.58 -15.14,0.46 -37.94,-24.93 -46.73,-36.52l86.85 89.33c-4.17,4.97 1.26,1.26 -6.97,4.67 -9.67,4.02 -2.23,0.29 -2.38,-0.51 6.8,9.15 5.27,12.88 3.98,25.36 11.52,9.52 6.3,1.7 3.46,15.05 14.57,4.03 5.95,-2.2 12.24,11.43 13.14,-3.85 2.79,-2.33 9.13,-4.11 0.54,-0.15 1.5,-0.42 2.02,-0.51l3.74 -0.12c0.44,0.02 1.38,0.23 1.82,0.28l7.94 1.53c0.63,0.13 1.74,0.33 2.33,0.47l5.04 1.37c-0.5,0.11 1.87,0.37 2.66,0.86l-22.52 4.64c-7.7,1.24 -14.13,2.33 -21.64,4.33 15.67,17.61 -7.72,17.83 34.04,27.91 7.44,1.79 18.96,5.81 26.63,6.55 10.5,1.01 8.08,-4.07 11.9,-2.55 0.08,0.03 0.58,0.41 0.66,0.46l93.61 31.29c-2.39,-14.69 -5.76,-23.46 6.57,-29.78 3.83,3.9 3.85,10.81 4.08,15.49 0.35,7.06 0.05,15.92 0.43,23.65 14.24,2.67 18.94,5.73 34.82,6.56 0,-29.02 0.97,-168.74 -16.61,-176.54 -0.1,-0.04 -0.78,-0.13 -0.89,-0.18 -3.82,-1.69 -18.72,-12.61 -31.06,-12.11l-19.93 -0.52c-0.48,-0.07 -1.47,-0.17 -1.93,-0.24 -9.81,-1.55 -6.78,2.32 -10.93,-4.9 6.89,-18.12 0.16,-5.25 9.22,-11.69l9.66 11.25c7.65,-15.65 5.98,-261.27 4.78,-298.73l24.81 -1.76 2.35 298.61c8.94,6.78 24.57,9.24 24.83,20.91l1.01 -152.72c14,6.48 12.99,8.81 17.02,28.02 2.7,12.87 3.94,23.05 3.79,38.11 -0.29,29.56 -0.11,59.09 -0.13,88.65 -0.05,56.79 -2.97,120.69 0.28,176.61 3,0.54 8.25,1.71 15.4,3.42l0 35.06 -253.85 0c-4.36,-2.65 -8.96,-5.44 -13.88,-8.39 -19.58,-11.79 -48.82,-5.3 -75.61,-3.15 -0.92,56.51 4.91,240.9 -3.05,280.44 -8.88,-2.08 -7.3,4.88 -5.85,-31.22 0.72,-17.78 -0.73,-15.87 5.48,-29.49l3.59 -6.63c-13.74,-5.25 -6.11,-6.31 -15.55,-17.33 -5.75,-6.71 -12.03,-9.42 -17.24,-15.48 -3.59,1 -10.78,4.6 -11.38,4.7 -0.13,0.02 0.36,3.33 -2.01,-2.31l-33.77 1.96c7.61,24.95 7.4,18.6 1.28,20.12 0.39,-0.2 5.31,8.74 -0.02,-11.35l-56.22 1.2c-0.32,-1.77 -1.36,-3.04 -0.6,-3.43l-2.75 -21.29c-1.23,-14.9 1.33,-19.12 3.83,-32.25 -21.39,5.97 -16.61,2.85 -36.05,2.52l-3.11 53.2c-6.34,-7.74 -9.09,-21.13 -11.82,-31.05l-9.7 -57.5c-3.04,-1.52 -4.98,3.76 -11.44,-8.52l-2.32 6.9c-4.37,8.51 9.06,-4.27 -3.02,4.49 -9.71,7.04 -26.54,-19.68 -26.54,-19.69 -2.09,-2.92 -4.3,-5.67 -6.53,-8.49 -6.06,10.38 -1.52,6.54 -19.8,6.43l-22.83 114.17 104.08 0.06c17.6,2.44 5.96,-1.61 12.94,6.34l-7.1 3.72c-0.86,0.27 -1.78,0.61 -2.77,0.87 -2.61,0.67 -12.54,1.59 -16.15,1.69 -26.63,0.71 -69,-2.2 -91.83,0.29l-13.06 150.99c-0.29,7.79 -1.98,14.14 -3.09,19.83z"/>
    <path class="fil6" d="M1961.87 3565.33c2.3,0.11 5.48,1.01 12.85,5.49 11.94,7.25 26.45,14.77 27.78,28.05 -11.37,0.35 -28.15,-7.84 -40.63,-12.81l0 15.75c32.98,8.87 74.43,58.15 61.85,123.41 -6.22,32.29 -23.95,26.43 -16.93,59.36l306.46 -51.63c11.39,-49.62 28.83,-131.28 1.66,-171.19l-287.6 -10.72c0.38,-84.06 5.81,-181.12 10.45,-265.82 10,-182.55 12.06,-335.81 27.62,-521.11l20.63 -253.04c-12.72,19.13 2.13,5.56 -16.27,13.09 3.63,-18.22 3.19,-36.93 3.48,-55.76 0.31,-20.74 1.16,-30.44 -6.6,-45.83 -0.8,0.66 -1.9,1.38 -2.48,1.87 -0.56,0.46 -1.73,1.25 -2.36,1.82 -0.58,0.52 -1.53,1.19 -2.09,1.76 -0.98,1 -2.94,2.98 -3.7,5.14 -3.41,9.7 6.34,4.7 -1.62,33.56l-1.43 5.28c-5.74,26.47 -6.56,31.8 -0.73,49.22l3.14 8.96c-0.83,0.44 0.58,1.94 1.15,2.77 3.59,-2.91 -2.36,-3.78 12.72,-2.2l-26.48 32.36c-0.76,1.14 -6.17,9.28 -6.7,9.87 -7.91,8.77 1.17,0.96 -7.44,5.85 -8.56,4.86 -6.61,1.12 -13.6,7.67 -10.73,0.47 -14.23,5.33 -26.98,4.86 -10.5,-0.39 -17.51,-1.08 -26.14,-1.21l0 975.19z"/>
    <path class="fil7" d="M2195.29 1499.04l15.13 0.04 2.5 -29.52c13.65,-9.11 14.92,-3.82 15.77,-27.69 0.85,-24.06 4.24,-108.93 -5.04,-120.85 -10.08,-13.56 -27.53,-11.35 -40.03,-0.79 -7.85,13.98 -1.58,28.88 -4.82,44.96 -0.65,-19.73 -0.85,-42.72 -0.61,-64.8l-8.17 0 -2.13 -308.69c-5.95,-4.96 -10.68,-8.61 -13,-10.01 -2.95,6.78 -7.5,33.3 -10.7,46.28 -3.9,15.82 -7.03,29.66 -11.91,46.94 -13.85,49.07 -27.85,95.41 -37.89,146.28l-14.5 43.65c-4.71,15.96 -8.72,30.52 -13.67,45.39 -4.22,12.69 -1.8,12.77 -3.25,24.4 -2.7,21.7 7.89,-15.75 -1.5,5.17l-5.41 9.95c1.33,1.31 5.77,5.26 6.95,6.47l19.83 19.61c30.1,26.04 -6.09,13.92 37.42,41.38l17.89 14.92c13.23,11.09 14.96,17.12 25.26,24.19 3.66,-11.23 6.72,-10.1 11.27,-24.54l5.49 6.64c13.18,20.41 -5.22,11.53 16.58,25.65l10.69 7.06c0,23.23 -1.04,23.34 -13.11,25.57l0.98 2.33zm-27.92 -584.19l-6.65 27.04c-1.26,7.42 3.26,11.37 -5.75,17.49 -4.03,-3.45 1.26,-6.11 12.61,-14.57l-0.21 -29.95zm0.31 45.49l-8.06 8.88c2.17,3.31 4.96,6.94 8.19,10.75l-0.13 -19.63z"/>
    <path class="fil8" d="M1961.87 2590.13c8.63,0.13 15.64,0.82 26.14,1.21 12.75,0.47 16.25,-4.39 26.98,-4.86 6.5,-25.6 15.24,-2.15 6.28,-40.86 -2.87,-12.4 -6.31,-33.78 -10.55,-43.79 -8.24,1.11 -5.13,-0.17 -10.37,5.15 -0.02,0.02 -4.17,6.85 -4.61,8.35 -2.19,7.37 -1.5,17.4 -1.29,25.19 0.57,20.74 -0.42,35.46 -2.19,43.75 -13.04,1.83 -23.06,3.75 -30.39,1.74l0 4.12zm0 -167.86c36.01,-1.54 77.01,3.71 104.75,0.28 7.76,15.39 6.92,25.09 6.6,45.83 -0.28,18.83 0.15,37.54 -3.48,55.76 18.4,-7.53 3.54,6.04 16.27,-13.09l10.56 -124.63 -30.13 -21.43c-7.49,10.43 2.68,-14.08 -0.61,4.44 -3,16.87 -3.22,3.56 -0.93,17.8l1.22 8.66c0.4,4.81 0.25,10.7 0.33,15.61 -20.76,3.24 -74.11,4.65 -104.59,2.67l0 8.08zm0 -132.63c33.07,-2.77 99.05,-3 121.65,-2.35 -3.62,9.87 -14.01,56.62 -12.2,65.46 0.12,0.6 0.43,1.51 0.62,2.09 0.26,0.81 4.98,9.67 5.47,10.52 10,17.41 12.16,14.28 19.85,16.98l6.19 -101.3c-33.23,-4.57 -94.11,0.93 -115.74,-0.23l-25.83 -2.47 0 11.31z"/>
    <path class="fil9" d="M2102.5 880.91l3.35 -15.91c0.02,-0.93 0.11,-12.41 0.35,-15.4l51.72 -4.3 -53.72 -4.04 0.66 -26.25 -12.2 0c-4.43,13.46 -11.45,36.57 -9.84,48.59 -3.45,9.14 -1.57,5.01 -5.77,11.07l-17.18 18.62c-33.76,0.5 -23.14,-6.19 -37.35,-10.47l-60.67 -0.06 0 229.06c5.56,0.11 11,0.25 16.17,0.37 36.24,0.81 32.43,10.21 33.72,-24.93l5.51 20.83c22.15,0.59 11.18,1.68 15.35,-5.8l11.14 -123.24c4.21,-63.1 -5.21,-58.93 16.83,-78.28l13.16 -12.49c9.75,-7.18 16.8,-6.7 28.75,-7.4z"/>
    <path class="fil10" d="M1961.87 1824.83c2.26,-0.75 4.44,-1.55 6.54,-2.39 6.53,-2.61 19.11,-12.75 24.92,-17.76 43.27,-37.25 34.6,-83.65 20.84,-126.87 -9.03,-11.41 -28.44,-31.93 -40.64,-38.19 -3.8,-1.95 -7.7,-3.53 -11.66,-4.76l0 30.35c39.49,20.13 57.44,88.84 0,118.57l0 41.04zm0 -70.89c5.56,-5.86 9.8,-13.21 12.01,-22.03 3.94,-15.65 -1.43,-31.86 -12.01,-41.04l0 63.07zm0 -134.77c13.41,5.4 26.26,11.74 41.88,13.02 -2.3,-18.83 -24.61,-30.4 -41.88,-35.54l0 22.52z"/>
    <path class="fil11" d="M1961.87 3794.5c0.83,6.68 0.48,12.96 0,18.47l0 17.37c1.46,3.27 5.01,4.44 12.78,2.72 15.15,-3.35 -0.43,-41.6 13.83,-55.72 10.8,-10.7 3.46,-13.63 9.68,-1.84 2.78,-3.92 1.56,1.01 3.43,-8.31 2.44,-12.16 -2.11,-11.24 -0.11,-25.58 4.37,5.94 2.15,-2.28 3.06,9.67 0.5,6.57 -0.68,6.72 -1.05,12.9 -0.51,8.44 -1.25,13.21 3.31,20.38 -7.02,-32.93 10.71,-27.07 16.93,-59.36 12.57,-65.26 -28.87,-114.54 -61.85,-123.41l0 31.63c37.9,17.3 52.14,76.2 22.8,101.45 -9.07,7.81 -16.24,13.56 -22.8,17.79l0 41.83zm0 -76.08c0.87,-1.13 1.67,-2.28 2.35,-3.42 14.67,-24.6 8.97,-43.83 -2.35,-54.8l0 58.22zm0 -132.36c12.48,4.97 29.27,13.17 40.63,12.81 -1.33,-13.28 -15.84,-20.8 -27.78,-28.05 -7.37,-4.48 -10.56,-5.38 -12.85,-5.49l0 20.73z"/>
    <path class="fil12" d="M1961.87 1332.02c3,0.16 6.13,0.38 9.41,0.68 -0.83,-13.96 -7.42,-61.46 3.36,-68.85 3.82,9.57 2.69,54.43 0.96,67.05 13.76,0.35 37.97,-0.61 48.66,1.89l-4.06 -4.39c-20.54,-22.58 -34.57,-30.71 -36.24,-43.87 11.74,2.58 18.13,10.69 24.94,17.78 11.88,12.38 10.52,16.5 24.11,24.46 -5.98,-37.6 5.26,-172.59 -4.13,-191.87l-27.92 -1.78c-9.14,0.73 -24.25,1.05 -39.11,1.57l0 197.32z"/>
    <path class="fil13" d="M2096.57 2386.43l0.69 -4.09c-7.7,-2.69 -9.85,0.44 -19.85,-16.98 -0.49,-0.86 -5.21,-9.71 -5.47,-10.52 -0.19,-0.58 -0.5,-1.5 -0.62,-2.09 -1.81,-8.83 8.58,-55.59 12.2,-65.46 -22.6,-0.64 -88.58,-0.42 -121.65,2.35l0 124.55c30.48,1.98 83.83,0.57 104.59,-2.67 -0.08,-4.92 0.07,-10.8 -0.33,-15.61l-1.22 -8.66c-2.29,-14.24 -2.07,-0.94 0.93,-17.8 3.29,-18.53 -6.88,5.98 0.61,-4.44l30.13 21.43z"/>
    <path class="fil14" d="M1961.87 3752.67c6.56,-4.23 13.72,-9.98 22.8,-17.79 29.34,-25.25 15.11,-84.16 -22.8,-101.45l0 26.77c11.32,10.97 17.02,30.2 2.35,54.8 -0.69,1.15 -1.48,2.29 -2.35,3.42l0 34.26z"/>
   </g>
   <g>
    <g>
     <path class="fil0" d="M1910.77 2586.87c-6.99,-6.54 -5.05,-2.8 -13.61,-7.66 -8.61,-4.89 0.46,2.91 -7.44,-5.86 -0.54,-0.59 -5.94,-8.73 -6.7,-9.87l-26.48 -32.37c15.07,-1.57 9.13,-0.7 12.72,2.2 0.56,-0.82 1.98,-2.33 1.14,-2.77l3.14 -8.96c5.82,-17.42 5.01,-22.75 -0.73,-49.22l-1.42 -5.28c-7.96,-28.85 1.79,-23.85 -1.62,-33.56 -0.76,-2.16 -2.72,-4.13 -3.7,-5.14 -0.56,-0.57 -1.51,-1.24 -2.09,-1.76 -0.63,-0.57 -1.8,-1.36 -2.36,-1.82 -0.58,-0.48 -1.69,-1.2 -2.48,-1.87 27.74,3.43 68.74,-1.83 104.75,-0.29l0 163.74c-7.33,2.02 -17.35,0.09 -30.39,-1.74 -1.77,-8.3 -2.75,-23.02 -2.18,-43.75 0.21,-7.79 0.9,-17.82 -1.29,-25.19 -0.44,-1.5 -4.59,-8.33 -4.61,-8.35 -5.24,-5.32 -2.13,-4.04 -10.37,-5.15 -4.24,10 -7.68,31.38 -10.55,43.78 -8.96,38.71 -0.22,15.26 6.28,40.86z"/>
     <path class="fil0" d="M1927.6 3775.9c6.21,-11.8 -1.13,-8.86 9.68,1.84 14.26,14.12 -1.31,52.36 13.83,55.71 7.76,1.72 11.32,0.55 12.78,-2.72l0 92.76c-4.51,3.47 -3.51,9.58 -12.78,13.52 -10.82,-9.7 0.44,0 -6.91,-10.73 -8.25,-12.06 -10.56,-6.54 -12.43,-17.38l-4.17 -133zm36.29 37.46c-0.48,-5.5 -0.83,-11.79 0,-18.47l0 18.47z"/>
    </g>
    <g>
     <path class="fil1" d="M1410.28 1617.74l0.8 -139.67c-0.11,-28.52 -4.62,-34.51 4.78,-38.67 -3.33,16.45 -1.05,83.01 -0.55,104.29 1.4,59.76 -5.14,61.52 30.07,77.21 -0.67,-19.65 -0.67,-59.06 17.19,-66.39 11.47,27.57 10.21,28.04 11.32,63.14 42.96,0 30.55,3.93 36.91,-7.76l56.71 -1.48c-12.07,4.13 -4.98,0.35 -13.12,10.7 37.95,0 32.13,-4.03 47.15,-3.58 15.14,0.45 37.94,-24.93 46.73,-36.52l-86.84 89.33c4.17,4.97 -1.26,1.26 6.96,4.68 9.67,4.01 2.23,0.29 2.38,-0.51 -6.8,9.14 -5.27,12.87 -3.98,25.35 -11.52,9.52 -6.3,1.7 -3.46,15.05 -14.57,4.03 -5.95,-2.21 -12.24,11.43 -13.14,-3.85 -2.79,-2.33 -9.13,-4.11 -0.54,-0.15 -1.5,-0.42 -2.02,-0.51l-3.74 -0.12c-0.44,0.02 -1.38,0.23 -1.82,0.28l-7.94 1.53c-0.63,0.14 -1.74,0.34 -2.34,0.47l-5.04 1.37c0.5,0.11 -1.86,0.37 -2.65,0.86l22.52 4.65c7.7,1.24 14.13,2.33 21.64,4.33 -15.67,17.61 7.72,17.83 -34.04,27.9 -7.44,1.8 -18.96,5.81 -26.63,6.55 -10.5,1.01 -8.08,-4.07 -11.91,-2.55 -0.08,0.03 -0.58,0.41 -0.66,0.46l-93.61 31.28c2.39,-14.69 5.76,-23.46 -6.57,-29.78 -3.83,3.9 -3.85,10.81 -4.08,15.48 -0.35,7.06 -0.04,15.92 -0.42,23.65 -14.24,2.67 -18.94,5.73 -34.83,6.56 0,-29.02 -0.97,-168.74 16.61,-176.54 0.1,-0.04 0.78,-0.13 0.89,-0.18 3.82,-1.69 18.72,-12.61 31.06,-12.11l19.93 -0.52c0.48,-0.07 1.47,-0.17 1.93,-0.24 9.81,-1.55 6.78,2.32 10.93,-4.9 -6.89,-18.12 -0.16,-5.25 -9.22,-11.68l-9.66 11.25z"/>
     <path class="fil1" d="M1787.17 1960.33l-0.02 9.84c-19.47,-2.24 -15.87,-7.32 -32.77,3.22l-1.55 -7.32c-3.87,-5.35 6.25,-1.92 -7.79,-4.51l-46.7 -0.23c-17.4,2.7 -5.4,3.19 -14.19,5.55 -5.78,-8.54 -2.48,-7.54 0.63,-14.17l1.67 -35.86c-1,-8.63 -4.48,-8.51 -8.46,-11.4 13.69,5.74 12.3,-3.9 12.65,-4.19l-8.41 -6.57c33.56,0 10.64,1.41 19.67,-9.81 -22.22,-13.09 -15.24,-1.12 -32.07,-28.36 10.02,3.06 21.57,5.51 20.59,11.94 -3.54,-7.37 -3.59,-14.13 -3.37,-26.24l-3.23 1.29c-0.2,-0.02 -1.19,-0.19 -1.4,-0.22 -0.24,-0.04 -1.39,-0.42 -1.6,-0.46 -0.24,-0.05 -1.23,-0.26 -1.73,-0.61 5.01,-12.54 -6.48,-37.54 3.5,-51.93 2.52,-3.63 37.88,-23.74 45.56,-27.99 5.7,2.52 15.39,6.69 19.67,9.11l9.92 -24.65c7.5,5.31 -4.13,4.02 15.79,5.8 9.92,0.89 19.87,-1.15 30.03,-1 2.77,5.85 6.48,23.94 6,31.57 -1.88,29.83 -6.02,-6.94 -1.59,10.85 0.16,0.65 4.9,9.24 5.71,11.42 3.57,9.6 11.05,63.03 12.2,74.74 -19.35,-2.22 -40.54,-0.18 -61.66,-0.85l-49.35 -0.78c-15.72,3.5 -6.69,-1.78 -16.21,9.63 14.8,9.44 39,6.96 62.28,6.57 24.62,-0.41 46.69,0.18 71.02,-1.34l-1.74 74.21c-20.11,5.82 -33.57,-4.98 -43.05,-7.23z"/>
    </g>
    <g>
     <path class="fil2" d="M1963.89 2278.73l-25.83 2.47c-21.63,1.16 -82.51,-4.34 -115.74,0.23l-23.86 -9.48c4.2,-28.15 21.6,-39.4 19.72,-75.9l-8.04 16.37c-17.88,-5.51 -25.44,-13.51 -44.02,-14.05 -19.36,-0.56 -23.13,-12.19 -42.87,-12.97 -35.23,-1.41 -54.11,-25.5 -60.7,-62.6 8.87,-2.08 7.3,4.88 5.85,-31.23 -0.72,-17.78 0.73,-15.87 -5.48,-29.48l-3.59 -6.63c13.74,-5.25 6.11,-6.31 15.54,-17.32 5.75,-6.71 12.03,-9.43 17.24,-15.48 3.59,1 10.79,4.59 11.38,4.7 0.13,0.02 -0.36,3.33 2.01,-2.3l33.77 1.96c-7.61,24.95 -7.4,18.6 -1.28,20.12 -0.39,-0.2 -5.31,8.73 0.02,-11.36l56.22 1.2c0.32,-1.77 1.36,-3.04 0.6,-3.43l2.75 -21.28c1.23,-14.9 -1.33,-19.12 -3.83,-32.25 21.4,5.97 16.61,2.86 36.05,2.52l3.11 53.21c6.35,-7.74 9.09,-21.13 11.82,-31.05l9.7 -57.49c3.04,-1.53 4.97,3.76 11.44,-8.53l2.31 6.9c4.37,8.5 -9.05,-4.27 3.02,4.49 9.71,7.05 26.54,-19.68 26.54,-19.69 0.69,-0.96 1.25,-1.74 1.93,-2.67l4.6 -5.82c6.06,10.38 1.52,6.54 19.8,6.44l22.83 114.16 -104.08 0.07c-17.6,2.44 -5.96,-1.61 -12.94,6.34l7.1 3.72c0.86,0.27 1.78,0.61 2.77,0.87 2.61,0.67 12.54,1.59 16.15,1.69 26.63,0.7 69,-2.2 91.83,0.29l13.06 150.99c0.29,7.79 1.97,14.14 3.09,19.83l0 15.12c-0.47,1.43 -1.13,2.87 -2.01,4.34 0.63,-0.25 1.3,-0.56 2.01,-0.94l0 33.94z"/>
     <path class="fil2" d="M1963.89 815.39c-0.43,0.37 -0.94,0.79 -1.52,1.26 -22.04,17.87 -34.45,-1.7 -43.21,-9.66 -19.89,-18.07 -36.98,1.13 -83.89,-7.26l6.56 -43.38c3.85,-2.31 -0.85,-1.75 1.13,1.97l3.61 6.69c3.01,-5.26 -2.85,-4.63 8.12,-8.48l94.32 1.57c0.49,-0.09 1.52,-0.42 1.95,-0.56l5.72 -4.45c-5.3,-4.86 -1.73,-3.45 -11.97,-6.01l-80.96 -0.53 -7.85 -9.41c-0.5,-0.42 -1.62,-1.16 -2.05,-1.49 -0.44,-0.35 -2.75,-1.17 -2.21,-1.41 0.55,-0.25 -1.55,-0.87 -2.3,-1.34l33.77 -41.48c4.18,-3.28 2.66,-2.33 8.04,-4.98 16.09,-7.92 -2.31,2.31 6.12,-2.24 -7.41,-4.41 -23.4,-2.65 -34.89,-3.01 -0.96,-30.45 -4.67,-4.68 2,-37.35 12.36,6.38 7.41,6.85 19.67,13.26 18.11,9.46 46.36,15.16 70.41,14.56 2.45,-0.06 5.68,-0.29 9.41,-0.67l0 144.4zm0 -168.54c-0.39,-0.46 -0.82,-0.94 -1.3,-1.45 -3.39,-3.59 7.74,-8.56 -11.77,-7.56 -17.25,0.89 -2.45,10.53 -37.57,3.18 -18.94,-3.96 -6.29,-0.54 -14.87,1.35 -19.14,4.22 -20.58,-0.68 -39.06,-0.84l9.83 -29.49c1.39,0.18 2.77,0.52 4.13,0.84 16.75,3.88 15.01,5.72 31.94,5.72l-0.72 -7.91c0.88,-9.88 0.83,-1.79 0.34,-12.28 -0.81,-17.11 -1.39,-20.14 10.2,-31.04 16.85,6.26 5.7,2.26 13.11,13.65l35.73 0.83 0 64.99zm0 -75.86c-14.31,0.91 -32.79,-1.33 -39.46,-4.29 1.58,-12.73 -2.45,-5.08 5.32,-11.74 6.29,-5.38 24.67,-7.51 32.19,-8.07l-13.19 -5.38c-8.06,-3.66 -2.54,3.08 -7.52,-5.86l22.66 -2.66 0 38z"/>
    </g>
    <path class="fil3" d="M1963.89 1135.09c-14.86,-0.52 -29.97,-0.84 -39.11,-1.57l-27.92 1.78c-9.39,19.28 1.84,154.27 -4.13,191.87 13.59,-7.97 12.24,-12.08 24.12,-24.46 6.81,-7.09 13.2,-15.2 24.94,-17.79 -1.66,13.16 -15.7,21.29 -36.24,43.87l-4.06 4.39c10.69,-2.49 34.9,-1.54 48.66,-1.88 -1.73,-12.62 -2.86,-57.48 0.96,-67.06 10.78,7.39 4.19,54.89 3.36,68.85 3.28,-0.3 6.42,-0.52 9.41,-0.68l0 12.11c-8.96,-4.15 -18.91,-3.5 -31.34,2.33 -24.69,11.57 -4.89,22.22 -34.59,28.49l-3.62 -25.17c-10.44,14.15 3.73,26.68 3.15,42.79l-3.58 12.16c0.93,0.68 -1.02,2.17 -1.81,3.04 -10.41,-12.46 -12.52,-30.18 -17.56,-47.31 -6.19,5.05 -8.48,8.64 -13.94,13.51 -14.08,12.58 -16.71,18.26 -31.61,27.45 -10.74,6.62 -10.76,13.62 -20.15,22.48 -18.58,17.54 -30.85,35.7 -51.17,49.68 -0.38,-0.75 -0.33,-1.99 -0.35,-2.5 -0.02,-0.48 -0.2,-1.82 -0.2,-2.39l0.02 -13.15c-0.13,-0.36 -3.26,-5.62 -3.35,-5.83 -3.08,25.89 4.68,78.3 -0.87,100.93 -7.3,-6.67 -4.1,-31.34 -4.05,-43.41 -0.78,-0.69 -2.01,-1.18 -2.72,-1.54 -0.69,-0.35 -1.84,-1.04 -2.67,-1.45 -0.79,-0.38 -1.76,-0.88 -2.59,-1.26 -11.45,-5.25 -1.75,3.13 -10.41,-3.93l0.97 -2.33c-12.07,-2.23 -13.11,-2.34 -13.11,-25.57l10.69 -7.06c21.8,-14.13 3.41,-5.24 16.59,-25.65l5.48 -6.64c4.54,14.44 7.61,13.31 11.27,24.54 10.29,-7.07 12.02,-13.1 25.26,-24.19l17.89 -14.91c43.5,-27.46 7.31,-15.34 37.42,-41.38l19.83 -19.62c1.18,-1.21 5.62,-5.15 6.95,-6.47l-5.41 -9.95c-9.39,-20.92 1.2,16.52 -1.5,-5.17 -1.45,-11.62 0.96,-11.71 -3.25,-24.4 -4.94,-14.87 -8.96,-29.43 -13.67,-45.39l-14.5 -43.65c-10.04,-50.86 -24.04,-97.2 -37.89,-146.28 -4.88,-17.28 -8.01,-31.12 -11.91,-46.94 -3.2,-12.98 -7.75,-39.51 -10.7,-46.29 -2.32,1.4 -7.05,5.05 -13,10.01l0.08 -11.73c3.22,-3.81 6.02,-7.44 8.19,-10.76l-8.06 -8.88 0.11 -15.54c11.35,8.46 16.64,11.13 12.61,14.58 -9.01,-6.12 -4.49,-10.07 -5.75,-17.49l-6.65 -27.04 0.29 -42.41c7.58,27.39 19.86,57.69 22.59,84 11.5,-11.54 -0.3,-7.56 17.87,-14.96 -0.95,17.67 2.11,6.32 -6.07,17.13 -8.69,11.48 -0.08,-3.79 -7.77,7.33 8.74,27.23 32.54,30.96 41.46,56.89 -10.13,-3.14 -33.44,-25.89 -33.41,-25.92 0.65,-0.41 -1.65,-1.48 -2.55,-2.12 11.24,25.78 18.24,59.31 25.06,87.39 11.72,48.2 63.83,232.91 65.05,257.51 7.88,-9.27 7.37,-10.04 3.42,-22.78 -11.3,-36.45 -6.48,-164.47 -2.1,-200.07l-9.59 -1.02c-11.94,-0.35 -14.42,1.91 -29.73,-0.51 -4.64,-12.49 -6.48,-18.94 0,-28.02 1.08,15.18 -2.59,10.59 6.54,19.73 14.88,0 16.37,-1.21 30.78,3.33 -2.61,-42.37 -20.93,-136.46 -21.08,-185.4 -39.31,18.79 -58.64,-2.61 -50.45,-27.66 6.38,-19.51 3.57,-3.74 14.56,-16.39 11.95,0.69 19,0.21 28.75,7.4l13.17 12.48c22.04,19.35 12.62,15.18 16.83,78.28l11.14 123.24c4.17,7.48 -6.8,6.4 15.35,5.8l5.51 -20.84c1.29,35.14 -2.52,25.74 33.72,24.93 5.18,-0.12 10.61,-0.25 16.17,-0.37l0 22.87zm0 413.09l0 -36.75c-11,0.29 -19.8,0.12 -24.47,-1.05 7.2,-9.62 12.33,-10.03 24.47,-9.76l0 -141.16c-2.51,-1.46 -5.75,-3.62 -11.52,-5.56 -6.06,14.33 -2.78,18.76 -13.68,27.4 -0.5,0.4 -1.61,1 -2.32,1.63 -0.23,8.67 -0.12,19.44 -2.31,27.04l-2.78 6.87c-5.43,17.65 1.41,16.58 -3.96,39.06 -3.67,15.35 -0.2,16.23 8.17,25.45l-5.47 5.55c-3.94,5.04 0.13,-4.76 -2.51,4.3l14.65 29.39c5.02,11.16 9.94,22.08 14.2,30.64 0.1,-0.06 4.89,-2.71 5.59,-2.8 0.83,-0.1 1.45,-0.19 1.93,-0.25zm0 -665.03l0 -5.15c-43.99,0.11 -90.38,-3.02 -97.28,-7.9l-10.6 -12.03c-26.43,0 -2.83,-1.09 -13.08,5.91 3.45,9.14 1.57,5.01 5.77,11.06l17.19 18.62c33.75,0.5 23.14,-6.19 37.34,-10.46l60.67 -0.06z"/>
    <g>
     <path class="fil4" d="M1963.89 1597.05c-17.26,5.13 -39.58,16.7 -41.88,35.54 15.62,-1.29 28.46,-7.62 41.88,-13.02l0 15.69c-3.95,1.23 -7.85,2.81 -11.66,4.76 -12.19,6.26 -31.61,26.78 -40.64,38.19 -18.3,12.8 -3.85,4.04 -9.48,-0.02 0.26,-8.15 1.83,-1.98 -10.19,-16.39 -6.6,-7.91 8.06,0.17 -3.11,-3.31 -0.13,0.06 -12.88,4.93 -13.65,5.04 -12.96,1.73 -15.47,-2.06 -19.13,-5.02 4.66,-8.55 0.98,-5.68 11.18,-9.89 15.29,-6.3 12.7,-0.35 13.53,0.02 -9.7,-2.53 -18.39,0.02 -31.26,0.02 0,-24.91 1.95,-27.13 9.89,-47.97 10.88,-28.57 16.23,-17.06 29.46,-24.17 1.76,-22.76 3.12,-41.68 -3.28,-65.64l-39.36 1.85 0.05 112.99c0.17,12.13 1.63,20.43 -2.31,28.92 -6.12,13.18 5.43,-1.14 -5.13,6.53 2.34,1.78 -1.54,-1.11 1.76,0.05l8.9 3.87c-0.93,17.34 3.58,13.84 -8.84,21.52 -2.16,1.33 -19.21,6.45 -22.34,7.7l-20.18 6.47c-6.08,1.6 -18.86,14.87 -34.09,9.78 -12.73,-4.26 -4.09,1.41 -12.87,-8.13 18.15,-5.31 -17.5,-7.2 9.28,-5.25 5,0.36 3.66,5.34 3.84,3.62l55.14 -24.14c0.6,-0.34 1.49,-0.76 2.04,-1.12 1.91,-1.25 6.24,-1.28 7.18,-9.65 -7.24,1.23 -2.74,0.62 -8.48,3.56l-29.66 12.85 -3.33 -7.65c-2.36,-3.04 -5.6,-5.63 -9.79,-8.7 -7.07,6.97 -4.48,9.22 -9.83,15.82l-2.34 -6.59c-3.32,-4.29 7.22,-0.25 -8.63,-4.82 -23.22,-6.69 -31.02,-8.08 -54.15,-3.9 -1.79,0.32 -13.13,2.46 -14.25,2.46 -1.56,0.01 -4.78,-0.14 -6.06,-0.37 -9.51,-1.67 -2.23,1.5 -9.44,-3.47 2.67,-14.46 -1.93,-12.17 12.91,-15.26l-10.7 0.25 -1.91 0.14c-0.45,0.04 -1.43,0.25 -1.87,0.29 -12.19,1.05 -10.41,-0.93 -18.31,-14.52 73.75,0.41 53.2,-22.66 73.53,17.44l18.35 -0.12c0.23,-29.94 3.61,-9.35 11.38,-24.74 3.46,-6.87 2.37,-25.08 1.77,-35.65 -9.98,-7.2 -20.3,-14.18 -31,-12.33 -19.51,3.39 13.78,5.89 -16.44,3.52 10.52,-17.78 19.8,-15.42 43.47,-15.69l-0.9 -17.39c5.55,-22.63 -2.21,-75.03 0.87,-100.93 0.09,0.22 3.22,5.47 3.35,5.83l-0.02 13.15c0,0.57 0.19,1.91 0.2,2.39 0.02,0.5 -0.03,1.74 0.35,2.5 20.32,-13.97 32.59,-32.14 51.17,-49.68 9.39,-8.87 9.42,-15.86 20.15,-22.48 14.9,-9.19 17.53,-14.87 31.61,-27.45 5.46,-4.87 7.75,-8.46 13.94,-13.51 5.04,17.13 7.15,34.85 17.56,47.31 0.79,-0.88 2.74,-2.37 1.81,-3.04l3.58 -12.16c0.58,-16.11 -13.59,-28.64 -3.15,-42.79l3.62 25.17c29.69,-6.26 9.89,-16.92 34.59,-28.49 12.43,-5.82 22.39,-6.48 31.34,-2.33l0 14.96c-2.51,-1.46 -5.75,-3.62 -11.52,-5.56 -6.06,14.33 -2.78,18.76 -13.68,27.4 -0.5,0.4 -1.61,1 -2.32,1.63 -0.23,8.67 -0.12,19.44 -2.31,27.04l-2.78 6.87c-5.43,17.65 1.41,16.58 -3.96,39.06 -3.67,15.35 -0.2,16.23 8.17,25.45l-5.47 5.55c-3.94,5.04 0.13,-4.76 -2.51,4.3l14.65 29.39c5.02,11.16 9.94,22.08 14.2,30.64 0.1,-0.06 4.89,-2.71 5.59,-2.8 0.83,-0.1 1.45,-0.19 1.93,-0.25l0 48.87zm0 187.13c-57.44,-29.73 -39.48,-98.45 0,-118.57l0 25.67c-10.58,9.19 -15.95,25.39 -12.01,41.04 2.22,8.81 6.45,16.17 12.01,22.03l0 29.84zm0 -272.74c-11,0.29 -19.8,0.12 -24.47,-1.05 7.2,-9.62 12.33,-10.03 24.47,-9.76l0 10.8zm0 -633.42c-43.99,0.11 -90.38,-3.02 -97.28,-7.9l-10.6 -12.03c-26.43,0 -2.83,-1.09 -13.08,5.91 1.61,-12.03 -5.41,-35.13 -9.84,-48.59l-12.2 0 0.66 26.25 -53.72 4.04 51.72 4.3c0.25,2.99 0.33,14.46 0.35,15.39l3.35 15.91c-10.99,12.65 -8.18,-3.13 -14.56,16.39 -8.19,25.04 11.15,46.45 50.45,27.66 0.15,48.94 18.47,143.02 21.08,185.4 -14.42,-4.55 -15.91,-3.33 -30.78,-3.33 -9.13,-9.14 -5.46,-4.55 -6.54,-19.73 -6.48,9.08 -4.64,15.53 0,28.02 15.31,2.42 17.79,0.16 29.73,0.51l9.59 1.02c-4.38,35.59 -9.2,163.61 2.1,200.07 3.95,12.74 4.46,13.51 -3.42,22.78 -1.22,-24.61 -53.33,-209.31 -65.05,-257.51 -6.83,-28.07 -13.82,-61.61 -25.06,-87.39 0.9,0.64 3.2,1.71 2.55,2.12 -0.04,0.02 23.28,22.78 33.41,25.92 -8.93,-25.93 -32.72,-29.66 -41.46,-56.89 7.69,-11.11 -0.92,4.16 7.77,-7.33 8.18,-10.8 5.12,0.54 6.07,-17.13 -18.18,7.4 -6.38,3.42 -17.87,14.96 -2.73,-26.31 -15.01,-56.61 -22.59,-84l0.33 -49.41c9.83,-24.48 5.61,-39.17 50.13,-71.37 27.69,-20.02 18.22,-5.27 26.55,-45.82 5.18,-25.22 7.27,-33.83 6.06,-61.4 42.54,-45.44 18.34,-51.19 27.36,-95.65 7.23,-35.61 40.67,-70.3 61.89,-26.78 11.76,-7.42 6.69,-1.58 13.01,-4.34 14.22,-6.2 -4.53,-3.76 8.63,-6.84 1.19,-0.28 1.1,-1.43 1.75,-2.04 2.77,5.55 4.81,10 9.5,11.41l0 12.4 -22.66 2.66c4.98,8.94 -0.54,2.2 7.52,5.86l13.19 5.38c-7.51,0.56 -25.89,2.69 -32.19,8.07 -7.77,6.65 -3.74,-1 -5.32,11.74 6.67,2.96 25.14,5.2 39.46,4.29l0 10.87 -35.73 -0.83c-7.41,-11.4 3.74,-7.39 -13.11,-13.65 -11.58,10.91 -11,13.94 -10.2,31.04 0.5,10.49 0.54,2.4 -0.34,12.28l0.72 7.91c-16.93,0 -15.19,-1.84 -31.94,-5.72 -1.36,-0.31 -2.74,-0.66 -4.13,-0.84l-9.83 29.49c18.48,0.16 19.92,5.06 39.06,0.84 8.57,-1.89 -4.08,-5.32 14.87,-1.35 35.11,7.35 20.32,-2.29 37.57,-3.18 19.52,-1.01 8.38,3.96 11.77,7.56 0.48,0.51 0.91,1 1.3,1.45l0 24.14c-3.73,0.37 -6.96,0.6 -9.41,0.67 -24.06,0.6 -52.31,-5.1 -70.41,-14.56 -12.26,-6.41 -7.31,-6.88 -19.67,-13.26 -6.66,32.67 -2.96,6.89 -2,37.35 11.48,0.37 27.48,-1.4 34.89,3.01 -8.44,4.56 9.97,-5.68 -6.12,2.24 -5.39,2.65 -3.86,1.7 -8.04,4.98l-33.77 41.48c0.75,0.47 2.85,1.09 2.3,1.34 -0.54,0.24 1.77,1.06 2.21,1.41 0.43,0.33 1.56,1.07 2.05,1.49l7.85 9.41 80.96 0.53c10.24,2.56 6.67,1.15 11.97,6.01l-5.72 4.45c-0.43,0.13 -1.46,0.47 -1.95,0.56l-94.32 -1.57c-10.97,3.85 -5.11,3.22 -8.12,8.48l-3.61 -6.69c-1.99,-3.72 2.72,-4.28 -1.13,-1.97l-6.56 43.38c46.91,8.39 64,-10.8 83.89,7.26 8.76,7.96 21.17,27.53 43.21,9.66 0.58,-0.47 1.08,-0.89 1.52,-1.26l0 62.61z"/>
     <path class="fil4" d="M1415.86 1439.4c13.04,-9.42 74.17,-3.53 94.11,-2.05l0.82 172.54c-6.36,11.68 6.05,7.76 -36.91,7.76 -1.11,-35.09 0.15,-35.56 -11.32,-63.14 -17.85,7.33 -17.85,46.74 -17.19,66.39 -35.2,-15.69 -28.67,-17.45 -30.07,-77.21 -0.5,-21.28 -2.79,-87.84 0.55,-104.29z"/>
    </g>
    <path class="fil5" d="M1745.04 1961.57c14.04,2.59 3.92,-0.84 7.79,4.51l1.55 7.32c16.91,-10.55 13.3,-5.47 32.77,-3.22l0.02 -9.84c9.48,2.25 22.94,13.06 43.05,7.23l1.74 -74.21c-24.33,1.52 -46.4,0.93 -71.02,1.34 -23.28,0.39 -47.48,2.87 -62.28,-6.57 9.53,-11.41 0.49,-6.13 16.21,-9.63l49.35 0.78c21.12,0.67 42.31,-1.37 61.66,0.85 -1.15,-11.71 -8.62,-65.14 -12.2,-74.74 -0.81,-2.18 -5.55,-10.77 -5.71,-11.42 -4.43,-17.78 -0.29,18.98 1.59,-10.85 0.48,-7.62 -3.22,-25.71 -6,-31.57 -10.17,-0.15 -20.11,1.89 -30.03,1 -19.93,-1.77 -8.29,-0.49 -15.79,-5.8l-9.92 24.65c-4.29,-2.42 -13.97,-6.59 -19.67,-9.11 -7.69,4.26 -43.04,24.36 -45.56,27.99 -9.98,14.39 1.52,39.39 -3.5,51.93 0.5,0.35 1.5,0.56 1.73,0.61 0.21,0.05 1.36,0.43 1.6,0.46 0.21,0.03 1.2,0.2 1.4,0.22l3.23 -1.29c-0.23,12.11 -0.17,18.87 3.37,26.24 0.98,-6.43 -10.57,-8.88 -20.59,-11.94 16.83,27.24 9.85,15.27 32.07,28.36 -9.03,11.22 13.88,9.81 -19.67,9.81l8.41 6.57c-0.35,0.29 1.04,9.93 -12.65,4.19 3.98,2.89 7.46,2.77 8.46,11.4l-1.67 35.86c-3.11,6.63 -6.41,5.63 -0.63,14.17 8.79,-2.36 -3.21,-2.85 14.19,-5.55l46.7 0.23zm218.85 283.22l0 -3.4c-0.47,1.43 -1.13,2.87 -2.01,4.34 0.63,-0.25 1.3,-0.56 2.01,-0.94zm0 -18.52l0 -401.05c-2.26,-0.75 -4.44,-1.55 -6.54,-2.39 -6.53,-2.62 -19.11,-12.76 -24.92,-17.76 -43.27,-37.25 -34.6,-83.65 -20.84,-126.87 -18.3,12.8 -3.85,4.04 -9.48,-0.02 0.26,-8.15 1.83,-1.98 -10.19,-16.39 -6.6,-7.91 8.06,0.17 -3.11,-3.31 -0.13,0.06 -12.88,4.93 -13.65,5.04 -12.96,1.73 -15.47,-2.06 -19.13,-5.02 4.66,-8.55 0.98,-5.68 11.18,-9.89 15.29,-6.3 12.7,-0.35 13.53,0.02 -9.7,-2.53 -18.39,0.02 -31.26,0.02 0,-24.91 1.95,-27.13 9.89,-47.97 10.88,-28.57 16.23,-17.06 29.46,-24.17 1.76,-22.76 3.12,-41.68 -3.28,-65.64l-39.36 1.85 0.05 112.99c0.17,12.13 1.63,20.43 -2.31,28.92 -6.12,13.18 5.43,-1.14 -5.13,6.53 2.34,1.78 -1.54,-1.11 1.76,0.05l8.9 3.87c-0.93,17.34 3.58,13.84 -8.84,21.52 -2.16,1.33 -19.21,6.45 -22.34,7.7l-20.18 6.47c-6.08,1.6 -18.86,14.87 -34.09,9.78 -12.73,-4.26 -4.09,1.41 -12.87,-8.13 18.15,-5.31 -17.5,-7.2 9.28,-5.25 5,0.36 3.66,5.34 3.84,3.62l55.14 -24.14c0.6,-0.34 1.49,-0.76 2.04,-1.12 1.91,-1.25 6.24,-1.28 7.18,-9.65 -7.24,1.23 -2.74,0.62 -8.48,3.56l-29.66 12.85 -3.33 -7.65c-2.36,-3.04 -5.6,-5.63 -9.79,-8.7 -7.07,6.97 -4.48,9.22 -9.83,15.82l-2.34 -6.59c-3.32,-4.29 7.22,-0.25 -8.63,-4.82 -23.22,-6.69 -31.02,-8.08 -54.15,-3.9 -1.79,0.32 -13.13,2.46 -14.25,2.46 -1.56,0.01 -4.78,-0.14 -6.06,-0.37 -9.51,-1.67 -2.23,1.5 -9.44,-3.47 2.67,-14.46 -1.93,-12.17 12.91,-15.26l-12.61 0.39c-0.45,0.04 -1.43,0.25 -1.87,0.29 -12.19,1.05 -10.41,-0.93 -18.31,-14.52 73.75,0.41 53.2,-22.66 73.53,17.44l18.35 -0.12c0.23,-29.94 3.61,-9.35 11.38,-24.74 3.46,-6.87 2.37,-25.08 1.77,-35.65 -9.98,-7.2 -20.3,-14.18 -31,-12.33 -19.51,3.39 13.78,5.89 -16.44,3.52 -13.46,11.65 6.37,16.79 -29.08,19.41 0.22,-37 1.81,-75.85 0.19,-112.3 -2.18,-49.21 8.94,-87.03 -14.85,-94.43 -6.81,20.99 -0.63,69.16 -3.32,84.61l-2.71 8.7c-0.26,0.75 -0.73,1.88 -1.27,2.72 -7.91,-11.26 -6.25,-25.24 -13.11,-38.29l-22.94 -0.89c-12.98,23.17 -0.84,36.32 -16.4,38.15 -6.2,-29.98 5.15,-65.09 -4.43,-94.89 -14.12,3.13 0.49,-0.2 -13.91,9.02 -4.62,62.3 -0.51,117.63 -0.32,177.24l-1.59 19.02c-0.22,0.93 -0.71,2.07 -0.91,2.8 -0.2,0.73 -0.57,1.88 -1,2.75l-17.16 0.69c-12.07,4.13 -4.98,0.35 -13.12,10.7 37.95,0 32.13,-4.03 47.15,-3.58 15.14,0.45 37.94,-24.93 46.73,-36.52l-86.84 89.33c4.17,4.97 -1.26,1.26 6.96,4.68 9.67,4.01 2.23,0.29 2.38,-0.51 -6.8,9.14 -5.27,12.87 -3.98,25.35 -11.52,9.52 -6.3,1.7 -3.46,15.05 -14.57,4.03 -5.95,-2.21 -12.24,11.43 -13.14,-3.85 -2.79,-2.33 -9.13,-4.11 -0.54,-0.15 -1.5,-0.42 -2.02,-0.51l-3.74 -0.12c-0.44,0.02 -1.38,0.23 -1.82,0.28l-7.94 1.53c-0.63,0.14 -1.74,0.34 -2.34,0.47l-5.04 1.37c0.5,0.11 -1.86,0.37 -2.65,0.86l22.52 4.65c7.7,1.24 14.13,2.33 21.64,4.33 -15.67,17.61 7.72,17.83 -34.04,27.9 -7.44,1.8 -18.96,5.81 -26.63,6.55 -10.5,1.01 -8.08,-4.07 -11.91,-2.55 -0.08,0.03 -0.58,0.41 -0.66,0.46l-93.61 31.28c2.39,-14.69 5.76,-23.46 -6.57,-29.78 -3.83,3.9 -3.85,10.81 -4.08,15.48 -0.35,7.06 -0.04,15.92 -0.42,23.65 -14.24,2.67 -18.94,5.73 -34.83,6.56 0,-29.02 -0.97,-168.74 16.61,-176.54 0.1,-0.04 0.78,-0.13 0.89,-0.18 3.82,-1.69 18.72,-12.61 31.06,-12.11l19.93 -0.52c0.48,-0.07 1.47,-0.17 1.93,-0.24 9.81,-1.55 6.78,2.32 10.93,-4.9 -6.89,-18.12 -0.16,-5.25 -9.22,-11.68l-9.66 11.25c-7.65,-15.66 -5.98,-261.28 -4.78,-298.73l-24.81 -1.76 -2.35 298.61c-8.94,6.78 -24.57,9.24 -24.83,20.92l-1.01 -152.72c-14,6.48 -12.99,8.81 -17.02,28.02 -2.7,12.87 -3.94,23.05 -3.79,38.11 0.29,29.56 0.11,59.09 0.13,88.65 0.05,56.79 2.97,120.69 -0.28,176.61 -3,0.54 -8.25,1.71 -15.4,3.42l0 35.06 253.85 0c4.36,-2.65 8.96,-5.44 13.87,-8.4 19.58,-11.79 48.83,-5.3 75.61,-3.15 0.92,56.51 -4.91,240.9 3.05,280.44 8.87,-2.08 7.3,4.88 5.85,-31.23 -0.72,-17.78 0.73,-15.87 -5.48,-29.48l-3.59 -6.63c13.74,-5.25 6.11,-6.31 15.54,-17.32 5.75,-6.71 12.03,-9.43 17.24,-15.48 3.59,1 10.79,4.59 11.38,4.7 0.13,0.02 -0.36,3.33 2.01,-2.3l33.77 1.96c-7.61,24.95 -7.4,18.6 -1.28,20.12 -0.39,-0.2 -5.31,8.73 0.02,-11.36l56.22 1.2c0.32,-1.77 1.36,-3.04 0.6,-3.43l2.75 -21.28c1.23,-14.9 -1.33,-19.12 -3.83,-32.25 21.4,5.97 16.61,2.86 36.05,2.52l3.11 53.21c6.35,-7.74 9.09,-21.13 11.82,-31.05l9.7 -57.49c3.04,-1.53 4.97,3.76 11.44,-8.53l2.31 6.9c4.37,8.5 -9.05,-4.27 3.02,4.49 9.71,7.05 26.54,-19.68 26.54,-19.69 2.09,-2.92 4.3,-5.67 6.53,-8.49 6.06,10.38 1.52,6.54 19.8,6.44l22.83 114.16 -104.08 0.07c-17.6,2.44 -5.96,-1.61 -12.94,6.34l7.1 3.72c0.86,0.27 1.78,0.61 2.77,0.87 2.61,0.67 12.54,1.59 16.15,1.69 26.63,0.7 69,-2.2 91.83,0.29l13.06 150.99c0.29,7.79 1.97,14.14 3.09,19.83z"/>
    <path class="fil6" d="M1963.89 3565.72c-2.3,0.11 -5.48,1.01 -12.85,5.49 -11.94,7.26 -26.45,14.77 -27.78,28.05 11.37,0.35 28.15,-7.84 40.63,-12.81l0 15.75c-32.98,8.87 -74.43,58.15 -61.85,123.41 6.22,32.29 23.96,26.43 16.93,59.35l-306.46 -51.63c-11.39,-49.62 -28.83,-131.28 -1.66,-171.19l287.61 -10.72c-0.38,-84.06 -5.81,-181.12 -10.46,-265.82 -10,-182.55 -12.06,-335.81 -27.61,-521.12l-20.63 -253.03c12.72,19.13 -2.13,5.56 16.27,13.09 -3.63,-18.21 -3.19,-36.92 -3.48,-55.76 -0.31,-20.74 -1.16,-30.44 6.6,-45.83 0.8,0.66 1.9,1.38 2.48,1.87 0.56,0.46 1.73,1.25 2.36,1.82 0.58,0.52 1.53,1.19 2.09,1.76 0.98,1 2.94,2.98 3.7,5.14 3.41,9.7 -6.34,4.7 1.62,33.56l1.42 5.28c5.74,26.47 6.56,31.8 0.73,49.22l-3.14 8.96c0.83,0.44 -0.58,1.95 -1.14,2.77 -3.59,-2.91 2.35,-3.78 -12.72,-2.2l26.48 32.37c0.76,1.14 6.17,9.28 6.7,9.87 7.91,8.77 -1.17,0.96 7.44,5.86 8.56,4.86 6.61,1.12 13.61,7.66 10.72,0.47 14.23,5.34 26.98,4.86 10.5,-0.39 17.51,-1.08 26.14,-1.21l0 975.2z"/>
    <path class="fil7" d="M1730.47 1499.43l-15.13 0.05 -2.5 -29.52c-13.65,-9.12 -14.92,-3.82 -15.77,-27.69 -0.85,-24.06 -4.24,-108.93 5.04,-120.85 10.08,-13.56 27.53,-11.35 40.03,-0.79 7.85,13.98 1.58,28.88 4.82,44.96 0.65,-19.74 0.85,-42.72 0.61,-64.81l8.17 0 2.13 -308.68c5.95,-4.96 10.68,-8.61 13,-10.01 2.95,6.78 7.5,33.31 10.7,46.29 3.9,15.82 7.03,29.66 11.91,46.94 13.85,49.07 27.85,95.41 37.89,146.28l14.5 43.65c4.71,15.96 8.72,30.52 13.67,45.39 4.22,12.69 1.8,12.78 3.25,24.4 2.7,21.7 -7.89,-15.75 1.5,5.17l5.41 9.95c-1.33,1.31 -5.77,5.26 -6.95,6.47l-19.83 19.62c-30.11,26.04 6.08,13.92 -37.42,41.38l-17.89 14.91c-13.23,11.09 -14.96,17.12 -25.26,24.19 -3.66,-11.24 -6.72,-10.11 -11.27,-24.54l-5.48 6.64c-13.18,20.41 5.21,11.52 -16.59,25.65l-10.69 7.06c0,23.23 1.04,23.34 13.11,25.57l-0.97 2.33zm27.92 -584.19l6.65 27.04c1.26,7.42 -3.26,11.37 5.75,17.49 4.03,-3.45 -1.26,-6.11 -12.61,-14.58l0.2 -29.95zm-0.31 45.48l8.06 8.88c-2.17,3.31 -4.96,6.94 -8.19,10.76l0.13 -19.64z"/>
    <path class="fil8" d="M1963.89 2590.52c-8.63,0.13 -15.64,0.82 -26.14,1.21 -12.75,0.48 -16.25,-4.39 -26.98,-4.86 -6.5,-25.59 -15.24,-2.15 -6.28,-40.86 2.87,-12.4 6.31,-33.78 10.55,-43.78 8.24,1.1 5.13,-0.17 10.37,5.15 0.02,0.02 4.17,6.85 4.61,8.35 2.19,7.37 1.5,17.4 1.29,25.19 -0.57,20.73 0.41,35.46 2.18,43.75 13.04,1.83 23.06,3.75 30.39,1.74l0 4.12zm0 -167.86c-36.01,-1.54 -77.01,3.72 -104.75,0.29 -7.76,15.38 -6.91,25.09 -6.6,45.83 0.28,18.84 -0.15,37.55 3.48,55.76 -18.4,-7.53 -3.54,6.04 -16.27,-13.09l-10.56 -124.63 30.13 -21.43c7.49,10.43 -2.68,-14.08 0.61,4.44 3,16.87 3.22,3.56 0.93,17.8l-1.21 8.67c-0.4,4.81 -0.25,10.7 -0.33,15.61 20.76,3.23 74.11,4.65 104.59,2.67l0 8.07zm0 -132.62c-33.07,-2.78 -99.05,-3 -121.65,-2.35 3.62,9.86 14.01,56.62 12.2,65.46 -0.12,0.6 -0.43,1.51 -0.61,2.09 -0.26,0.81 -4.98,9.66 -5.47,10.52 -10,17.41 -12.16,14.28 -19.85,16.98l-6.19 -101.3c33.23,-4.57 94.11,0.93 115.74,-0.23l25.83 -2.47 0 11.31z"/>
    <path class="fil9" d="M1823.25 881.3l-3.35 -15.91c-0.02,-0.93 -0.11,-12.41 -0.35,-15.39l-51.72 -4.3 53.72 -4.04 -0.66 -26.25 12.2 0c4.43,13.46 11.45,36.56 9.84,48.59 3.45,9.14 1.57,5.01 5.77,11.06l17.19 18.62c33.75,0.5 23.14,-6.19 37.34,-10.46l60.67 -0.06 0 229.07c-5.56,0.11 -11,0.25 -16.17,0.37 -36.24,0.81 -32.43,10.2 -33.72,-24.93l-5.51 20.84c-22.15,0.59 -11.18,1.68 -15.35,-5.8l-11.14 -123.24c-4.21,-63.1 5.21,-58.92 -16.83,-78.28l-13.17 -12.48c-9.75,-7.19 -16.8,-6.7 -28.75,-7.4z"/>
    <path class="fil10" d="M1963.89 1825.22c-2.26,-0.75 -4.44,-1.55 -6.54,-2.39 -6.53,-2.62 -19.11,-12.76 -24.92,-17.76 -43.27,-37.25 -34.6,-83.65 -20.84,-126.87 9.03,-11.41 28.45,-31.93 40.64,-38.19 3.8,-1.95 7.7,-3.53 11.66,-4.76l0 30.35c-39.49,20.13 -57.44,88.85 0,118.57l0 41.04zm0 -70.88c-5.56,-5.86 -9.79,-13.21 -12.01,-22.03 -3.94,-15.65 1.43,-31.86 12.01,-41.04l0 63.07zm0 -134.78c-13.41,5.4 -26.26,11.74 -41.88,13.02 2.3,-18.83 24.61,-30.41 41.88,-35.54l0 22.51z"/>
    <path class="fil11" d="M1963.89 3794.89c-0.83,6.68 -0.48,12.96 0,18.47l0 17.37c-1.46,3.27 -5.01,4.44 -12.78,2.72 -15.15,-3.35 0.43,-41.59 -13.83,-55.71 -10.8,-10.7 -3.46,-13.64 -9.68,-1.84 -2.77,-3.92 -1.56,1 -3.43,-8.32 -2.44,-12.16 2.11,-11.24 0.11,-25.58 -4.37,5.94 -2.15,-2.28 -3.06,9.67 -0.5,6.57 0.68,6.72 1.05,12.91 0.51,8.44 1.26,13.21 -3.31,20.38 7.03,-32.93 -10.71,-27.07 -16.93,-59.35 -12.57,-65.26 28.87,-114.54 61.85,-123.41l0 31.62c-37.9,17.3 -52.13,76.2 -22.8,101.46 9.07,7.81 16.24,13.56 22.8,17.79l0 41.83zm0 -76.08c-0.87,-1.13 -1.67,-2.27 -2.35,-3.42 -14.67,-24.6 -8.97,-43.83 2.35,-54.8l0 58.22zm0 -132.36c-12.48,4.98 -29.26,13.17 -40.63,12.81 1.33,-13.28 15.84,-20.8 27.78,-28.05 7.37,-4.48 10.56,-5.38 12.85,-5.49l0 20.72z"/>
    <path class="fil12" d="M1963.89 1332.41c-2.99,0.16 -6.13,0.37 -9.41,0.68 0.83,-13.96 7.42,-61.46 -3.36,-68.85 -3.82,9.57 -2.69,54.43 -0.96,67.06 -13.76,0.34 -37.97,-0.61 -48.66,1.88l4.06 -4.39c20.54,-22.58 34.57,-30.71 36.24,-43.87 -11.74,2.58 -18.13,10.69 -24.94,17.79 -11.88,12.38 -10.52,16.49 -24.12,24.46 5.98,-37.6 -5.26,-172.59 4.13,-191.87l27.92 -1.78c9.14,0.73 24.26,1.05 39.11,1.57l0 197.32z"/>
    <path class="fil13" d="M1829.18 2386.82l-0.68 -4.09c7.69,-2.69 9.85,0.44 19.85,-16.98 0.49,-0.86 5.21,-9.71 5.47,-10.52 0.18,-0.59 0.49,-1.5 0.61,-2.09 1.81,-8.84 -8.58,-55.59 -12.2,-65.46 22.6,-0.64 88.58,-0.42 121.65,2.35l0 124.55c-30.48,1.98 -83.83,0.56 -104.59,-2.67 0.09,-4.92 -0.07,-10.8 0.33,-15.61l1.21 -8.67c2.3,-14.24 2.07,-0.93 -0.93,-17.8 -3.29,-18.52 6.88,5.98 -0.61,-4.44l-30.13 21.43z"/>
    <path class="fil14" d="M1963.89 3753.06c-6.55,-4.23 -13.72,-9.98 -22.8,-17.79 -29.34,-25.25 -15.11,-84.16 22.8,-101.46l0 26.77c-11.32,10.97 -17.02,30.2 -2.35,54.8 0.69,1.15 1.48,2.29 2.35,3.42l0 34.26z"/>
   </g>
  </g>
  <g id="_1672831772336">
   <path class="fil15" d="M1475.41 1768.35l10.81 1.56c1.01,0.11 2.35,0.31 3.38,0.4l28.67 -0.89c15.25,-1.14 0.52,-1.05 14.12,-0.7 15.81,-5.22 40.06,3.16 52.48,-5.99l25.96 -4.42c11.96,0.6 9.61,2.33 22.07,3.3 42.54,3.33 55.86,-2.57 89.08,-2.89 19.73,-0.19 22.39,4.17 44.83,0.99l5.77 -32.42c29.6,-2.08 15.19,-2.24 30.59,9.35 19.6,14.78 16.54,0.3 33.54,-7.12 27.97,-12.2 -0.44,13.04 31.67,12.41 22.74,-0.45 2.73,-9.61 28.71,-16.8 14.43,16.22 7.94,23.85 27.41,41.94 19.87,18.44 27.48,8.22 36.71,27.26 -9.87,24.83 -16.32,-1.48 -16.94,25.78 -0.57,25.36 6.82,5.56 16.8,25.11 -7.7,21.57 -25.24,9.42 -16.5,31.98 5.72,14.74 20.73,18.83 12.38,32.65 -0.13,15.35 6.23,-0.5 -3.77,6.24 -8.79,5.91 -7.72,-1.44 -25.39,4.61 -5.83,18.06 0.13,63.81 -3.34,103.56 -0.07,0.8 0.52,3.9 -0.4,3.63 -0.93,-0.28 -0.22,2.46 -0.42,3.67l0.89 16.16 -1.76 34.49c-4.3,28.81 -1.89,53.5 -3.26,84.8l-32.3 866.27c1.89,71.08 -10.18,191.2 -8.9,264.35 0.95,54.51 -31.13,138.03 72.94,137.69 85.3,-0.27 116.87,-2.41 110.46,-96.3 -10.36,-151.76 -9.13,-363.18 -18.26,-522.26 -6.7,-116.78 -7.27,-228.84 -12.16,-347.13l-14.86 -347.46c-0.04,-1.39 -0.93,-4.44 0.07,-4.19 0.97,0.24 0.04,-3.11 0.05,-4.07l0.19 -17.21c-0.21,-8.35 -0.85,-13.26 -1.5,-22l-0.82 -46.99 -1.22 -35.83c-0.79,-13.64 -3.69,-22.93 0.53,-38.61l-3 -29.5c-19.72,-7.28 -13.51,0.91 -31.8,-7.35 -6.33,-34.74 5.96,-19.03 15.37,-43.34 -11.1,-34.99 -5.58,6.74 -20.59,-24.06 6.03,-11.3 11.13,-11.38 20.35,-19.26 -11.13,-34.87 -11.86,-9.95 -21.7,-38.38 19.49,-19.65 26.52,-12.09 45.21,-29.33 19.79,-18.25 8.65,-26.1 29.23,-38.06 28.29,15.46 -2.45,10.32 26.19,20.84l8.87 4.27c22.21,-30.02 5.75,-18.1 12.26,-50.19l-25.04 -11.77c-34.89,18.27 2.4,12.23 -28.55,17.14 -14.45,-46.04 -49.14,-52.12 -59.13,-59.53 11.02,-20.87 31.21,-28.37 10.22,-45.32 -3.52,-2.85 -21.85,-6.85 -24.04,-6.77 -17.02,0.66 -12.07,-0.41 -28.23,13.85l4.77 8.65c10.96,27.33 5.28,-3.1 21.2,26.45 -14.47,21.59 -24.59,7.79 -43.19,31.31 -17.01,21.52 -2.59,26.72 -28.26,41.88 -16.36,-8.6 -17.09,-31.55 -36.98,-17.98l-8.89 8.9c-5.73,4.58 -5.87,3.61 -14.07,6.81 -8.67,-13.93 -3.94,-5.04 -7.64,-20.41 -29.44,9.94 -11.19,-3.7 -23.62,11.15 -11.96,14.28 -8.06,7.24 -29.81,11.54 -13.48,-18.45 -13.86,-15.88 -9.47,-35.08 -13.97,1.8 -24.52,-2.3 -38.48,-4.78 -14.51,-2.57 -25.44,-0.84 -38.02,-1.6 -31.23,-1.87 -61.82,2.35 -81.24,-3.74 -18.65,1.7 -38.85,-1.94 -58.93,-2.85l-62.25 -1.59c-12.72,-0.54 -53.49,0.08 -63.72,-4.3 -23.19,0.93 -17.45,-3.75 -45.69,0.88l-16.28 2.04c-0.09,-0.05 -385.25,-20.91 -455.32,-19.08l-305.74 -10.96c-25.7,-1.59 -50.64,-0.66 -76.43,-2.3 -34.84,-2.21 -215.15,-10 -229.45,-4.58 -41.13,15.59 -37.81,47.28 -37.37,72.06 1.28,72.38 -11.85,111.3 75.76,111.2l229.26 -7.91c51.81,-3.49 100.48,-1.85 152.86,-4.86 27.97,-1.61 45.91,-2.04 76.43,-2.52l229.36 -9.68c143.81,-8 313.99,-6.85 457.27,-16.79l0.02 -0.02z"/>
   <path class="fil15" d="M2015.82 1221.19l1.56 10.81c0.11,1.02 0.31,2.36 0.4,3.38l-0.89 28.67c-1.15,15.25 -1.05,0.52 -0.7,14.12 -5.22,15.81 3.16,40.06 -5.99,52.48l-4.42 25.97c0.61,11.95 2.33,9.61 3.3,22.07 3.33,42.55 -2.57,55.86 -2.89,89.08 -0.19,19.73 4.15,22.39 0.99,44.83l-32.42 5.77c-2.09,29.6 -2.24,15.19 9.35,30.58 14.78,19.61 0.3,16.54 -7.12,33.54 -12.2,27.96 13.04,-0.44 12.41,31.67 -0.44,22.74 -9.61,2.73 -16.8,28.71 16.22,14.43 23.85,7.94 41.94,27.41 18.44,19.87 8.22,27.49 27.26,36.71 24.82,-9.87 -1.48,-16.32 25.78,-16.94 25.36,-0.58 5.56,6.82 25.11,16.8 21.57,-7.71 9.42,-25.24 31.98,-16.5 14.74,5.72 18.83,20.73 32.65,12.38 15.35,-0.12 -0.5,6.23 6.24,-3.77 5.92,-8.79 -1.44,-7.72 4.6,-25.38 18.07,-5.84 63.81,0.12 103.57,-3.34 0.8,-0.07 3.9,0.52 3.63,-0.4 -0.28,-0.93 2.46,-0.23 3.67,-0.42l16.16 0.89 34.5 -1.76c28.81,-4.3 53.5,-1.89 84.8,-3.26l866.27 -32.3c71.08,1.89 191.2,-10.18 264.35,-8.9 54.51,0.95 138.03,-31.13 137.69,72.94 -0.27,85.3 -2.41,116.87 -96.3,110.47 -151.77,-10.36 -363.18,-9.13 -522.26,-18.26 -116.78,-6.7 -228.84,-7.27 -347.13,-12.15l-347.46 -14.86c-1.39,-0.03 -4.44,-0.92 -4.19,0.07 0.24,0.97 -3.1,0.03 -4.07,0.05l-17.21 0.19c-8.35,-0.21 -13.26,-0.86 -22,-1.5l-47 -0.82 -35.83 -1.22c-13.64,-0.79 -22.92,-3.68 -38.61,0.53l-29.51 -3c-7.27,-19.71 0.91,-13.51 -7.35,-31.79 -34.74,-6.33 -19.03,5.96 -43.34,15.37 -34.99,-11.1 6.74,-5.57 -24.06,-20.59 -11.3,6.03 -11.38,11.13 -19.26,20.35 -34.87,-11.13 -9.95,-11.86 -38.38,-21.7 -19.65,19.48 -12.09,26.52 -29.33,45.2 -18.24,19.79 -26.1,8.65 -38.05,29.23 15.46,28.29 10.32,-2.45 20.84,26.19l4.26 8.87c-30.02,22.2 -18.09,5.74 -50.18,12.26l-11.77 -25.04c18.28,-34.89 12.24,2.4 17.14,-28.55 -46.04,-14.45 -52.12,-49.13 -59.54,-59.13 -20.87,11.02 -28.37,31.21 -45.32,10.22 -2.84,-3.52 -6.85,-21.85 -6.76,-24.04 0.67,-17.02 -0.41,-12.07 13.85,-28.23l8.65 4.77c27.34,10.96 -3.1,5.28 26.45,21.2 21.59,-14.47 7.8,-24.59 31.31,-43.18 21.52,-17.02 26.72,-2.59 41.88,-28.26 -8.6,-16.36 -31.55,-17.09 -17.98,-36.98l8.9 -8.89c4.58,-5.73 3.61,-5.87 6.81,-14.07 -13.93,-8.67 -5.04,-3.93 -20.4,-7.64 9.94,-29.44 -3.7,-11.19 11.14,-23.62 14.28,-11.96 7.24,-8.06 11.54,-29.81 -18.45,-13.48 -15.88,-13.86 -35.08,-9.47 1.8,-13.97 -2.3,-24.52 -4.78,-38.48 -2.57,-14.51 -0.84,-25.44 -1.6,-38.02 -1.87,-31.24 2.35,-61.82 -3.74,-81.24 1.7,-18.65 -1.94,-38.85 -2.85,-58.93l-1.59 -62.25c-0.54,-12.73 0.08,-53.49 -4.3,-63.72 0.93,-23.19 -3.75,-17.45 0.88,-45.69l2.04 -16.28c-0.05,-0.09 -20.91,-385.25 -19.08,-455.32l-10.96 -305.74c-1.59,-25.71 -0.66,-50.65 -2.3,-76.43 -2.21,-34.84 -10,-215.15 -4.58,-229.45 15.59,-41.13 47.28,-37.81 72.06,-37.38 72.38,1.28 111.3,-11.85 111.2,75.76l-7.91 229.26c-3.49,51.81 -1.85,100.48 -4.86,152.87 -1.61,27.96 -2.04,45.91 -2.52,76.43l-9.68 229.36c-8,143.81 -6.85,313.99 -16.79,457.27l-0.02 0.01z"/>
  </g>
 </g>
</svg>
