<?xml version="1.0" encoding="UTF-8"?>
<!DOCTYPE svg PUBLIC "-//W3C//DTD SVG 1.0//EN" "http://www.w3.org/TR/2001/REC-SVG-20010904/DTD/svg10.dtd">
<!-- Creator: CorelDRAW 2018 (64-Bit) -->
<svg xmlns="http://www.w3.org/2000/svg" xml:space="preserve" width="3.93701in" height="3.93701in" version="1.0" style="shape-rendering:geometricPrecision; text-rendering:geometricPrecision; image-rendering:optimizeQuality; fill-rule:evenodd; clip-rule:evenodd"
viewBox="0 0 3937.01 3937.01"
 xmlns:xlink="http://www.w3.org/1999/xlink">
 <defs>
  <style type="text/css">
   <![CDATA[
    .str0 {stroke:#2B2A29;stroke-width:6.94;stroke-miterlimit:22.9256}
    .fil8 {fill:none}
    .fil9 {fill:#D9DADA}
    .fil5 {fill:#064795}
    .fil2 {fill:#656363}
    .fil7 {fill:#97B2D3}
    .fil3 {fill:#B7CBE1}
    .fil1 {fill:#F0EBE9}
    .fil4 {fill:#FDB814}
    .fil6 {fill:#FDFEFE}
    .fil0 {fill:white}
   ]]>
  </style>
 </defs>
 <g id="Layer_x0020_1">
  <metadata id="CorelCorpID_0Corel-Layer"/>
  <g id="_1918901666912">
   <g>
    <g>
     <path class="fil0" d="M1044.74 51.57c5.61,4.72 -10.17,37.24 31.22,0 -21.18,-16.93 30.16,-12.38 -12.35,-8.33 -22.07,2.11 -5.32,-1.65 -18.87,8.33z"/>
    </g>
    <g>
     <path class="fil1" d="M1097.71 3323.57c37.65,-100.74 20.59,-2475.84 15.12,-2994.03l-16.57 -200.82c11.28,256.96 0.42,543.03 -0.31,803.09l-4.31 1584.43c0.6,268.62 -13.96,540.17 6.08,807.33z"/>
     <path class="fil1" d="M1065.57 3514.03c0.85,-98.89 33.46,-2955.06 14.79,-3062.54 -33.5,181.36 -27.85,2519.16 -30.28,2972.89 -0.17,31 -4.61,70.95 15.5,89.65z"/>
     <path class="fil1" d="M1130.43 73.93c4.63,-6.14 18.14,12.81 11.74,-22.36 -5.72,-31.46 0.4,-10.72 -21,-19.25 -3.43,4 -17.29,-11.02 -11.77,20.28 6.63,37.64 -4.99,9.71 21.03,21.33z"/>
    </g>
    <path class="fil2" d="M1097.71 3323.57c-20.05,-267.17 -5.48,-538.71 -6.08,-807.33l4.32 -1584.43c0.73,-260.06 11.59,-546.13 0.31,-803.09l16.57 200.82c5.47,518.19 22.53,2893.28 -15.12,2994.03zm-32.14 190.46c-20.11,-18.7 -15.67,-58.65 -15.5,-89.65 2.44,-453.72 -3.22,-2791.52 30.28,-2972.89 18.67,107.48 -13.94,2963.65 -14.78,3062.54zm76.6 -3462.46c6.39,35.17 -7.11,16.22 -11.74,22.36 -26.02,-11.61 -14.4,16.31 -21.04,-21.33 -5.52,-31.3 8.35,-16.28 11.77,-20.28 21.4,8.53 15.28,-12.21 21,19.25zm-97.43 0c13.56,-9.98 -3.19,-6.22 18.87,-8.33 42.5,-4.05 -8.83,-8.59 12.35,8.33 -41.39,37.24 -25.61,4.72 -31.22,0zm100.91 2857.73c-5.65,-206.74 4.19,-430.11 4.65,-633.97 0.54,-240.93 2.65,-481.86 2.76,-722.72 0.23,-474.64 -30.76,-958.8 -22.94,-1428.79 123.11,-24.06 77.63,-131.58 -44.71,-123.37 -98.01,6.58 -117.19,70.76 -73.65,104.14l42.74 25.57c1.07,-1.87 4.22,3.03 6.11,4.8 -10.72,618.95 -33.22,1230.42 -35.64,1853.46 -1.19,307.03 -4.47,617.72 -4.5,926.24 -0.02,308.31 -13.09,631.83 -1.25,938.13 57.98,-4.95 6.91,-5.67 33.13,-11.55l31.54 0.62c18.2,3.63 19.78,5.6 21.5,6.03 26.72,6.64 -9.65,-0.39 12.56,3.31 12.28,2.05 11.94,3.25 21.35,-1.14 21.58,-50.11 5.31,-377.85 6.65,-547.57l-3.55 0 0 -393.19 3.26 0z"/>
   </g>
   <g>
    <g>
     <path class="fil3" d="M2136.59 1433.36c-45.57,0 -55.34,6.5 -85.92,-13.91 -1.15,-0.76 -2.57,-1.84 -3.69,-2.63 -1.81,-1.28 -10.43,-7.81 -10.73,-8.06 -9.98,-8.16 -8.21,-4.77 -15.62,-16.19l-4.43 -8.29c-16.53,-34.49 -3.65,-43.63 -19.2,-61.95 6.67,51.98 7.69,65.07 39.85,92.34 27.45,23.27 67.7,35.97 99.75,18.68z"/>
     <path class="fil3" d="M2205.39 1519.71c2.13,-0.5 5.2,-3.4 6.38,-1.59 1.13,1.72 4.56,-1.06 6.06,-1.59l61.76 -37.75c10.4,-8.19 3.28,-2.39 9.37,-8.41 -6.16,-26.71 -5.67,-19.79 -18.72,-30.84 8.03,17.59 8.16,10.58 15.72,33.77 -21.9,8.17 -19.5,9.65 -38.86,22.26 -8.04,5.24 -12.32,7.22 -19.28,10.9l-22.44 13.26z"/>
     <path class="fil3" d="M2523.33 798.52l0 -18.94c-35.34,0 -16.53,1.26 -24.67,7.74l19.01 -4.25 5.66 15.45z"/>
    </g>
    <g>
     <path class="fil4" d="M3161.19 541.6c63.32,-4.58 38.32,3.01 48.33,10.22 15.03,10.82 -23.02,7.47 23.38,11.04 15.85,1.22 22.44,-4.67 30.8,-10.51l10.7 -8.83c35.28,-17.8 45.29,10.34 46.02,11.26l47.91 7.77c16.07,-22.06 -8.5,-23.69 53.31,-20.53l30.73 337.41 -103.57 0c-3.53,-54.24 1.67,-122.76 -60.58,-120.98 -57.76,1.65 -51.72,65.71 -55.48,120.98l-103.13 -0.02 31.6 -337.79zm-107.42 157.8c0,112.72 35.49,198.45 139.94,242.46 185.35,78.11 334.98,-77.74 334.98,-186.96 0,-86.02 -0.65,-139.93 -66.05,-205.33 -145.04,-145.04 -408.87,-41.01 -408.87,149.82z"/>
     <path class="fil4" d="M3240.34 668.56c6.69,61.81 103.93,56.5 99.68,-12.37 -4.11,-66.44 -107.49,-59.92 -99.68,12.37z"/>
    </g>
    <g>
     <path class="fil5" d="M1314.45 1540.42l140.76 0 -0.43 -335.67c6.76,-37.25 -1.52,-6.54 10.79,-22.26l5.02 16.5c1.7,20.64 33.4,68.24 45.45,88.29l149.97 257.1 191.2 0 -246.71 -376.24c31.25,-46.67 209.06,-297.67 215.87,-326.89l-178.87 0c-6.18,23.14 -31.03,54.51 -42.88,74.3l-142.15 221.75 0 -296.05 -148.03 0 0 699.16z"/>
     <path class="fil5" d="M2776.21 1384.02c0,-77.87 52.56,-80.18 123.36,-80.18l0 98.69c0,41.33 -123.36,68.67 -123.36,-18.5zm-135.69 -314.56c5.72,24.55 41.96,79.24 55.51,104.85 45.83,-24.25 209.7,-132.89 209.7,12.33 0,40.34 -64.52,-5.94 -187.8,46.57 -142.86,60.86 -112.21,311.16 52.11,311.16 118.31,0 92.37,4.45 172.7,-49.34 6.17,23.11 34.03,61.68 61.68,61.68 18.56,0 68.68,-69.18 80.18,-86.35 -21.64,-32.32 -41.19,-25.41 -43.4,-79.96 -7.17,-176.72 45.47,-353.18 -107.91,-385.51 -120.3,-25.36 -202.81,16.96 -292.77,64.56z"/>
     <path class="fil5" d="M2005.24 1192.82c0,-46.99 26.65,-92.52 74.01,-92.52 54.86,0 74.02,54.26 74.02,111.02l-148.03 0 0 -18.5zm200.15 326.89l22.44 -13.26c6.96,-3.68 11.24,-5.66 19.28,-10.9 19.35,-12.61 16.96,-14.09 38.86,-22.26 -7.56,-23.19 -7.7,-16.18 -15.72,-33.77 -4.8,-19.21 -20.75,-36.85 -30.62,-55.51 -29.69,19.88 -64.41,38.86 -103.03,49.34 -32.05,17.29 -72.3,4.59 -99.75,-18.68 -32.17,-27.27 -33.19,-40.37 -39.85,-92.34 17.46,-9.13 8.35,-5.59 32.63,-6.62 10.93,-0.46 25.85,0.35 37.28,0.42l228.22 0.03c0,-113.47 2.33,-247.32 -118.15,-301.26 -100.07,-44.8 -240.14,-10.96 -293.2,93.45 -50.83,100.03 -43.43,261.57 17.33,342.78 17.89,23.9 29.83,33.21 53.78,51.07 75.04,55.96 207,48 250.49,17.5z"/>
     <path class="fil5" d="M2523.33 798.52l-5.66 -15.45 -19.01 4.25c-30.7,-2.42 -88.17,16.34 -117.19,23.1 0,46.68 6.32,70.07 6.38,110.81l-0.21 364.11c0,142.59 -19.76,268.2 166.43,252.78 22.74,-1.88 29.21,-7.52 49.45,-12.23 -32.92,-141.3 -30.97,-61.81 -61.68,-92.52 -24.04,-24.04 -12.8,-458.8 -12.3,-555.14 0.19,-37.28 -3.83,-52.03 -6.21,-79.7z"/>
    </g>
    <path class="fil6" d="M3240.34 668.56c-7.81,-72.29 95.57,-78.82 99.68,-12.37 4.26,68.87 -92.99,74.19 -99.68,12.37zm-110.76 210.83l103.13 0.02c3.77,-55.27 -2.28,-119.32 55.48,-120.98 62.25,-1.78 57.05,66.74 60.58,120.98l103.57 0 -30.73 -337.41c-61.81,-3.16 -37.23,-1.53 -53.31,20.53l-47.91 -7.77c-0.72,-0.92 -10.74,-29.06 -46.02,-11.26l-10.7 8.83c-8.37,5.84 -14.95,11.73 -30.8,10.51 -46.4,-3.56 -8.35,-0.22 -23.38,-11.04 -10.01,-7.21 14.99,-14.8 -48.33,-10.22l-31.6 337.79z"/>
    <path class="fil7" d="M1314.45 1540.42c34.91,14.24 104.89,3.96 148.03,3.96l-0.35 -327.16c2.49,-16.13 1.46,-9.86 8.46,-18.24l-5.02 -16.5c-12.3,15.72 -4.03,-14.99 -10.79,22.26l0.43 335.67 -140.76 0z"/>
   </g>
   <polyline class="fil8 str0" points="1129.59,159.22 3774.04,417.66 3447.82,1940.04 1151.83,1913.97 "/>
   <path class="fil9" d="M3774.04 417.66l-2644.44 -258.44c-5.76,458.88 23.69,930.66 23.46,1393.39 -0.06,120.44 -0.61,240.9 -1.22,361.36l2295.99 26.07 326.22 -1522.38zm-720.28 281.73c0,-190.83 263.83,-294.86 408.87,-149.82 65.4,65.4 66.05,119.31 66.05,205.33 0,109.22 -149.63,265.06 -334.98,186.95 -104.45,-44.02 -139.94,-129.74 -139.94,-242.46zm-1443.26 468.76l246.71 376.23 -191.2 0 -149.97 -257.1c-12.05,-20.06 -43.75,-67.65 -45.45,-88.3 -6.99,8.39 -5.97,2.12 -8.46,18.24l0.35 327.15c-43.14,0 -113.12,10.28 -148.03,-3.96l0 -699.16 148.03 0 0 296.05 142.15 -221.74c11.85,-19.8 36.7,-51.17 42.89,-74.31l178.87 0c-6.81,29.22 -184.62,280.22 -215.87,326.89zm273.28 -59.79c53.06,-104.41 193.12,-138.25 293.2,-93.45 120.48,53.94 118.15,187.79 118.15,301.26l-228.22 -0.02c-11.43,-0.07 -26.35,-0.89 -37.28,-0.43 -24.28,1.03 -15.17,-2.51 -32.63,6.61 15.56,18.33 2.68,27.46 19.21,61.96l4.43 8.29c7.41,11.41 5.65,8.02 15.62,16.19 0.3,0.25 8.92,6.77 10.74,8.06 1.11,0.79 2.54,1.86 3.68,2.63 30.59,20.41 40.36,13.91 85.93,13.91 38.62,-10.49 73.33,-29.46 103.02,-49.34 9.87,18.66 25.82,36.3 30.63,55.51 13.05,11.06 12.56,4.13 18.72,30.83 -6.09,6.02 1.03,0.22 -9.37,8.41l-61.76 37.75c-1.49,0.53 -4.93,3.3 -6.05,1.59 -1.19,-1.81 -4.25,1.09 -6.39,1.6 -43.49,30.5 -175.45,38.46 -250.49,-17.5 -23.94,-17.86 -35.89,-27.18 -53.78,-51.07 -60.77,-81.2 -68.17,-242.75 -17.33,-342.78zm614.89 -321.04c8.14,-6.48 -10.67,-7.74 24.67,-7.74l0 18.94c2.37,27.67 6.4,42.42 6.21,79.7 -0.5,96.33 -11.75,531.09 12.3,555.14 30.7,30.7 28.75,-48.78 61.67,92.52 -20.24,4.72 -26.7,10.35 -49.45,12.23 -186.19,15.43 -166.43,-110.19 -166.43,-252.77l0.21 -364.11c-0.06,-40.73 -6.38,-64.13 -6.38,-110.81 29.02,-6.76 86.48,-25.52 117.19,-23.1zm271.38 757.06c-164.33,0 -194.97,-250.29 -52.11,-311.15 123.28,-52.52 187.8,-6.24 187.8,-46.57 0,-145.23 -163.87,-36.59 -209.7,-12.33 -13.55,-25.61 -49.79,-80.3 -55.51,-104.85 89.96,-47.6 172.47,-89.92 292.77,-64.57 153.38,32.33 100.74,208.79 107.91,385.51 2.21,54.55 21.75,47.64 43.4,79.96 -11.5,17.17 -61.62,86.35 -80.18,86.35 -27.65,0 -55.5,-38.57 -61.68,-61.67 -80.33,53.79 -54.39,49.33 -172.7,49.33z"/>
   <path class="fil9" d="M2899.57 1303.84c-70.8,0 -123.36,2.31 -123.36,80.18 0,87.17 123.36,59.83 123.36,18.5l0 -98.69z"/>
   <path class="fil9" d="M2153.27 1211.32c0,-56.76 -19.16,-111.02 -74.01,-111.02 -47.37,0 -74.02,45.53 -74.02,92.52l0 18.51 148.03 0z"/>
   <ellipse class="fil2" cx="1083.87" cy="3841.86" rx="920.9" ry="95.15"/>
  </g>
 </g>
</svg>
