<?xml version="1.0" encoding="UTF-8"?>
<!DOCTYPE svg PUBLIC "-//W3C//DTD SVG 1.0//EN" "http://www.w3.org/TR/2001/REC-SVG-20010904/DTD/svg10.dtd">
<!-- Creator: CorelDRAW 2018 (64-Bit) -->
<svg xmlns="http://www.w3.org/2000/svg" xml:space="preserve" width="3.93701in" height="3.93701in" version="1.0" style="shape-rendering:geometricPrecision; text-rendering:geometricPrecision; image-rendering:optimizeQuality; fill-rule:evenodd; clip-rule:evenodd"
viewBox="0 0 3937.01 3937.01"
 xmlns:xlink="http://www.w3.org/1999/xlink">
 <defs>
  <style type="text/css">
   <![CDATA[
    .fil3 {fill:#B2B3B3}
    .fil2 {fill:#898989}
    .fil0 {fill:#5B5B5B}
    .fil1 {fill:#2B2A29}
    .fil28 {fill:#E2441D}
    .fil23 {fill:#E33C1D}
    .fil30 {fill:#E4541C}
    .fil31 {fill:#E46C14}
    .fil15 {fill:#E5631B}
    .fil4 {fill:#E63619}
    .fil22 {fill:#E9641C}
    .fil14 {fill:#E96D1A}
    .fil27 {fill:#E9711A}
    .fil24 {fill:#E97415}
    .fil26 {fill:#E98616}
    .fil7 {fill:#EA7918}
    .fil17 {fill:#EB7C14}
    .fil32 {fill:#EB8B14}
    .fil9 {fill:#EB8C0C}
    .fil18 {fill:#EC8119}
    .fil16 {fill:#EC9212}
    .fil12 {fill:#EC9C02}
    .fil29 {fill:#ED8A16}
    .fil19 {fill:#EE9912}
    .fil11 {fill:#EE9E0E}
    .fil25 {fill:#EEA30C}
    .fil21 {fill:#F1A90A}
    .fil5 {fill:#F2A403}
    .fil13 {fill:#F2B302}
    .fil20 {fill:#F2B90D}
    .fil10 {fill:#F4BC12}
    .fil6 {fill:#F4C414}
    .fil8 {fill:#F4CA14}
   ]]>
  </style>
 </defs>
 <g id="Layer_x0020_1">
  <metadata id="CorelCorpID_0Corel-Layer"/>
  <g id="_1855635683424">
   <path class="fil0" d="M1065.57 3514.03c0.85,-98.89 33.46,-2955.06 14.79,-3062.54 -33.5,181.36 -27.85,2519.16 -30.28,2972.89 -0.17,31 -4.61,70.95 15.5,89.65zm32.15 -190.46c37.65,-100.74 20.59,-2475.84 15.12,-2994.03l-16.57 -200.82c11.28,256.96 0.42,543.03 -0.31,803.09l-4.31 1584.43c0.6,268.62 -13.96,540.17 6.08,807.33zm-52.97 -3272c5.61,4.72 -10.17,37.24 31.22,0 -21.18,-16.93 30.16,-12.38 -12.35,-8.33 -22.07,2.11 -5.32,-1.65 -18.87,8.33zm85.69 22.35c4.63,-6.14 18.14,12.81 11.74,-22.36 -5.72,-31.46 0.4,-10.72 -21,-19.25 -3.43,4 -17.29,-11.02 -11.77,20.28 6.63,37.64 -4.99,9.71 21.03,21.33z"/>
   <path class="fil1" d="M1097.71 3323.57c-20.05,-267.17 -5.48,-538.71 -6.08,-807.33l4.32 -1584.43c0.73,-260.06 11.59,-546.13 0.31,-803.09l16.57 200.82c5.47,518.19 22.53,2893.28 -15.12,2994.03zm-32.14 190.46c-20.11,-18.7 -15.67,-58.65 -15.5,-89.65 2.44,-453.72 -3.22,-2791.52 30.28,-2972.89 18.67,107.48 -13.94,2963.65 -14.78,3062.54zm76.6 -3462.46c6.39,35.17 -7.11,16.22 -11.74,22.36 -26.02,-11.61 -14.4,16.31 -21.04,-21.33 -5.52,-31.3 8.35,-16.28 11.77,-20.28 21.4,8.53 15.28,-12.21 21,19.25zm-97.43 0c13.56,-9.98 -3.19,-6.22 18.87,-8.33 42.5,-4.05 -8.83,-8.59 12.35,8.33 -41.39,37.24 -25.61,4.72 -31.22,0zm100.91 2857.73c-5.65,-206.74 4.19,-430.11 4.65,-633.97 0.54,-240.93 2.65,-481.86 2.76,-722.72 0.23,-474.64 -30.76,-958.8 -22.94,-1428.79 123.11,-24.06 77.63,-131.58 -44.71,-123.37 -98.01,6.58 -117.19,70.76 -73.65,104.14l42.74 25.57c1.07,-1.87 4.22,3.03 6.11,4.8 -10.72,618.95 -33.22,1230.42 -35.64,1853.46 -1.19,307.03 -4.47,617.72 -4.5,926.24 -0.02,308.31 -13.09,631.83 -1.25,938.13 57.98,-4.95 6.91,-5.67 33.13,-11.55l31.54 0.62c18.2,3.63 19.78,5.6 21.5,6.03 26.72,6.64 -9.65,-0.39 12.56,3.31 12.28,2.05 11.94,3.25 21.35,-1.14 21.58,-50.11 5.31,-377.85 6.65,-547.57l-3.55 0 0 -393.19 3.26 0z"/>
   <path class="fil0" d="M2523.33 798.52l0 -18.94c-35.34,0 -16.53,1.26 -24.67,7.74l19.01 -4.25 5.66 15.45zm-317.95 721.19c2.13,-0.5 5.2,-3.4 6.38,-1.59 1.13,1.72 4.56,-1.06 6.06,-1.59l61.76 -37.75c10.4,-8.19 3.28,-2.39 9.37,-8.41 -6.16,-26.71 -5.67,-19.79 -18.72,-30.84 8.03,17.59 8.16,10.58 15.72,33.77 -21.9,8.17 -19.5,9.65 -38.86,22.26 -8.04,5.24 -12.32,7.22 -19.28,10.9l-22.44 13.26zm-68.8 -86.35c-45.57,0 -55.34,6.5 -85.92,-13.91 -1.15,-0.76 -2.57,-1.84 -3.69,-2.63 -1.81,-1.28 -10.43,-7.81 -10.73,-8.06 -9.98,-8.16 -8.21,-4.77 -15.62,-16.19l-4.43 -8.29c-16.53,-34.49 -3.65,-43.63 -19.2,-61.95 6.67,51.98 7.69,65.07 39.85,92.34 27.45,23.27 67.7,35.97 99.75,18.68zm-822.14 107.06c34.91,14.24 104.89,3.96 148.03,3.96l-0.35 -327.16c2.49,-16.13 1.46,-9.86 8.46,-18.24l-5.02 -16.5c-12.3,15.72 -4.03,-14.99 -10.79,22.26l0.43 335.67 -140.76 0zm838.82 -329.09c0,-56.76 -19.16,-111.02 -74.01,-111.02 -47.37,0 -74.02,45.53 -74.02,92.52l0 18.51 148.03 0zm746.3 92.52c-70.8,0 -123.36,2.31 -123.36,80.18 0,87.17 123.36,59.83 123.36,18.5l0 -98.69zm874.47 -886.18l-2644.44 -258.44c-5.76,458.88 23.69,930.66 23.46,1393.39 -0.06,120.44 -0.61,240.9 -1.22,361.36l2295.99 26.07 326.22 -1522.38zm-720.28 281.73c0,-190.83 263.83,-294.86 408.87,-149.82 65.4,65.4 66.05,119.31 66.05,205.33 0,109.22 -149.63,265.06 -334.98,186.95 -104.45,-44.02 -139.94,-129.74 -139.94,-242.46zm-1443.26 468.76l246.71 376.23 -191.2 0 -149.97 -257.1c-12.05,-20.06 -43.75,-67.65 -45.45,-88.3 -6.99,8.39 -5.97,2.12 -8.46,18.24l0.35 327.15c-43.14,0 -113.12,10.28 -148.03,-3.96l0 -699.16 148.03 0 0 296.05 142.15 -221.74c11.85,-19.8 36.7,-51.17 42.89,-74.31l178.87 0c-6.81,29.22 -184.62,280.22 -215.87,326.89zm273.28 -59.79c53.06,-104.41 193.12,-138.25 293.2,-93.45 120.48,53.94 118.15,187.79 118.15,301.26l-228.22 -0.02c-11.43,-0.07 -26.35,-0.89 -37.28,-0.43 -24.28,1.03 -15.17,-2.51 -32.63,6.61 15.56,18.33 2.68,27.46 19.21,61.96l4.43 8.29c7.41,11.41 5.65,8.02 15.62,16.19 0.3,0.25 8.92,6.77 10.74,8.06 1.11,0.79 2.54,1.86 3.68,2.63 30.59,20.41 40.36,13.91 85.93,13.91 38.62,-10.49 73.33,-29.46 103.02,-49.34 9.87,18.66 25.82,36.3 30.63,55.51 13.05,11.06 12.56,4.13 18.72,30.83 -6.09,6.02 1.03,0.22 -9.37,8.41l-61.76 37.75c-1.49,0.53 -4.93,3.3 -6.05,1.59 -1.19,-1.81 -4.25,1.09 -6.39,1.6 -43.49,30.5 -175.45,38.46 -250.49,-17.5 -23.94,-17.86 -35.89,-27.18 -53.78,-51.07 -60.77,-81.2 -68.17,-242.75 -17.33,-342.78zm614.89 -321.04c8.14,-6.48 -10.67,-7.74 24.67,-7.74l0 18.94c2.37,27.67 6.4,42.42 6.21,79.7 -0.5,96.33 -11.75,531.09 12.3,555.14 30.7,30.7 28.75,-48.78 61.67,92.52 -20.24,4.72 -26.7,10.35 -49.45,12.23 -186.19,15.43 -166.43,-110.19 -166.43,-252.77l0.21 -364.11c-0.06,-40.73 -6.38,-64.13 -6.38,-110.81 29.02,-6.76 86.48,-25.52 117.19,-23.1zm271.38 757.06c-164.33,0 -194.97,-250.29 -52.11,-311.15 123.28,-52.52 187.8,-6.24 187.8,-46.57 0,-145.23 -163.87,-36.59 -209.7,-12.33 -13.55,-25.61 -49.79,-80.3 -55.51,-104.85 89.96,-47.6 172.47,-89.92 292.77,-64.57 153.38,32.33 100.74,208.79 107.91,385.51 2.21,54.55 21.75,47.64 43.4,79.96 -11.5,17.17 -61.62,86.35 -80.18,86.35 -27.65,0 -55.5,-38.57 -61.68,-61.67 -80.33,53.79 -54.39,49.33 -172.7,49.33z"/>
   <path class="fil2" d="M3161.19 541.6c63.32,-4.58 38.32,3.01 48.33,10.22 15.03,10.82 -23.02,7.47 23.38,11.04 15.85,1.22 22.44,-4.67 30.8,-10.51l10.7 -8.83c35.28,-17.8 45.29,10.34 46.02,11.26l47.91 7.77c16.07,-22.06 -8.5,-23.69 53.31,-20.53l30.73 337.41 -103.57 0c-3.53,-54.24 1.67,-122.76 -60.58,-120.98 -57.76,1.65 -51.72,65.71 -55.48,120.98l-103.13 -0.02 31.6 -337.79zm-107.42 157.8c0,112.72 35.49,198.45 139.94,242.46 185.35,78.11 334.98,-77.74 334.98,-186.96 0,-86.02 -0.65,-139.93 -66.05,-205.33 -145.04,-145.04 -408.87,-41.01 -408.87,149.82zm186.57 -30.84c6.69,61.81 103.93,56.5 99.68,-12.37 -4.11,-66.44 -107.49,-59.92 -99.68,12.37z"/>
   <path class="fil3" d="M1314.45 1540.42l140.76 0 -0.43 -335.67c6.76,-37.25 -1.52,-6.54 10.79,-22.26l5.02 16.5c1.7,20.64 33.4,68.24 45.45,88.29l149.97 257.1 191.2 0 -246.71 -376.24c31.25,-46.67 209.06,-297.67 215.87,-326.89l-178.87 0c-6.18,23.14 -31.03,54.51 -42.88,74.3l-142.15 221.75 0 -296.05 -148.03 0 0 699.16zm1461.76 -156.4c0,-77.87 52.56,-80.18 123.36,-80.18l0 98.69c0,41.33 -123.36,68.67 -123.36,-18.5zm-135.69 -314.56c5.72,24.55 41.96,79.24 55.51,104.85 45.83,-24.25 209.7,-132.89 209.7,12.33 0,40.34 -64.52,-5.94 -187.8,46.57 -142.86,60.86 -112.21,311.16 52.11,311.16 118.31,0 92.37,4.45 172.7,-49.34 6.17,23.11 34.03,61.68 61.68,61.68 18.56,0 68.68,-69.18 80.18,-86.35 -21.64,-32.32 -41.19,-25.41 -43.4,-79.96 -7.17,-176.72 45.47,-353.18 -107.91,-385.51 -120.3,-25.36 -202.81,16.96 -292.77,64.56zm-635.28 123.35c0,-46.99 26.65,-92.52 74.01,-92.52 54.86,0 74.02,54.26 74.02,111.02l-148.03 0 0 -18.5zm200.15 326.89l22.44 -13.26c6.96,-3.68 11.24,-5.66 19.28,-10.9 19.35,-12.61 16.96,-14.09 38.86,-22.26 -7.56,-23.19 -7.7,-16.18 -15.72,-33.77 -4.8,-19.21 -20.75,-36.85 -30.62,-55.51 -29.69,19.88 -64.41,38.86 -103.03,49.34 -32.05,17.29 -72.3,4.59 -99.75,-18.68 -32.17,-27.27 -33.19,-40.37 -39.85,-92.34 17.46,-9.13 8.35,-5.59 32.63,-6.62 10.93,-0.46 25.85,0.35 37.28,0.42l228.22 0.03c0,-113.47 2.33,-247.32 -118.15,-301.26 -100.07,-44.8 -240.14,-10.96 -293.2,93.45 -50.83,100.03 -43.43,261.57 17.33,342.78 17.89,23.9 29.83,33.21 53.78,51.07 75.04,55.96 207,48 250.49,17.5zm317.95 -721.19l-5.66 -15.45 -19.01 4.25c-30.7,-2.42 -88.17,16.34 -117.19,23.1 0,46.68 6.32,70.07 6.38,110.81l-0.21 364.11c0,142.59 -19.76,268.2 166.43,252.78 22.74,-1.88 29.21,-7.52 49.45,-12.23 -32.92,-141.3 -30.97,-61.81 -61.68,-92.52 -24.04,-24.04 -12.8,-458.8 -12.3,-555.14 0.19,-37.28 -3.83,-52.03 -6.21,-79.7z"/>
   <path class="fil3" d="M3240.34 668.56c-7.81,-72.29 95.57,-78.82 99.68,-12.37 4.26,68.87 -92.99,74.19 -99.68,12.37zm-110.76 210.83l103.13 0.02c3.77,-55.27 -2.28,-119.32 55.48,-120.98 62.25,-1.78 57.05,66.74 60.58,120.98l103.57 0 -30.73 -337.41c-61.81,-3.16 -37.23,-1.53 -53.31,20.53l-47.91 -7.77c-0.72,-0.92 -10.74,-29.06 -46.02,-11.26l-10.7 8.83c-8.37,5.84 -14.95,11.73 -30.8,10.51 -46.4,-3.56 -8.35,-0.22 -23.38,-11.04 -10.01,-7.21 14.99,-14.8 -48.33,-10.22l-31.6 337.79z"/>
   <ellipse class="fil1" cx="1083.87" cy="3841.86" rx="920.9" ry="95.15"/>
  </g>
  <g id="_1855635669056">
   <path class="fil4" d="M1383.3 3659.04c-12.05,42.44 -47.93,104.29 -71.01,118.9l-8.2 45.3 246.54 -2.3 -37.52 -39.67c-11.46,-10.19 -2.39,1.26 -16.78,-16.66 -14.07,-17.52 0.06,3.17 -11.37,-17.92 -21.22,-19.13 -43.33,-51.15 -59.97,-96.62l-11.99 -90.45 -29.7 99.41z"/>
   <path class="fil5" d="M1107.89 3278.09c66.48,17.53 -20.13,-29.46 66.74,-13.75 0.87,0.16 2.96,1.06 3.8,1.15l37.11 -7.52c43.72,-3.53 37.25,8.81 89.95,-5.38 28.53,-7.69 7.1,3.01 45.73,7.83 -10.9,-45.42 -22.53,-21.7 -27.47,-73.87 -3.93,-57.39 -44.63,-107.33 -41.52,-212.69 3.36,-113.95 51.24,-138.7 62.63,-187.04 -47.32,18.14 -98.82,89.96 -116.87,162.85 -26.26,106.08 -1.08,162.31 7.63,258.99 -43.65,-9.77 -63.24,-43.68 -82.04,-79.03 -29.32,-55.12 -19.21,-76.61 -15.21,-137.61 -56.56,47.83 -86.63,209.28 -30.48,286.07z"/>
   <path class="fil5" d="M1440.14 3258.12c8.53,9.76 4.86,1.66 11.77,16.98 6.35,14.09 3.06,2.98 6.85,25.23l53.75 -48.9c21.89,0.53 -9.16,20.37 20.29,-1.1 3.45,-35.38 0.23,-27.05 -5.51,-60.41 -150.37,-200.02 -83.93,-214.65 -126.2,-282.28 -60.71,211.87 13.84,212.87 39.07,350.48z"/>
   <path class="fil6" d="M856.58 1483.08l-11.87 8.13c-4.29,27.99 -11.76,35.94 -16.96,60.64 -6.28,29.87 -4.26,57.71 -5.98,89.24 50.66,-12.46 108.93,4.27 157.57,-16.59 3.41,-41.31 15.65,-73.9 24.29,-110.85l-7.46 -30.82c-66.54,0 -51.15,-6.78 -69.49,-9.02 -27.63,-3.38 4.92,5.83 -59.46,9.28l-10.64 -0.02z"/>
   <path class="fil7" d="M458.47 3458.82l-16.55 19.84c-18.52,16.78 -95.07,3.82 -131.66,-6.57 18.64,46.69 50.98,83.01 90.12,105.83 19.74,10.46 66.86,29.35 75.72,30.14 15.69,1.41 69.34,-5.19 103.37,-4.85 71.59,0.71 143.39,0.85 215,0.85l12.63 43.37c18.56,-52.09 -2.92,-36.27 34.76,-64.48 15.43,-42.9 9.54,-100.93 6.77,-149.57l-14.61 -29.2 -0.67 75.79c-25.22,-11.28 -8.38,1.43 -24.12,-34.72 -34.51,47.1 -31.69,-2.41 -82.41,24.41 -0.28,0.15 -2.36,2.24 -2.55,1.27 -0.19,-0.96 -1.7,1.41 -2.58,1.11 -13.4,-33.71 -14.8,-14.83 -18.49,-65.16 -14.05,-14.63 -5.46,-26.16 -8.11,-54.66 -3.56,-38.28 2.29,-43.66 -20.02,-54.3 31.86,233.03 -112.51,318.83 -216.6,160.9z"/>
   <path class="fil8" d="M1660.48 2719.52c15.68,19.13 3.31,10.9 29.51,20.15 15.72,5.56 18.7,4.15 36.06,5.36 5.86,-10.43 12.47,-0.38 2.39,-36.37 22.52,-1.02 13.44,-0.93 35.82,13.26l17.48 11.04c0.61,-13.33 -5.64,-43.84 40.69,-36.89 71.28,-111.59 128.37,-266.57 79.28,-415.43l-44.35 -88.21c-16.08,-16.42 1.97,-5.77 -25.55,-18.22 19.26,146.53 50.45,192.2 -21.07,333.41 -44.55,87.96 -98.24,145.3 -150.28,211.9z"/>
   <path class="fil8" d="M856.58 1483.08l10.64 0.02c64.38,-3.46 31.83,-12.66 59.46,-9.28 18.34,2.24 2.94,9.02 69.49,9.02l7.46 30.82 42.91 -98.31c11.7,-60.64 102.93,-223.19 92.93,-363.31 -2.94,-41.25 -14.05,-45.19 -23.2,-55.63 -2.8,158.99 -91.16,236.63 -191.62,372.94 -14.64,19.87 -25.26,26.45 -40.21,54.09 -9.4,17.38 -16.53,36.25 -27.85,59.65z"/>
   <path class="fil9" d="M776.86 1713.58c1.99,57.96 36,77.38 18.13,161.69 -29.36,138.57 -168.33,87.44 -166.68,-28.82 0.91,-64.36 28.15,-95.99 48.07,-138.92 -91.9,60.52 -114.57,164.28 -137.31,258.78 -5.11,117.86 15.13,180.35 55.91,270.07 42.69,5.29 8.69,4.28 20.22,-11.45 -11.6,-44.42 -5.73,-47.67 -26.24,-83.14l14.19 -1.5c-11.2,-54.01 -46.99,-151.34 -15.7,-208.18l5.91 10.79c17.06,38.44 17.83,75.45 84.23,94.49 97.89,28.07 254.35,-79.95 117.99,-341.24 -6.54,-12.52 -10.04,-22.16 -15.75,-33.72l-2.96 51.17z"/>
   <path class="fil10" d="M275.96 2979.02c4.86,20.88 4.12,16.87 11.4,39.92 22.47,-38.94 -11.69,-23.26 36.66,-28.13 55.96,-5.64 112.54,-0.15 161.84,16.77 36.12,-112.89 95.79,-202.77 125.57,-339.49 30.29,-139.05 -2.41,-314.87 -88.68,-370.34 25.72,126.74 60.66,184.79 27.59,346.88 -18.6,91.19 -78.36,214.74 -132.22,250.34 7.04,-78.66 49.57,-151.21 -4.1,-222.24 -25.48,87.79 -3.24,97.18 -55.37,172.63 -23.04,33.34 -67.42,90.63 -82.69,133.66z"/>
   <path class="fil11" d="M651.85 3194.72l23.22 103.2c22.31,10.64 16.46,16.02 20.02,54.3 2.65,28.5 -5.94,40.03 8.11,54.66l9.73 -55.98c5.18,-13.98 6.09,-14.23 9.87,-20.18l13.31 69.84c-1.62,-9.63 -7,13.88 -0.05,-14.92l10.63 -26.74 55.76 1 0.02 -23.43c-5.3,-48.45 -59.23,-83.23 -91.78,-191.5 -39.05,-129.89 -4.08,-158.51 11.33,-266.92 -13.09,8 -16.64,-3.76 -41.96,55.93 -43.7,103.04 -39.67,146.42 -28.2,260.74z"/>
   <path class="fil12" d="M1046.53 1415.34l-42.91 98.31c-8.64,36.95 -20.88,69.54 -24.29,110.85 0.33,68.18 2.06,104.06 31.17,146.65 41.8,61.14 138.09,92.46 198.86,1.72 34.38,-51.34 19.5,-61.63 35.63,-119.63 16.21,105.13 1.97,224.5 -72.61,294.85 -11.91,34.59 2.58,5.56 -22.03,34.63 -9.91,11.71 -17.43,20.43 -27.96,32.98 -23.17,27.64 -30.86,30.26 -56.81,64.78 47.54,10.56 1.97,-0.2 41.23,22.83 23.97,-17.22 75.9,-76.97 102.91,-116.62 132.28,-194.15 93.58,-426.93 -35.56,-501.52 14.69,73.5 38.36,136.36 12.74,225.61 -17.83,62.11 -71.17,90.07 -125.84,47.65 -96.24,-74.68 17.92,-278.21 38.81,-362.77l-18.77 -27.93c-23.27,36.46 -5.72,35.49 -34.58,47.6z"/>
   <path class="fil13" d="M803.05 1421.28l15.3 32c38.36,-32.02 -40.28,36.68 20.21,-28.04 1.57,-1.68 4.28,-3.99 5.65,-5.37 1.41,-1.43 3.72,-4.06 5.98,-5.32l9.59 25.89c0.19,2.37 0.58,5.3 0.51,7.85 -1.48,52.14 -2.65,-16.02 -15.6,42.93l11.87 -8.13c11.32,-23.41 18.45,-42.27 27.85,-59.65 14.96,-27.65 25.57,-34.23 40.21,-54.09 100.46,-136.31 188.82,-213.95 191.62,-372.94 9.15,10.44 20.25,14.39 23.2,55.63 10.01,140.13 -81.23,302.67 -92.93,363.31 28.85,-12.11 11.31,-11.13 34.58,-47.6l18.77 27.93c43.86,-81.06 107.62,-212.73 90.93,-341.8 -14.39,-111.2 -81.3,-224.44 -175.84,-253.35 16.29,35.12 -0.09,1.33 14.57,24.84 1.68,2.69 10.01,15.28 10.31,15.78 8.15,13.74 13.3,24.6 18.88,42.43 57.78,184.54 -70.11,319.06 -152.75,417.63l-102.93 120.08z"/>
   <path class="fil14" d="M594.98 2236.38c86.01,148.22 110.06,175.82 196.03,306.82 153.46,233.89 119.46,251.48 161.51,341.17 24.76,-3.24 15.73,1.65 23.98,-18.91 1.33,1.5 3.03,2.12 3.54,4.98l17.74 24.65c7.09,9.82 18.44,24.37 23.13,37.64 14.17,40.12 -3.33,68.72 16.4,101.84 4.59,-6.58 15.87,-39.6 24.07,-56.79 57.28,-120.08 182.5,-218.65 214.66,-355.57l-13.81 -15.21c3.67,-16.47 10.42,-41.84 13.92,-77.22 -11.66,-17.38 20.01,-25.3 -22.6,-8.36 -10.3,31.86 -7.42,19.49 -23.92,41.68 -21.95,29.51 -3.73,17.05 -28.46,33.56 -7.63,25.72 -85.87,97.8 -124.72,141.15l-51.06 50.83c-24.18,-32.31 -37,-82.19 -59.89,-124.23 -21.09,-38.76 -58.12,-70.94 -71.89,-109.94 -6.81,-2.93 -81.86,-84.71 -102.1,-104.69 -32.24,-31.81 -79.73,-70.02 -88.89,-119.84 -32.2,-35.89 -85.23,-115.1 -94,-183.8l-5.46 -5.87 -14.19 1.5c20.51,35.48 14.65,38.72 26.24,83.14 -11.53,15.73 22.46,16.74 -20.22,11.45z"/>
   <path class="fil15" d="M841.86 3582.94c-37.67,28.21 -16.19,12.39 -34.76,64.48l-12.63 -43.37c-71.61,0 -143.41,-0.13 -215,-0.85 -34.03,-0.33 -87.68,6.26 -103.37,4.85 -8.86,-0.79 -55.97,-19.68 -75.72,-30.14 13.46,45.09 9.09,19.34 32.2,46.22 -81.13,43.8 -180.67,2.25 -245.78,-75.87 -12.97,-15.56 -9.56,-16.43 -20.89,-32.48 16.2,84.3 52.84,135.48 113.07,194.09 100.63,97.93 397.08,154.57 468.53,67.73l51.21 -68.95c25.46,-41.24 33.67,-73.93 43.14,-125.72z"/>
   <path class="fil16" d="M878.03 3391.25l9.97 25.41 26.91 12.84 11.8 -41.55c3.55,34.74 -0.35,25.76 11.08,45.91 65.65,0 176.56,7.42 236.41,-2.91 43.46,-7.5 57.3,-5.23 106.39,2.73 39.55,6.42 55.91,34.84 103.09,6.78l11.7 21.15c13.46,23.04 -7,-4.73 12.15,19.72l-3.61 -96.64c-1.19,-50.82 -13.94,-70.62 -30.48,-113.11 -6.91,-17.76 -13.09,-32.15 -21.76,-47.81 -4.28,-7.72 -9.39,-15.98 -14.16,-22.3 -8.58,-11.36 -4.11,-6.31 -13.77,-14.93 4.94,52.17 16.57,28.45 27.47,73.87 -38.63,-4.82 -17.2,-15.51 -45.73,-7.83 -52.7,14.19 -46.23,1.85 -89.95,5.38l-37.11 7.52c-0.83,-0.08 -2.93,-0.99 -3.8,-1.15 -86.87,-15.71 -0.25,31.28 -66.74,13.75 27.38,80.34 64.41,77.43 81.98,131.57 -234.44,-37.83 -179.87,-360.61 -188.16,-447.35 -1.27,2.1 -2.5,5.13 -3.13,6.8l-7.57 21.23c-25.75,97.39 -19.31,253.99 -190.54,267.26 15.59,16.07 63.1,86.53 77.58,133.65z"/>
   <path class="fil16" d="M702.61 2329.94c9.15,49.82 56.65,88.03 88.89,119.84 20.24,19.97 95.29,101.76 102.1,104.69 47.22,11.26 110.96,3.02 171.59,3.02 29.48,0 59.07,0.86 88.51,-0.65 49.95,-2.56 44.09,-11.2 47.46,39.82 24.73,-16.52 6.52,-4.05 28.46,-33.56 16.5,-22.19 13.62,-9.81 23.92,-41.68 6.32,-57.24 15.43,-85.98 -5.23,-141.9 -13.12,32.98 -2.99,24.67 -23.65,59.54 -48.84,82.45 -167.87,63 -205.48,-3.41 -37.59,-66.39 -26.13,-126.2 -25.7,-205.65 -8.99,8.75 -16.51,-0.98 -21.65,68.93 -6.58,89.59 -0.03,62.7 -18.12,73.09 -23.26,-12.4 -15.17,-7.78 -16.45,-53.96 -0.59,-21.22 -0.46,-40.1 -3.21,-61.94l-2.88 71.76c-18.45,0 -38.08,3.08 -53.72,-4.65 -1.72,-0.85 -3.49,-2.48 -5.07,-3.48 -45.25,-28.72 -3.36,-19.1 -125.69,-19.1 -11.93,20.87 -7.82,12.74 -9,44.57 -14.48,-19.35 -8.56,-27.8 -35.09,-15.27z"/>
   <path class="fil16" d="M1552.65 3194.95c-21.7,38.49 7.48,10.26 -11.65,9.43 -0.28,-0.01 -12.89,-13.19 -13.72,-14.46 5.74,33.36 8.96,25.03 5.51,60.41 -29.45,21.48 1.61,1.63 -20.29,1.1l-53.75 48.9 10.74 113.69c0.65,1.42 2.16,3.51 2.85,4.89l14.85 33.24 262.67 0.34c44.15,11.65 14.9,11.2 31.9,19.82 22.38,11.35 9.35,9.02 26.98,-5.41 -24.69,-9.93 -22.41,-14.02 -41.98,-36.87 -7.47,-16.06 -25.82,-33.03 -42.38,-57.91 -22.59,-33.93 -22.91,-32.5 -34.67,-70.14 -22.17,-70.93 -21.94,-117.19 -17.88,-193.56 -17.64,41.68 -13.55,96.33 -10.95,150.62l-97.31 0.67c4.47,-41.63 4.63,-41.37 -10.92,-64.77z"/>
   <path class="fil17" d="M1005.04 2184.88c-4.92,16.88 -7.78,24.57 -11.56,45.12 -0.43,79.46 -11.89,139.26 25.7,205.65 37.61,66.41 156.64,85.86 205.48,3.41 20.66,-34.87 10.54,-26.56 23.65,-59.54 20.66,55.92 11.55,84.67 5.23,141.9 42.61,-16.94 10.94,-9.02 22.6,8.36 -3.5,35.37 -10.24,60.74 -13.92,77.22l13.81 15.21c54.48,-44.11 17.54,-355.67 -85.4,-399.41 20.08,61.97 44.55,124.54 8.35,193.91 -59.96,114.89 -202.13,20.44 -163.94,-162.4 16.04,-76.77 50.38,-100.37 71.78,-150.98 -39.26,-23.03 6.31,-12.27 -41.23,-22.83 0.62,18.93 -18.13,34.11 -31.47,52.99 -11.19,15.83 -21.29,35.58 -29.09,51.39z"/>
   <path class="fil18" d="M1432.11 3484.45c-10.14,77.83 0.19,62.33 10.64,95.06l426.07 2.04c25.35,5.79 121.11,34.85 152.56,1.4 68.23,-150.72 21.51,-244.76 18.65,-267.31 -0.5,-3.9 -2.02,-4.75 -3.3,-6.94l1.77 63.91c-34.73,8.89 -5.98,-12.63 -35.48,14.22 -20.89,19.02 6.91,18.83 -34.37,19.54l1.91 -111.35 -25.15 -9.54c37.73,187.18 -70.66,191.14 -178.65,144.56 19.57,22.85 17.29,26.94 41.98,36.87 -17.63,14.43 -4.6,16.76 -26.98,5.41 -17,-8.62 12.25,-8.17 -31.9,-19.82l-262.67 -0.34 -14.85 -33.24c-0.69,-1.37 -2.2,-3.46 -2.85,-4.89l-10.74 -113.69c-3.79,-22.25 -0.5,-11.14 -6.85,-25.23 -6.91,-15.32 -3.24,-7.22 -11.77,-16.98 21.22,107.67 12.04,127.72 -8.03,226.33z"/>
   <path class="fil18" d="M888 3416.66l4.22 40.46c21.73,22.36 14,37.06 17.09,76.53 12.61,-17.37 21.41,-26.95 14.5,-44.63 8.63,36.68 -26.28,27.62 101.56,26.8l320.34 0.51c25.55,-3.23 52.43,11.98 30.61,-26.52 7.86,63.76 16.17,58.17 27.27,69.86l3.93 -78.34c-19.16,-24.45 1.3,3.31 -12.15,-19.72l-11.7 -21.15c-47.19,28.06 -63.54,-0.36 -103.09,-6.78 -49.08,-7.96 -62.93,-10.23 -106.39,-2.73 -59.85,10.33 -170.76,2.91 -236.41,2.91 -11.43,-20.16 -7.53,-11.17 -11.08,-45.91l-11.8 41.55 -26.91 -12.84z"/>
   <path class="fil19" d="M234.44 3301.11l17.25 64.09 27.43 -37.73c8.78,-17.35 2.04,10.82 7.1,-18.6l14.58 27.71 129.44 -3.15 5.85 -138.48c-18.74,26.67 -15.81,-34.15 -16.26,33.11l-7.55 -38.95 -175.64 -1.64 -3.64 -42.22c-17.81,41.05 -1.38,111.93 1.44,155.86z"/>
   <path class="fil20" d="M1172.39 1948.1c74.58,-70.35 88.82,-189.72 72.61,-294.85 -16.13,57.99 -1.25,68.28 -35.63,119.63 -60.76,90.74 -157.06,59.42 -198.86,-1.72 -29.11,-42.59 -30.84,-78.46 -31.17,-146.65 -48.64,20.86 -106.91,4.13 -157.57,16.59 29.15,105.11 42.1,162.26 40.97,289.12l264.53 2.65c32.33,10.49 7.22,13.27 32.49,15.61 43.33,4.01 -25.69,-12.79 12.63,-0.37z"/>
   <path class="fil20" d="M1660.48 2719.52c-16.58,12.24 -11.84,11.19 -32.07,25.87 -26.8,46.69 -52.18,62.28 -78.77,125.04 -31.69,74.8 -25.44,113.92 -21.52,197.54 5.2,-32.87 8.33,-42.5 9.96,-77.41l4.87 -45.13c0.79,17.34 2.09,59.92 6.06,74.56 15.22,56.2 13.48,17.12 25.76,-6.74l54.28 0 7.96 -5.39c1.4,2.22 2.81,3.27 3.52,6.99 2.78,14.5 15.5,21.84 21.82,25.5 11.86,-20.77 4.87,-30.2 33.67,-50.27 10.06,-35.41 36.52,-90.69 41.42,-116.98 21.94,-56.42 74.67,-137.89 85,-177.02 -46.33,-6.94 -40.09,23.56 -40.69,36.89l-17.48 -11.04c-22.38,-14.19 -13.3,-14.28 -35.82,-13.26 10.07,35.99 3.46,25.94 -2.39,36.37 -17.35,-1.22 -20.33,0.19 -36.06,-5.36 -26.2,-9.26 -13.83,-1.03 -29.51,-20.15z"/>
   <path class="fil21" d="M803.05 1421.28c-17.96,49.39 -42.06,69.91 -48.8,138.75 -4.48,45.69 0.39,114.27 22.61,153.56l2.96 -51.17c5.71,11.56 9.21,21.2 15.75,33.72 136.36,261.3 -20.09,369.31 -117.99,341.24 -66.39,-19.04 -67.17,-56.05 -84.23,-94.49l-5.91 -10.79c-31.29,56.83 4.5,154.17 15.7,208.18l5.46 5.87 12.83 9.67c2.49,1.76 11.21,8.35 12.56,8.81 17.93,6.12 -21.84,6.28 17.15,-10.32l13.68 31.01 340.21 -0.44c7.8,-15.81 17.9,-35.56 29.09,-51.39 13.34,-18.89 32.09,-34.06 31.47,-52.99 25.94,-34.52 33.63,-37.14 56.81,-64.78 10.53,-12.56 18.05,-21.28 27.96,-32.98 24.61,-29.07 10.12,-0.04 22.03,-34.63 -38.32,-12.42 30.7,4.38 -12.63,0.37 -25.27,-2.34 -0.16,-5.11 -32.49,-15.61l-264.53 -2.65c1.13,-126.85 -11.82,-184 -40.97,-289.12 1.72,-31.53 -0.3,-59.37 5.98,-89.24 5.2,-24.7 12.67,-32.65 16.96,-60.64 12.95,-58.94 14.12,9.21 15.6,-42.93 0.07,-2.55 -0.32,-5.48 -0.51,-7.85l-9.59 -25.89c-2.26,1.27 -4.57,3.9 -5.98,5.32 -1.37,1.38 -4.08,3.69 -5.65,5.37 -60.49,64.72 18.15,-3.98 -20.21,28.04l-15.3 -32z"/>
   <path class="fil21" d="M233 3145.25l3.64 42.22 175.64 1.64 7.55 38.95c0.45,-67.26 -2.48,-6.45 16.26,-33.11l23.09 -93.38c6.87,-54.1 13.29,-47.62 26.68,-93.99 -49.3,-16.93 -105.88,-22.41 -161.84,-16.77 -48.35,4.87 -14.19,-10.81 -36.66,28.13 -7.28,-23.05 -6.54,-19.04 -11.4,-39.92 -25.6,38.24 -45.09,111.41 -42.96,166.23z"/>
   <path class="fil21" d="M1528.13 3067.97l24.52 126.98c15.55,23.4 15.39,23.14 10.92,64.77l97.31 -0.67c-2.6,-54.29 -6.69,-108.94 10.95,-150.62l24.2 -118.35c-28.8,20.07 -21.81,29.5 -33.67,50.27 -6.32,-3.66 -19.04,-11 -21.82,-25.5 -0.71,-3.72 -2.13,-4.78 -3.52,-6.99l-7.96 5.39 -54.28 0c-12.27,23.87 -10.53,62.95 -25.76,6.74 -3.96,-14.64 -5.27,-57.22 -6.06,-74.56l-4.87 45.13c-1.63,34.9 -4.76,44.54 -9.96,77.41z"/>
   <path class="fil22" d="M1424.99 3650.08c16.64,45.47 38.75,77.49 59.97,96.62 51.56,11.49 234.15,5.53 312.76,6.81 13.01,0.21 36.33,1.74 48.06,0.9l44.53 -14.47 2.96 38 102.28 -122.19c32.88,-64.11 -7.5,46.73 9.28,-23.04 -35.78,29.2 -17.81,3.77 -34.55,8.49 -27.06,7.62 -17.76,38.98 -25.14,20.39 -0.68,-1.7 -2.65,3.85 -4.1,5.64 -92.89,0 -185.79,0 -278.68,0 -43.71,0 -109.98,5.81 -148.72,-4.53l-22.17 -4.76c-0.98,0.13 -3.17,1.14 -4.2,1.34l-9.71 3.1c-24.6,3.17 -26.07,-4.71 -52.56,-12.3z"/>
   <path class="fil22" d="M836.5 3746.42c64.13,-9.08 161.35,-8.17 237.23,-6.98 48.36,0.76 44.02,9.04 52.82,12.37 32.43,12.28 140.52,6.13 180.86,5l4.88 21.14c23.08,-14.61 58.96,-76.46 71.01,-118.9 -49.35,11.26 -289.83,4.12 -374,4.83 -103.86,0.88 -63.94,-5.42 -87.44,-34.77 -19.26,37.11 5.53,17.32 -24.72,26.39l-3.99 -27.36 -28.27 63.64c-9.9,24.01 -16.98,39.55 -28.38,54.63z"/>
   <path class="fil23" d="M778.5 3826.3l58 -79.88c11.39,-15.08 18.48,-30.62 28.38,-54.63l28.27 -63.64c-5.13,-51.55 11.22,-104.56 -0.93,-171.03l-4.22 -40.46 -9.97 -25.41 -30.47 -21.74 1.07 63.85c2.77,48.65 8.67,106.67 -6.77,149.57 -9.47,51.79 -17.69,84.48 -43.14,125.72l-51.21 68.95c-71.45,86.84 -367.9,30.2 -468.53,-67.73 -60.23,-58.61 -96.87,-109.8 -113.07,-194.09 11.34,16.04 7.92,16.91 20.89,32.48 65.11,78.12 164.65,119.67 245.78,75.87 -23.11,-26.87 -18.73,-1.13 -32.2,-46.22 -39.14,-22.83 -71.48,-59.15 -90.12,-105.83 -23.55,-18.98 -50.19,-70.27 -58.57,-106.88l-17.25 -64.09 -31.87 -0.86c14.13,70.86 40.8,134.3 71.41,184.44 16.5,27.02 35.7,45.67 54.52,66.26 20.83,22.8 48.02,36.14 60.81,59.12 -106.93,17.61 -189.96,-53.61 -227.43,-152.46 -13.28,-35.03 -11.92,-65.88 -25.46,-96.69 -24.26,193.25 69.13,339.9 166.45,404.77 131.91,87.93 308.76,59.04 475.63,60.6z"/>
   <path class="fil24" d="M1647.8 2622.11l17.57 -2.27c-0.44,72.07 -33.92,-23.65 -6.1,76.22 -40.38,23.6 6.7,-22.8 -26.75,5.78 -2.7,2.31 -7.87,10.61 -8.56,14.26 -9.16,48.83 1.06,21.79 4.45,29.29 20.22,-14.68 15.49,-13.62 32.07,-25.87 52.04,-66.61 105.72,-123.94 150.28,-211.9 71.52,-141.21 40.33,-186.88 21.07,-333.41 27.52,12.46 9.47,1.81 25.55,18.22l44.35 88.21c49.08,148.85 -8.01,303.83 -79.28,415.43 -10.33,39.13 -63.05,120.6 -85,177.02 34.35,-11.33 28.41,6.15 23.69,40.25 23.07,-21.57 42,-83.04 59.47,-117.12 58.89,-114.93 126.73,-221.39 131.62,-377.15 5.92,-188.43 -122.21,-363.39 -259.08,-406.41 37.52,76.09 194.73,200.81 64.76,507.96l-17.24 -35.12c-26.45,-81.93 -78.3,-159.57 -153.06,-186.95 74.24,114.19 98.29,151.87 60.18,323.55z"/>
   <path class="fil25" d="M702.61 2329.94c26.52,-12.53 20.61,-4.08 35.09,15.27 1.18,-31.83 -2.93,-23.7 9,-44.57 122.33,0 80.44,-9.62 125.69,19.1 1.58,1 3.35,2.63 5.07,3.48 15.63,7.73 35.26,4.65 53.72,4.65l2.88 -71.76c2.75,21.84 2.62,40.72 3.21,61.94 1.29,46.19 -6.81,41.56 16.45,53.96 18.09,-10.39 11.54,16.5 18.12,-73.09 5.13,-69.91 12.66,-60.18 21.65,-68.93 3.78,-20.55 6.64,-28.24 11.56,-45.12l-340.21 0.44 -13.68 -31.01c-38.99,16.6 0.78,16.44 -17.15,10.32 -1.35,-0.46 -10.07,-7.05 -12.56,-8.81l-12.83 -9.67c8.77,68.69 61.8,147.9 94,183.8z"/>
   <path class="fil25" d="M1945.42 3285.47l25.15 9.54 -1.91 111.35c41.28,-0.7 13.48,-0.52 34.37,-19.54 29.5,-26.85 0.75,-5.33 35.48,-14.22l-1.77 -63.91c-28,-110.69 -99.14,-253.79 -71.89,-385.43 9.93,-47.96 32.52,-72.26 47.99,-109.47 -53.21,26.25 -104.68,102.94 -112.69,196.27 -10.39,121.05 49.17,221.13 45.27,275.41z"/>
   <path class="fil26" d="M893.59 2554.46c13.78,39 50.8,71.18 71.89,109.94 22.88,42.05 35.7,91.93 59.89,124.23l51.06 -50.83c38.86,-43.35 117.09,-115.43 124.72,-141.15 -3.37,-51.02 2.49,-42.37 -47.46,-39.82 -29.44,1.51 -59.04,0.65 -88.51,0.65 -60.63,-0.01 -124.37,8.23 -171.59,-3.02z"/>
   <path class="fil27" d="M1407.52 3481.33l-3.93 78.34c-11.1,-11.69 -19.41,-6.1 -27.27,-69.86 21.82,38.5 -5.06,23.29 -30.61,26.52l-320.34 -0.51c-127.84,0.81 -92.93,9.88 -101.56,-26.8 6.91,17.69 -1.9,27.27 -14.5,44.63 -3.08,-39.47 4.65,-54.17 -17.09,-76.53 12.15,66.47 -4.2,119.48 0.93,171.03l3.99 27.36c30.26,-9.07 5.47,10.72 24.72,-26.39 23.49,29.35 -16.42,35.65 87.44,34.77 84.17,-0.71 324.66,6.42 374,-4.83l29.7 -99.41 11.99 90.45c26.48,7.59 27.96,15.47 52.56,12.3l9.71 -3.1c1.03,-0.2 3.22,-1.21 4.2,-1.34l22.17 4.76c38.74,10.34 105.01,4.53 148.72,4.53 92.89,0 185.79,0 278.68,0 1.46,-1.79 3.43,-7.34 4.1,-5.64 7.38,18.59 -1.91,-12.77 25.14,-20.39 16.74,-4.72 -1.23,20.71 34.55,-8.49 10.72,-22.1 11.76,-27.57 16.56,-49.78 -31.46,33.46 -127.21,4.39 -152.56,-1.4l-426.07 -2.04c-10.45,-32.73 -20.78,-17.23 -10.64,-95.06 -18.83,-6.89 -4.92,5.46 -13.76,-22.12 -1.74,-5.44 -3.81,-20.61 -4.77,-26.88 -3.87,-25.23 0.85,-29.67 -9.67,-50.75l3.61 96.64z"/>
   <path class="fil28" d="M459.18 3101.57l-23.09 93.38 -5.85 138.48c9.54,63.22 4.79,74.15 28.23,125.39 104.09,157.93 248.46,72.13 216.6,-160.9l-23.22 -103.2c-28.59,3.44 -12.39,2.34 -35.13,-12.97 10.07,65.59 38.47,123.99 33.48,197.66 -4.28,63.19 -48.81,110.36 -108.63,98.23 -92.73,-18.81 -68.27,-261.39 -41.52,-349.91l-17.91 -41.36 -22.96 15.2z"/>
   <path class="fil29" d="M251.69 3365.2c8.38,36.61 35.02,87.9 58.57,106.88 36.59,10.39 113.15,23.35 131.66,6.57l16.55 -19.84c-23.44,-51.23 -18.69,-62.17 -28.23,-125.39l-129.44 3.15 -14.58 -27.71c-5.06,29.43 1.68,1.25 -7.1,18.6l-27.43 37.73z"/>
   <path class="fil30" d="M1037.3 3034.56c-19.73,-33.12 -2.23,-61.72 -16.4,-101.84 -4.69,-13.27 -16.04,-27.82 -23.13,-37.64l-17.74 -24.65c-0.51,-2.86 -2.21,-3.48 -3.54,-4.98 -8.25,20.57 0.78,15.67 -23.98,18.91 27.33,417.39 -187.55,368.49 -208.15,250.5 -16.7,-95.71 42.13,-175.81 46.52,-265.14 4.52,-91.85 -33.91,-194.06 -93.33,-215.69 15.27,46.61 41.77,89.96 20.66,157.13 -27.98,89.02 -187.2,235.32 -101.48,370.57 22.75,15.31 6.55,16.41 35.13,12.97 -11.47,-114.32 -15.5,-157.7 28.2,-260.74 25.32,-59.69 28.87,-47.93 41.96,-55.93 -15.41,108.41 -50.37,137.04 -11.33,266.92 32.55,108.27 86.48,143.05 91.78,191.5 16.19,18.72 23.96,38.71 31.55,67.7l14.61 29.2 -1.07 -63.85 30.47 21.74c-14.48,-47.12 -61.99,-117.59 -77.58,-133.65 171.23,-13.27 164.8,-169.86 190.54,-267.26l7.57 -21.23c0.64,-1.67 1.86,-4.69 3.13,-6.8 8.29,86.74 -46.28,409.52 188.16,447.35 -17.56,-54.15 -54.59,-51.24 -81.98,-131.57 -56.16,-76.78 -26.09,-238.23 30.48,-286.07 -4,61 -14.11,82.49 15.21,137.61 18.81,35.35 38.39,69.26 82.04,79.03 -8.71,-96.69 -33.89,-152.91 -7.63,-258.99 18.04,-72.9 69.54,-144.72 116.87,-162.85 -11.39,48.34 -59.27,73.09 -62.63,187.04 -3.1,105.35 37.59,155.3 41.52,212.69 9.66,8.63 5.19,3.57 13.77,14.93 4.77,6.32 9.88,14.57 14.16,22.3 8.67,15.67 14.85,30.05 21.76,47.81 16.54,42.48 29.28,62.28 30.48,113.11 10.52,21.08 5.8,25.52 9.67,50.75 0.96,6.26 3.03,21.44 4.77,26.88 8.84,27.58 -5.07,15.24 13.76,22.12 20.07,-98.61 29.25,-118.66 8.03,-226.33 -25.22,-137.61 -99.78,-138.61 -39.07,-350.48 42.27,67.63 -24.17,82.26 126.2,282.28 0.83,1.27 13.44,14.45 13.72,14.46 19.13,0.82 -10.06,29.06 11.65,-9.43l-24.52 -126.98c-3.92,-83.63 -10.17,-122.74 21.52,-197.54 26.59,-62.76 51.97,-78.35 78.77,-125.04 -3.4,-7.5 -13.61,19.54 -4.45,-29.29 0.69,-3.66 5.85,-11.96 8.56,-14.26 33.45,-28.58 -13.63,17.82 26.75,-5.78 -27.82,-99.87 5.66,-4.15 6.1,-76.22l-17.57 2.27c-17.47,23.43 -39.24,76.82 -55.81,102.98 -118.92,187.81 -123.43,117.48 -87.78,373.74 -39.2,-21.76 -63.35,-85.19 -67.59,-152.91 -5.24,-83.46 17.54,-120.76 35.32,-180.14 -48.71,31.8 -81.38,110.73 -99.99,185.61 -24.44,98.29 -7.56,160.83 28.46,233.81 -52.26,-12.49 -81.73,-66.31 -89.91,-128.81 -23.13,-176.73 176.81,-313.06 99.14,-534.44 -15.04,288.77 -235.55,275.18 -217.11,591.06 -63.16,-48.52 -25.57,-135.34 -8.93,-178.26 -55.44,17.87 -95.83,63.9 -117.96,122.56 -32.35,85.74 -13.52,130.22 1.27,212.01 -54.56,-71.53 -45.87,-130.33 -29.6,-234.76z"/>
   <path class="fil30" d="M1761.14 2913.34c4.72,-34.1 10.66,-51.57 -23.69,-40.25 -4.9,26.3 -31.36,81.57 -41.42,116.98l-24.2 118.35c-4.06,76.37 -4.29,122.63 17.88,193.56 11.76,37.63 12.08,36.21 34.67,70.14 16.56,24.87 34.91,41.85 42.38,57.91 107.99,46.58 216.39,42.61 178.65,-144.56 3.89,-54.28 -55.67,-154.35 -45.27,-275.41 8.01,-93.33 59.48,-170.02 112.69,-196.27 -15.47,37.2 -38.07,61.5 -47.99,109.47 -27.24,131.65 43.9,274.75 71.89,385.43 1.28,2.19 2.81,3.04 3.3,6.94 2.86,22.55 49.57,116.59 -18.65,267.31 -4.79,22.21 -5.83,27.68 -16.56,49.78 -16.79,69.76 23.6,-41.08 -9.28,23.04l-102.28 122.19 -2.96 -38 -44.53 14.47c-11.72,0.84 -35.04,-0.69 -48.06,-0.9 -78.61,-1.28 -261.2,4.68 -312.76,-6.81 11.43,21.08 -2.7,0.4 11.37,17.92 14.39,17.92 5.31,6.47 16.78,16.66l37.52 39.67 -246.54 2.3 8.2 -45.3 -4.88 -21.14c-40.34,1.13 -148.43,7.28 -180.86,-5 -8.81,-3.33 -4.46,-11.61 -52.82,-12.37 -75.87,-1.19 -173.09,-2.1 -237.23,6.98l-58 79.88 923.67 -0.85c123.15,0.01 165.56,14.65 248.26,-65.52 121.35,-117.63 173.04,-293.12 92.99,-525.78 -34.98,-101.66 -61.74,-168.81 -39.13,-297.54 17.68,-100.62 58.54,-164.16 117.09,-210.54 -95.37,5.83 -188.69,116.59 -219.97,201.7 -68.01,185.07 2.7,226.03 20.71,380.51 19.41,166.5 -124.59,140.28 -178.39,-13.51 -59.48,-170.01 10.57,-298.68 17.41,-381.44z"/>
   <path class="fil31" d="M202.57 3300.25l31.87 0.86c-2.82,-43.93 -19.25,-114.81 -1.44,-155.86 -2.13,-54.83 17.37,-128 42.96,-166.23 15.26,-43.02 59.65,-100.31 82.69,-133.66 52.13,-75.45 29.89,-84.84 55.37,-172.63 53.67,71.03 11.14,143.58 4.1,222.24 53.86,-35.61 113.62,-159.15 132.22,-250.34 33.07,-162.09 -1.87,-220.14 -27.59,-346.88 86.27,55.46 118.96,231.29 88.68,370.34 -29.79,136.72 -89.46,226.6 -125.57,339.49 -13.39,46.37 -19.81,39.89 -26.68,93.99l22.96 -15.2 17.91 41.36c32.97,-191.38 154.61,-278.61 151.96,-542.71 -1.67,-167.38 -54.85,-273.65 -144.11,-369.39 -22.47,-24.1 -70.55,-58.01 -82.82,-78.89 -41.94,-2.86 -12.37,-6.19 -23.31,20.49 28.35,16.88 56.35,93.85 69.42,127.99 58.39,152.6 70.45,394.37 -12.38,494.79 5.88,-84.5 7.78,-235.57 -72.02,-279.73 16.87,216.83 -39.35,254.05 -115.13,383.98 -56.05,96.11 -116.26,267.71 -69.07,415.99z"/>
   <path class="fil32" d="M703.2 3406.88c3.69,50.33 5.09,31.45 18.49,65.16 0.88,0.3 2.39,-2.07 2.58,-1.11 0.19,0.97 2.28,-1.13 2.55,-1.27 50.72,-26.82 47.9,22.69 82.41,-24.41 15.74,36.14 -1.1,23.43 24.12,34.72l0.67 -75.79c-7.59,-29 -15.37,-48.98 -31.55,-67.7l-0.02 23.43 -55.76 -1 -10.63 26.74c-6.95,28.8 -1.57,5.29 0.05,14.92l-13.31 -69.84c-3.78,5.95 -4.7,6.19 -9.87,20.18l-9.73 55.98z"/>
  </g>
 </g>
</svg>
