<?xml version="1.0" encoding="UTF-8"?>
<!DOCTYPE svg PUBLIC "-//W3C//DTD SVG 1.0//EN" "http://www.w3.org/TR/2001/REC-SVG-20010904/DTD/svg10.dtd">
<!-- Creator: CorelDRAW 2018 (64-Bit) -->
<svg xmlns="http://www.w3.org/2000/svg" xml:space="preserve" width="3.93701in" height="3.93701in" version="1.0" style="shape-rendering:geometricPrecision; text-rendering:geometricPrecision; image-rendering:optimizeQuality; fill-rule:evenodd; clip-rule:evenodd"
viewBox="0 0 3937.01 3937.01"
 xmlns:xlink="http://www.w3.org/1999/xlink">
 <defs>
  <style type="text/css">
   <![CDATA[
    .str0 {stroke:#2B2A29;stroke-width:33.33;stroke-miterlimit:22.9256}
    .fil3 {fill:none}
    .fil11 {fill:#010101}
    .fil8 {fill:#532E0E}
    .fil6 {fill:#737373}
    .fil15 {fill:#744C26}
    .fil5 {fill:#9A8675}
    .fil10 {fill:#A4A4A5}
    .fil18 {fill:#B20000}
    .fil9 {fill:#C72727}
    .fil7 {fill:#D6D7D9}
    .fil17 {fill:#F29323}
    .fil14 {fill:#F40A0B}
    .fil13 {fill:#F52C2C}
    .fil0 {fill:#F8D0E4}
    .fil16 {fill:#FB4B4A}
    .fil12 {fill:white}
    .fil1 {fill:url(#id3)}
    .fil4 {fill:url(#id4)}
    .fil2 {fill:url(#id5)}
   ]]>
  </style>
    <clipPath id="id0">
     <path d="M-0.1 3773.06l2942.54 0 0 -3609.12 -2942.54 0 0 3609.12z"/>
    </clipPath>
      <mask id="id1">
  <linearGradient id="id2" gradientUnits="userSpaceOnUse" x1="3511.87" y1="-1466.81" x2="-28.9" y2="4584.85">
   <stop offset="0" style="stop-opacity:1; stop-color:white"/>
   <stop offset="0.458824" style="stop-opacity:0.501961; stop-color:white"/>
   <stop offset="1" style="stop-opacity:0; stop-color:white"/>
  </linearGradient>
       <rect style="fill:url(#id2)" x="-1.5" y="162.54" width="2945.35" height="3611.92"/>
      </mask>
  <linearGradient id="id3" gradientUnits="userSpaceOnUse" x1="3512" y1="-1467" x2="-29" y2="4585">
   <stop offset="0" style="stop-opacity:1; stop-color:white"/>
   <stop offset="0.458824" style="stop-opacity:0.501961; stop-color:white"/>
   <stop offset="1" style="stop-opacity:0; stop-color:white"/>
  </linearGradient>
  <linearGradient id="id4" gradientUnits="userSpaceOnUse" x1="3360" y1="3360" x2="576" y2="576">
   <stop offset="0" style="stop-opacity:1; stop-color:#F8C8C8"/>
   <stop offset="0.458824" style="stop-opacity:1; stop-color:#DED7DD"/>
   <stop offset="0.501961" style="stop-opacity:1; stop-color:#833488"/>
   <stop offset="1" style="stop-opacity:1; stop-color:#C4E6F2"/>
  </linearGradient>
  <linearGradient id="id5" gradientUnits="userSpaceOnUse" x1="266.8" y1="959" x2="2997.48" y2="2977">
   <stop offset="0" style="stop-opacity:1; stop-color:#90D3F0"/>
   <stop offset="1" style="stop-opacity:1; stop-color:#B57BB3"/>
  </linearGradient>
 </defs>
 <g id="Layer_x0020_1">
  <metadata id="CorelCorpID_0Corel-Layer"/>
  <g id="_1672661701296">
   <path class="fil0 str0" d="M646.43 187.13l2573.9 0c253.62,0 459.3,205.68 459.3,459.3l0 2573.9c0,253.62 -205.68,459.3 -459.3,459.3l-2573.9 0c-253.62,-0 -459.3,-205.68 -459.3,-459.3l-0 -2573.9c0,-253.62 205.68,-459.3 459.3,-459.3z"/>
   <polygon class="fil1" points="-0.1,3773.06 2942.44,3773.06 2942.44,163.94 -0.1,163.94 "/>
   <g style="clip-path:url(#id0)">
    <g>
     <path id="1" class="fil2" style="mask:url(#id1)" d="M504.56 164.04l2437.79 0 -1890.78 3608.92 -196.25 0c-305.98,0 -580.83,-252.04 -610.77,-560.11l-241.88 -2488.7c-29.94,-308.06 195.91,-560.11 501.89,-560.11l0 0z"/>
    </g>
   </g>
   <polygon class="fil3" points="-0.1,3773.06 2942.44,3773.06 2942.44,163.94 -0.1,163.94 "/>
   <path class="fil4" d="M621.28 0l2694.44 0c341.71,0 621.28,279.57 621.28,621.28l0 2694.44c0,341.71 -279.57,621.28 -621.28,621.28l-2694.44 0c-341.71,0 -621.28,-279.57 -621.28,-621.28l0 -2694.44c0,-341.71 279.57,-621.28 621.28,-621.28zm224.54 328.08l2245.37 0c284.76,0 517.74,232.98 517.74,517.74l0 2245.37c0,284.76 -232.98,517.74 -517.74,517.74l-2245.37 0c-284.76,0 -517.74,-232.98 -517.74,-517.74l0 -2245.37c0,-284.76 232.98,-517.74 517.74,-517.74z"/>
   <g>
    <g id="_2833661656688">
     <path class="fil5" d="M1943.2 1529.52l-40.42 0.3c-9.57,10.89 -5.19,40.12 -5.7,58.98l8.08 3.25c5.77,-6.44 7.91,-6 32.1,-1.73l-3.06 31.55 5.79 -11.16c2.5,-10.04 -2.2,-17.04 6.02,-25.52 0.02,-5.96 -0.02,-6.08 0.94,-11.46 0.13,-0.75 0.04,-2.1 1.12,-2.64 0.98,-0.49 0.93,-1.49 1.37,-2.25l-6.23 -39.32 -0.01 0 0 0z"/>
     <polygon class="fil5" points="1999.73,943.01 1960.98,942.11 1960.5,954.22 2002.52,955.36 "/>
     <path class="fil6" d="M2014.93 1569.16l0.17 18.4 6.87 1.65c0.62,-16.29 -2.3,-42.58 3.41,-53.5 31.74,9.35 -17,58.04 25.02,49.44 0.26,-9.28 -0.09,-17.14 -0.19,-26.29 -0.17,-16.29 -2.69,-17.41 6.75,-22.83 10.22,13.01 2.63,44.94 2.69,59.31l1.8 -4.95 2.14 -62.22c-7.21,-0.92 -16.93,-2.06 -24.13,-1.82 -4.1,0.13 -6.03,0.21 -10.03,1.1 -20.31,4.5 -12.87,15.97 -14.51,41.7l0.01 0 0 0.01z"/>
     <path class="fil7" d="M1938.26 1007.63c-0.76,-12.22 2.61,-6.29 -8.09,-10.42 0.58,1.03 2.43,2.81 1.41,3.28l2.52 7.04c-7.9,0.39 -83.55,10.71 -93.18,16.64 -5.32,3.27 -2.98,1.3 -6.8,5.72l7.86 0.48c-5.25,5.24 -3.61,3.65 -3.37,11.63l-0.48 27.85c-0.19,18.38 0,36.98 0.11,55.38 48.31,7.13 66.8,2.31 114.17,-0.8l-0.09 -109.96 -14.06 -6.83 0 0 0 -0.01z"/>
     <path class="fil7" d="M1969.14 2760.31l-5.58 42.28c-8.43,5.74 -24.41,3.77 -38.41,3.44 8.05,6.65 24.79,4.5 39.69,4.34 -9.32,74.67 -5.83,175.45 -2.86,254.1l31.09 0c1.4,-40.67 4.09,-81.33 4.08,-124.87 0,-43.32 -5.18,-90 -4.02,-129.61 12.09,-0.05 32.01,4.09 41.69,-3.85l-41.5 -0.62c-5.98,-18.38 -7.17,-38.18 -13.04,-53.17l-11.15 7.95 0.02 0.01 -0.01 0z"/>
     <path class="fil7" d="M2142.25 1039.07c-9.39,-13.73 -10.28,-12.18 -29.78,-17.93l-72.47 -11.43c9.62,31.54 -1.85,80.28 3.79,116.72 38.18,3.44 53.45,4.57 89.54,-1.35 0.31,-50.04 8.84,-38.29 4.17,-66.28 -0.74,-4.49 -1.44,-5.98 -0.58,-10.91 1.7,-9.82 -3.59,-1.64 5.33,-8.81l0 0 -0 -0.01z"/>
     <path class="fil7" d="M1905.17 1592.06l-0.17 29.55 29.22 0.27 3.06 -31.55c-24.2,-4.26 -26.32,-4.71 -32.1,1.73l-0.01 0z"/>
     <path class="fil8" d="M2065.67 1597.43l-4.22 -7.03 -1.8 4.95 -2.09 26.64 5.94 -7.01c8.21,15.8 17.85,21 20,39.64l-47.34 -1.06c-14.61,-15.53 -12.35,-24.72 -37.02,-33.79 -20.63,-7.58 -42.63,-3.57 -58.46,6.34 -52.61,32.96 -23.3,96.12 -18.46,97.54 0.85,0.25 0.73,1.23 0.98,1.9 -39.1,42.63 36.49,40.65 71.47,39.17 62.56,-2.63 44.33,-23.42 35.01,-39.17 14.42,-24.54 12.52,-32.96 8.84,-63.56l48.61 -0.18c13.61,84.69 -66.3,139 -148.63,115.82 -36.26,-10.21 -60.98,-35.74 -71.88,-69.16 -14.57,-44.69 7.57,-73.67 30.78,-99.79l7.59 12.92 0.17 -29.55 -8.08 -3.25c-6.99,12.7 -3.17,6.12 -10.68,9.9 -82.33,89.67 -14.68,139.65 -8.47,163.09 12.82,5.89 24.38,18.24 48.46,28.24l20.52 9.22 5.86 -2.87c40.59,-1.23 50.53,2.38 83.06,-12.41 64.01,-29.12 93.42,-110.07 42.67,-170.13 -7.86,-9.31 -7.3,-5.7 -12.85,-16.4l0.01 -0.02 0.01 0.02z"/>
     <path class="fil8" d="M1949.43 1568.84c-0.44,0.76 -0.38,1.76 -1.37,2.25 -1.07,0.54 -0.98,1.89 -1.12,2.64 -0.96,5.38 -0.91,5.5 -0.94,11.46 25.51,-5.39 43.36,-5.47 69.09,2.37l-0.17 -18.4 -65.49 -0.32 0 0 -0 -0z"/>
     <path class="fil9" d="M1602.54 1172.85l-844.49 0.72c-8.71,11.1 -7.28,6.59 -11.87,21.24 11.94,-9.76 13.3,-16.87 30.48,-19.22 12.02,-1.64 35.67,-0.25 48.9,-0.25 32.58,0 63.67,1.87 96.04,1.48l50.81 0.28 60.49 -0.35c33.31,-2.77 60.29,2.8 90.96,1.67 30,-1.09 54.98,-2.07 85.12,-2.07l104.04 4.6c-4.12,29.82 -18.3,5.15 -60.66,18.11 -4.55,15.06 6.09,35.63 11.34,42.13 9.5,11.75 -6.92,9.11 12.67,9.11l-18.3 -44.51 160.1 0.27c-25.31,56.34 -37.72,76.95 -47.2,146.73 54.91,-5.21 75.35,-16.36 120.57,-33.23 -7.61,-5.78 0.89,-2 -10.15,-3.76 -8.11,-1.29 -6.99,-0.96 -21.47,5.76 -10.76,5 -15.03,7.8 -27.32,10.28l-52.87 11.85c4.74,-16.76 4.86,-28.18 8.76,-41.72 2.7,-9.38 7.3,-22.07 11.68,-33.38l22.09 -46.71c6.56,-15 2.78,-4.96 6.35,-20.11l-6.56 -7.63c4.96,-15.11 1.79,-15.96 20.52,-17.05 13.44,-0.79 30.24,0.54 44.19,-0.3l47.49 0.44 52.96 1.63c9.09,22.55 3.93,232.23 3.68,286.52 -0.36,76.8 -1.93,57.8 -15.94,60.7 -14.46,3 -7.17,-9.72 -14.04,5.21 5.38,2.78 -1.3,0.59 7.61,1.48 1.13,0.11 4.92,0.21 6.18,0.27 5.57,0.27 6.6,-0.58 14.46,0.51 6.35,75.36 0.07,70.8 -17.77,72.22l-29.89 0.35c-0.59,-0.11 -3.02,-0.83 -2.54,-0.93 0.48,-0.1 -1.72,-0.59 -2.49,-1.07l-42.49 -3c-4.76,5.11 -16.18,5.19 -22.73,5.5 -11.46,0.54 -11.78,0.65 -22,-0.19 -57.4,-4.73 -108.07,5.69 -147.84,-2.98l-15.56 0.13c-26.7,5.6 -74.22,0.91 -103.1,0.9 -36.51,-0.01 -57.38,13.31 -82.79,3.62 -8.28,-3.16 -2.42,0.41 -8,-4.69l-80.57 -2.72c-10.7,-110.55 -1.96,-102.11 71.04,-101.61 22.43,-2.52 25.17,1.5 34.5,14.1 10.94,-6.22 -2.23,0.7 7.01,-6.4 4.71,-3.62 2.48,-2.68 9.13,-5.76 16.11,-7.45 15.36,-0.94 15.36,-0.93l51.38 -1.32c10.2,-0.21 3.72,-1.7 13.3,1.18 15.07,4.55 4.24,1.74 9.1,5.52 9.44,7.35 0.37,3.39 14.37,9.74 1.21,-14.91 13.49,-16.35 28.69,-15.69 19.46,0.57 14.26,-2.89 17.46,-6.37 -3.09,-2.16 1.15,-4.1 -18.21,-6.36 -15.76,10.9 -21.95,1.79 -36.27,2.04 -10.61,0.19 -0.28,2.53 -16.74,0.98 -4.04,-0.39 -6.94,-2.68 -16.46,-2.68l-46.09 -0.68c-6.49,5.27 -7.15,2.93 -17.11,5.94 -18.85,5.7 -18.3,12.94 -37.51,-4.12l-60.62 -0.22c-25.21,0.64 15.68,11.02 -26.14,6.27l-1.65 -297.45c-6.8,16.99 1.48,272.14 -2.5,286.19 -6.01,21.18 -18.03,6.25 -25.85,5.15l-52.47 -0.55 -26.02 1.48 -6.61 -22.4c-21.44,16.77 -13.38,12.3 -59.99,12.22 -18.96,-0.04 -53.3,-4.73 -66.03,3.54 12.79,6.69 63.25,4.2 83.37,3.93 4.18,-0.05 13.89,-0.43 17.52,-0.08l16.61 4.41c7.57,28.36 3.81,76.17 2.49,108.33 -54.63,4.2 -185.28,5.51 -232.93,-4.62 3.39,4.06 -1.75,3.57 10.76,8.13 11.92,4.34 178.88,-0.39 206.65,1.15 11.31,0.63 8.8,-0.56 17.92,7.61l4.38 5.02c5.94,-7.31 2.62,-4.9 15.46,-7.9l-18.31 -7.83c-1.31,-21.75 -0.48,-46.02 1.27,-64.04 2.86,-29.37 -2.97,-42.88 26.44,-31.43 1.52,-3.76 -1.69,-5.37 18,-7.22l40.9 2.09c25.14,5.57 19.95,13.52 20.72,72.91 0.39,29.82 1.14,25.74 -5.97,31.23 -7.97,6.16 7.98,2.3 -6.08,1.16 -7.48,-0.61 -6.25,-14.82 -5.89,-0.77l-14.03 0.27 8.19 43.97c0.47,-1.02 0.84,-2.26 1.06,-3.19l2.44 -22.04c18.21,0.39 22.99,0.92 38.08,0.69 0.81,-0.51 1.98,-0.98 2.59,-1.25 12.93,-5.78 12.09,-6.91 35.98,-5.5 13.88,-0.48 28.33,0.44 36.5,1.81 9.26,1.57 9.46,0.7 17.77,3.17 12.27,3.65 0.95,0.98 11.67,5.09 17.73,-11.37 20.74,-9.71 45.48,-10.4 13.41,-1.05 45.9,0.72 55.83,7.03 21.01,7.54 3.91,3.04 24.55,-2.83 8.27,-2.36 18.84,-3 26.59,-4.24 9.21,-0.73 19.18,-0.41 28.61,-0.43 7.72,-0.01 4.95,-0.72 13.01,0.65 9.19,1.56 5.91,1.72 7.76,2.81 16.39,1.54 16.32,7.22 26.31,5.85 11.14,-1.54 8.04,-5.7 27.66,-6.1 7.59,-4 38.96,-2.98 49.34,-3.04 9.91,2.24 15.83,4.02 25.51,7.21 16.03,5.28 1.45,2.54 23.03,-0.91 8.24,-4.85 11.08,-5.52 22.23,-6.48l2.57 34.25c9.15,-16.64 -9.74,-48.67 31.19,-32.13 18.44,0.58 20.48,-1.41 32.92,9.22 8,-6.52 0.15,-3.51 9.37,-6.36 7.91,-2.44 9.1,-1.51 17.52,-1.37l0.2 64.88 -17.37 -1.69 -43.74 0.58c-19.32,4.1 -22.4,6.92 -42.02,4.74l0.39 5.52 11.53 6.75c35.57,-15.54 52.63,-10.06 93.95,-7.45 4.11,1.39 7.84,2.46 13.89,3.93 6.03,-1.91 0.04,0.95 7.07,-3.14 0.52,-0.3 0.88,-1.64 2.26,-1.89 1.46,-0.26 1.5,-1.44 2.25,-2.15 -18.26,-2.46 -16.38,0.63 -14.94,-13.71 1.19,-11.79 0.83,-22.1 0.93,-34.61 0.11,-14.65 3.77,-22.73 4.14,-28.8 0.92,-14.91 -4.78,-3.65 -7.59,-23.18l0.11 -138.6c-0.02,-46.18 -5.8,-250.52 1.97,-278.66l0.02 -0.02 -0.03 0.01z"/>
     <path class="fil9" d="M3050.1 1599.01c-0.54,-16.83 -18.91,-45.31 65.35,-30.26l2.54 24.87c-3.51,1.15 -15.16,2.03 -16,2.21 -35.58,7.91 -13.34,4.11 -51.88,3.17l-0.01 0.01 0 0zm126.15 -425.52l-163.31 0.39c4.07,2.4 -3.06,2.92 11.37,3.08l20.17 -0.04 -1.44 312.08 -84.33 -1.85c-13.49,18.35 -34.22,2.96 -47.05,9.45 2.74,1.12 5.81,2.28 8.28,3.92l9.45 8.15c6.59,5.44 -5.43,0.74 8.08,5.51 2.49,-17.68 7.54,-17.67 22.39,-9.56 20.95,-9.17 27.65,-5.8 55,-5.64 6.89,0.07 12.16,0.3 17.8,2.52 13.54,5.32 14.56,7.38 11.42,52.78l-22.52 -1.95 -33.25 6.73c5.32,8.62 29.4,6.57 40.41,7.16 -1.51,13.72 -7.48,19.06 2.93,27.54l-10.2 6.47c-1.05,0.65 -13.35,-1.79 -5.75,3.43 0.48,0.33 -1.85,0.97 -2.66,1.62 21.05,3.46 23.1,4.69 35.97,11.18l6.94 -12.07 58.11 -0.26c6.52,-0.55 13.11,-0.46 19.68,0.31l118.05 -0.3c4.76,-0.31 9.54,-0.29 14.31,0.08 0.39,-0.15 0.72,-0.29 0.93,-0.39l5.01 -2.44c5.82,-3.48 2.52,-0.46 6.86,-5.4l-19.53 -0.95 -5.5 -79.67c-6.2,14.85 2.98,-13.71 -2.15,5.68 -3.46,13.1 1.2,52.47 -1.5,76.17 -36.1,1.58 -85.31,6.07 -120.3,-0.88 -5.21,-21.77 -1.18,-25.8 -8.04,-47.72 -7.09,10.07 -37.98,7.36 -52.22,6.36l-13.46 -2.39c0.54,-0.17 -3,0.89 -4.31,-4.25l0.52 -47.22c5.78,-19.67 1.87,9.81 4.33,-14.41 27.09,-0.07 96.26,4.85 114.2,-4.38 -22.31,-1.94 -95.57,1.61 -111.39,-1.48l-6.15 -2.02c0.48,-0.17 -2.06,-0.7 -2.97,-1.26 -8.79,-9.51 -2.83,-220.61 -3.56,-265.42 -0.04,-2.59 -0.24,-15.85 -0.03,-17.48l5.63 -16.07c19.7,-9.16 106.41,-5.14 123.86,3.09 41.96,26.46 14.45,182.25 14.9,245.55l0.01 -16.69c19.35,0.17 40.24,-0.87 59.3,-0.13 31.37,1.22 25.33,15.52 35.61,11.59 -8.61,-29.61 -65.03,-16.92 -91.98,-18.35 3.46,-65.44 33.36,-191.43 -17.94,-230.19l-0.01 0.02 0.04 0.01z"/>
     <path class="fil9" d="M1886.41 1598.7c7.51,-3.77 3.68,2.81 10.68,-9.9 0.51,-18.87 -3.88,-48.09 5.7,-58.98l40.42 -0.3 10.37 4.04c0.89,0.2 1.81,0.39 2.79,0.54 47.62,7.61 63.89,-5.8 76.42,-6.36 10.26,-0.46 20.88,0.33 30.88,-0.29l2.01 69.98c5.56,10.7 4.99,7.09 12.85,16.4 50.76,60.06 21.35,141.01 -42.67,170.13 -32.53,14.8 -42.47,11.19 -83.06,12.41 7.96,9.83 -3.74,0.82 7.78,4.19 21.38,6.26 -16.59,-1.92 6.12,1 4.22,0.55 5.93,-1.52 16.53,0.69 35.74,-4.6 37.02,-2.69 64.51,-17.28 18.55,-7.13 35.43,-26.7 45,-44.31 14.2,-26.14 16.38,-40.34 14.58,-76.63 61.94,0.55 85.76,-10.67 85.17,16.42 -16.31,10.1 -54.13,-3.23 -60.25,10.8l4.12 -0.05 0 -0.26 60.23 -0.5 0.02 0.5 5.51 0 0 -0.54c32.87,0.85 21.39,1.15 32.7,11.02 9.24,-8.17 11.83,-7.61 26.8,-10.04 -5.3,-5.27 9.36,-10.2 -12.5,-4.55 -57.62,9.28 -45.03,-25.27 -46.43,-34.15 -23.54,-0.64 -75.45,4.12 -92.39,-3.77 -13.23,-6.16 -5.98,-2.12 -12.69,-13.16 -3.44,-5.67 -5.1,-10.09 -8.44,-15.83 -24.24,-41.65 -22.19,3.76 -17.97,-79.23 13.21,-5.5 1.65,-4.37 16.76,-7.57l69.61 -1.07c46.83,-0.17 68.73,-7.6 74.5,18.8 7.13,-26.28 5.62,6.2 13.85,-17.47 38.85,-3.98 92.16,-4.46 129.81,2.1l-0.46 -14.61c-15.5,4.85 -0.78,6.61 -40.78,6.32l-90.45 -1.02c-21.82,-2.15 -146.97,5.39 -172.47,-1.3 -16.89,-4.43 -17.38,-6.11 -38.81,-5.54 -29.01,0.77 -51.29,9.3 -86.18,2.78 -41.93,-7.85 -46.81,4.09 -80.24,4.56 -30.08,0.42 -60.24,0.52 -90.33,0.46 -28.04,-0.06 -74.37,-5.04 -83.62,4.19 0.76,0.55 1.88,1.08 2.51,1.28 12.74,4.16 9.17,2.26 21.96,0.72 28.63,-3.45 148.94,-1.56 169.83,1.31 4.18,21.66 4.57,41.11 -0.26,64.09l-0.02 0 -0.02 -0.01z"/>
     <path class="fil9" d="M2671.28 1545.19c2.82,10.72 3.54,10.74 7.57,21.48l-160.18 -0.42c22.78,-51.06 41.43,-82.19 46.89,-147.14 -91.1,9.37 -105.11,34.4 -147.27,47.08l0.54 -160.09 12.73 3.35c-3.4,-9.48 -2.69,-7.98 -6.94,-13.84 -14.71,3.89 -17.06,-13.4 -15.05,37.94l1.21 142.22c28.96,-1.49 22.87,-10.41 50.39,-17.35 6.27,-6.49 29.29,-13.73 39.76,-15.36 8.3,-6.55 34.72,-13.91 52.56,-12.39 3.53,29.93 -15.23,54.89 -7.6,58.98l-41 -2.44c-3.07,4.97 -2.95,-1.57 -2.67,11.98 6.77,0.29 13.02,0.8 19.57,1.26l20.77 -0.4c-11.38,1.13 -4.68,1.96 -10.46,14.9 -11.45,25.68 -25.91,38.96 -19.66,59.7l46.94 1.27 62.99 -0.07 59.91 -0.6c5.96,-6.12 7.86,-6.33 4.44,-17.21 -4.23,-13.47 -4.93,-10.61 -15.46,-12.86l0.01 0 0.02 0z"/>
     <path class="fil10" d="M2142.25 1039.07c-8.93,7.18 -3.64,-1.01 -5.34,8.81 -0.85,4.94 -0.16,6.42 0.59,10.92 4.67,27.98 -3.86,16.24 -4.17,66.28 -36.09,5.93 -51.36,4.79 -89.54,1.35 -5.65,-36.44 5.83,-85.17 -3.79,-116.71l-14.75 0.3 -0.19 -8.98c-17.16,-0.85 -22.85,-0.7 -28.78,1.26 -36.85,12.11 -11.5,-6.09 -38.85,-1.52 -11.76,1.97 -7.09,4.85 -19.16,6.85l14.06 6.83 0.1 109.96c-47.37,3.1 -65.86,7.92 -114.17,0.8 -0.11,-18.4 -0.3,-37 -0.11,-55.38l0.48 -27.85c-0.24,-7.98 -1.87,-6.39 3.37,-11.63l-7.85 -0.48c-20.67,7.72 -37.4,25.67 -43.93,54.52 -3.44,15.24 -2.6,28.84 -7.05,41.68 -9.89,28.52 0.23,18.74 -0.21,42.72l-168.01 0.26 0 0.93 -196.65 0 0 -1.6c-82.06,0.48 -164.32,1.68 -245.85,1.25 -69.22,-0.36 -138.94,-1.12 -208.13,-0.18 -17.9,0.24 -190.97,-5.68 -206.26,4.13l844.49 -0.72c30.2,0.88 62.87,0.12 93.67,0.12 14.91,0 84.76,4.12 90.02,-5l0.8 -14.59 388.72 1.81c5.98,-3.79 7.21,4.7 6.19,-15.31 -1.08,-21.23 -0.52,-0.56 -5.61,-16.17 -14.7,-45.09 12.19,-30.34 -34.09,-84.66l0 0 0.01 0z"/>
     <path class="fil10" d="M2021.98 1589.21l0.06 32.79 35.52 -0.02 2.09 -26.64c-0.06,-14.38 7.54,-46.31 -2.69,-59.32 -9.44,5.42 -6.93,6.56 -6.75,22.83 0.1,9.15 0.44,17.01 0.19,26.28 -42.02,8.6 6.72,-40.09 -25.02,-49.44 -5.7,10.93 -2.79,37.22 -3.41,53.5l0.01 0.01 0 0.01z"/>
     <path class="fil11" d="M1361.42 1363.19c-4.59,-59.73 26.64,-102.04 40.35,-147.61l-127.19 0.05c5.52,20.86 18.89,43.37 26.41,65.74 8.41,25.02 12.84,53.03 14.82,82.2 -83.43,-4.41 -90.45,-22.51 -148.18,-41.44l0.04 127.47c56.62,-18.4 74.09,-37.67 148.15,-41.12 -5.04,72.68 -20.88,91.1 -41.5,146.52l127.69 1.17c-15.6,-49.7 -37.87,-65.45 -41.54,-146.94 65.98,-3.37 111.11,30.52 147.99,39.96l0 -126.74c-40.93,11.48 -74.34,40.75 -147.06,40.74l0.01 0 0.01 0z"/>
     <path class="fil11" d="M2769.28 1322.25c-49.72,21.32 -85.93,37.53 -148.06,41.26 4.85,-91.65 30.74,-105.78 40.78,-147.87l-126.97 -0.33c12.54,44.45 38.53,64.32 41.03,148.25 -94.03,-6.11 -101.35,-29.14 -147.83,-41.37l1.26 127.93c41.33,-19.5 91.54,-41.3 145.83,-41.64 6.13,54.55 -25.61,103.83 -40.28,147.58l127.15 0.05c-6.85,-23.37 -19.15,-43.67 -27.35,-68.54 -8.28,-25.15 -12.34,-51.82 -13.38,-79.38 29.97,2.19 54.11,5.6 81.77,14.59 23.93,7.78 43.94,20.25 66.09,27.05l-0.03 -127.58 -0.01 0z"/>
     <path class="fil11" d="M2057.56 1621.99l-35.52 0.02 -0.06 -32.79 -6.87 -1.65c-25.73,-7.85 -43.57,-7.76 -69.09,-2.38 -8.21,8.48 -3.51,15.47 -6.02,25.53l-5.79 11.15 -29.22 -0.27 -7.59 -12.92c-23.19,26.13 -45.35,55.11 -30.78,99.79 10.9,33.43 35.61,58.95 71.87,69.16 82.33,23.18 162.24,-31.13 148.63,-115.82l-48.61 0.17c3.67,30.61 5.57,39.03 -8.85,63.56 9.33,15.75 27.56,36.54 -35.01,39.17 -34.98,1.47 -110.57,3.46 -71.47,-39.17 -0.25,-0.67 -0.13,-1.65 -0.98,-1.9 -4.84,-1.42 -34.13,-64.58 18.46,-97.54 15.82,-9.91 37.82,-13.93 58.46,-6.34 24.68,9.07 22.42,18.27 37.02,33.79l47.35 1.06c-2.14,-18.64 -11.79,-23.85 -20,-39.64l-5.94 7.01 0 0.01 0.01 0z"/>
     <path class="fil12" d="M1401.78 1215.58c-13.72,45.58 -44.95,87.89 -40.35,147.61 72.72,0 106.14,-29.28 147.06,-40.74l0 126.74c-36.88,-9.44 -82.02,-43.33 -147.99,-39.96 3.66,81.48 25.93,97.24 41.54,146.94l-127.69 -1.17c20.62,-55.41 36.45,-73.84 41.5,-146.52 -74.07,3.45 -91.53,22.72 -148.15,41.12l-0.04 -127.47c57.73,18.93 64.74,37.03 148.18,41.44 -1.99,-29.17 -6.41,-57.18 -14.82,-82.2 -7.51,-22.35 -20.88,-44.88 -26.4,-65.74l127.18 -0.05 -0.01 0 -0.01 0zm96.74 96.97l-6.98 7.02c-45.22,16.88 -65.66,28.02 -120.56,33.23 9.48,-69.78 21.89,-90.39 47.2,-146.73l-160.11 -0.27 18.3 44.51c13.97,15.51 25.3,74.66 27.83,100.85 -55.04,0.48 -83.25,-21.79 -125.63,-35.54l-20.39 -10.26c-1.21,26.8 -0.66,53.76 -0.61,80.24l-0.59 62.72c2.59,25.97 -1.77,11.11 8.49,16.91 8.34,-8.66 58.77,-30.8 71.8,-30.08 3.24,-2.81 2.01,-2.29 7.46,-5.07 4.05,-2.06 4.2,-1.91 8.03,-3.04l51.57 -6.81c-1.4,29.59 -19.39,104.15 -38.74,123.1l-4.35 12.93c-2.43,10.15 -2.24,4.89 1.35,10.41l155.39 -0.46c-21.91,-55.33 -39.84,-75.2 -46.41,-146.84 66.38,5.57 106.94,28.44 146.73,47.03l0.02 -160.89 -19.83 7.03 0 0.02 0.03 -0.01z"/>
     <path class="fil12" d="M2769.28 1322.25l0.02 127.58c-22.15,-6.8 -42.16,-19.27 -66.09,-27.05 -27.65,-8.99 -51.79,-12.4 -81.77,-14.59 1.05,27.56 5.1,54.23 13.38,79.38 8.2,24.88 20.5,45.17 27.35,68.54l-127.15 -0.05c14.66,-43.74 46.4,-93.03 40.27,-147.58 -54.28,0.34 -104.5,22.15 -145.83,41.65l-1.26 -127.93c46.48,12.23 53.8,35.26 147.84,41.37 -2.49,-83.93 -28.5,-103.8 -41.03,-148.25l126.97 0.33c-10.04,42.09 -35.92,56.22 -40.78,147.87 62.13,-3.73 98.34,-19.94 148.06,-41.26l0.02 0 0 -0.01zm-337.71 -12.79l-12.73 -3.35 -0.54 160.09c42.17,-12.69 56.17,-37.71 147.27,-47.08 -5.44,64.96 -24.11,96.08 -46.89,147.14l160.18 0.41c-4.04,-10.74 -4.76,-10.76 -7.57,-21.48l-1.83 -1.96c-19.02,-24.2 -35.07,-84.7 -36.82,-123.22 27.57,0.4 53.34,7.56 77.89,15.82 24.61,8.28 46.22,22.98 67.96,29.5l0.76 -159.27c-47.32,17.22 -84.43,45.72 -146.57,45.6 2.02,-45.24 25.66,-113.32 46.26,-144.32l-160.15 -1.69c20.83,50.44 42.52,81.93 46.65,146.74 -34.31,-2.22 -115.62,-22.99 -133.85,-42.93l-0.01 0 -0.01 0z"/>
     <path class="fil13" d="M2510.75 1181.48c0.4,22.09 -4.99,19.23 -4.14,29 0.59,6.84 6.48,18.82 8.39,29.16 2.18,11.79 -0.83,51.85 -0.91,73.13 -3.19,9.96 -10.48,17.02 -23.93,17.91 -15.22,1.01 -22.38,-6.13 -28.45,-12.56 -28.96,-30.68 -21.72,-1.78 -21.07,-46.69 0.26,-18.46 -2.71,-68.15 0.19,-82.77 4.28,-21.67 59.11,-9.63 69.93,-7.17l0 -0.01 -0.01 0zm184.47 -6.2c9.29,8.54 6.74,-8.33 8.22,18.4l0.98 67.07c-0.41,79.09 5.24,72.43 -31.59,70.69 0.7,-0.92 2.39,-3.2 2.79,-3.87 7.95,-13.48 5.86,-47.36 4.43,-66.6l3.47 -61.38 -12.64 -8.57c13.39,-1.9 5.93,-1.7 12.61,-7.73 5.88,-5.31 0.64,-5.66 11.72,-8l0 0.01 0.01 -0.02zm29.65 106.28c5.98,5.47 10.72,11.17 16.19,16.24 -16.65,31.13 -9.71,25.7 -34.96,28.65 0.97,-33.34 -5.95,-133.87 6.46,-150.8 12.56,3.15 16.77,4.86 18.58,18.89 0.85,6.6 0.1,23.86 0.11,31.52 0.01,9.26 0.81,22.79 0.09,31.51 -2.28,27.61 -4.55,4.65 -6.47,23.99l-0.01 0 0.01 0zm-549.1 -126.35l-388.72 -1.81 -0.8 14.58c2.6,-3.68 5.02,6.87 3.65,-9.32 72.6,-6.38 118.29,15.5 190.77,12.76 12.84,-0.48 40.86,-0.35 51.92,-2.25 20.99,-3.59 0.69,-1.65 15.9,-7.03 6.39,-2.26 15.04,-2.05 22.19,-2.43 34.31,-1.83 65.4,-4.06 99.09,-1.64l5.15 16.34c17.55,3.15 164.86,-2.37 227.56,3.92 4.32,31.96 -9.65,218.61 2.98,287.1 1.75,9.5 2.41,12.67 -2.49,21.41 17.98,-0.83 22.68,3.3 52.92,-1.91l0.34 -22.1c1.9,-4.15 -2.83,-1.27 4.98,-4.41 -27.53,6.94 -21.43,15.85 -50.39,17.35l-1.22 -142.22c-2.01,-51.35 0.34,-34.06 15.05,-37.94 4.25,5.86 3.54,4.36 6.94,13.84 18.24,19.94 99.54,40.69 133.85,42.93 -4.14,-64.81 -25.82,-96.3 -46.65,-146.74l160.15 1.69c-20.61,31 -44.25,99.08 -46.26,144.32 62.13,0.12 99.24,-28.38 146.57,-45.6l-0.76 159.27c-21.74,-6.52 -43.34,-21.21 -67.95,-29.5 -24.54,-8.26 -50.31,-15.41 -77.89,-15.82 1.74,38.52 17.8,99.03 36.82,123.22 7.48,-6.19 8.63,7.24 5.95,-18.13 -3.01,-28.45 -13.44,-28.6 -16.89,-31.96 4.15,-18.07 6.22,-33.6 4.41,-56.03 17.7,-0.87 39.61,5.16 55.29,11.71 9.94,4.14 17.77,9.98 19.65,17.17 0.03,0.09 0.21,9.27 0.32,11.06l2.13 9.96c8.69,1.42 18.66,2.98 28.09,2.2 18.34,-1.53 12.2,1.83 17.36,-9.52 9.33,-3.63 4.05,-1.57 4.97,-20.98 0.54,-11.37 1.4,-15.72 1.04,-23.2l-0.79 -127.15c-0.11,-0.77 -0.37,-1.74 -0.5,-2.48l-1.91 -6.78c-1,-7.54 5.32,-12.07 5.77,-13.13 -10.93,-17.57 2.9,-33.54 -8.91,-98.26 12.73,-5.3 9.6,-10.16 27.52,-11.5 11.21,-0.83 23.33,0.57 35.01,3.3l-0.08 306.73c27.18,3.37 28.02,2.87 54.39,0l1.88 -306.83c23.95,-5.94 30.44,-1.7 52.24,0.52 6.28,66.86 -6.6,263.81 2.34,307.22l55.77 0.69 -0.31 -299.96c3.79,-3.89 6.89,-6.74 10.13,-10.93 -14.43,-0.16 -7.31,-0.69 -11.37,-3.08l163.31 -0.39c-25.79,-12.81 -874.31,6.91 -997.89,-3.37l-2.61 -14.91 0 -0.01 -0.02 0.04z"/>
     <path class="fil13" d="M1946.92 1799.25l-20.52 -9.23c-24.07,-10 -35.63,-22.34 -48.46,-28.24 1.68,5.67 2.18,7.62 3.48,16.33l15.65 6.41c-10.35,20.07 -3.52,13.88 -2.69,17.24 0.03,0.11 10.11,2.07 -3.58,17.7 12.68,7.54 6.98,-2.24 16.91,10.17 -2.06,7.28 -2.93,7.9 -4.37,16.4l8.74 6.83c-18.25,-7.46 -49.71,6.25 -69.53,-1.41l-0.51 10.02c0.01,5.49 -0.31,11.31 0.43,16.83 0.91,6.7 -0.34,0.34 1.12,5.94 2.13,8.18 -0.21,2.63 3.08,7.24l2.37 -30.93 31.07 3.58c3.78,2.13 1.27,0.41 8.01,2.25 23.85,6.54 15.96,8.19 15.97,77.72l-0.63 297.33c0.01,1.06 0.16,3.74 0.21,4.5 0.04,0.4 0.26,1.52 0.3,1.82 2.3,20.7 46.05,-34.97 59.02,-39.94 4.5,156.66 -2.2,316.09 0.93,468.2 1.04,50.5 10.31,56.51 -20.11,98.59 -5.76,7.96 -11.13,10.23 -13.17,17.48 -1.91,6.78 -1,4.43 -0.22,7.56 0.96,0.45 3.48,0.87 3,1.02 -0.48,0.15 2.22,0.77 3.01,0.95 21.84,5.19 -19.02,-3.11 6.15,1.44 3.73,0.67 9.83,0.92 13.8,1.28l-27.78 -3.44c0,-21.35 1.22,-1.6 -6.84,-10.4l3.4 15.57c13.99,0.32 29.98,2.3 38.41,-3.44l5.58 -42.28c-2.13,-28.43 0.29,-84.59 0.16,-119.02 -0.98,-273.74 2.62,-558.27 -1.48,-829.03 -0.72,-0.69 -1.79,-1.42 -2.35,-1.83l-6.83 -5.02c-6.39,-4.06 -17.29,-11.14 -23.07,-3.42l11.35 -2.75 -0.01 -0.02 0.01 0z"/>
     <path class="fil13" d="M1032.91 1176.76l0.8 311.3 60.62 0.22c-0.66,-13.92 -2.95,-269.65 1.92,-290.71l6.8 -15.79 42.13 -1.42c1.77,25.42 0.68,54.59 0.68,80.46 0,13.14 1.54,29.02 1.28,37.56 -0.3,9.93 -3.83,21.51 -4.58,32.04 -3.42,48.28 -0.55,105.88 -3.1,153.67l9.49 2.38 46.09 0.68c-4.65,-12.46 -2.45,-17.75 1.39,-31.87 -37.93,3.68 -30.91,19.29 -30.96,9.99 -10.26,-5.8 -5.91,9.06 -8.49,-16.91l0.59 -62.71c-0.05,-26.48 -0.6,-53.44 0.61,-80.24l20.39 10.26c19.43,-0.2 11.13,6.61 35.36,8.36 -0.54,-0.77 -1.23,-1.85 -1.55,-2.36l-4.07 -6.37c-3.48,-5.67 -6.58,-7.79 -4.96,-16.37 0.08,-0.41 0.36,-1.44 0.46,-1.87 0.11,-0.48 0.43,-1.52 0.57,-2.02 0.14,-0.52 0.51,-1.58 0.66,-2.11 0.78,-2.75 0.82,-1.7 1.37,-4.26 0.99,-4.65 1.22,-0.48 0.63,-5.81 -0.77,-6.81 -2.92,0.36 -4.51,-18.27 -1.18,-13.8 0.01,-37.67 0.98,-51.72 1.29,-18.57 -4.92,-17.41 5.48,-36.46 -30.15,-0.01 -55.13,0.97 -85.13,2.07 -30.67,1.12 -57.64,-4.44 -90.95,-1.67l0 -0.01 0 -0.04z"/>
     <path class="fil13" d="M2047.72 1784.97c-27.49,14.6 -28.77,12.68 -64.51,17.28l-0.52 905.65c2.22,-3.69 0.84,1.1 3.2,-8.15l1.68 -55c-1.14,-104.95 -4.3,-361.34 0.54,-437.17 11.53,2.81 39.32,33.18 48.04,43.81 7.98,-12.09 4.29,-10.78 3.44,-23.54 -2.89,-44.09 18.87,13.39 4.04,-76.7l-2.46 -341.93c-0.07,-12.67 4.7,-6.85 -4.65,-17.06 14.14,-3.49 5.06,1.31 11.19,-7.2l0.01 0 0 0.01z"/>
     <path class="fil13" d="M1789.35 2389.83c10.05,-1.85 11.3,-4.33 17.11,6.32 5.71,10.45 1.99,337.5 1.52,347.44l60.81 0.16c-5.93,-11.76 -7.04,2.14 -3.7,-18.94 6.49,-41.02 3.57,-301.74 3.16,-361.24l-4.91 -27.53c-5.37,-20.97 1.74,-11.79 8.47,-33.93 -18.6,9.54 -29.87,27.41 -42.97,41.71 -13.85,15.13 -32.78,29.07 -39.47,46.02l-0.01 0 -0.01 -0.01z"/>
     <path class="fil13" d="M1534.25 1177.25l-47.49 -0.44c3.43,25.19 -1.52,53.84 1.96,76.83 4.04,26.65 3.98,1.78 0.21,25.07l0.26 28.39c5.09,4.11 -3.35,4.83 9.33,5.44l19.83 -7.03 -0.02 160.89c-39.8,-18.6 -80.35,-41.47 -146.73,-47.03 6.57,71.63 24.5,91.5 46.41,146.84l-155.39 0.46c-3.6,-5.52 -3.78,-0.26 -1.35,-10.41 -23.12,5.26 3.7,25.24 5.43,29.29 2.56,6 0.27,7.1 -1.43,16.34l20.59 1.67 15.56 -0.13c10.73,-6.21 8.25,6.43 4.67,-24.15 14.73,-2.67 57.85,-21.06 80.47,5.01 4.11,4.74 3.68,7.25 4.24,8.89 0.28,0.83 1.27,4.06 1.49,4.74 0.19,0.54 -0.05,2.22 1.03,2.63 1.14,0.44 0.59,1.92 1.13,2.76 5.21,0.1 8.71,1.04 14.31,-0.42 11.92,-3.1 7.81,-5.52 13.93,-12.75l9.54 -6.69c-6.69,-3.4 -8.97,-8.78 -8.68,-8.93 0.68,-0.35 -0.88,-1.7 -1.44,-2.48 18.8,-11.81 -0.24,7.62 7.25,-4.61 2.82,-4.61 1.69,1.43 -0.07,-7.41 -13.6,-68.22 8.48,-45.35 -24.5,-64.54 -3.98,-2.31 -6.59,-6.41 -6.78,-5.83l30.99 -3.78c-16.25,-37.78 7.09,-38.48 -8.47,-42.46 11.02,-1.64 11.28,-3.46 19.03,-6.62 5.47,4.41 9.64,8.79 18.94,12.4 18.76,7.26 28.94,11.3 34.68,27.9l41.89 8.58c4.48,-1.24 3.58,-0.2 7.11,-2.97 -2.19,-19.75 -10.5,1.52 -5.03,-25.99l2.03 -116.24c-0.17,-47.02 8.57,-48.53 -7.88,-45.2 -1.02,0.2 -0.33,3.12 -7,-3.16 15.26,-21.99 9.57,-7.24 6.54,-31.47 -0.59,-4.67 -0.37,-12.24 -0.34,-17.15 0.16,-24.89 -1.82,-45.92 3.81,-66.28l-0.02 -0.01 -0.04 0.05z"/>
     <path class="fil13" d="M2136.25 2362.46c-6.71,-15.43 -23.49,-32.62 -36.6,-42.65 -6.71,7.29 -2.12,-1.54 -3.42,9.5l0.43 4.95c0.52,3.13 9.9,6.69 2.98,3.28 -2.22,18.48 -3.41,-3.56 -5.6,22.64l1.07 382.65c14.89,2.02 36.01,2.21 48.56,-1.91 0.66,-2.67 -1.87,-0.61 -3.44,-12.72l-0.48 -246.46c0,-15.02 -0.13,-30.1 0.06,-45.11 0.25,-18.93 2.76,-29.96 -4.15,-38.04 5.92,-3.85 5.92,-2.99 15.63,-1.63 -11.06,-4.61 -9.38,-3.56 -11.26,-16.48l11.97 9.5c-0.85,-3.15 -4.68,-9.6 -8.03,-16.18 -4.5,-8.84 -7.15,-9.7 -7.72,-11.33l0 0 0 -0.01z"/>
     <path class="fil13" d="M1756.12 2424.66c-8.52,4.37 -2.47,0.35 -9.74,6.53l-57.86 66.05c4.53,5.11 7.17,-3.22 -0.82,10.61 16.6,1.06 17.27,5.8 10.37,19.96 -6.03,12.35 -7.15,-7.3 -6.69,22.94l0.06 191.14c0.13,0.06 0.24,-0.32 0.25,-0.33l3.05 -0.11c0.29,0.06 1.25,0.35 1.6,0.44 14.35,3.65 31.3,7.57 47.74,3.32l8.31 -5.84c0.11,-0.55 0.5,-1.78 0.62,-2.48l1.91 -257.06c-2.23,-12.18 -8.14,8.81 1.73,-28.86 1.54,-5.91 0.71,-4.58 0.65,-5.94l-1.19 -20.38 0 0.01 0.01 -0.01z"/>
     <path class="fil13" d="M2166.43 2394.37l3.01 16.52c20.59,10.62 14.18,5.09 25.59,22.92 11.69,18.25 10.07,9.51 7.82,34.14 -2.75,30 -3.7,55.45 -3.7,90.1 0,201.07 -16.2,195.59 54.99,183.59 -4.65,-57.77 2.07,-151.15 -0.52,-211.52l1.07 -22.06c11.8,-3.15 4.11,-2.96 18.13,-0.36 -5.46,-12.96 -93.41,-106.36 -106.39,-113.32l0 0 0 -0.02z"/>
     <path class="fil13" d="M972.42 1177.1l-50.81 -0.28c6.91,24.33 0.93,115.21 0.93,153.29 0,35.52 -4.18,131.73 2.59,157.56l52.47 0.54c-9.24,-25.6 -1.12,-227.94 -4.41,-289.11 -1.43,-26.63 9.22,-8.88 -0.75,-21.99l0 -0.01 -0.02 0z"/>
     <path class="fil13" d="M2740.29 1695.25c-16.46,-16.06 -22.79,-0.28 -19.06,-56.91 0.31,-4.76 0.07,-4.07 1.11,-8.73 3.47,-15.61 -2.57,-0.83 2.6,-5.39 -12.3,-2.32 -9.49,0.28 -12.7,0.54 -21.7,1.78 0.12,-10.39 -41.31,-3.74 -1.76,6.94 -2.03,-2.29 2.28,5.24 9.68,16.91 0.91,-12.34 0.35,29.96 -0.06,4.65 0.33,8.87 -0.37,13.51 -4.91,32.41 -43.97,20.56 -59.8,10.71 -1.09,-10 0.39,-50.46 5.68,-56.93 -24.24,-6.85 -21.04,0.81 -30.37,0.44 -4.2,-0.17 -3.77,-4.63 -30.99,-1.37 12.46,8.41 10.37,0.48 12.37,12.9 2.55,15.88 -1.69,5.13 -4.5,18.58l-2.17 31.96c-33.95,12.77 -22.73,4.65 -52.24,-2.1 7.49,3.38 4.95,0.81 8.97,-3.48 -0.96,-10.51 -14.09,-73.55 9.89,-59.16 -16.65,-0.88 -25.47,-7.14 -40.76,-1.3 -13.5,5.15 -2.04,6.26 -13.26,5.02 -2.89,-0.31 2.17,-4.3 -16.33,-2.75 10.09,15.05 7.13,8.57 6.44,33.83 -0.24,8.62 0.57,13.86 -1.32,22.27l-5.44 13.01c25.04,-1.63 48.91,-3.65 71.43,5 19.19,7.37 5.85,5 25.38,-1.8 7.76,-2.7 14.8,-3.68 22.47,-4.06 8.61,-1.18 17.06,-1.23 25.22,-0.26 10.56,0.43 18.18,1.34 28.5,5.15 37.2,13.73 -2.22,-17.04 107.92,-0.15l-0.01 0 0.02 0z"/>
     <path class="fil13" d="M2178.39 2901.94c24.48,-5.36 32.49,-4.85 59.06,-4.7 39.92,0.22 29.77,6.96 45.41,14.24 12.07,-16.33 26.6,-13.56 51.59,-13.21 24.8,0.35 42.37,-4.13 55.52,12.48l6.94 -11.44c22.91,0.24 48.76,3.29 62.91,-9.56l-80.34 5.1c-14.22,-1.78 -15.42,-5.54 -17.76,-10.15 -3.33,-6.56 4.35,-101.69 -1.85,-126.52 -17.75,-6.35 -31.05,-6.1 -49.68,0.88 -2.59,6.32 1.85,0.04 2.8,24.12l1.16 97.45c-38.52,35.53 -63.39,7.96 -67.5,-3.37 -2.15,-5.94 -7.44,2.73 -1.26,-2.37l0.5 -112.48c-0.42,-12.72 -45.5,-15.07 -48.94,7.74 -3.2,21.18 -0.26,105.66 5.17,117.98l-23.73 13.79 0.01 0.02 -0.01 0z"/>
     <path class="fil13" d="M2304.05 2539.39c-7.23,18.56 9.94,15.35 8.96,35.53 -0.84,17.25 -5.92,2.13 -4.43,22.99 2.8,39.41 6.12,114.33 -1.35,146.55l57.32 1.07 -1.39 -106.84c-1.7,-14.73 -6.31,-20.47 14.15,-18.21 -8.65,-19.86 -21.67,-26.15 -35.69,-41.81 -12.1,-13.52 -22.75,-30.74 -37.57,-39.27l0 0 0 -0.01z"/>
     <path class="fil13" d="M1642.35 2546.78c-0.91,0.48 -1.16,1.31 -2.61,1.63 -5.43,1.15 -23,22.72 -35.67,34.13l0 0.06 -0.87 0.71 -0.87 1.03 0 0.87 -0.87 0 0 0.87 -0.87 0 -1.73 2.6 -0.87 0 -0.87 2.61 0 0.87 -1.73 0.87 -1.73 0 0 0.87 -0.35 0 -0.06 5.78c4.28,1.25 2.39,131.91 2.39,148.01l52.84 -1.24c-17.98,-18.69 -3.47,-115.12 -8.61,-156.34 -6.06,-48.6 10.76,-22.3 2.48,-43.3l-0.01 -0.01 0.01 -0.02z"/>
     <path class="fil13" d="M1082.43 1499.07c-73,-0.51 -81.74,-8.94 -71.04,101.61l80.57 2.72c-5.56,-20.35 -0.71,-28.33 -0.77,-54.7 -0.06,-29.47 4.35,-30.67 -8.78,-49.63l0.01 0 0.01 0z"/>
     <path class="fil13" d="M918.08 1505.21c9.81,29.93 -6.28,83.98 4.62,99.93l43.03 -0.26 14.03 -0.27c-0.36,-14.05 -1.59,0.16 5.89,0.77 14.06,1.14 -1.89,5 6.08,-1.16 7.11,-5.49 6.36,-1.41 5.97,-31.22 -0.78,-59.39 4.41,-67.34 -20.72,-72.91l-40.9 -2.09c-19.7,1.85 -16.49,3.47 -18,7.22l0 0 0 -0.01z"/>
     <path class="fil13" d="M1690.76 2899.66c20.52,-4.14 54.06,-4.25 74.73,0.1 -4.79,-10.66 -0.36,-2.4 -7.14,-8.21 -0.7,-0.6 -11.04,0.05 -4.46,-2.86 0.55,-0.24 -1.65,-0.72 -2.35,-1.26 3.96,-7.48 2.69,-21.14 2.61,-30.99l2.97 -91.73c-22.96,-11.89 -3.92,-15.47 -58.29,-5.64 6.74,14 5.12,81.22 4.13,104.53 -0.84,19.69 -5.81,15.37 3.41,22.91 -4.49,1.35 -9.19,2.09 -12.47,5.05l-3.13 8.11 -0.01 0 0.01 -0.02z"/>
     <path class="fil13" d="M2839.03 1505.52c9.12,17.91 7.08,-23.96 7.08,46.59 0,16.99 1.72,37.29 -3.92,52.78 18.3,-6.1 42.5,-0.98 62.16,1.48l-1.02 -82.08c1.31,-15 7.13,-18.13 -3.96,-23.7 -20.8,-10.46 -44.74,1.26 -60.34,4.95l0 0 0 -0.02z"/>
     <path class="fil13" d="M3021.57 1552.32c-9.96,-9.7 -8.7,-30.25 -3.38,-42.32 -5.07,-2.91 -4.61,-3.87 -12.43,-4.3 17.54,-2.15 2.93,0.85 9.11,-6.72 -27.35,-0.15 -34.04,-3.53 -55,5.64 3.45,24.36 -0.21,25.09 -0.26,50.83 -0.01,8.55 -0.55,19.86 -0.15,28.01 0.71,14.09 3.14,14.04 9.39,22.54l44.19 -0.75c0.8,-0.64 3.14,-1.28 2.66,-1.62 -7.59,-5.22 4.7,-2.78 5.75,-3.42l10.2 -6.47c-10.41,-8.48 -4.44,-13.83 -2.93,-27.55 -11.01,-0.59 -35.09,1.47 -40.41,-7.16l33.26 -6.73 0.01 0 -0.02 0.02z"/>
     <path class="fil13" d="M2737.16 1500.2l-0.56 80c-0.5,20.78 -3.97,13.78 1.3,19.94l60.81 4.82c-7.2,-20.69 -7.37,-57.34 -4.35,-84.37 1.47,-13.21 4.57,-16.36 -12.89,-21.12 -17.43,-4.76 -27.44,-1.49 -44.31,0.71l0 0 0 0.02z"/>
     <path class="fil13" d="M1629.03 2882.42c10.17,-17.74 5.88,-55.38 6.02,-81.61 0.29,-52.1 12.86,-44.08 -39.42,-48.52l0 145.67 55.54 0 -12.93 -12.15c-0.3,-0.19 0.89,-3.31 -9.21,-3.39l0 0z"/>
     <path class="fil13" d="M1199.81 1498.75l-51.38 1.32 -0.69 102.45 58.78 -1.9c-6.71,-11.7 -3.84,-37.69 -3.7,-55.46 0.13,-17.8 3.44,-36.8 -3.01,-46.41l-0.01 0 0.02 0z"/>
     <path class="fil13" d="M2394.35 1507.89c1.72,10.69 6.52,77.05 3.55,89.74l-1.37 3.15c-2.36,4.56 -3.1,2.1 -3.06,3.47l52.74 -3.48c-1.14,-17.39 -0.15,-34.7 -0.25,-52.15 -0.32,-54.12 0.28,-27.22 6.48,-44.86 -35.95,-12.46 -33.53,-7.69 -58.09,4.13l0 0z"/>
     <path class="fil13" d="M1493.98 1601.11l42.49 3 6.2 -2.06c-10.8,-11.8 -6.74,-10.42 -6.49,-46.48 0.12,-17.26 1.75,-39.41 -2.67,-52.5 -17.96,-7.18 -25.78,-5.42 -46.03,-3.17 10.07,26.46 4.94,63.54 6.5,101.21l0 0.01 0 -0.01z"/>
     <path class="fil13" d="M2249.1 1686.84c21.86,-5.65 7.2,-0.72 12.5,4.55l57.58 1.86c-3.74,-12.97 -3.22,-8.42 -17.63,-16.26 -1.67,-23.84 -1.04,-38.25 2.81,-57.5 -20.13,-6.26 -19,-3.44 -38.61,-2.94 -1.23,-19.07 -5.57,-38.87 -13.36,-49.36 2.3,21.3 3.67,35.81 3.48,61.25 -0.26,35.43 5.36,46.41 -6.77,58.41l0 0 0 -0.01z"/>
     <path class="fil13" d="M2762.78 1693.58c28,-6.65 53.08,-3.38 79.17,2.28 -11.09,-16.68 -15.98,-6.09 -18.72,-20.89 -3.7,-19.98 7.8,-27.28 -3.95,-42.19l-3.2 -3.81c-8.91,-10.06 3.92,-3.54 -12.44,-10.14 -11.05,-4.46 -24.94,-1.93 -37.81,1.65 6.3,10.59 5.36,-3.34 5.44,13.97 0.03,5.97 -2.37,11.26 -2.03,21.62 1.59,47.97 2.09,11.29 -6.46,37.5l-0.01 0 0.02 0.02z"/>
     <path class="fil13" d="M1622.33 1692.85l63.06 -1.04c-0.73,-0.89 -2.8,-3.41 -3.22,-3.98l-4.1 -7.94c-3.97,-14.07 -4.61,-54.15 -1.56,-63.85l-48.98 2.76c1.78,22.99 9.48,3.83 -1.11,57.35 -3.06,15.44 -4.04,5.46 -4.09,16.71l0 0 0 -0.01z"/>
     <path class="fil13" d="M2920.85 1625.04c-14.95,-14.04 -24.73,-11.42 -45.96,-5.16 1.37,12.05 2.48,52.54 -2.8,63.82 -0.25,0.54 -0.87,1.48 -1.11,1.93l-2.31 3.47c20.62,2.4 41.93,1.44 61.22,-0.25l-6.2 -4.21c-12.31,-11.7 4.18,-9.34 -0.81,-51.87l-2.03 -7.73 0 0 0 0z"/>
     <path class="fil13" d="M1221.3 1624.26c-3.14,6.26 -1.95,-1 -0.63,5.45 0.19,0.9 2.29,5.44 3.73,9.11 -0.48,0.26 -0.85,0.51 -1.54,0.56l-7.52 2.91c16.39,32.58 -7.43,44.22 -15.14,52.05l69.34 -3.33c-4.7,-25.41 -8.83,-52.59 2.91,-73.81 -7.76,1.24 -18.31,1.88 -26.59,4.24 -20.64,5.87 -3.54,10.37 -24.55,2.83l0 0 -0 -0.01z"/>
     <path class="fil13" d="M1473.7 1623.24c-21.59,3.44 -7,6.19 -23.04,0.91 -9.67,-3.19 -15.6,-4.98 -25.5,-7.21 1.07,13.65 1.48,21.52 -0.11,35.07 -1.87,15.92 0.55,11.34 0.16,28.44l-12.68 7.78c-0.85,0.61 -1.7,1.31 -2.49,1.9l-5.19 4.32c33.32,-4.77 48.6,-6.18 82.11,-0.09l-0.4 -5.52c-0.31,-0.15 -16.48,-8.49 -19.19,-9.64l6.31 -55.97 0 0 0.02 0.01z"/>
     <path class="fil13" d="M1321.83 1620.22l0.22 59.23c-5.3,4.27 -17.46,8.81 -21.25,15.2 29.91,-4.16 44.52,-6.02 76.13,-2.14 -2.71,-11.08 -8.48,-4.57 -10.17,-19.39 -1.21,-10.6 2.61,-9.68 3.74,-19.14 2.5,-20.85 -4.61,8.21 -3.84,-18.56 0.59,-20.61 -3.93,-0.33 9.15,-15.45 -19.61,0.4 -16.51,4.57 -27.66,6.11 -9.99,1.38 -9.93,-4.3 -26.31,-5.85l0 -0.01 -0.01 0z"/>
     <path class="fil13" d="M1165.48 1617.24c-24.74,0.69 -27.75,-0.98 -45.48,10.4 -10.28,13.71 -1.98,1.52 -3.04,17.14 -0.84,12.41 -0.72,-4.34 -1.57,8.58 -1.65,25.11 5.89,1.61 -5.76,36.66l7.31 0.48 48.52 0.33 12.88 -6.06c-11.14,-1.35 -15.11,-1.83 -21.7,-5.93l8.83 -61.61 0 0 0.01 0z"/>
     <path class="fil13" d="M2344.89 1694.09l69.34 -2.83c-1.51,-15.19 -2.03,0.41 -3.61,-17.71 -0.72,-8.16 -0.02,-15.23 -1.06,-23.77 -2.78,-22.71 -8.78,-18.12 7,-30.16 -45.56,-6.55 -55.24,13.93 -45.31,53.89l-21.81 15.78c-0.59,0.53 -2.91,1.94 -2.25,2.34 0.68,0.41 -1.55,1.61 -2.29,2.46l0 0.01 -0 -0.01z"/>
     <path class="fil13" d="M1237.27 1435.15c14.43,-3.19 10.21,-2.9 25.35,1.3 0.84,2.16 1.03,12.63 3.01,24.99 1.03,6.48 1.9,8.57 2.72,13.22l-2.31 10.16c-0.22,0.37 -1,1.31 -1.52,1.95 19.36,2.26 15.12,4.2 18.21,6.36 -3.2,3.47 2,6.94 -17.46,6.37 1.39,8.94 2.1,10.85 1.83,20.84 -0.36,13.37 -1.82,7.57 -1.5,22.99 19.34,-18.94 37.33,-93.52 38.73,-123.1l-51.57 6.81c-3.83,1.13 -3.98,0.97 -8.04,3.04 -5.44,2.79 -4.22,2.26 -7.46,5.07l0 0 0.01 0z"/>
     <path class="fil13" d="M1054.06 1617.56c-23.88,-1.4 -23.05,-0.27 -35.98,5.5 -0.61,0.27 -1.78,0.75 -2.59,1.25 3.48,13.65 5.1,46.39 -0.12,59.14 -0.52,1.26 -1.18,-1.05 -4.24,9.11l54.76 0.26c-5.48,-18.19 -1.8,-11.06 -13.38,-19.3l1.54 -55.96 0 0 0.01 -0z"/>
     <path class="fil13" d="M1428.61 1201.79c-3.57,15.14 0.21,5.1 -6.35,20.11l-22.09 46.71c-4.39,11.31 -8.98,24 -11.68,33.38 -3.9,13.54 -4.03,24.97 -8.76,41.72l52.87 -11.85 -16 -3.36c8.52,-1.94 5.98,-2.24 10.56,-6.43 -20.07,-1.82 -8.31,-1.72 -8.56,-48.68 -0.03,-5.2 -8.81,-43.29 15.36,-62.91 -5.66,-10.5 6.23,-4 -5.36,-8.7l0 0.01 0.01 -0z"/>
     <path class="fil13" d="M2500.94 1443.08l7.74 1.5c-2.13,8.95 -0.91,3.45 -4.94,12.78 -5.76,13.37 3.14,1.76 1.15,29.89l41 2.44c-7.63,-4.09 11.13,-29.06 7.6,-58.98 -17.84,-1.52 -44.26,5.84 -52.56,12.39l0 -0.02 0.01 0z"/>
     <path class="fil13" d="M1943.2 1529.52l6.23 39.32 65.49 0.32c1.64,-25.73 -5.81,-37.2 14.51,-41.7 3.99,-0.89 5.92,-0.96 10.02,-1.1 7.19,-0.24 16.92,0.9 24.13,1.82l-2.14 62.22 4.22 7.03 -2.01 -69.98c-10,0.63 -20.62,-0.17 -30.88,0.29 -12.53,0.56 -28.79,13.97 -76.42,6.36 -0.97,-0.15 -1.89,-0.35 -2.79,-0.54l-10.37 -4.04 0 0 0.02 0z"/>
     <path class="fil13" d="M1562.6 1628.09c-12.44,-10.63 -14.48,-8.64 -32.92,-9.22l-1.1 65.25 43.74 -0.58c-0.5,-0.69 -1.28,-1.56 -1.54,-2l-2.65 -4.26c-4.94,-11.39 -0.5,-26.63 -2,-38.49 -1,-7.86 0.02,-5.78 -3.52,-10.7l-0.01 -0z"/>
     <path class="fil13" d="M2682.29 1575.26l-59.91 0.59c-2.63,-0.56 -2,-4.9 -0.46,2.24 3.26,15.07 2.8,4.69 -3.02,23.65l61.19 1.13c-9.72,-26.07 15.74,-16.42 -5.28,-24.32l7.47 -3.29 0 0 0.01 0z"/>
     <path class="fil13" d="M2512.46 1574.67c6.05,9.43 -0.31,14.91 9.32,28.46l30.23 -1.03c-1.43,-30.02 -5.15,-20.07 -6.97,-21.38 9.8,3.06 8.39,0.07 14.37,-4.8l-46.94 -1.27 0 0.01 -0.01 0.01z"/>
     <path class="fil14" d="M2452.44 1503.77c-6.19,17.63 -6.8,-9.27 -6.48,44.86 0.1,17.44 -0.89,34.76 0.25,52.15l-52.74 3.48c-0.05,-1.37 0.71,1.09 3.06,-3.47l1.37 -3.15c2.98,-12.69 -1.82,-79.06 -3.55,-89.74 24.56,-11.81 22.14,-16.59 58.09,-4.13l0 0zm284.72 -3.56c16.87,-2.2 26.87,-5.47 44.31,-0.71 17.46,4.76 14.36,7.91 12.89,21.12 -3.01,27.02 -2.85,63.68 4.35,84.37l-60.81 -4.82c-5.26,-6.17 -1.8,0.83 -1.3,-19.94l0.56 -80 0 -0.01 0 -0.01zm101.87 5.32c15.6,-3.7 39.54,-15.41 60.34,-4.95 11.09,5.58 5.27,8.71 3.96,23.71l1.02 82.08c-19.67,-2.46 -43.87,-7.58 -62.16,-1.48 5.64,-15.48 3.91,-35.79 3.91,-52.78 0,-70.55 2.04,-28.68 -7.08,-46.59l0 0 0.01 0.01zm83.84 127.24c4.99,42.54 -11.5,40.17 0.81,51.87l6.2 4.21c-19.29,1.69 -40.59,2.65 -61.22,0.25l2.31 -3.47c0.24,-0.45 0.86,-1.39 1.11,-1.93 5.27,-11.29 4.17,-51.78 2.8,-63.82 21.23,-6.26 31.02,-8.89 45.96,5.16l2.03 7.73 0 0 -0 -0zm37.01 -128.14c-14.85,-8.11 -19.9,-8.12 -22.39,9.56 -13.51,-4.76 -1.49,-0.07 -8.08,-5.51l-9.46 -8.15c-0.54,-0.35 -1.56,-0.91 -2.05,-1.2 -0.71,-0.43 -5.17,-2.28 -6.24,-2.71 12.82,-6.49 33.56,8.9 47.05,-9.45 -8.94,-43.41 3.93,-240.37 -2.34,-307.22 -21.8,-2.22 -28.29,-6.47 -52.24,-0.52l-1.87 306.83c-26.37,2.87 -27.22,3.37 -54.4,0l0.08 -306.73c-11.69,-2.72 -23.81,-4.13 -35.01,-3.3 -17.91,1.33 -14.79,6.2 -27.52,11.5 11.81,64.72 -2.03,80.69 8.91,98.26 -0.45,1.06 -6.76,5.58 -5.77,13.13l1.91 6.78c0.13,0.73 0.4,1.7 0.5,2.48l0.8 127.15c0.35,7.47 -0.51,11.83 -1.05,23.2 -0.92,19.41 4.37,17.35 -4.97,20.98 -5.16,11.35 0.98,7.98 -17.36,9.52 -9.44,0.79 -19.4,-0.77 -28.08,-2.2l-2.13 -9.96c-0.11,-1.79 -0.3,-10.96 -0.32,-11.06 -1.88,-7.19 -9.72,-13.03 -19.65,-17.17 -15.67,-6.54 -37.58,-12.59 -55.29,-11.71 1.82,22.43 -0.26,37.97 -4.41,56.03 3.45,3.36 13.88,3.51 16.89,31.96 2.69,25.37 1.53,11.93 -5.95,18.13l1.83 1.96c10.54,2.25 11.23,-0.61 15.46,12.86 3.41,10.89 1.52,11.08 -4.44,17.21l-7.48 3.29c21.03,7.91 -4.43,-1.74 5.29,24.32l-61.19 -1.13c5.82,-18.96 6.28,-8.58 3.02,-23.65 -1.54,-7.15 -2.18,-2.81 0.46,-2.24l-62.99 0.07c-5.97,4.86 -4.55,7.85 -14.36,4.8 1.83,1.31 5.54,-8.64 6.97,21.38l-30.23 1.03c-9.64,-13.55 -3.28,-19.04 -9.32,-28.46 -6.25,-20.74 8.21,-34.02 19.66,-59.7 5.77,-12.94 -0.93,-13.77 10.46,-14.9l-20.77 0.4c-6.56,-0.46 -12.81,-0.97 -19.57,-1.26 -0.28,-13.54 -0.4,-7 2.67,-11.98 2,-28.11 -6.9,-16.51 -1.14,-29.89 4.02,-9.31 2.8,-3.82 4.94,-12.77l-7.74 -1.5c-10.48,1.63 -33.49,8.88 -39.76,15.36 -7.82,3.14 -3.08,0.26 -4.98,4.41l-0.33 22.1c-30.25,5.2 -34.94,1.07 -52.92,1.91 4.9,-8.74 4.24,-11.91 2.49,-21.41 -12.63,-68.49 1.33,-255.14 -2.98,-287.1 -62.7,-6.3 -210.01,-0.77 -227.56,-3.92l-5.15 -16.34c-33.69,-2.42 -64.78,-0.19 -99.09,1.64 -7.15,0.39 -15.81,0.17 -22.2,2.43 -15.21,5.39 5.08,3.44 -15.89,7.03 -11.06,1.89 -39.09,1.76 -51.93,2.25 -72.46,2.75 -118.17,-19.14 -190.77,-12.76 1.37,16.18 -1.06,5.64 -3.65,9.32 -5.25,9.11 -75.11,5 -90.02,5 -30.81,0 -63.48,0.76 -93.67,-0.12 -7.77,28.14 -1.99,232.48 -1.98,278.66l-0.11 138.6c2.82,19.53 8.52,8.28 7.6,23.19 -0.38,6.06 -4.02,14.14 -4.14,28.8 -0.1,12.51 0.26,22.82 -0.93,34.61 -1.44,14.33 -3.32,11.25 14.94,13.7l4.41 2.43c0.04,-11.26 1.04,-1.27 4.09,-16.71 10.58,-53.52 2.88,-34.36 1.11,-57.35l48.98 -2.76c-3.06,9.71 -2.41,49.78 1.56,63.86l4.1 7.94c0.42,0.58 2.49,3.09 3.22,3.98 1.39,0.77 6.37,3.56 9.63,4.29 22.28,4.96 3.64,1.73 14.24,-2.22 17.81,-6.64 98.45,-4.51 118.19,-2.84l11.81 141.04 3.3 19.35c19.82,7.67 51.29,-6.04 69.53,1.41l-8.74 -6.83c1.44,-8.5 2.32,-9.12 4.37,-16.4 -9.93,-12.41 -4.23,-2.63 -16.91,-10.17 13.69,-15.61 3.61,-17.57 3.58,-17.7 -0.84,-3.36 -7.66,2.83 2.69,-17.24l-15.65 -6.41c-1.31,-8.69 -1.81,-10.64 -3.48,-16.32 -6.21,-23.43 -73.86,-73.41 8.47,-163.09 4.83,-22.97 4.44,-42.43 0.26,-64.09 -20.88,-2.87 -141.2,-4.76 -169.83,-1.31 -12.79,1.54 -9.21,3.43 -21.96,-0.72 -0.63,-0.21 -1.74,-0.74 -2.51,-1.28 9.25,-9.22 55.58,-4.24 83.62,-4.19 30.09,0.05 60.25,-0.05 90.33,-0.46 33.44,-0.46 38.32,-12.41 80.24,-4.56 34.9,6.53 57.17,-2 86.18,-2.77 21.43,-0.57 21.92,1.11 38.81,5.53 25.5,6.68 150.65,-0.85 172.46,1.3l90.45 1.02c39.99,0.3 25.27,-1.47 40.78,-6.32l0.46 14.61c-37.65,-6.56 -90.95,-6.08 -129.81,-2.1 -8.23,23.68 -6.74,-8.8 -13.85,17.48 -5.76,-26.4 -27.67,-18.96 -74.5,-18.8l-69.61 1.07c-15.11,3.2 -3.56,2.08 -16.76,7.57 -4.22,83 -6.27,37.59 17.97,79.24 3.35,5.74 5,10.17 8.44,15.83 6.7,11.03 -0.55,7 12.69,13.15 16.94,7.89 68.85,3.14 92.39,3.78 1.4,8.88 -11.19,43.43 46.43,34.15 12.13,-12.01 6.5,-22.99 6.77,-58.41 0.19,-25.43 -1.18,-39.94 -3.48,-61.25 7.79,10.5 12.13,30.3 13.35,49.36 19.61,-0.48 18.48,-3.31 38.61,2.95 -3.85,19.25 -4.47,33.66 -2.81,57.5 14.41,7.84 13.89,3.28 17.63,16.26 16.06,5.22 12.21,10.52 25.7,0.85 0.74,-0.84 2.97,-2.04 2.29,-2.46 -0.66,-0.4 1.66,-1.81 2.25,-2.34l21.81 -15.77c-9.93,-39.96 -0.25,-60.43 45.31,-53.89 -15.78,12.04 -9.77,7.45 -7,30.16 1.04,8.54 0.35,15.61 1.06,23.78 1.58,18.11 2.1,2.51 3.61,17.71 25.94,6.35 18.22,13.26 45.13,0.1l5.44 -13.01c1.89,-8.41 1.08,-13.65 1.31,-22.27 0.69,-25.26 3.65,-18.79 -6.44,-33.83 18.51,-1.55 13.44,2.43 16.33,2.75 11.22,1.24 -0.24,0.13 13.26,-5.02 15.3,-5.83 24.11,0.42 40.76,1.3 -23.98,-14.39 -10.84,48.65 -9.89,59.16 -4.02,4.3 -1.48,6.86 -8.97,3.48 29.52,6.75 18.3,14.86 52.25,2.1l2.17 -31.96c2.82,-13.45 7.06,-2.7 4.5,-18.58 -2,-12.41 0.1,-4.49 -12.37,-12.9 27.22,-3.26 26.8,1.2 30.99,1.37 9.33,0.37 6.12,-7.29 30.37,-0.44 -5.3,6.47 -6.77,46.93 -5.68,56.93 15.83,9.85 54.89,21.7 59.8,-10.71 0.7,-4.64 0.31,-8.86 0.37,-13.51 0.55,-42.31 9.33,-13.05 -0.36,-29.96 -4.3,-7.53 -4.04,1.7 -2.28,-5.24 41.43,-6.65 19.61,5.52 41.31,3.74 3.21,-0.26 0.4,-2.86 12.7,-0.54 -5.17,4.55 0.87,-10.22 -2.6,5.39 -1.04,4.66 -0.8,3.98 -1.12,8.73 -3.73,56.63 2.61,40.84 19.07,56.91l2.98 5.29 19.52 -6.95c8.56,-26.22 8.06,10.46 6.46,-37.5 -0.35,-10.36 2.05,-15.65 2.03,-21.62 -0.08,-17.32 0.86,-3.38 -5.45,-13.97 12.87,-3.58 26.76,-6.11 37.81,-1.65 16.35,6.6 3.54,0.08 12.44,10.14l3.2 3.81c11.76,14.9 0.25,22.2 3.96,42.19 2.74,14.79 7.63,4.21 18.72,20.89 4.65,9.5 1.9,2.29 5.88,6.02 18.17,-9.3 29.63,-11.54 55.54,-11.09 33.8,0.57 36.05,2.56 48.04,18.47l17.47 -103.25c-6.26,-8.5 -8.69,-8.45 -9.39,-22.54 -0.41,-8.15 0.13,-19.46 0.15,-28.01 0.05,-25.74 3.7,-26.48 0.26,-50.84l0.01 0.04 -0.03 -0.08z"/>
     <path class="fil14" d="M2377.3 2620.46c-20.46,-2.26 -15.85,3.48 -14.15,18.21l1.39 106.84 -57.32 -1.07c7.46,-32.21 4.14,-107.14 1.35,-146.54 -1.48,-20.87 3.59,-5.75 4.43,-23 0.98,-20.19 -16.2,-16.98 -8.96,-35.52l-31.24 -31.7c-14.02,-2.6 -6.33,-2.79 -18.13,0.36l-1.07 22.06c2.6,60.37 -4.13,153.75 0.52,211.53 -71.2,12.01 -55,17.48 -55,-183.59 0,-34.66 0.96,-60.11 3.71,-90.1 2.26,-24.63 3.87,-15.89 -7.82,-34.14 -11.42,-17.82 -5,-12.3 -25.59,-22.92l-3.01 -16.51c-1.53,-5.13 1.81,0.15 -3.98,-7.86 -3.01,-4.16 -4.48,-5.05 -8.33,-8.87 -7.11,-7.09 -10.55,-11.78 -17.87,-15.19 0.56,1.63 3.21,2.49 7.71,11.33 3.35,6.58 7.19,13.03 8.03,16.18l-11.97 -9.5c1.88,12.92 0.2,11.88 11.26,16.48 -9.71,-1.35 -9.7,-2.22 -15.63,1.63 6.91,8.08 4.4,19.12 4.15,38.04 -0.19,15.01 -0.06,30.09 -0.06,45.11l0.48 246.46c1.58,12.1 4.11,10.05 3.44,12.72 -12.55,4.12 -33.68,3.92 -48.56,1.91l-1.07 -382.65c2.19,-26.2 3.39,-4.17 5.6,-22.64 6.91,3.41 -2.46,-0.15 -2.98,-3.28l-0.43 -4.95c1.3,-11.04 -3.29,-2.22 3.42,-9.5 -8.48,-8.84 -14.41,-10.3 -15.49,-25.22l9.72 -122.22c5.39,-59.98 39.43,-452.98 38.34,-481.1 6.12,-14.04 43.94,-0.71 60.25,-10.8 0.58,-27.09 -23.23,-15.88 -85.17,-16.42 1.81,36.29 -0.37,50.49 -14.58,76.63 -9.57,17.61 -26.45,37.19 -45,44.31 -6.13,8.52 2.95,3.71 -11.2,7.2 9.35,10.21 4.58,4.39 4.65,17.06l2.46 341.93c14.83,90.09 -6.93,32.61 -4.04,76.7 0.83,12.76 4.53,11.45 -3.44,23.54 -8.72,-10.62 -36.52,-41 -48.04,-43.81 -4.85,75.82 -1.69,332.22 -0.55,437.17l-1.68 55c-2.36,9.24 -0.98,4.45 -3.2,8.15 6.49,35.08 -12.55,17.52 20.44,59.99 13.3,17.11 6.87,17.12 18.36,27.3 8.08,7.16 13.67,2.84 14.66,2.67 8.54,-1.4 -1.57,-6.89 7.15,0.54 14.79,22.39 82.69,92.67 121.2,97.89l7.15 15.12c5.06,-8.83 3.14,-3.07 6.75,-9.48l23.72 -13.79c-5.43,-12.32 -8.37,-96.8 -5.17,-117.98 3.44,-22.82 48.52,-20.46 48.94,-7.74l-0.5 112.48c-6.2,5.09 -0.89,-3.58 1.26,2.37 4.1,11.33 28.98,38.89 67.5,3.37l-1.16 -97.45c-0.94,-24.07 -5.39,-17.8 -2.8,-24.12 18.64,-6.98 31.94,-7.22 49.68,-0.88 6.2,24.83 -1.48,119.96 1.85,126.52 2.34,4.61 3.54,8.37 17.76,10.15l80.34 -5.1c37.35,-0.69 67.77,-49.31 54.39,-112.21 -5.22,-24.55 -8.3,-23.42 -21.81,-37.39 -19.33,-19.98 -36.82,-39.05 -57.09,-60.87 -5.74,-6.17 -50.74,-58.83 -57.99,-58.81l0 0 0.02 -0.02z"/>
     <path class="fil14" d="M1629.03 2882.42c10.11,0.09 8.93,3.21 9.22,3.39l12.93 12.15 -55.54 0 0 -145.67c52.27,4.44 39.7,-3.58 39.42,48.52 -0.14,26.23 4.14,63.86 -6.02,81.61l0 0 -0.01 0zm217.66 -990.97c-9.93,57.9 41.6,369.9 25.11,410.64 -6.73,22.14 -13.83,12.96 -8.47,33.93l4.91 27.54c0.4,59.5 3.33,320.21 -3.16,361.24 -3.34,21.08 -2.22,7.19 3.7,18.94l-60.81 -0.16c0.47,-9.94 4.2,-336.98 -1.52,-347.44 -5.81,-10.65 -7.06,-8.17 -17.11,-6.32l-33.23 34.83 1.19 20.38c0.06,1.36 0.89,0.04 -0.65,5.94 -9.86,37.67 -3.95,16.68 -1.72,28.86l-1.91 257.06c-0.12,0.7 -0.51,1.93 -0.63,2.48l-8.31 5.84c-16.44,4.25 -33.39,0.32 -47.74,-3.32 -0.36,-0.09 -1.32,-0.38 -1.6,-0.44l-3.05 0.11c-0.01,0.01 -0.13,0.38 -0.25,0.33l-0.07 -191.14c-0.46,-30.24 0.67,-10.59 6.7,-22.94 6.91,-14.16 6.23,-18.9 -10.37,-19.96 7.99,-13.81 5.35,-5.5 0.82,-10.61l-11.89 9.83c-8.7,9.17 -31.21,28.64 -34.28,39.7 8.28,21 -8.53,-5.31 -2.48,43.29 5.13,41.23 -9.37,137.66 8.61,156.35l-52.84 1.24c0,-16.09 1.89,-146.76 -2.39,-148.01 -11.81,4.92 -117,121.78 -139.99,145.63 -21.44,22.23 -28.28,80.32 -7.83,111.93 20.59,31.82 56.06,41.81 105.1,41.34 14.04,5.18 1.1,-2 10.41,12.19 15.49,-16.51 27.79,-12.34 55.51,-12.97 31.91,-0.72 33.63,-1.62 55.49,12.95 6.8,-8.04 5.55,-9.41 18.83,-11.05l3.13 -8.11c3.28,-2.96 7.98,-3.7 12.47,-5.05 -9.21,-7.54 -4.24,-3.22 -3.41,-22.91 0.99,-23.3 2.61,-90.52 -4.13,-104.52 54.37,-9.83 35.33,-6.25 58.29,5.63l-2.98 91.73c0.08,9.85 1.34,23.5 -2.61,30.99 0.7,0.54 2.9,1.02 2.35,1.26 -6.58,2.91 3.76,2.26 4.46,2.86 6.78,5.81 2.35,-2.45 7.14,8.21 6.94,3.62 12.74,7.53 17.44,10.77 8.94,-21.66 -5.81,-7.46 13.72,-16 32.05,-14.02 33.88,-17.39 61.36,-42.84l49.53 -51.36c5.98,-7.03 9.44,-15.81 14.22,-9.86 8.06,8.8 6.84,-10.94 6.84,10.4l27.78 3.44c-3.96,-0.36 -10.06,-0.61 -13.8,-1.28 -25.17,-4.55 15.7,3.76 -6.15,-1.44 -0.8,-0.19 -3.5,-0.81 -3.02,-0.95 0.48,-0.15 -2.04,-0.58 -3,-1.02 -0.77,-3.13 -1.69,-0.78 0.23,-7.56 2.04,-7.25 7.41,-9.52 13.17,-17.48 30.42,-42.08 21.15,-48.09 20.11,-98.59 -3.13,-152.11 3.57,-311.54 -0.93,-468.19 -12.97,4.97 -56.72,60.65 -59.02,39.94 -0.03,-0.3 -0.27,-1.41 -0.3,-1.82 -0.06,-0.75 -0.21,-3.45 -0.21,-4.5l0.63 -297.33c-0.01,-69.54 7.88,-71.19 -15.97,-77.72 -6.74,-1.84 -4.23,-0.13 -8,-2.25l-31.07 -3.58 -2.37 30.93 0.01 0.01 0 -0.02z"/>
     <path class="fil14" d="M921.61 1176.82c-32.38,0.39 -63.46,-1.48 -96.05,-1.48 -13.24,0 -36.87,-1.39 -48.9,0.25 -17.17,2.34 -18.53,9.46 -30.48,19.22 -32.56,41.05 -2.05,181.79 -2.55,209.23 -22.59,3.24 -48.82,-1.33 -70.89,1.3 -28.11,3.37 -24.83,23.04 -24.65,49.62 0.21,30.35 -6.11,121.27 5.43,139.52 47.65,10.13 178.3,8.82 232.93,4.62 1.32,-32.16 5.08,-79.98 -2.49,-108.33l-16.61 -4.41c-3.63,-0.35 -13.34,0.03 -17.52,0.08 -20.12,0.27 -70.57,2.75 -83.37,-3.93 12.73,-8.27 47.07,-3.57 66.03,-3.54 46.61,0.08 38.55,4.55 59.99,-12.22l6.61 22.4 26.02 -1.48c-6.76,-25.81 -2.58,-122.04 -2.58,-157.55 0,-38.08 5.98,-128.96 -0.93,-153.29l0 0 0.01 -0z"/>
     <path class="fil14" d="M3278.91 1595.98c17.33,-3.3 9.99,-64.64 10,-82.03 0.01,-20.19 3.32,-81.8 -2.73,-91.94 -10.28,3.93 -4.24,-10.37 -35.61,-11.58 -19.06,-0.74 -39.95,0.3 -59.3,0.13l-0.01 16.69c-0.45,-63.3 27.06,-219.08 -14.9,-245.55 -17.45,-8.24 -104.16,-12.26 -123.86,-3.1l-5.63 16.08c-0.2,1.63 -0.01,14.9 0.03,17.48 0.71,44.81 -5.24,255.91 3.55,265.43 0.92,0.55 3.45,1.09 2.98,1.26l6.15 2.01c15.82,3.08 89.08,-0.47 111.39,1.48 -17.95,9.22 -87.11,4.3 -114.2,4.38 -2.46,24.22 1.45,-5.25 -4.33,14.41l-0.52 47.22c1.31,5.15 4.84,4.08 4.3,4.25l13.46 2.39c14.24,1 45.13,3.71 52.22,-6.36 6.87,21.93 2.83,25.95 8.05,47.72 34.98,6.94 84.19,2.46 120.3,0.88 2.7,-23.7 -1.96,-63.07 1.5,-76.17 5.12,-19.4 -4.06,9.16 2.15,-5.68l5.49 79.67 19.53 0.94 0.02 0 -0.03 -0.02z"/>
     <path class="fil14" d="M1534.25 1177.25c-5.63,20.36 -3.65,41.39 -3.81,66.28 -0.04,4.91 -0.25,12.47 0.33,17.15 3.04,24.23 8.72,9.47 -6.53,31.46 6.67,6.29 5.98,3.37 7,3.17 16.46,-3.33 7.72,-1.83 7.88,45.19l-2.03 116.24c-5.47,27.5 2.84,6.24 5.03,25.99 -3.53,2.77 -2.63,1.73 -7.11,2.97l-41.89 -8.58c-5.74,-16.61 -15.91,-20.65 -34.68,-27.91 -9.3,-3.61 -13.47,-8 -18.94,-12.4 -7.76,3.16 -8.01,4.99 -19.03,6.62 15.56,3.98 -7.78,4.68 8.47,42.46l-30.99 3.77c0.2,-0.58 2.8,3.5 6.78,5.83 32.98,19.19 10.91,-3.69 24.5,64.54 1.76,8.84 2.89,2.8 0.07,7.41 -7.49,12.23 11.54,-7.21 -7.26,4.61 0.55,0.78 2.12,2.13 1.44,2.48 -0.3,0.15 1.99,5.53 8.68,8.93l-9.54 6.69c-6.12,7.22 -2.02,9.65 -13.93,12.75 -5.59,1.46 -9.1,0.52 -14.31,0.41 -0.54,-0.84 0.02,-2.32 -1.13,-2.76 -1.08,-0.41 -0.84,-2.07 -1.03,-2.63 -0.22,-0.67 -1.21,-3.9 -1.49,-4.74 -0.56,-1.65 -0.13,-4.16 -4.24,-8.89 -22.63,-26.07 -65.75,-7.69 -80.47,-5.01 3.59,30.58 6.07,17.94 -4.67,24.15 39.77,8.66 90.44,-1.75 147.84,2.98 10.21,0.84 10.53,0.72 22,0.2 6.56,-0.31 17.98,-0.39 22.73,-5.5 -1.57,-37.67 3.57,-74.74 -6.5,-101.21 20.25,-2.25 28.06,-4 46.03,3.17 4.43,13.1 2.78,35.23 2.67,52.5 -0.25,36.06 -4.3,34.68 6.5,46.48l-6.2 2.06c0.77,0.48 2.97,0.97 2.49,1.07 -0.48,0.1 1.94,0.81 2.54,0.93l29.9 -0.35c17.84,-1.42 24.13,3.15 17.77,-72.22 -7.86,-1.09 -8.88,-0.24 -14.46,-0.5 -1.27,-0.06 -5.06,-0.16 -6.19,-0.27 -8.92,-0.87 -2.24,1.3 -7.61,-1.48 6.86,-14.94 -0.43,-2.22 14.04,-5.21 14.01,-2.9 15.59,16.11 15.94,-60.69 0.26,-54.29 5.41,-263.97 -3.68,-286.52l-52.96 -1.63 0.01 0 0.04 0.02z"/>
     <path class="fil14" d="M972.42 1177.1c9.97,13.11 -0.68,-4.64 0.75,21.99 3.29,61.17 -4.82,263.52 4.41,289.11 7.82,1.11 19.84,16.04 25.85,-5.15 3.98,-14.05 -4.3,-269.2 2.5,-286.19l1.65 297.45c41.82,4.76 0.93,-5.63 26.13,-6.26l-0.8 -311.3 -60.49 0.35 0 0 -0 0z"/>
     <path class="fil14" d="M1094.33 1488.26c19.22,17.07 18.67,9.82 37.51,4.13 9.96,-3.01 10.63,-0.67 17.11,-5.94l-9.49 -2.37c2.55,-47.8 -0.32,-105.39 3.1,-153.67 0.74,-10.53 4.28,-22.11 4.58,-32.04 0.26,-8.53 -1.28,-24.41 -1.28,-37.56 0,-25.86 1.09,-55.03 -0.68,-80.46l-42.13 1.42 -6.8 15.8c-4.87,21.07 -2.59,276.8 -1.92,290.7l0 0 0 -0.01z"/>
     <path class="fil14" d="M1209 1176.35c-10.41,19.06 -4.19,17.9 -5.48,36.46 -0.97,14.04 -2.15,37.9 -0.98,51.72 1.59,18.64 3.75,11.46 4.52,18.27 0.59,5.33 0.36,1.16 -0.63,5.81 -0.54,2.56 -0.59,1.51 -1.37,4.26 -0.15,0.54 -0.52,1.59 -0.66,2.11 -0.13,0.5 -0.46,1.54 -0.57,2.02 -0.11,0.43 -0.38,1.46 -0.46,1.87 -1.62,8.57 1.48,10.69 4.96,16.37l4.07 6.37c0.33,0.51 1.02,1.58 1.56,2.36 -24.24,-1.74 -15.93,-8.56 -35.37,-8.36 42.37,13.75 70.59,36.03 125.63,35.54 -2.54,-26.2 -13.87,-85.34 -27.83,-100.85 -19.59,0 -3.17,2.64 -12.67,-9.11 -5.25,-6.5 -15.89,-27.07 -11.34,-42.13 42.37,-12.97 56.55,11.71 60.66,-18.11l-104.04 -4.6 0.02 0 -0.02 -0z"/>
     <path class="fil14" d="M1261.26 1556.26l4.35 -12.93c-0.31,-15.42 1.15,-9.63 1.5,-23 0.26,-9.99 -0.45,-11.89 -1.83,-20.84 -15.2,-0.66 -27.49,0.78 -28.69,15.69 -14,-6.35 -4.93,-2.39 -14.37,-9.74 -4.86,-3.78 5.98,-0.97 -9.1,-5.52 -9.59,-2.89 -3.11,-1.4 -13.31,-1.18 6.46,9.62 3.15,28.61 3.01,46.41 -0.14,17.77 -3.01,43.76 3.7,55.46l-58.78 1.9 0.69 -102.45c-0.01,0 0.75,-6.52 -15.36,0.93 -6.65,3.07 -4.42,2.14 -9.13,5.76 -9.24,7.1 3.93,0.18 -7.01,6.4 -9.33,-12.6 -12.07,-16.61 -34.5,-14.1 13.12,18.96 8.72,20.16 8.78,49.63 0.06,26.38 -4.79,34.36 0.77,54.7 5.58,5.1 -0.29,1.53 8,4.69 25.41,9.7 46.28,-3.63 82.79,-3.62 28.87,0.01 76.39,4.7 103.09,-0.9l-20.59 -1.67c1.7,-9.24 4,-10.35 1.43,-16.35 -1.72,-4.05 -28.55,-24.03 -5.43,-29.29l0 0.01 -0.02 0z"/>
     <path class="fil14" d="M2510.75 1181.48c-10.81,-2.46 -65.65,-14.5 -69.93,7.17 -2.89,14.62 0.08,64.31 -0.18,82.77 -0.65,44.91 -7.89,16.01 21.07,46.69 6.07,6.43 13.24,13.57 28.45,12.56 13.45,-0.89 20.74,-7.94 23.93,-17.91 0.08,-21.28 3.09,-61.35 0.91,-73.13 -1.91,-10.34 -7.8,-22.32 -8.39,-29.16 -0.85,-9.78 4.53,-6.92 4.14,-29l0 0.01z"/>
     <path class="fil14" d="M1486.76 1176.81c-13.94,0.84 -30.74,-0.49 -44.18,0.3 -18.73,1.09 -15.57,1.94 -20.52,17.05l6.56 7.63c11.59,4.69 -0.3,-1.81 5.36,8.69 -24.17,19.61 -15.38,57.7 -15.36,62.91 0.26,46.96 -11.5,46.86 8.57,48.68 -4.59,4.19 -2.05,4.49 -10.56,6.43l16 3.36c12.29,-2.48 16.55,-5.28 27.32,-10.28 14.48,-6.72 13.36,-7.05 21.47,-5.76 11.03,1.76 2.53,-2.02 10.15,3.76l6.98 -7.02c-12.69,-0.61 -4.24,-1.33 -9.33,-5.45l-0.26 -28.39c3.77,-23.3 3.83,1.57 -0.21,-25.07 -3.48,-23 1.47,-51.65 -1.96,-76.83l-0.01 0 -0.02 -0.01z"/>
     <path class="fil14" d="M3024.31 1176.96c-3.24,4.2 -6.34,7.04 -10.13,10.93l0.31 299.95 28.56 1.17 1.44 -312.08 -20.17 0.04 0 -0.01 -0.01 0z"/>
     <path class="fil14" d="M1054.06 1617.56l-1.54 55.96c11.57,8.24 7.89,1.12 13.38,19.3 1.11,0.32 11.43,3.94 13.57,4.65 14.59,4.83 6.03,2.27 25.95,-4.41 4.13,-1.38 6.54,-1.69 11.54,-2.57l-7.31 -0.47c11.65,-35.06 4.11,-11.54 5.76,-36.66 0.85,-12.93 0.73,3.83 1.57,-8.58 1.06,-15.62 -7.25,-3.43 3.04,-17.14 -10.72,-4.11 0.6,-1.45 -11.67,-5.1 -8.31,-2.46 -8.51,-1.6 -17.77,-3.17 -8.17,-1.38 -22.62,-2.3 -36.5,-1.81l0 -0.01 -0.02 0.01z"/>
     <path class="fil14" d="M1221.3 1624.26c-9.93,-6.31 -42.42,-8.08 -55.83,-7.03l-8.83 61.61c6.59,4.09 10.56,4.57 21.7,5.92l-12.88 6.06c23.43,4.85 20.33,14.48 34.72,3.51 7.71,-7.82 31.52,-19.46 15.15,-52.04l7.52 -2.91c0.7,-0.06 1.07,-0.3 1.55,-0.56 -1.44,-3.67 -3.55,-8.21 -3.73,-9.11 -1.33,-6.45 -2.51,0.81 0.62,-5.45l0 0.02 0.01 -0.02z"/>
     <path class="fil14" d="M1375.8 1619.97c-13.08,15.12 -8.57,-5.15 -9.15,15.45 -0.77,26.77 6.35,-2.3 3.84,18.56 -1.13,9.47 -4.96,8.54 -3.74,19.14 1.69,14.82 7.46,8.31 10.17,19.39 15.36,4.96 16.94,11.56 27.93,1.94l5.19 -4.33c0.79,-0.59 1.64,-1.3 2.49,-1.9l12.68 -7.78c0.4,-17.1 -2.03,-12.52 -0.16,-28.44 1.59,-13.56 1.18,-21.43 0.11,-35.07 -10.39,0.07 -41.76,-0.96 -49.35,3.04l-0.01 0 0.01 0z"/>
     <path class="fil14" d="M1272.44 1617.2c-11.74,21.22 -7.6,48.41 -2.91,73.82 18.75,4.88 20.64,13.6 31.25,3.65 3.8,-6.39 15.96,-10.93 21.25,-15.2l-0.22 -59.23c-1.85,-1.09 1.44,-1.25 -7.76,-2.81 -8.06,-1.37 -5.29,-0.67 -13.01,-0.65 -9.44,0.02 -19.41,-0.3 -28.61,0.43l0.01 0 -0 -0.01z"/>
     <path class="fil14" d="M1473.7 1623.24l-6.31 55.97c2.71,1.15 18.88,9.5 19.19,9.64 19.61,2.19 22.7,-0.64 42.02,-4.74l1.11 -65.25c-40.93,-16.53 -22.04,15.49 -31.19,32.13l-2.57 -34.25c-11.15,0.96 -13.99,1.63 -22.23,6.48l-0.01 0.02 -0.01 0z"/>
     <path class="fil14" d="M1237.27 1435.15c-13.02,-0.72 -63.45,21.42 -71.8,30.08 0.05,9.3 -6.96,-6.3 30.96,-9.98 -3.84,14.12 -6.04,19.41 -1.39,31.87 9.54,0 12.43,2.3 16.46,2.68 16.46,1.55 6.13,-0.79 16.74,-0.98 14.32,-0.25 20.52,8.86 36.27,-2.04 0.52,-0.65 1.3,-1.58 1.52,-1.95l2.31 -10.16c-0.82,-4.65 -1.69,-6.76 -2.72,-13.22 -1.98,-12.37 -2.18,-22.83 -3.01,-24.99 -15.14,-4.2 -10.93,-4.48 -25.35,-1.3l0 -0.01 0.01 0z"/>
     <path class="fil14" d="M2724.86 1281.55c1.93,-19.35 4.2,3.62 6.48,-23.99 0.72,-8.72 -0.08,-22.25 -0.09,-31.51 -0.01,-7.65 0.74,-24.91 -0.11,-31.52 -1.8,-14.03 -6.01,-15.74 -18.58,-18.89 -12.41,16.93 -5.49,117.46 -6.46,150.8 25.24,-2.95 18.31,2.48 34.96,-28.65 -5.47,-5.07 -10.22,-10.78 -16.19,-16.24l0 0 -0.01 0z"/>
     <path class="fil14" d="M2695.22 1175.27c-11.08,2.34 -5.85,2.7 -11.72,8.01 -6.67,6.03 0.79,5.83 -12.61,7.73l12.64 8.58 -3.47 61.38c1.42,19.24 3.52,53.12 -4.43,66.61 -0.4,0.67 -2.08,2.94 -2.79,3.86 36.82,1.74 31.17,8.41 31.59,-70.68l-0.98 -67.07c-1.49,-26.74 1.06,-9.87 -8.22,-18.4l0 -0.01 -0.01 -0z"/>
     <path class="fil14" d="M918.08 1505.21c-29.41,-11.44 -23.58,2.06 -26.44,31.43 -1.75,18.01 -2.58,42.28 -1.27,64.04l18.31 7.83 14.02 -3.37c-10.9,-15.94 5.2,-70 -4.62,-99.93l0 0z"/>
     <path class="fil14" d="M1015.5 1624.31c-15.1,0.24 -19.88,-0.3 -38.08,-0.69l-2.44 22.04c-0.22,0.93 -0.59,2.17 -1.06,3.19l11.58 60.3c8.53,-13.09 9.01,-11.69 25.65,-16.59 3.06,-10.16 3.72,-7.87 4.24,-9.11 5.21,-12.75 3.6,-45.49 0.12,-59.14l0 0 -0.01 0z"/>
     <path class="fil14" d="M3050.1 1599.01c38.54,0.94 16.31,4.75 51.88,-3.17 0.84,-0.19 12.48,-1.07 16,-2.21l-2.54 -24.87c-84.25,-15.06 -65.89,13.42 -65.35,30.26l0.01 -0.01 -0 0z"/>
     <path class="fil14" d="M3014.89 1498.98c-6.18,7.56 8.42,4.56 -9.11,6.72 7.82,0.43 7.35,1.39 12.43,4.3 -5.32,12.07 -6.59,32.62 3.38,42.32l22.52 1.96c3.13,-45.4 2.12,-47.46 -11.43,-52.78 -5.63,-2.22 -10.91,-2.44 -17.8,-2.52l0 0 0.01 0z"/>
     <path class="fil14" d="M1562.6 1628.09c3.55,4.93 2.52,2.83 3.52,10.7 1.5,11.85 -2.94,27.09 2,38.49l2.65 4.26c0.27,0.45 1.05,1.32 1.54,2l17.37 1.69 -0.2 -64.88c-8.42,-0.13 -9.61,-1.07 -17.52,1.38 -9.21,2.85 -1.38,-0.16 -9.37,6.36l0.01 0z"/>
     <path class="fil15" d="M2002.52 955.36l-42.02 -1.14c-18.51,1.34 -23.71,3.22 -35.73,4.98l-131.43 1.41c-36.81,0.01 -133.7,-2.53 -160.33,15.68l3.77 3.94c0.96,0.64 -0.5,3.7 24.93,6.82 13.09,1.6 24.75,2.53 37.86,3.45l194.38 4.19c9.94,0.04 29.64,-2.97 36.22,2.51 10.7,4.13 7.32,-1.8 8.08,10.42 12.06,-2.01 7.39,-4.89 19.16,-6.86 27.35,-4.56 2,13.63 38.85,1.52 5.93,-1.95 11.62,-2.11 28.78,-1.26 11.89,-10.07 7.69,-6.89 28.22,-6.54 46.7,0.8 260.17,2.8 272.63,-18.19 -33.1,-24.41 -232.47,-11.94 -282.78,-16.68 -20.22,-1.91 -14.75,-8.13 -40.59,-4.25l0 -0.01 -0 0.01z"/>
     <path class="fil16" d="M1982.68 2707.91l0.52 -905.65c-10.61,-2.2 -12.31,-0.15 -16.53,-0.69 -22.7,-2.91 15.27,5.26 -6.12,-1.01 -11.52,-3.37 0.18,5.63 -7.78,-4.19l-5.86 2.87 -11.35 2.74c5.78,-7.72 16.68,-0.65 23.07,3.42l6.83 5.02c0.56,0.42 1.63,1.14 2.35,1.83 4.09,270.76 0.49,555.29 1.48,829.02 0.12,34.43 -2.3,90.59 -0.16,119.02l11.16 -7.95c5.88,14.98 7.06,34.8 13.04,53.18l41.5 0.62 8.47 -7.74c-8.72,-7.43 1.38,-1.94 -7.15,-0.54 -0.99,0.16 -6.58,4.48 -14.66,-2.67 -11.49,-10.19 -5.07,-10.19 -18.36,-27.3 -32.99,-42.47 -13.94,-24.91 -20.44,-59.99l0 0 -0.01 0z"/>
     <path class="fil17" d="M1966 872.53c-9.91,8.35 -11.69,8.95 -19.37,24.67 -6.33,12.94 -8.82,26.59 -8.79,44.84l61.9 0.97 23.15 -0.97c0.56,-29.62 -10,-57.4 -30.19,-69.51l-26.7 0 0.01 0 -0.01 0z"/>
    </g>
   </g>
   <path class="fil18" d="M846.63 1970.85c0,-162.64 31.1,-287.8 75.45,-408.03l36.42 -83.28c29.78,-59.24 42.85,-80.81 76,-132.88 3.78,-5.94 7.95,-10.98 12.56,-17.95 8.5,-12.84 44.07,-63.01 53.04,-69.01l1577.79 1576.62c-8.86,12.65 -84.75,64.17 -103.41,76.14 -13.01,8.34 -24.04,15.39 -37.54,23.48 -307.01,184.09 -709.98,204.57 -1031.6,54.3 -8.58,-4.01 -14.95,-6.26 -22.69,-10.17 -77.41,-39.08 -125.04,-67.53 -194.8,-119.71 -7.32,-5.48 -12.17,-9.5 -19.5,-15.7 -51.28,-43.37 -79.72,-68.69 -126.65,-117.44 -6.76,-7.02 -9.01,-11.54 -16.4,-18.81 -6.45,-6.35 -10.44,-12.09 -16.35,-18.85l-31.35 -39.07c-146.25,-187.31 -231,-436.82 -231,-679.65l0.03 0.02zm1104.87 -1410.56l37.19 0c107.03,1.37 213.91,14.61 317.81,39.87 46.02,11.19 89.34,25.59 131.72,39.61 32.37,10.71 61.12,23.38 92.57,36.51l58.87 27.97c5.78,2.9 8.72,3.95 14.44,6.67 4.67,2.22 7.92,4.45 13.71,7.42 47.03,24.09 91.98,50.76 135.9,80.03 42.03,28.02 82.8,59.63 121.46,92.11 35.98,30.23 105.09,93.19 132.36,125.81l30.61 35.11c46.53,50.03 99.01,125.71 135.13,186.41 26.97,45.33 50.99,91.7 74.38,139.2l26.12 60.72c25.3,63.37 46.61,127.27 63.01,195.17 32.21,133.36 39.93,230.01 39.93,368.46 0,170.65 -41.21,343.21 -103.6,499.58l-25.45 59.04c-66.48,134.97 -124.2,223.44 -221.35,339.59 -7.19,8.59 -12.58,12.76 -20.08,22.17 -25.3,31.72 -88.18,86.22 -120.64,116.41 -51.46,47.85 -146.83,115.02 -212.98,150.8 -18.96,10.26 -36.53,20.61 -56.33,30.51 -59.11,29.56 -116.71,57.5 -179.83,78.35 -43.52,14.37 -85.47,28.29 -131.81,39.52 -129.2,31.33 -234.79,39.38 -369,39.38 -142.06,0 -305.16,-31.89 -436.85,-79.5 -21.61,-7.81 -41.71,-15.72 -62.74,-24.1l-59.04 -25.45c-19.48,-9.59 -37.78,-18.94 -57.86,-28.98 -38.1,-19.05 -74.81,-39.85 -110.17,-63.52 -17.26,-11.55 -34.42,-21.93 -50.57,-33.92 -17.17,-12.74 -32.59,-23.79 -49.96,-36.88 -16.57,-12.5 -30.89,-24.61 -46.64,-37.85l-46.57 -40.28c-19.3,-15.4 -90.23,-88.11 -106.62,-109.3l-19.24 -23c-7.54,-8.65 -12.71,-15.5 -20.04,-24.56 -6.87,-8.49 -12.18,-14.77 -18.72,-23.53 -12.35,-16.55 -24.5,-31.3 -35.95,-48.54l-97.15 -161.02c-14.34,-28.68 -29.74,-57.44 -41.92,-87.17 -30.04,-73.28 -56.43,-146.44 -75.41,-225.02 -32.19,-133.24 -39.93,-230.04 -39.93,-368.46 0,-106.44 16.92,-204.07 40.39,-304.63 18.56,-79.52 44.73,-150.87 75.61,-224.81 4.04,-9.67 8.8,-20.55 13.06,-29.19 28.17,-57.19 56.96,-114.93 92.5,-168.03 34.06,-50.89 69.15,-100.17 108.66,-147.17 30.24,-35.98 93.18,-105.09 125.81,-132.36l35.11 -30.61c4.98,-4.63 6.69,-5.12 11.67,-9.46 94.26,-82.16 202.26,-145.05 313.94,-200.06 40.42,-19.91 80.41,-35.09 123.52,-50.16 144.4,-50.5 297.5,-76.9 450.96,-78.89l0 0.02zm-692.39 538.06c10.4,-5.78 8.84,-6.23 16.67,-12.67 56.57,-46.5 139.87,-95.06 203.76,-127.17l83.28 -36.42c120.2,-44.34 245.47,-75.45 408.03,-75.45 132.34,0 242.3,20.91 358.21,59.56 36.49,12.17 90.2,33.05 123.73,49.95 8.74,4.41 14.7,7.38 23.45,11.75 16.2,8.1 30.73,15.66 45.71,24.7l65.72 39.9c8.07,5.15 12.72,9.13 20.61,14.59 83.39,57.7 114.37,90.93 185.81,161.56 22.79,22.53 76.47,91.56 93.98,117.25 80.56,118.17 140.72,244.67 172.73,385.86 64.86,286.1 21.39,576.48 -123.97,823.75 -20.9,35.56 -46.53,73.8 -71.43,106.94 -8.95,11.92 -18.09,22.82 -26.15,34.87l-1580.14 -1578.96 0 -0.02z"/>
  </g>
 </g>
</svg>
