<?xml version="1.0" encoding="UTF-8"?>
<!DOCTYPE svg PUBLIC "-//W3C//DTD SVG 1.0//EN" "http://www.w3.org/TR/2001/REC-SVG-20010904/DTD/svg10.dtd">
<!-- Creator: CorelDRAW 2018 (64-Bit) -->
<svg xmlns="http://www.w3.org/2000/svg" xml:space="preserve" width="3.93701in" height="3.93701in" version="1.0" style="shape-rendering:geometricPrecision; text-rendering:geometricPrecision; image-rendering:optimizeQuality; fill-rule:evenodd; clip-rule:evenodd"
viewBox="0 0 3937.01 3937.01"
 xmlns:xlink="http://www.w3.org/1999/xlink">
 <defs>
  <style type="text/css">
   <![CDATA[
    .str0 {stroke:#2B2A29;stroke-width:33.33;stroke-miterlimit:22.9256}
    .fil3 {fill:none}
    .fil20 {fill:#111214}
    .fil14 {fill:#1A1C14}
    .fil17 {fill:#252B1C}
    .fil9 {fill:#292D1E}
    .fil12 {fill:#2D291E}
    .fil13 {fill:#2D321E}
    .fil10 {fill:#3B3C2C}
    .fil11 {fill:#41452E}
    .fil8 {fill:#494E36}
    .fil18 {fill:#4C5435}
    .fil7 {fill:#555A41}
    .fil5 {fill:#595E3E}
    .fil19 {fill:#5A6141}
    .fil6 {fill:#5E6445}
    .fil15 {fill:#7E8274}
    .fil16 {fill:#8C927B}
    .fil0 {fill:#F8D0E4}
    .fil1 {fill:url(#id3)}
    .fil4 {fill:url(#id4)}
    .fil2 {fill:url(#id5)}
   ]]>
  </style>
    <clipPath id="id0">
     <path d="M-0.1 3773.06l2942.54 0 0 -3609.12 -2942.54 0 0 3609.12z"/>
    </clipPath>
      <mask id="id1">
  <linearGradient id="id2" gradientUnits="userSpaceOnUse" x1="3511.87" y1="-1466.81" x2="-28.9" y2="4584.85">
   <stop offset="0" style="stop-opacity:1; stop-color:white"/>
   <stop offset="0.458824" style="stop-opacity:0.501961; stop-color:white"/>
   <stop offset="1" style="stop-opacity:0; stop-color:white"/>
  </linearGradient>
       <rect style="fill:url(#id2)" x="-1.5" y="162.54" width="2945.35" height="3611.92"/>
      </mask>
  <linearGradient id="id3" gradientUnits="userSpaceOnUse" x1="3512" y1="-1467" x2="-29" y2="4585">
   <stop offset="0" style="stop-opacity:1; stop-color:white"/>
   <stop offset="0.458824" style="stop-opacity:0.501961; stop-color:white"/>
   <stop offset="1" style="stop-opacity:0; stop-color:white"/>
  </linearGradient>
  <linearGradient id="id4" gradientUnits="userSpaceOnUse" x1="3360" y1="3360" x2="576" y2="576">
   <stop offset="0" style="stop-opacity:1; stop-color:#F8C8C8"/>
   <stop offset="0.458824" style="stop-opacity:1; stop-color:#DED7DD"/>
   <stop offset="0.501961" style="stop-opacity:1; stop-color:#833488"/>
   <stop offset="1" style="stop-opacity:1; stop-color:#C4E6F2"/>
  </linearGradient>
  <linearGradient id="id5" gradientUnits="userSpaceOnUse" x1="266.8" y1="959" x2="2997.48" y2="2977">
   <stop offset="0" style="stop-opacity:1; stop-color:#90D3F0"/>
   <stop offset="1" style="stop-opacity:1; stop-color:#B57BB3"/>
  </linearGradient>
 </defs>
 <g id="Layer_x0020_1">
  <metadata id="CorelCorpID_0Corel-Layer"/>
  <g id="_1672831771728">
   <path class="fil0 str0" d="M646.43 187.13l2573.9 0c253.62,0 459.3,205.68 459.3,459.3l0 2573.9c0,253.62 -205.68,459.3 -459.3,459.3l-2573.9 0c-253.62,-0 -459.3,-205.68 -459.3,-459.3l-0 -2573.9c0,-253.62 205.68,-459.3 459.3,-459.3z"/>
   <polygon class="fil1" points="-0.1,3773.06 2942.44,3773.06 2942.44,163.94 -0.1,163.94 "/>
   <g style="clip-path:url(#id0)">
    <g>
     <path id="1" class="fil2" style="mask:url(#id1)" d="M504.56 164.04l2437.79 0 -1890.78 3608.92 -196.25 0c-305.98,0 -580.83,-252.04 -610.77,-560.11l-241.88 -2488.7c-29.94,-308.06 195.91,-560.11 501.89,-560.11l0 0z"/>
    </g>
   </g>
   <polygon class="fil3" points="-0.1,3773.06 2942.44,3773.06 2942.44,163.94 -0.1,163.94 "/>
   <path class="fil4" d="M621.28 0l2694.44 0c341.71,0 621.28,279.57 621.28,621.28l0 2694.44c0,341.71 -279.57,621.28 -621.28,621.28l-2694.44 0c-341.71,0 -621.28,-279.57 -621.28,-621.28l0 -2694.44c0,-341.71 279.57,-621.28 621.28,-621.28zm224.54 328.08l2245.37 0c284.76,0 517.74,232.98 517.74,517.74l0 2245.37c0,284.76 -232.98,517.74 -517.74,517.74l-2245.37 0c-284.76,0 -517.74,-232.98 -517.74,-517.74l0 -2245.37c0,-284.76 232.98,-517.74 517.74,-517.74z"/>
   <g>
    <g id="_1636447338128">
     <g>
      <g>
       <path class="fil5" d="M2009.89 2290.76c5.82,-5.45 4.21,-2.33 11.33,-6.39 7.18,-4.07 -0.38,2.43 6.2,-4.87 0.45,-0.49 4.95,-7.28 5.59,-8.22l22.07 -26.97c-12.56,-1.31 -7.6,-0.58 -10.6,1.83 -0.46,-0.69 -1.65,-1.94 -0.96,-2.31l-2.62 -7.47c-4.85,-14.52 -4.18,-18.96 0.61,-41.02l1.19 -4.4c6.63,-24.04 -1.5,-19.87 1.35,-27.96 0.63,-1.8 2.27,-3.44 3.08,-4.28 0.47,-0.48 1.26,-1.04 1.74,-1.47 0.52,-0.48 1.5,-1.13 1.96,-1.52 0.48,-0.41 1.41,-1.01 2.07,-1.56 -23.12,2.86 -57.28,-1.52 -87.3,-0.23l0 136.45c6.11,1.68 14.46,0.07 25.33,-1.45 1.48,-6.92 2.3,-19.19 1.82,-36.46 -0.18,-6.49 -0.76,-14.85 1.08,-20.99 0.37,-1.25 3.83,-6.94 3.84,-6.96 4.37,-4.43 1.78,-3.37 8.64,-4.29 3.54,8.34 6.4,26.16 8.8,36.49 7.46,32.26 0.18,12.72 -5.23,34.05l0.01 0 -0.01 -0z"/>
       <path class="fil5" d="M1995.87 3281.62c-5.17,-9.83 0.94,-7.38 -8.07,1.53 -11.88,11.76 1.09,43.63 -11.52,46.43 -6.47,1.43 -9.43,0.46 -10.65,-2.27l0 77.3c3.76,2.89 2.93,7.99 10.65,11.27 9.02,-8.08 -0.37,0 5.76,-8.94 6.88,-10.05 8.8,-5.44 10.36,-14.48l3.48 -110.83 0 0 -0.01 -0.01zm-30.24 31.22c0.4,-4.58 0.69,-9.83 0,-15.39l0 15.39z"/>
      </g>
      <g>
       <path class="fil6" d="M2426.96 1483.15l-0.67 -116.39c0.08,-23.77 3.85,-28.76 -3.98,-32.22 2.78,13.71 0.87,69.18 0.46,86.91 -1.17,49.81 4.29,51.27 -25.06,64.34 0.56,-16.37 0.56,-49.21 -14.32,-55.32 -9.56,22.98 -8.5,23.37 -9.43,52.62 -35.8,0 -25.46,3.27 -30.76,-6.47l-47.25 -1.23c10.05,3.44 4.14,0.29 10.93,8.93 -31.63,0 -26.78,-3.36 -39.29,-2.98 -12.62,0.39 -31.62,-20.77 -38.94,-30.43l72.37 74.44c-3.47,4.14 1.05,1.05 -5.81,3.89 -8.06,3.35 -1.85,0.24 -1.98,-0.43 5.67,7.62 4.39,10.73 3.32,21.13 9.6,7.93 5.25,1.42 2.88,12.54 12.14,3.36 4.96,-1.83 10.2,9.52 10.95,-3.21 2.33,-1.94 7.61,-3.43 0.45,-0.13 1.25,-0.35 1.68,-0.43l3.12 -0.1c0.37,0.02 1.15,0.19 1.52,0.23l6.62 1.28c0.52,0.11 1.45,0.28 1.94,0.39l4.2 1.14c-0.42,0.09 1.56,0.31 2.22,0.72l-18.77 3.87c-6.42,1.04 -11.78,1.94 -18.04,3.61 13.06,14.68 -6.43,14.86 28.37,23.26 6.2,1.49 15.8,4.84 22.19,5.46 8.75,0.84 6.73,-3.39 9.92,-2.13 0.07,0.03 0.48,0.34 0.55,0.39l78.01 26.07c-1.99,-12.24 -4.8,-19.55 5.48,-24.81 3.19,3.25 3.21,9.01 3.4,12.91 0.29,5.88 0.04,13.27 0.35,19.71 11.87,2.22 15.79,4.77 29.02,5.46 0,-24.18 0.81,-140.61 -13.84,-147.11 -0.08,-0.04 -0.65,-0.11 -0.74,-0.15 -3.18,-1.41 -15.6,-10.51 -25.88,-10.09l-16.61 -0.43c-0.4,-0.06 -1.22,-0.14 -1.61,-0.2 -8.17,-1.29 -5.65,1.93 -9.11,-4.08 5.74,-15.1 0.13,-4.38 7.69,-9.74l8.05 9.37 0 0 -0.01 -0.02z"/>
       <path class="fil6" d="M2112.89 1768.64l0.02 8.2c16.22,-1.87 13.22,-6.1 27.31,2.69l1.3 -6.1c3.22,-4.45 -5.22,-1.6 6.49,-3.75l38.92 -0.19c14.49,2.25 4.49,2.66 11.82,4.63 4.81,-7.11 2.07,-6.28 -0.52,-11.81l-1.39 -29.88c0.83,-7.19 3.74,-7.09 7.05,-9.51 -11.41,4.78 -10.25,-3.25 -10.54,-3.49l7.01 -5.48c-27.96,0 -8.87,1.19 -16.39,-8.18 18.52,-10.91 12.7,-0.93 26.72,-23.63 -8.35,2.55 -17.98,4.59 -17.16,9.95 2.95,-6.14 2.99,-11.78 2.81,-21.87l2.68 1.07c0.17,-0.01 1,-0.16 1.17,-0.19 0.2,-0.03 1.16,-0.35 1.34,-0.38 0.2,-0.05 1.02,-0.22 1.44,-0.51 -4.18,-10.45 5.4,-31.28 -2.91,-43.27 -2.1,-3.03 -31.57,-19.78 -37.97,-23.33 -4.75,2.1 -12.83,5.57 -16.39,7.59l-8.27 -20.54c-6.25,4.43 3.44,3.36 -13.16,4.83 -8.27,0.74 -16.55,-0.96 -25.03,-0.84 -2.31,4.87 -5.4,19.95 -5,26.31 1.57,24.86 5.02,-5.79 1.33,9.04 -0.13,0.54 -4.09,7.69 -4.76,9.52 -2.98,8 -9.21,52.52 -10.17,62.28 16.13,-1.85 33.78,-0.16 51.39,-0.71l41.13 -0.65c13.1,2.92 5.57,-1.48 13.5,8.02 -12.33,7.86 -32.5,5.8 -51.9,5.48 -20.52,-0.35 -38.91,0.15 -59.19,-1.11l1.45 61.83c16.76,4.85 27.98,-4.15 35.87,-6.02l0 0 0 0z"/>
      </g>
      <g>
       <path class="fil7" d="M1965.63 2033.98l21.53 2.06c18.02,0.97 68.76,-3.62 96.45,0.19l19.88 -7.9c-3.5,-23.46 -18,-32.82 -16.43,-63.25l6.7 13.64c14.89,-4.59 21.2,-11.27 36.69,-11.72 16.13,-0.47 19.27,-10.15 35.72,-10.81 29.35,-1.18 45.09,-21.26 50.58,-52.18 -7.4,-1.73 -6.08,4.07 -4.87,-26.02 0.6,-14.81 -0.61,-13.22 4.57,-24.57l2.99 -5.52c-11.45,-4.38 -5.09,-5.26 -12.96,-14.44 -4.8,-5.59 -10.03,-7.85 -14.37,-12.9 -2.99,0.83 -8.98,3.83 -9.48,3.92 -0.11,0.02 0.3,2.78 -1.68,-1.93l-28.14 1.63c6.34,20.79 6.17,15.5 1.06,16.76 0.33,-0.17 4.43,7.28 -0.02,-9.46l-46.85 1c-0.26,-1.48 -1.13,-2.54 -0.5,-2.86l-2.3 -17.74c-1.02,-12.42 1.11,-15.93 3.19,-26.87 -17.83,4.97 -13.84,2.37 -30.04,2.1l-2.59 44.33c-5.28,-6.45 -7.57,-17.61 -9.85,-25.88l-8.08 -47.91c-2.54,-1.27 -4.15,3.13 -9.54,-7.1l-1.93 5.75c-3.64,7.09 7.55,-3.56 -2.52,3.74 -8.09,5.87 -22.11,-16.4 -22.11,-16.41 -0.57,-0.8 -1.04,-1.46 -1.61,-2.22l-3.83 -4.85c-5.05,8.65 -1.27,5.45 -16.5,5.36l-19.02 95.14 86.73 0.05c14.67,2.04 4.96,-1.34 10.78,5.28l-5.92 3.1c-0.71,0.23 -1.48,0.51 -2.31,0.72 -2.18,0.56 -10.45,1.33 -13.46,1.41 -22.19,0.59 -57.5,-1.83 -76.52,0.24l-10.88 125.83c-0.24,6.49 -1.65,11.78 -2.58,16.52l0 12.6c0.39,1.19 0.94,2.39 1.68,3.61 -0.52,-0.21 -1.08,-0.47 -1.68,-0.78l0 28.28 0 0.04 0.03 0.03z"/>
       <path class="fil7" d="M1965.63 814.54c0.37,0.31 0.78,0.66 1.27,1.05 18.37,14.9 28.71,-1.42 36.02,-8.05 16.57,-15.05 30.82,0.94 69.9,-6.05l-5.46 -36.15c-3.21,-1.93 0.71,-1.46 -0.94,1.64l-3.01 5.57c-2.51,-4.38 2.37,-3.86 -6.77,-7.07l-78.6 1.31c-0.41,-0.07 -1.27,-0.35 -1.62,-0.46l-4.77 -3.7c4.41,-4.05 1.44,-2.87 9.97,-5.02l67.47 -0.44 6.54 -7.84c0.42,-0.35 1.35,-0.97 1.71,-1.24 0.37,-0.28 2.29,-0.97 1.84,-1.17 -0.46,-0.21 1.29,-0.72 1.92,-1.11l-28.15 -34.57c-3.48,-2.73 -2.22,-1.94 -6.7,-4.15 -13.42,-6.6 1.93,1.93 -5.11,-1.87 6.18,-3.69 19.5,-2.21 29.07,-2.52 0.8,-25.37 3.89,-3.9 -1.67,-31.13 -10.3,5.32 -6.17,5.71 -16.39,11.05 -15.09,7.88 -38.63,12.64 -58.68,12.13 -2.04,-0.05 -4.73,-0.24 -7.84,-0.56l0 120.33 -0.02 0.01 0.02 0zm0 -140.45c0.33,-0.38 0.69,-0.78 1.08,-1.22 2.83,-2.99 -6.45,-7.13 9.81,-6.3 14.38,0.74 2.05,8.78 31.31,2.65 15.79,-3.31 5.24,-0.45 12.39,1.13 15.95,3.52 17.15,-0.57 32.55,-0.71l-8.19 -24.57c-1.16,0.15 -2.31,0.43 -3.44,0.7 -13.96,3.24 -12.52,4.77 -26.61,4.77l0.6 -6.59c-0.74,-8.24 -0.7,-1.48 -0.28,-10.23 0.68,-14.26 1.16,-16.79 -8.5,-25.87 -14.04,5.22 -4.75,1.88 -10.93,11.37l-29.78 0.69 0 54.17 0 0.01 -0.01 -0zm0 -63.21c11.93,0.76 27.33,-1.12 32.89,-3.58 -1.31,-10.61 2.04,-4.23 -4.43,-9.78 -5.24,-4.49 -20.56,-6.26 -26.82,-6.73l10.99 -4.48c6.72,-3.05 2.13,2.57 6.27,-4.87l-18.89 -2.22 0 31.67 -0.01 -0.01z"/>
      </g>
      <path class="fil8" d="M1965.63 1080.95c12.38,-0.43 24.98,-0.7 32.59,-1.31l23.27 1.48c7.82,16.07 -1.54,128.56 3.44,159.89 -11.33,-6.63 -10.2,-10.06 -20.09,-20.38 -5.67,-5.91 -11,-12.67 -20.78,-14.82 1.39,10.96 13.09,17.74 30.2,36.56l3.38 3.66c-8.91,-2.07 -29.08,-1.28 -40.55,-1.57 1.44,-10.51 2.38,-47.9 -0.8,-55.87 -8.98,6.15 -3.49,45.74 -2.8,57.37 -2.73,-0.25 -5.35,-0.43 -7.84,-0.57l0 10.09c7.47,-3.46 15.76,-2.91 26.12,1.94 20.57,9.64 4.07,18.52 28.82,23.74l3.03 -20.98c8.7,11.79 -3.11,22.24 -2.63,35.66l2.98 10.13c-0.78,0.56 0.85,1.8 1.51,2.53 8.67,-10.38 10.44,-25.14 14.64,-39.41 5.15,4.21 7.07,7.19 11.61,11.26 11.73,10.48 13.93,15.22 26.34,22.87 8.94,5.51 8.97,11.35 16.79,18.73 15.49,14.61 25.71,29.75 42.64,41.4 0.32,-0.63 0.28,-1.66 0.29,-2.08 0.02,-0.4 0.17,-1.52 0.17,-1.99l-0.02 -10.96c0.1,-0.31 2.71,-4.68 2.79,-4.86 2.56,21.57 -3.9,65.25 0.72,84.11 6.08,-5.56 3.41,-26.11 3.37,-36.17 0.65,-0.57 1.68,-0.98 2.27,-1.28 0.57,-0.29 1.53,-0.87 2.22,-1.2 0.66,-0.32 1.47,-0.74 2.16,-1.05 9.54,-4.38 1.46,2.61 8.67,-3.28l-0.82 -1.94c10.06,-1.86 10.93,-1.96 10.93,-21.31l-8.91 -5.89c-18.17,-11.77 -2.84,-4.37 -13.81,-21.37l-4.57 -5.54c-3.78,12.04 -6.34,11.09 -9.39,20.45 -8.57,-5.89 -10.02,-10.91 -21.05,-20.16l-14.91 -12.44c-36.25,-22.88 -6.09,-12.78 -31.19,-34.48l-16.52 -16.34c-0.98,-1.01 -4.69,-4.3 -5.79,-5.39l4.51 -8.29c7.82,-17.43 -1,13.78 1.25,-4.31 1.21,-9.69 -0.8,-9.76 2.71,-20.33 4.11,-12.39 7.46,-24.52 11.39,-37.82l12.08 -36.38c8.37,-42.38 20.03,-81 31.57,-121.9 4.07,-14.41 6.68,-25.94 9.93,-39.12 2.67,-10.81 6.46,-32.93 8.92,-38.57 1.93,1.17 5.87,4.2 10.83,8.34l-0.07 -9.77c-2.69,-3.18 -5.02,-6.2 -6.82,-8.96l6.71 -7.4 -0.09 -12.95c-9.46,7.05 -13.87,9.28 -10.51,12.14 7.5,-5.1 3.74,-8.39 4.79,-14.57l5.54 -22.54 -0.24 -35.34c-6.31,22.82 -16.55,48.07 -18.82,70.01 -9.59,-9.61 0.25,-6.31 -14.89,-12.47 0.79,14.72 -1.76,5.27 5.06,14.28 7.24,9.57 0.07,-3.16 6.48,6.11 -7.28,22.68 -27.11,25.79 -34.55,47.4 8.44,-2.62 27.87,-21.57 27.84,-21.6 -0.54,-0.34 1.37,-1.22 2.13,-1.76 -9.37,21.48 -15.2,49.43 -20.88,72.82 -9.77,40.17 -53.19,194.09 -54.21,214.59 -6.57,-7.73 -6.13,-8.37 -2.84,-18.98 9.42,-30.37 5.4,-137.06 1.74,-166.72l7.99 -0.85c9.95,-0.3 12.02,1.59 24.78,-0.43 3.87,-10.41 5.4,-15.79 0,-23.35 -0.89,12.65 2.16,8.82 -5.45,16.44 -12.39,0 -13.64,-1.01 -25.65,2.78 2.17,-35.31 17.44,-113.72 17.56,-154.49 32.76,15.66 48.87,-2.18 42.04,-23.05 -5.31,-16.27 -2.98,-3.12 -12.13,-13.66 -9.96,0.58 -15.83,0.18 -23.96,6.17l-10.97 10.41c-18.37,16.13 -10.51,12.65 -14.02,65.23l-9.28 102.7c-3.48,6.23 5.67,5.32 -12.8,4.83l-4.59 -17.36c-1.08,29.28 2.11,21.45 -28.1,20.78 -4.31,-0.09 -8.84,-0.21 -13.47,-0.31l0 19.06 0.01 -0.05 -0.02 0.01zm0 344.24l0 -30.63c9.17,0.24 16.51,0.1 20.39,-0.88 -6,-8.01 -10.28,-8.36 -20.39,-8.13l0 -117.63c2.1,-1.22 4.8,-3.02 9.6,-4.63 5.05,11.94 2.31,15.63 11.4,22.83 0.42,0.33 1.34,0.83 1.93,1.36 0.19,7.22 0.09,16.2 1.93,22.54l2.32 5.71c4.52,14.71 -1.17,13.82 3.3,32.55 3.06,12.79 0.17,13.52 -6.81,21.21l4.56 4.61c3.29,4.21 -0.11,-3.96 2.09,3.58l-12.2 24.49c-4.19,9.3 -8.29,18.4 -11.84,25.54 -0.08,-0.05 -4.07,-2.27 -4.66,-2.33 -0.69,-0.08 -1.21,-0.16 -1.61,-0.22l-0.01 0.01 0.01 0.03zm0 -554.18l0 -4.29c36.66,0.09 75.32,-2.52 81.07,-6.59l8.83 -10.02c22.03,0 2.36,-0.92 10.9,4.93 -2.87,7.62 -1.31,4.17 -4.81,9.22l-14.32 15.52c-28.13,0.42 -19.28,-5.16 -31.12,-8.72l-50.56 -0.05 0.01 0.01 -0.01 -0.01z"/>
      <g>
       <path class="fil9" d="M1965.63 1465.91c14.39,4.28 32.98,13.92 34.9,29.62 -13.02,-1.07 -23.72,-6.35 -34.9,-10.85l0 13.07c3.3,1.02 6.54,2.33 9.72,3.96 10.17,5.22 26.34,22.32 33.87,31.83 15.25,10.67 3.21,3.37 7.9,-0.02 -0.22,-6.79 -1.53,-1.65 8.49,-13.66 5.49,-6.59 -6.71,0.14 2.58,-2.76 0.11,0.05 10.74,4.11 11.37,4.2 10.81,1.44 12.89,-1.72 15.94,-4.18 -3.89,-7.13 -0.82,-4.74 -9.32,-8.24 -12.74,-5.25 -10.58,-0.29 -11.28,0.02 8.08,-2.11 15.32,0.01 26.05,0.01 0,-20.76 -1.62,-22.61 -8.24,-39.97 -9.07,-23.81 -13.52,-14.22 -24.55,-20.14 -1.46,-18.97 -2.6,-34.74 2.73,-54.7l32.8 1.54 -0.05 94.16c-0.14,10.11 -1.36,17.02 1.93,24.1 5.11,10.97 -4.52,-0.96 4.28,5.43 -1.95,1.48 1.28,-0.93 -1.46,0.04l-7.42 3.22c0.77,14.46 -2.98,11.54 7.36,17.93 1.8,1.11 16.01,5.37 18.63,6.42l16.81 5.39c5.07,1.33 15.72,12.39 28.41,8.15 10.61,-3.55 3.41,1.17 10.74,-6.78 -15.13,-4.43 14.58,-6 -7.73,-4.38 -4.17,0.31 -3.05,4.45 -3.2,3.02l-45.95 -20.12c-0.5,-0.28 -1.24,-0.63 -1.7,-0.93 -1.59,-1.05 -5.2,-1.07 -5.98,-8.04 6.03,1.02 2.28,0.51 7.07,2.96l24.72 10.72 2.78 -6.37c1.96,-2.54 4.67,-4.69 8.16,-7.25 5.89,5.81 3.74,7.69 8.19,13.18l1.95 -5.49c2.77,-3.57 -6.02,-0.21 7.19,-4.02 19.35,-5.57 25.85,-6.73 45.13,-3.25 1.49,0.28 10.94,2.05 11.87,2.06 1.3,0.01 3.98,-0.12 5.05,-0.31 7.93,-1.39 1.85,1.25 7.87,-2.89 -2.22,-12.04 1.61,-10.13 -10.76,-12.71l8.92 0.2 1.59 0.12c0.37,0.03 1.19,0.21 1.56,0.24 10.16,0.87 8.68,-0.78 15.25,-12.1 -61.46,0.34 -44.33,-18.88 -61.28,14.54l-15.29 -0.1c-0.19,-24.95 -3.01,-7.79 -9.49,-20.62 -2.88,-5.71 -1.97,-20.9 -1.48,-29.71 8.32,-6 16.93,-11.81 25.83,-10.28 16.26,2.83 -11.48,4.91 13.71,2.93 -8.77,-14.81 -16.5,-12.85 -36.22,-13.07l0.74 -14.49c-4.61,-18.86 1.84,-62.53 -0.72,-84.11 -0.07,0.17 -2.69,4.56 -2.79,4.86l0.02 10.96c0,0.48 -0.16,1.59 -0.17,1.99 -0.02,0.42 0.02,1.46 -0.3,2.08 -16.93,-11.64 -27.15,-26.78 -42.64,-41.4 -7.83,-7.38 -7.85,-13.21 -16.79,-18.73 -12.42,-7.66 -14.61,-12.39 -26.34,-22.87 -4.55,-4.06 -6.46,-7.05 -11.61,-11.26 -4.2,14.28 -5.96,29.03 -14.64,39.42 -0.65,-0.74 -2.27,-1.98 -1.51,-2.54l-2.98 -10.13c-0.48,-13.43 11.33,-23.87 2.63,-35.66l-3.02 20.97c-24.74,-5.22 -8.24,-14.1 -28.83,-23.74 -10.36,-4.86 -18.66,-5.4 -26.11,-1.94l0 12.46c2.1,-1.22 4.79,-3.01 9.6,-4.63 5.05,11.94 2.31,15.63 11.4,22.83 0.42,0.32 1.34,0.83 1.93,1.36 0.19,7.22 0.09,16.2 1.93,22.53l2.31 5.72c4.52,14.71 -1.17,13.81 3.3,32.55 3.06,12.79 0.17,13.52 -6.81,21.21l4.56 4.61c3.28,4.21 -0.11,-3.96 2.09,3.58l-12.2 24.49c-4.18,9.3 -8.29,18.4 -11.84,25.54 -0.08,-0.05 -4.07,-2.27 -4.66,-2.33 -0.69,-0.08 -1.21,-0.16 -1.61,-0.22l0 40.72 0.02 0.04 0 0.02zm0 155.94c47.87,-24.78 32.9,-82.04 0,-98.81l0 21.39c8.81,7.65 13.29,21.16 10.01,34.2 -1.85,7.35 -5.37,13.47 -10.01,18.36l0 24.87 0 -0.01 0 0zm0 -227.29c9.17,0.24 16.51,0.1 20.39,-0.88 -6,-8.02 -10.28,-8.36 -20.39,-8.13l0 9 0 0.01zm0 -527.85c36.66,0.09 75.32,-2.52 81.07,-6.59l8.83 -10.02c22.03,0 2.36,-0.92 10.9,4.93 -1.34,-10.02 4.51,-29.28 8.2,-40.49l10.17 0 -0.55 21.87 44.77 3.37 -43.1 3.58c-0.21,2.49 -0.28,12.05 -0.29,12.83l-2.79 13.26c9.16,10.54 6.81,-2.61 12.13,13.66 6.83,20.87 -9.28,38.71 -42.04,23.05 -0.13,40.78 -15.39,119.18 -17.57,154.49 12.01,-3.8 13.26,-2.78 25.65,-2.78 7.61,-7.62 4.55,-3.8 5.45,-16.44 5.4,7.56 3.87,12.94 0,23.35 -12.76,2.02 -14.83,0.14 -24.78,0.43l-7.99 0.85c3.66,29.66 7.67,136.34 -1.74,166.72 -3.29,10.62 -3.72,11.26 2.84,18.98 1.02,-20.51 44.44,-174.43 54.21,-214.59 5.69,-23.39 11.52,-51.34 20.89,-72.82 -0.75,0.54 -2.67,1.42 -2.13,1.76 0.03,0.02 -19.4,18.98 -27.84,21.6 7.44,-21.61 27.27,-24.72 34.55,-47.4 -6.41,-9.26 0.77,3.46 -6.48,-6.11 -6.82,-9 -4.27,0.45 -5.06,-14.28 15.15,6.16 5.32,2.85 14.89,12.47 2.28,-21.93 12.51,-47.17 18.83,-70.01l-0.28 -41.17c-8.19,-20.4 -4.68,-32.64 -41.78,-59.48 -23.07,-16.68 -15.19,-4.39 -22.13,-38.18 -4.32,-21.02 -6.06,-28.19 -5.05,-51.17 -35.45,-37.87 -15.28,-42.66 -22.8,-79.71 -6.02,-29.67 -33.89,-58.59 -51.57,-22.31 -9.8,-6.19 -5.57,-1.31 -10.84,-3.61 -11.85,-5.17 3.78,-3.13 -7.19,-5.7 -0.99,-0.23 -0.91,-1.19 -1.46,-1.7 -2.31,4.63 -4.01,8.33 -7.92,9.51l0 10.33 18.89 2.22c-4.14,7.45 0.45,1.83 -6.27,4.87l-10.99 4.48c6.26,0.48 21.57,2.24 26.82,6.73 6.48,5.54 3.12,-0.83 4.43,9.78 -5.56,2.47 -20.96,4.33 -32.89,3.58l0 9.06 29.78 -0.69c6.18,-9.5 -3.11,-6.16 10.93,-11.37 9.66,9.09 9.17,11.62 8.5,25.87 -0.41,8.74 -0.45,2 0.28,10.23l-0.6 6.59c14.11,0 12.66,-1.53 26.61,-4.77 1.13,-0.26 2.28,-0.55 3.44,-0.7l8.19 24.57c-15.4,0.14 -16.6,4.23 -32.55,0.71 -7.14,-1.57 3.4,-4.43 -12.39,-1.12 -29.26,6.12 -16.93,-1.91 -31.31,-2.65 -16.27,-0.83 -6.98,3.3 -9.81,6.3 -0.4,0.43 -0.76,0.83 -1.08,1.22l0 20.12c3.11,0.31 5.8,0.5 7.84,0.56 20.05,0.5 43.58,-4.25 58.67,-12.13 10.22,-5.34 6.09,-5.73 16.39,-11.05 5.55,27.22 2.46,5.75 1.67,31.13 -9.57,0.31 -22.9,-1.17 -29.07,2.52 7.04,3.8 -8.31,-4.74 5.11,1.87 4.49,2.21 3.22,1.43 6.7,4.15l28.14 34.57c-0.63,0.39 -2.37,0.91 -1.91,1.11 0.45,0.2 -1.48,0.89 -1.84,1.18 -0.36,0.28 -1.3,0.89 -1.71,1.24l-6.54 7.84 -67.46 0.44c-8.54,2.13 -5.56,0.97 -9.98,5.02l4.77 3.7c0.36,0.11 1.22,0.39 1.63,0.46l78.6 -1.31c9.14,3.21 4.26,2.69 6.76,7.07l3.01 -5.57c1.66,-3.1 -2.26,-3.57 0.94,-1.64l5.46 36.15c-39.09,6.99 -53.32,-9 -69.9,6.05 -7.31,6.63 -17.64,22.95 -36.02,8.05 -0.48,-0.39 -0.9,-0.74 -1.27,-1.05l0 52.17 0.01 -0.03 0.02 0z"/>
       <path class="fil9" d="M2422.32 1334.54c-10.87,-7.85 -61.81,-2.94 -78.43,-1.71l-0.69 143.78c5.3,9.73 -5.04,6.46 30.76,6.46 0.93,-29.24 -0.13,-29.64 9.43,-52.62 14.87,6.11 14.88,38.95 14.32,55.33 29.33,-13.07 23.89,-14.54 25.06,-64.34 0.42,-17.73 2.33,-73.2 -0.46,-86.91l0 0 0.01 0z"/>
      </g>
      <path class="fil10" d="M2148.01 1769.68c-11.71,2.16 -3.27,-0.7 -6.5,3.75l-1.29 6.1c-14.09,-8.8 -11.08,-4.56 -27.31,-2.69l-0.02 -8.2c-7.9,1.87 -19.11,10.88 -35.87,6.02l-1.45 -61.83c20.28,1.27 38.67,0.78 59.19,1.11 19.4,0.33 39.57,2.38 51.9,-5.48 -7.94,-9.51 -0.41,-5.11 -13.5,-8.02l-41.13 0.65c-17.59,0.55 -35.26,-1.15 -51.39,0.71 0.96,-9.76 7.18,-54.28 10.17,-62.28 0.67,-1.82 4.63,-8.98 4.76,-9.52 3.69,-14.82 0.23,15.81 -1.33,-9.04 -0.4,-6.36 2.69,-21.43 5,-26.31 8.48,-0.12 16.76,1.57 25.03,0.85 16.61,-1.48 6.91,-0.41 13.16,-4.83l8.27 20.54c3.58,-2.02 11.64,-5.5 16.39,-7.59 6.41,3.55 35.87,20.3 37.97,23.33 8.32,11.99 -1.26,32.82 2.91,43.27 -0.42,0.29 -1.24,0.46 -1.44,0.51 -0.19,0.03 -1.13,0.36 -1.34,0.39 -0.17,0.02 -1,0.17 -1.17,0.18l-2.68 -1.07c0.18,10.1 0.14,15.72 -2.81,21.88 -0.81,-5.37 8.81,-7.4 17.16,-9.95 -14.03,22.7 -8.21,12.73 -26.72,23.63 7.52,9.35 -11.57,8.17 16.39,8.17l-7.01 5.48c0.29,0.24 -0.87,8.27 10.54,3.49 -3.31,2.42 -6.22,2.31 -7.05,9.51l1.39 29.88c2.58,5.53 5.34,4.69 0.52,11.81 -7.33,-1.97 2.67,-2.38 -11.82,-4.63l-38.92 0.19 0.01 0 -0.01 -0.02zm-182.38 236.02l0 -2.83c0.39,1.19 0.94,2.39 1.68,3.61 -0.52,-0.21 -1.08,-0.47 -1.68,-0.78l0 0zm0 -15.43l0 -334.21c1.89,-0.63 3.7,-1.29 5.45,-1.99 5.44,-2.17 15.93,-10.63 20.77,-14.8 36.06,-31.04 28.83,-69.71 17.37,-105.72 15.25,10.67 3.21,3.37 7.9,-0.02 -0.22,-6.79 -1.53,-1.65 8.49,-13.66 5.49,-6.59 -6.72,0.14 2.58,-2.76 0.11,0.05 10.74,4.11 11.38,4.2 10.81,1.44 12.89,-1.71 15.94,-4.18 -3.89,-7.13 -0.82,-4.74 -9.32,-8.24 -12.74,-5.25 -10.58,-0.3 -11.28,0.02 8.08,-2.11 15.32,0.01 26.05,0.01 0,-20.76 -1.63,-22.61 -8.24,-39.97 -9.07,-23.81 -13.52,-14.22 -24.55,-20.14 -1.46,-18.96 -2.6,-34.73 2.74,-54.7l32.8 1.54 -0.05 94.15c-0.14,10.11 -1.36,17.03 1.93,24.1 5.11,10.98 -4.52,-0.96 4.28,5.43 -1.95,1.48 1.28,-0.93 -1.46,0.04l-7.42 3.22c0.77,14.46 -2.98,11.54 7.37,17.93 1.8,1.11 16,5.37 18.62,6.42l16.81 5.39c5.06,1.33 15.71,12.39 28.41,8.15 10.61,-3.55 3.41,1.18 10.74,-6.78 -15.13,-4.43 14.58,-6 -7.73,-4.38 -4.17,0.31 -3.05,4.45 -3.2,3.02l-45.95 -20.12c-0.5,-0.28 -1.24,-0.63 -1.7,-0.93 -1.59,-1.05 -5.2,-1.07 -5.98,-8.04 6.04,1.02 2.28,0.51 7.07,2.96l24.72 10.72 2.78 -6.37c1.96,-2.54 4.68,-4.69 8.16,-7.25 5.89,5.81 3.73,7.69 8.19,13.19l1.95 -5.49c2.77,-3.58 -6.02,-0.21 7.19,-4.02 19.35,-5.57 25.85,-6.73 45.13,-3.25 1.49,0.28 10.94,2.05 11.87,2.06 1.3,0.01 3.98,-0.12 5.05,-0.31 7.93,-1.39 1.85,1.25 7.87,-2.89 -2.22,-12.04 1.61,-10.13 -10.76,-12.71l10.51 0.33c0.37,0.03 1.19,0.21 1.56,0.24 10.16,0.87 8.67,-0.78 15.25,-12.1 -61.46,0.34 -44.33,-18.88 -61.28,14.54l-15.29 -0.1c-0.19,-24.95 -3.01,-7.79 -9.48,-20.62 -2.89,-5.71 -1.98,-20.9 -1.48,-29.71 8.31,-6 16.93,-11.81 25.83,-10.28 16.26,2.83 -11.48,4.91 13.71,2.93 11.22,9.71 -5.31,14 24.23,16.19 -0.19,-30.84 -1.51,-63.21 -0.17,-93.58 1.82,-41 -7.45,-72.52 12.38,-78.69 5.67,17.49 0.52,57.64 2.76,70.51l2.26 7.25c0.22,0.61 0.61,1.57 1.06,2.26 6.6,-9.38 5.21,-21.03 10.93,-31.91l19.11 -0.74c10.82,19.31 0.7,30.26 13.67,31.79 5.17,-24.98 -4.29,-54.24 3.69,-79.07 11.76,2.6 -0.41,-0.17 11.6,7.52 3.85,51.91 0.42,98.02 0.26,147.7l1.33 15.85c0.18,0.78 0.59,1.73 0.76,2.33 0.17,0.61 0.48,1.57 0.83,2.29l14.31 0.57c10.05,3.44 4.14,0.29 10.93,8.93 -31.62,0 -26.78,-3.36 -39.29,-2.98 -12.62,0.39 -31.62,-20.77 -38.94,-30.43l72.38 74.44c-3.48,4.14 1.05,1.05 -5.81,3.89 -8.06,3.35 -1.86,0.24 -1.99,-0.43 5.67,7.62 4.39,10.73 3.32,21.13 9.6,7.93 5.25,1.42 2.88,12.54 12.15,3.36 4.96,-1.83 10.2,9.52 10.95,-3.21 2.33,-1.94 7.61,-3.43 0.45,-0.13 1.25,-0.35 1.68,-0.43l3.12 -0.1c0.37,0.02 1.15,0.19 1.52,0.23l6.62 1.28c0.52,0.11 1.45,0.28 1.94,0.39l4.2 1.14c-0.42,0.09 1.56,0.31 2.22,0.72l-18.77 3.87c-6.42,1.04 -11.77,1.94 -18.03,3.61 13.06,14.68 -6.44,14.86 28.37,23.26 6.2,1.49 15.8,4.84 22.19,5.46 8.75,0.84 6.73,-3.39 9.92,-2.13 0.07,0.03 0.48,0.34 0.55,0.39l78.01 26.07c-1.99,-12.24 -4.8,-19.55 5.47,-24.81 3.19,3.25 3.21,9.01 3.4,12.91 0.29,5.88 0.04,13.27 0.36,19.71 11.87,2.22 15.78,4.77 29.02,5.46 0,-24.18 0.81,-140.61 -13.84,-147.11 -0.08,-0.04 -0.65,-0.11 -0.74,-0.15 -3.18,-1.41 -15.6,-10.51 -25.88,-10.09l-16.61 -0.43c-0.4,-0.06 -1.22,-0.14 -1.61,-0.2 -8.18,-1.29 -5.65,1.93 -9.11,-4.08 5.74,-15.1 0.13,-4.38 7.69,-9.74l8.05 9.37c6.37,-13.04 4.98,-217.72 3.98,-248.94l20.67 -1.47 1.96 248.84c7.45,5.65 20.48,7.7 20.69,17.43l0.84 -127.27c11.67,5.4 10.82,7.34 14.18,23.35 2.25,10.72 3.28,19.21 3.16,31.76 -0.24,24.63 -0.09,49.24 -0.11,73.87 -0.04,47.33 -2.47,100.57 0.23,147.18 2.5,0.45 6.88,1.43 12.83,2.85l0 29.22 -211.54 0c-3.63,-2.21 -7.47,-4.54 -11.57,-6.99 -16.31,-9.83 -40.68,-4.42 -63.01,-2.63 -0.77,47.09 4.09,200.75 -2.54,233.7 -7.4,-1.73 -6.08,4.07 -4.87,-26.02 0.6,-14.81 -0.61,-13.22 4.57,-24.57l2.99 -5.52c-11.45,-4.38 -5.09,-5.26 -12.96,-14.44 -4.79,-5.59 -10.02,-7.85 -14.37,-12.9 -2.99,0.83 -8.98,3.83 -9.48,3.92 -0.11,0.02 0.3,2.78 -1.68,-1.93l-28.14 1.63c6.34,20.79 6.17,15.5 1.07,16.76 0.32,-0.17 4.43,7.28 -0.02,-9.46l-46.85 1c-0.27,-1.48 -1.13,-2.54 -0.5,-2.86l-2.29 -17.74c-1.02,-12.42 1.11,-15.93 3.19,-26.87 -17.82,4.97 -13.84,2.37 -30.04,2.1l-2.59 44.33c-5.28,-6.45 -7.57,-17.61 -9.85,-25.88l-8.09 -47.91c-2.53,-1.27 -4.15,3.13 -9.53,-7.1l-1.93 5.75c-3.64,7.09 7.55,-3.56 -2.52,3.74 -8.09,5.87 -22.12,-16.4 -22.12,-16.41 -1.74,-2.44 -3.58,-4.72 -5.44,-7.07 -5.05,8.65 -1.27,5.45 -16.5,5.36l-19.03 95.14 86.73 0.05c14.67,2.04 4.97,-1.34 10.78,5.28l-5.91 3.1c-0.72,0.23 -1.48,0.51 -2.31,0.72 -2.17,0.56 -10.45,1.33 -13.46,1.41 -22.19,0.59 -57.5,-1.83 -76.53,0.24l-10.88 125.83c-0.24,6.49 -1.65,11.78 -2.57,16.52l0.06 0.02 -0.02 -0.04z"/>
      <path class="fil11" d="M1965.63 3106.47c1.92,0.09 4.57,0.84 10.71,4.57 9.95,6.04 22.04,12.31 23.15,23.37 -9.47,0.29 -23.46,-6.53 -33.86,-10.67l0 13.13c27.48,7.39 62.02,48.46 51.54,102.84 -5.19,26.91 -19.96,22.03 -14.11,49.47l255.38 -43.03c9.49,-41.35 24.02,-109.4 1.39,-142.66l-239.67 -8.93c0.32,-70.05 4.84,-150.93 8.7,-221.52 8.33,-152.13 10.05,-279.84 23.02,-434.26l17.19 -210.87c-10.6,15.94 1.78,4.63 -13.56,10.91 3.02,-15.19 2.66,-30.78 2.9,-46.47 0.26,-17.28 0.97,-25.37 -5.5,-38.19 -0.67,0.55 -1.59,1.15 -2.07,1.56 -0.47,0.39 -1.44,1.04 -1.96,1.52 -0.48,0.43 -1.28,0.99 -1.74,1.47 -0.81,0.83 -2.45,2.48 -3.08,4.28 -2.84,8.08 5.28,3.92 -1.35,27.96l-1.19 4.4c-4.78,22.06 -5.47,26.5 -0.61,41.02l2.62 7.47c-0.69,0.37 0.48,1.62 0.96,2.31 2.99,-2.42 -1.96,-3.15 10.6,-1.83l-22.07 26.96c-0.63,0.95 -5.14,7.73 -5.58,8.22 -6.59,7.31 0.98,0.8 -6.2,4.87 -7.13,4.05 -5.51,0.93 -11.33,6.39 -8.94,0.39 -11.86,4.44 -22.48,4.05 -8.75,-0.33 -14.59,-0.9 -21.78,-1.01l0 812.66 -0.02 -0.01 0 0.02z"/>
      <path class="fil12" d="M2160.15 1384.56l12.61 0.03 2.09 -24.6c11.37,-7.59 12.43,-3.18 13.14,-23.07 0.71,-20.05 3.53,-90.78 -4.2,-100.71 -8.4,-11.3 -22.94,-9.46 -33.36,-0.66 -6.54,11.65 -1.31,24.07 -4.02,37.46 -0.54,-16.44 -0.71,-35.6 -0.51,-54l-6.81 0 -1.78 -257.24c-4.96,-4.13 -8.9,-7.17 -10.83,-8.34 -2.46,5.65 -6.25,27.75 -8.92,38.57 -3.25,13.18 -5.86,24.72 -9.93,39.12 -11.54,40.89 -23.21,79.51 -31.57,121.9l-12.08 36.37c-3.93,13.3 -7.27,25.43 -11.39,37.83 -3.52,10.57 -1.5,10.64 -2.71,20.33 -2.25,18.08 6.57,-13.13 -1.25,4.31l-4.51 8.29c1.11,1.09 4.81,4.38 5.79,5.39l16.52 16.34c25.08,21.7 -5.07,11.6 31.19,34.48l14.91 12.43c11.02,9.24 12.46,14.27 21.05,20.16 3.05,-9.35 5.6,-8.41 9.39,-20.45l4.57 5.54c10.98,17.01 -4.35,9.61 13.81,21.37l8.91 5.88c0,19.36 -0.87,19.45 -10.93,21.31l0.81 1.94 -0.02 0.01 0.03 -0zm-23.26 -486.82l-5.54 22.53c-1.05,6.19 2.72,9.48 -4.79,14.57 -3.36,-2.87 1.05,-5.09 10.51,-12.14l-0.17 -24.96 0 0 -0.01 0zm0.26 37.91l-6.72 7.4c1.81,2.76 4.13,5.78 6.82,8.96l-0.11 -16.36 0 0 0.01 -0z"/>
      <path class="fil13" d="M1965.63 2293.8c7.19,0.11 13.04,0.68 21.79,1.01 10.63,0.39 13.54,-3.66 22.48,-4.05 5.42,-21.33 12.7,-1.79 5.24,-34.05 -2.39,-10.33 -5.26,-28.15 -8.8,-36.49 -6.87,0.93 -4.28,-0.14 -8.64,4.29 -0.02,0.02 -3.47,5.71 -3.84,6.96 -1.82,6.14 -1.25,14.5 -1.07,20.99 0.48,17.28 -0.35,29.55 -1.82,36.46 -10.87,1.52 -19.22,3.13 -25.33,1.45l0 3.43 -0.01 0zm0 -139.89c30.01,-1.28 64.18,3.09 87.3,0.23 6.46,12.83 5.77,20.91 5.5,38.19 -0.23,15.69 0.13,31.28 -2.9,46.47 15.33,-6.28 2.95,5.03 13.56,-10.91l8.8 -103.86 -25.11 -17.86c-6.24,8.69 2.24,-11.73 -0.51,3.7 -2.5,14.06 -2.68,2.96 -0.77,14.83l1.02 7.22c0.33,4.01 0.21,8.92 0.28,13.01 -17.3,2.7 -61.76,3.87 -87.16,2.22l0 6.73 0 0.02 0 0.01zm0 -110.52c27.56,-2.31 82.54,-2.5 101.37,-1.96 -3.01,8.23 -11.67,47.19 -10.17,54.55 0.1,0.5 0.36,1.26 0.52,1.74 0.22,0.67 4.15,8.06 4.56,8.76 8.33,14.51 10.13,11.9 16.54,14.15l5.16 -84.42c-27.69,-3.81 -78.43,0.78 -96.45,-0.19l-21.53 -2.06 0 9.43 0 -0.01 0 0.01z"/>
      <path class="fil14" d="M2082.83 869.46l2.79 -13.26c0.02,-0.78 0.09,-10.34 0.29,-12.83l43.1 -3.58 -44.77 -3.37 0.55 -21.88 -10.17 0c-3.69,11.22 -9.54,30.48 -8.2,40.49 -2.87,7.62 -1.31,4.18 -4.81,9.23l-14.31 15.52c-28.13,0.41 -19.29,-5.16 -31.13,-8.72l-50.56 -0.05 0 190.88c4.63,0.09 9.17,0.21 13.48,0.31 30.2,0.67 27.02,8.5 28.1,-20.78l4.59 17.36c18.46,0.49 9.31,1.4 12.79,-4.83l9.28 -102.7c3.51,-52.58 -4.34,-49.11 14.03,-65.23l10.97 -10.41c8.13,-5.98 14,-5.58 23.96,-6.17l0.01 0.02 0.01 0z"/>
      <path class="fil15" d="M1965.63 1656.06c1.89,-0.63 3.7,-1.29 5.45,-1.99 5.44,-2.17 15.93,-10.63 20.77,-14.8 36.06,-31.04 28.83,-69.71 17.37,-105.72 -7.52,-9.51 -23.7,-26.61 -33.87,-31.83 -3.17,-1.62 -6.42,-2.94 -9.72,-3.96l0 25.29c32.91,16.78 47.87,74.03 0,98.81l0 34.2 0 0.01 0 -0.02zm0 -59.08c4.63,-4.88 8.17,-11.01 10.01,-18.36 3.28,-13.04 -1.19,-26.55 -10.01,-34.2l0 52.56zm0 -112.31c11.18,4.5 21.89,9.78 34.9,10.85 -1.91,-15.69 -20.51,-25.33 -34.9,-29.61l0 18.76z"/>
      <path class="fil16" d="M1965.63 3297.44c0.69,5.57 0.4,10.8 0,15.39l0 14.47c1.22,2.73 4.18,3.7 10.65,2.27 12.63,-2.79 -0.36,-34.67 11.53,-46.43 9,-8.92 2.88,-11.36 8.07,-1.53 2.31,-3.27 1.3,0.84 2.86,-6.93 2.03,-10.13 -1.76,-9.37 -0.09,-21.31 3.64,4.95 1.79,-1.9 2.55,8.06 0.42,5.48 -0.57,5.6 -0.88,10.75 -0.43,7.04 -1.04,11.01 2.76,16.98 -5.85,-27.44 8.93,-22.56 14.11,-49.46 10.47,-54.38 -24.06,-95.45 -51.54,-102.84l0 26.36c31.58,14.42 43.45,63.5 19,84.54 -7.56,6.51 -13.54,11.3 -19,14.83l0 34.86 -0.01 0 -0.01 -0.01zm0 -63.41c0.72,-0.94 1.39,-1.9 1.96,-2.85 12.22,-20.5 7.47,-36.52 -1.96,-45.67l0 48.52zm0 -110.3c10.4,4.14 24.39,10.97 33.86,10.67 -1.11,-11.07 -13.2,-17.33 -23.15,-23.37 -6.14,-3.74 -8.8,-4.48 -10.71,-4.57l0 17.28 0 -0.01z"/>
      <path class="fil17" d="M1965.63 1245.38c2.5,0.14 5.11,0.32 7.84,0.57 -0.69,-11.63 -6.19,-51.22 2.8,-57.38 3.18,7.98 2.24,45.36 0.8,55.88 11.47,0.29 31.64,-0.51 40.55,1.57l-3.38 -3.66c-17.12,-18.82 -28.81,-25.59 -30.2,-36.56 9.78,2.15 15.11,8.91 20.78,14.81 9.9,10.32 8.77,13.75 20.09,20.39 -4.98,-31.33 4.38,-143.83 -3.44,-159.89l-23.27 -1.48c-7.62,0.61 -20.21,0.88 -32.59,1.31l0 164.43 0.02 0 0.01 0.01z"/>
      <path class="fil18" d="M2077.89 2124.05l0.57 -3.41c-6.42,-2.24 -8.21,0.37 -16.54,-14.15 -0.41,-0.71 -4.34,-8.09 -4.56,-8.76 -0.16,-0.48 -0.42,-1.25 -0.52,-1.74 -1.51,-7.36 7.15,-46.32 10.17,-54.55 -18.83,-0.53 -73.81,-0.35 -101.37,1.96l0 103.79c25.4,1.65 69.86,0.48 87.16,-2.22 -0.06,-4.1 0.06,-9 -0.28,-13.01l-1.02 -7.22c-1.91,-11.87 -1.72,-0.78 0.78,-14.83 2.74,-15.44 -5.74,4.98 0.51,-3.7l25.11 17.86 -0.01 -0.01 -0 -0z"/>
      <path class="fil19" d="M1965.63 3262.58c5.47,-3.52 11.43,-8.31 19,-14.82 24.45,-21.04 12.59,-70.14 -19,-84.54l0 22.31c9.43,9.14 14.19,25.17 1.96,45.67 -0.57,0.96 -1.24,1.91 -1.96,2.85l0 28.55 0 -0.01 0 -0.01z"/>
     </g>
     <g>
      <g>
       <path class="fil5" d="M1923.05 2291.09c-5.83,-5.45 -4.21,-2.33 -11.34,-6.39 -7.18,-4.07 0.38,2.43 -6.2,-4.88 -0.45,-0.49 -4.95,-7.27 -5.59,-8.22l-22.07 -26.98c12.56,-1.31 7.61,-0.58 10.6,1.83 0.46,-0.68 1.65,-1.94 0.95,-2.31l2.62 -7.47c4.85,-14.52 4.17,-18.96 -0.61,-41.02l-1.18 -4.4c-6.63,-24.04 1.49,-19.87 -1.35,-27.96 -0.63,-1.8 -2.27,-3.44 -3.08,-4.28 -0.47,-0.48 -1.26,-1.04 -1.74,-1.47 -0.52,-0.48 -1.5,-1.13 -1.96,-1.52 -0.48,-0.4 -1.41,-1 -2.07,-1.56 23.12,2.86 57.28,-1.52 87.3,-0.24l0 136.45c-6.11,1.68 -14.46,0.07 -25.33,-1.45 -1.48,-6.91 -2.29,-19.18 -1.82,-36.46 0.18,-6.5 0.75,-14.85 -1.07,-20.99 -0.37,-1.25 -3.83,-6.94 -3.84,-6.96 -4.37,-4.43 -1.78,-3.37 -8.64,-4.29 -3.53,8.33 -6.4,26.15 -8.79,36.48 -7.47,32.26 -0.19,12.72 5.23,34.05l-0.01 0.03 0 0.01z"/>
       <path class="fil5" d="M1937.07 3281.94c5.17,-9.83 -0.94,-7.38 8.07,1.53 11.89,11.77 -1.09,43.63 11.53,46.43 6.46,1.43 9.43,0.46 10.65,-2.27l0 77.3c-3.76,2.89 -2.93,7.98 -10.65,11.27 -9.02,-8.08 0.37,0 -5.76,-8.94 -6.87,-10.05 -8.8,-5.45 -10.36,-14.48l-3.47 -110.83 0 0 -0.02 -0.01zm30.24 31.22c-0.4,-4.58 -0.69,-9.83 0,-15.39l0 15.39z"/>
      </g>
      <g>
       <path class="fil6" d="M1505.98 1483.48l0.67 -116.39c-0.09,-23.77 -3.85,-28.76 3.98,-32.22 -2.78,13.7 -0.88,69.17 -0.46,86.91 1.17,49.8 -4.28,51.27 25.06,64.34 -0.56,-16.37 -0.56,-49.22 14.33,-55.33 9.56,22.98 8.5,23.37 9.43,52.62 35.8,0 25.46,3.28 30.76,-6.46l47.26 -1.23c-10.06,3.44 -4.15,0.29 -10.93,8.92 31.62,0 26.77,-3.36 39.29,-2.98 12.62,0.37 31.61,-20.78 38.94,-30.43l-72.36 74.44c3.47,4.14 -1.05,1.05 5.8,3.9 8.06,3.34 1.86,0.24 1.98,-0.43 -5.67,7.62 -4.39,10.72 -3.31,21.13 -9.6,7.93 -5.25,1.42 -2.89,12.54 -12.14,3.36 -4.96,-1.84 -10.2,9.52 -10.95,-3.21 -2.33,-1.94 -7.61,-3.43 -0.45,-0.13 -1.25,-0.35 -1.69,-0.43l-3.11 -0.1c-0.37,0.02 -1.15,0.19 -1.52,0.24l-6.62 1.28c-0.53,0.12 -1.45,0.28 -1.95,0.39l-4.2 1.14c0.42,0.09 -1.55,0.31 -2.21,0.72l18.77 3.87c6.42,1.03 11.78,1.94 18.04,3.61 -13.06,14.68 6.43,14.86 -28.37,23.25 -6.2,1.5 -15.8,4.84 -22.19,5.46 -8.75,0.84 -6.73,-3.39 -9.93,-2.13 -0.06,0.03 -0.48,0.34 -0.55,0.38l-78.01 26.07c1.99,-12.24 4.8,-19.55 -5.48,-24.81 -3.19,3.25 -3.21,9.01 -3.4,12.9 -0.29,5.88 -0.03,13.27 -0.35,19.7 -11.87,2.22 -15.78,4.78 -29.03,5.47 0,-24.19 -0.81,-140.62 13.84,-147.12 0.08,-0.03 0.65,-0.11 0.74,-0.15 3.19,-1.41 15.6,-10.51 25.89,-10.09l16.61 -0.43c0.4,-0.06 1.22,-0.14 1.61,-0.2 8.18,-1.3 5.65,1.93 9.11,-4.09 -5.74,-15.1 -0.14,-4.37 -7.69,-9.73l-8.05 9.37 0 0.02 0 -0.02z"/>
       <path class="fil6" d="M1820.05 1768.97l-0.02 8.2c-16.22,-1.87 -13.22,-6.1 -27.31,2.69l-1.29 -6.1c-3.22,-4.46 5.21,-1.6 -6.49,-3.76l-38.92 -0.19c-14.5,2.25 -4.5,2.66 -11.83,4.63 -4.81,-7.11 -2.07,-6.28 0.53,-11.81l1.39 -29.88c-0.83,-7.19 -3.73,-7.09 -7.05,-9.5 11.41,4.78 10.25,-3.25 10.54,-3.49l-7.01 -5.48c27.96,0 8.87,1.18 16.39,-8.17 -18.52,-10.91 -12.7,-0.93 -26.72,-23.63 8.35,2.55 17.98,4.59 17.16,9.95 -2.95,-6.14 -2.99,-11.78 -2.81,-21.87l-2.69 1.07c-0.17,-0.02 -0.99,-0.16 -1.17,-0.19 -0.2,-0.03 -1.16,-0.35 -1.33,-0.38 -0.2,-0.04 -1.02,-0.22 -1.44,-0.51 4.17,-10.45 -5.4,-31.28 2.91,-43.28 2.1,-3.02 31.57,-19.78 37.97,-23.32 4.75,2.1 12.82,5.57 16.39,7.59l8.27 -20.54c6.25,4.43 -3.44,3.35 13.16,4.83 8.27,0.74 16.56,-0.96 25.03,-0.83 2.31,4.88 5.4,19.95 5,26.31 -1.57,24.86 -5.02,-5.78 -1.33,9.04 0.14,0.54 4.09,7.7 4.76,9.52 2.98,8 9.21,52.53 10.17,62.28 -16.13,-1.85 -33.78,-0.15 -51.38,-0.71l-41.13 -0.65c-13.1,2.92 -5.57,-1.48 -13.51,8.02 12.33,7.87 32.5,5.8 51.9,5.48 20.52,-0.34 38.91,0.15 59.19,-1.11l-1.45 61.84c-16.76,4.85 -27.98,-4.15 -35.88,-6.02l0 -0.02 0.01 -0.01z"/>
      </g>
      <g>
       <path class="fil7" d="M1967.32 2034.3l-21.53 2.06c-18.02,0.97 -68.76,-3.61 -96.45,0.19l-19.88 -7.9c3.5,-23.46 18,-32.83 16.43,-63.25l-6.7 13.64c-14.9,-4.59 -21.2,-11.26 -36.68,-11.71 -16.13,-0.46 -19.28,-10.16 -35.72,-10.81 -29.36,-1.17 -45.09,-21.25 -50.58,-52.17 7.39,-1.73 6.08,4.07 4.87,-26.02 -0.6,-14.81 0.61,-13.22 -4.57,-24.57l-2.99 -5.52c11.45,-4.38 5.09,-5.26 12.95,-14.43 4.8,-5.59 10.03,-7.86 14.37,-12.9 2.99,0.83 8.99,3.83 9.48,3.92 0.11,0.02 -0.3,2.78 1.68,-1.92l28.14 1.63c-6.34,20.79 -6.17,15.5 -1.06,16.77 -0.33,-0.17 -4.43,7.27 0.02,-9.46l46.85 1c0.26,-1.48 1.13,-2.54 0.5,-2.86l2.3 -17.73c1.02,-12.42 -1.11,-15.93 -3.19,-26.88 17.83,4.98 13.84,2.38 30.04,2.1l2.59 44.34c5.29,-6.45 7.57,-17.61 9.85,-25.88l8.08 -47.91c2.54,-1.28 4.14,3.13 9.54,-7.11l1.93 5.75c3.64,7.08 -7.54,-3.56 2.52,3.74 8.09,5.88 22.12,-16.4 22.12,-16.41 0.57,-0.8 1.04,-1.45 1.61,-2.22l3.83 -4.85c5.05,8.65 1.27,5.45 16.5,5.37l19.03 95.13 -86.73 0.06c-14.67,2.04 -4.97,-1.34 -10.78,5.28l5.91 3.1c0.72,0.22 1.48,0.51 2.31,0.72 2.17,0.56 10.45,1.32 13.46,1.41 22.19,0.59 57.5,-1.83 76.53,0.24l10.88 125.82c0.24,6.49 1.64,11.78 2.57,16.53l0 12.6c-0.39,1.19 -0.94,2.39 -1.68,3.61 0.52,-0.21 1.08,-0.46 1.68,-0.78l0 28.28 0 -0.02 -0.04 0.03z"/>
       <path class="fil7" d="M1967.32 814.85c-0.36,0.31 -0.78,0.66 -1.27,1.05 -18.37,14.89 -28.71,-1.42 -36.01,-8.05 -16.57,-15.06 -30.81,0.94 -69.91,-6.05l5.46 -36.15c3.21,-1.93 -0.71,-1.46 0.94,1.64l3.01 5.57c2.51,-4.38 -2.37,-3.86 6.77,-7.07l78.6 1.31c0.41,-0.07 1.26,-0.35 1.62,-0.47l4.77 -3.7c-4.42,-4.05 -1.44,-2.87 -9.97,-5.01l-67.47 -0.44 -6.54 -7.84c-0.41,-0.35 -1.35,-0.97 -1.71,-1.24 -0.37,-0.29 -2.29,-0.97 -1.84,-1.17 0.46,-0.21 -1.3,-0.72 -1.92,-1.12l28.14 -34.57c3.48,-2.73 2.22,-1.94 6.7,-4.15 13.41,-6.6 -1.93,1.93 5.1,-1.87 -6.17,-3.67 -19.5,-2.21 -29.07,-2.51 -0.8,-25.37 -3.89,-3.9 1.67,-31.13 10.3,5.32 6.18,5.71 16.39,11.05 15.09,7.89 38.63,12.64 58.67,12.13 2.04,-0.05 4.74,-0.24 7.84,-0.56l0 120.33 0.02 0 0.01 0.02zm0 -140.45c-0.33,-0.38 -0.69,-0.78 -1.08,-1.21 -2.83,-2.99 6.45,-7.13 -9.81,-6.3 -14.38,0.74 -2.04,8.78 -31.31,2.65 -15.79,-3.3 -5.24,-0.45 -12.39,1.13 -15.95,3.52 -17.15,-0.57 -32.55,-0.7l8.19 -24.57c1.16,0.15 2.31,0.43 3.44,0.7 13.96,3.24 12.51,4.77 26.61,4.77l-0.6 -6.59c0.74,-8.24 0.69,-1.5 0.28,-10.24 -0.68,-14.26 -1.16,-16.78 8.5,-25.87 14.04,5.22 4.75,1.89 10.93,11.38l29.77 0.69 0 54.16 0.01 0 0.01 -0zm0 -63.22c-11.93,0.76 -27.33,-1.11 -32.89,-3.58 1.31,-10.61 -2.04,-4.23 4.43,-9.78 5.24,-4.48 20.56,-6.26 26.82,-6.72l-10.99 -4.48c-6.72,-3.05 -2.12,2.56 -6.27,-4.88l18.89 -2.22 0 31.67 0 0 0.01 -0.01z"/>
      </g>
      <path class="fil8" d="M1967.32 1081.27c-12.38,-0.43 -24.98,-0.7 -32.59,-1.31l-23.27 1.48c-7.82,16.07 1.54,128.56 -3.44,159.89 11.33,-6.64 10.2,-10.07 20.1,-20.39 5.68,-5.91 11,-12.67 20.78,-14.83 -1.38,10.97 -13.08,17.74 -30.2,36.56l-3.39 3.66c8.91,-2.07 29.09,-1.28 40.55,-1.57 -1.44,-10.52 -2.38,-47.9 0.8,-55.88 8.98,6.16 3.49,45.74 2.8,57.37 2.73,-0.25 5.35,-0.43 7.84,-0.57l0 10.09c-7.46,-3.46 -15.76,-2.91 -26.11,1.94 -20.57,9.64 -4.07,18.52 -28.83,23.74l-3.02 -20.98c-8.7,11.79 3.11,22.24 2.63,35.66l-2.98 10.13c0.77,0.57 -0.85,1.81 -1.51,2.53 -8.67,-10.38 -10.43,-25.15 -14.63,-39.43 -5.16,4.21 -7.07,7.2 -11.62,11.26 -11.73,10.48 -13.93,15.22 -26.34,22.87 -8.95,5.52 -8.97,11.35 -16.79,18.73 -15.48,14.62 -25.71,29.75 -42.64,41.4 -0.32,-0.63 -0.28,-1.66 -0.29,-2.08 -0.02,-0.4 -0.17,-1.52 -0.17,-1.99l0.02 -10.96c-0.11,-0.3 -2.72,-4.68 -2.8,-4.86 -2.56,21.57 3.9,65.25 -0.72,84.11 -6.08,-5.56 -3.41,-26.11 -3.37,-36.17 -0.65,-0.57 -1.68,-0.98 -2.27,-1.28 -0.57,-0.29 -1.53,-0.87 -2.22,-1.21 -0.66,-0.32 -1.47,-0.74 -2.16,-1.05 -9.54,-4.37 -1.46,2.61 -8.68,-3.27l0.81 -1.94c-10.06,-1.85 -10.93,-1.95 -10.93,-21.31l8.91 -5.88c18.17,-11.78 2.84,-4.37 13.82,-21.37l4.57 -5.54c3.78,12.04 6.34,11.09 9.39,20.45 8.58,-5.89 10.02,-10.91 21.05,-20.16l14.91 -12.43c36.25,-22.88 6.09,-12.78 31.18,-34.48l16.53 -16.35c0.98,-1.01 4.68,-4.29 5.79,-5.39l-4.51 -8.29c-7.83,-17.44 1,13.76 -1.25,-4.31 -1.2,-9.68 0.8,-9.76 -2.71,-20.33 -4.12,-12.39 -7.47,-24.52 -11.39,-37.82l-12.09 -36.37c-8.37,-42.38 -20.03,-81 -31.57,-121.9 -4.07,-14.4 -6.67,-25.93 -9.92,-39.12 -2.67,-10.81 -6.46,-32.93 -8.92,-38.57 -1.93,1.17 -5.88,4.21 -10.83,8.34l0.07 -9.77c2.68,-3.18 5.02,-6.2 6.82,-8.97l-6.72 -7.4 0.09 -12.95c9.46,7.05 13.87,9.28 10.51,12.15 -7.51,-5.1 -3.74,-8.39 -4.8,-14.57l-5.54 -22.53 0.24 -35.34c6.31,22.83 16.55,48.07 18.83,70 9.58,-9.61 -0.25,-6.3 14.89,-12.46 -0.79,14.72 1.76,5.26 -5.06,14.28 -7.24,9.57 -0.06,-3.16 -6.48,6.11 7.28,22.69 27.12,25.8 34.55,47.41 -8.44,-2.62 -27.87,-21.57 -27.84,-21.6 0.54,-0.34 -1.38,-1.23 -2.13,-1.76 9.37,21.48 15.2,49.43 20.88,72.82 9.77,40.17 53.19,194.09 54.21,214.59 6.57,-7.73 6.14,-8.37 2.85,-18.98 -9.42,-30.37 -5.4,-137.06 -1.75,-166.72l-7.99 -0.85c-9.95,-0.29 -12.02,1.59 -24.78,-0.43 -3.87,-10.41 -5.4,-15.78 0,-23.35 0.9,12.65 -2.16,8.83 5.45,16.44 12.4,0 13.64,-1.01 25.65,2.78 -2.18,-35.31 -17.44,-113.72 -17.57,-154.5 -32.76,15.66 -48.87,-2.18 -42.04,-23.05 5.31,-16.26 2.97,-3.12 12.13,-13.66 9.96,0.57 15.83,0.18 23.96,6.17l10.98 10.4c18.37,16.13 10.51,12.65 14.02,65.23l9.28 102.7c3.48,6.23 -5.67,5.33 12.8,4.83l4.59 -17.37c1.08,29.29 -2.1,21.45 28.1,20.78 4.31,-0.1 8.84,-0.21 13.47,-0.31l0 19.06 -0.03 0.01 0.06 0zm0 344.24l0 -30.63c-9.17,0.24 -16.5,0.1 -20.39,-0.87 6,-8.02 10.28,-8.36 20.39,-8.13l0 -117.63c-2.09,-1.22 -4.8,-3.02 -9.6,-4.63 -5.05,11.94 -2.31,15.63 -11.4,22.83 -0.42,0.33 -1.34,0.83 -1.93,1.36 -0.19,7.22 -0.1,16.2 -1.93,22.54l-2.32 5.72c-4.52,14.71 1.18,13.81 -3.3,32.55 -3.06,12.8 -0.17,13.52 6.81,21.21l-4.56 4.63c-3.29,4.2 0.11,-3.96 -2.09,3.58l12.21 24.49c4.18,9.3 8.28,18.4 11.83,25.54 0.08,-0.05 4.07,-2.26 4.66,-2.33 0.69,-0.08 1.21,-0.16 1.61,-0.21l0.01 0 -0.01 -0.02zm0 -554.19l0 -4.29c-36.66,0.09 -75.32,-2.52 -81.07,-6.59l-8.83 -10.02c-22.03,0 -2.36,-0.91 -10.9,4.92 2.87,7.62 1.31,4.18 4.81,9.22l14.32 15.52c28.13,0.42 19.29,-5.16 31.12,-8.72l50.56 -0.05 -0.01 0.02 0.01 -0.01z"/>
      <g>
       <path class="fil9" d="M1967.32 1466.24c-14.39,4.28 -32.98,13.92 -34.9,29.61 13.02,-1.07 23.72,-6.35 34.9,-10.85l0 13.07c-3.29,1.02 -6.54,2.34 -9.72,3.97 -10.16,5.22 -26.34,22.31 -33.87,31.82 -15.25,10.67 -3.21,3.37 -7.9,-0.02 0.22,-6.79 1.53,-1.65 -8.49,-13.66 -5.5,-6.59 6.71,0.14 -2.59,-2.76 -0.11,0.05 -10.73,4.11 -11.37,4.2 -10.8,1.44 -12.89,-1.72 -15.94,-4.19 3.89,-7.13 0.81,-4.73 9.32,-8.24 12.74,-5.25 10.58,-0.29 11.28,0.02 -8.09,-2.11 -15.33,0.02 -26.05,0.02 0,-20.76 1.63,-22.61 8.24,-39.97 9.07,-23.81 13.52,-14.22 24.55,-20.14 1.47,-18.97 2.6,-34.74 -2.73,-54.7l-32.8 1.54 0.04 94.16c0.14,10.11 1.36,17.02 -1.93,24.1 -5.1,10.98 4.52,-0.95 -4.28,5.44 1.95,1.48 -1.28,-0.93 1.47,0.04l7.42 3.22c-0.78,14.45 2.98,11.54 -7.37,17.93 -1.8,1.11 -16.01,5.37 -18.61,6.42l-16.82 5.39c-5.07,1.33 -15.72,12.39 -28.41,8.15 -10.61,-3.55 -3.41,1.17 -10.72,-6.78 15.13,-4.43 -14.58,-6 7.73,-4.38 4.17,0.3 3.05,4.45 3.2,3.02l45.95 -20.12c0.5,-0.28 1.24,-0.63 1.7,-0.93 1.59,-1.04 5.2,-1.07 5.98,-8.04 -6.04,1.02 -2.28,0.52 -7.07,2.96l-24.72 10.71 -2.78 -6.37c-1.97,-2.53 -4.67,-4.69 -8.16,-7.25 -5.89,5.81 -3.73,7.69 -8.19,13.19l-1.95 -5.49c-2.76,-3.58 6.02,-0.21 -7.19,-4.02 -19.35,-5.57 -25.85,-6.73 -45.13,-3.25 -1.49,0.26 -10.94,2.05 -11.88,2.05 -1.3,0.01 -3.98,-0.12 -5.05,-0.31 -7.93,-1.39 -1.86,1.25 -7.87,-2.89 2.22,-12.05 -1.61,-10.14 10.76,-12.72l-8.92 0.21 -1.59 0.12c-0.37,0.04 -1.19,0.21 -1.56,0.24 -10.16,0.88 -8.67,-0.78 -15.26,-12.1 61.46,0.34 44.33,-18.89 61.28,14.53l15.29 -0.1c0.19,-24.95 3.01,-7.79 9.49,-20.61 2.88,-5.72 1.97,-20.9 1.48,-29.71 -8.32,-6 -16.92,-11.82 -25.83,-10.28 -16.26,2.82 11.48,4.91 -13.7,2.93 8.77,-14.81 16.5,-12.85 36.22,-13.07l-0.75 -14.49c4.63,-18.86 -1.84,-62.52 0.72,-84.11 0.07,0.19 2.69,4.56 2.79,4.86l-0.02 10.96c0,0.47 0.16,1.59 0.17,1.99 0.02,0.42 -0.03,1.45 0.29,2.09 16.93,-11.64 27.16,-26.79 42.64,-41.4 7.82,-7.39 7.85,-13.22 16.79,-18.74 12.42,-7.66 14.61,-12.39 26.34,-22.87 4.55,-4.06 6.46,-7.05 11.62,-11.26 4.2,14.28 5.96,29.04 14.63,39.43 0.66,-0.74 2.28,-1.98 1.51,-2.54l2.98 -10.13c0.48,-13.43 -11.33,-23.87 -2.63,-35.66l3.02 20.97c24.74,-5.22 8.24,-14.1 28.83,-23.74 10.35,-4.85 18.66,-5.4 26.11,-1.94l0 12.46c-2.09,-1.22 -4.8,-3.01 -9.6,-4.63 -5.05,11.94 -2.32,15.63 -11.4,22.83 -0.42,0.33 -1.34,0.83 -1.93,1.36 -0.19,7.22 -0.1,16.2 -1.93,22.53l-2.32 5.72c-4.52,14.71 1.18,13.81 -3.3,32.55 -3.06,12.79 -0.17,13.52 6.81,21.2l-4.56 4.63c-3.28,4.2 0.11,-3.96 -2.09,3.58l12.21 24.49c4.18,9.3 8.28,18.4 11.83,25.54 0.08,-0.05 4.07,-2.26 4.66,-2.33 0.69,-0.08 1.21,-0.16 1.61,-0.21l0 40.72 0 -0.01 0.02 0.05zm0 155.94c-47.87,-24.78 -32.9,-82.04 0,-98.81l0 21.39c-8.81,7.66 -13.29,21.16 -10.01,34.2 1.85,7.34 5.37,13.48 10.01,18.36l0 24.87 0 -0.01 0 0zm0 -227.28c-9.17,0.24 -16.5,0.1 -20.39,-0.88 6,-8.01 10.28,-8.36 20.39,-8.13l0 9 0 0.01zm0 -527.85c-36.66,0.09 -75.32,-2.52 -81.07,-6.59l-8.83 -10.02c-22.03,0 -2.36,-0.91 -10.9,4.93 1.34,-10.03 -4.51,-29.28 -8.2,-40.49l-10.17 0 0.55 21.87 -44.77 3.37 43.1 3.58c0.21,2.49 0.28,12.05 0.29,12.83l2.79 13.26c-9.16,10.54 -6.81,-2.61 -12.13,13.66 -6.83,20.87 9.29,38.71 42.04,23.05 0.13,40.79 15.39,119.19 17.57,154.5 -12.02,-3.8 -13.26,-2.78 -25.65,-2.78 -7.61,-7.62 -4.55,-3.8 -5.45,-16.44 -5.4,7.56 -3.87,12.94 0,23.35 12.76,2.02 14.83,0.13 24.78,0.43l7.99 0.85c-3.65,29.66 -7.67,136.34 1.75,166.72 3.29,10.62 3.72,11.26 -2.85,18.98 -1.02,-20.51 -44.44,-174.43 -54.21,-214.59 -5.69,-23.39 -11.52,-51.34 -20.88,-72.82 0.75,0.53 2.67,1.42 2.13,1.76 -0.04,0.02 19.4,18.98 27.84,21.6 -7.44,-21.61 -27.27,-24.72 -34.55,-47.41 6.41,-9.26 -0.77,3.47 6.48,-6.11 6.82,-9 4.27,0.45 5.06,-14.27 -15.15,6.17 -5.31,2.85 -14.89,12.46 -2.28,-21.93 -12.51,-47.17 -18.83,-70l0.28 -41.17c8.19,-20.4 4.68,-32.64 41.78,-59.48 23.07,-16.68 15.19,-4.39 22.13,-38.18 4.32,-21.02 6.06,-28.19 5.05,-51.17 35.45,-37.87 15.28,-42.66 22.8,-79.71 6.02,-29.67 33.89,-58.58 51.57,-22.31 9.8,-6.19 5.57,-1.31 10.85,-3.61 11.85,-5.17 -3.78,-3.13 7.19,-5.7 0.99,-0.23 0.92,-1.19 1.46,-1.7 2.31,4.63 4.01,8.33 7.92,9.51l0 10.33 -18.89 2.22c4.15,7.45 -0.45,1.83 6.27,4.88l10.99 4.48c-6.26,0.46 -21.57,2.24 -26.83,6.72 -6.48,5.54 -3.11,-0.83 -4.43,9.78 5.56,2.47 20.95,4.33 32.89,3.58l0 9.06 -29.78 -0.69c-6.17,-9.5 3.12,-6.16 -10.93,-11.37 -9.65,9.09 -9.17,11.61 -8.5,25.87 0.42,8.74 0.45,2 -0.28,10.23l0.6 6.59c-14.11,0 -12.66,-1.53 -26.62,-4.77 -1.13,-0.26 -2.28,-0.55 -3.44,-0.7l-8.19 24.57c15.4,0.13 16.6,4.22 32.55,0.7 7.14,-1.57 -3.4,-4.43 12.39,-1.13 29.26,6.13 16.93,-1.91 31.31,-2.65 16.26,-0.85 6.98,3.3 9.81,6.3 0.4,0.43 0.76,0.83 1.08,1.2l0 20.12c-3.11,0.31 -5.8,0.5 -7.84,0.56 -20.05,0.5 -43.59,-4.25 -58.68,-12.13 -10.22,-5.34 -6.09,-5.73 -16.39,-11.05 -5.55,27.22 -2.47,5.74 -1.67,31.12 9.57,0.31 22.9,-1.17 29.07,2.51 -7.04,3.8 8.31,-4.74 -5.1,1.87 -4.49,2.21 -3.22,1.42 -6.7,4.15l-28.14 34.57c0.63,0.39 2.37,0.91 1.91,1.12 -0.45,0.2 1.48,0.88 1.84,1.17 0.36,0.28 1.3,0.89 1.71,1.24l6.54 7.84 67.46 0.44c8.54,2.13 5.56,0.96 9.98,5.01l-4.77 3.7c-0.36,0.11 -1.22,0.39 -1.63,0.47l-78.6 -1.31c-9.14,3.21 -4.26,2.69 -6.76,7.07l-3.01 -5.57c-1.66,-3.1 2.27,-3.57 -0.94,-1.64l-5.47 36.15c39.09,6.99 53.33,-9 69.91,6.05 7.3,6.63 17.64,22.94 36.01,8.05 0.48,-0.39 0.9,-0.74 1.26,-1.05l0 52.18 -0.02 -0.01 0.01 0.02z"/>
       <path class="fil9" d="M1510.63 1334.86c10.87,-7.85 61.81,-2.94 78.43,-1.71l0.68 143.78c-5.3,9.74 5.04,6.47 -30.76,6.47 -0.93,-29.24 0.12,-29.63 -9.43,-52.62 -14.87,6.11 -14.87,38.95 -14.32,55.32 -29.33,-13.07 -23.89,-14.54 -25.06,-64.34 -0.42,-17.73 -2.33,-73.2 0.46,-86.91l0.01 0 -0.02 0.01z"/>
      </g>
      <path class="fil10" d="M1784.94 1770c11.7,2.16 3.27,-0.7 6.5,3.76l1.29 6.1c14.09,-8.79 11.08,-4.56 27.31,-2.68l0.02 -8.2c7.9,1.88 19.12,10.88 35.87,6.02l1.45 -61.84c-20.28,1.26 -38.67,0.77 -59.19,1.11 -19.4,0.33 -39.57,2.39 -51.9,-5.48 7.94,-9.51 0.41,-5.11 13.51,-8.02l41.12 0.65c17.6,0.56 35.26,-1.14 51.39,0.71 -0.96,-9.76 -7.18,-54.28 -10.17,-62.28 -0.67,-1.82 -4.63,-8.98 -4.76,-9.52 -3.69,-14.81 -0.24,15.82 1.33,-9.04 0.4,-6.35 -2.69,-21.43 -5,-26.31 -8.48,-0.12 -16.76,1.57 -25.03,0.83 -16.61,-1.48 -6.91,-0.41 -13.16,-4.83l-8.27 20.54c-3.58,-2.02 -11.64,-5.49 -16.39,-7.59 -6.41,3.55 -35.87,20.3 -37.96,23.32 -8.31,11.99 1.27,32.82 -2.92,43.27 0.42,0.3 1.25,0.47 1.44,0.51 0.17,0.04 1.13,0.35 1.33,0.38 0.18,0.03 1,0.17 1.17,0.19l2.69 -1.08c-0.19,10.09 -0.14,15.73 2.81,21.87 0.81,-5.36 -8.81,-7.4 -17.16,-9.95 14.03,22.7 8.21,12.73 26.73,23.63 -7.53,9.35 11.57,8.17 -16.39,8.17l7.01 5.48c-0.29,0.24 0.87,8.28 -10.54,3.49 3.31,2.41 6.22,2.31 7.05,9.5l-1.39 29.88c-2.59,5.52 -5.34,4.69 -0.52,11.81 7.33,-1.96 -2.67,-2.37 11.82,-4.63l38.92 0.19 0 0.02 -0.01 0.02zm182.38 236.02l0 -2.83c-0.39,1.19 -0.94,2.39 -1.68,3.61 0.52,-0.21 1.08,-0.46 1.68,-0.78l0 0zm0 -15.43l0 -334.21c-1.89,-0.63 -3.7,-1.3 -5.45,-1.99 -5.44,-2.18 -15.93,-10.63 -20.77,-14.8 -36.06,-31.04 -28.83,-69.71 -17.37,-105.73 -15.25,10.67 -3.21,3.37 -7.9,-0.02 0.22,-6.79 1.53,-1.65 -8.49,-13.66 -5.5,-6.59 6.72,0.14 -2.59,-2.76 -0.11,0.05 -10.74,4.11 -11.37,4.2 -10.8,1.44 -12.89,-1.72 -15.94,-4.19 3.88,-7.13 0.81,-4.73 9.31,-8.24 12.74,-5.25 10.59,-0.29 11.28,0.02 -8.09,-2.11 -15.33,0.02 -26.05,0.02 0,-20.76 1.62,-22.61 8.24,-39.97 9.07,-23.81 13.52,-14.22 24.55,-20.14 1.47,-18.96 2.6,-34.73 -2.73,-54.7l-32.8 1.54 0.04 94.16c0.14,10.11 1.36,17.02 -1.93,24.1 -5.1,10.98 4.52,-0.95 -4.28,5.44 1.95,1.48 -1.28,-0.93 1.46,0.04l7.42 3.22c-0.78,14.45 2.98,11.53 -7.37,17.93 -1.8,1.11 -16.01,5.37 -18.62,6.42l-16.81 5.39c-5.07,1.33 -15.72,12.39 -28.41,8.15 -10.61,-3.55 -3.41,1.17 -10.72,-6.78 15.12,-4.43 -14.58,-6 7.73,-4.38 4.17,0.3 3.05,4.45 3.2,3.02l45.95 -20.12c0.5,-0.28 1.24,-0.63 1.7,-0.93 1.59,-1.04 5.2,-1.07 5.98,-8.04 -6.04,1.02 -2.28,0.52 -7.07,2.96l-24.72 10.71 -2.78 -6.37c-1.96,-2.53 -4.67,-4.69 -8.16,-7.25 -5.89,5.81 -3.73,7.68 -8.19,13.18l-1.95 -5.49c-2.76,-3.57 6.02,-0.21 -7.19,-4.02 -19.35,-5.57 -25.85,-6.73 -45.12,-3.25 -1.49,0.27 -10.94,2.05 -11.88,2.05 -1.3,0.01 -3.98,-0.12 -5.05,-0.31 -7.93,-1.39 -1.86,1.25 -7.87,-2.89 2.22,-12.05 -1.61,-10.14 10.76,-12.72l-10.51 0.33c-0.37,0.03 -1.19,0.21 -1.56,0.24 -10.16,0.87 -8.67,-0.78 -15.26,-12.1 61.46,0.34 44.33,-18.88 61.28,14.54l15.29 -0.1c0.19,-24.95 3.01,-7.79 9.48,-20.62 2.89,-5.72 1.98,-20.9 1.48,-29.71 -8.31,-6 -16.91,-11.81 -25.83,-10.28 -16.26,2.83 11.48,4.91 -13.7,2.93 -11.22,9.71 5.31,14 -24.23,16.18 0.19,-30.83 1.51,-63.21 0.16,-93.58 -1.82,-41.01 7.45,-72.53 -12.37,-78.69 -5.68,17.49 -0.53,57.64 -2.77,70.51l-2.26 7.25c-0.22,0.63 -0.61,1.57 -1.06,2.27 -6.59,-9.38 -5.21,-21.03 -10.93,-31.91l-19.12 -0.74c-10.82,19.31 -0.7,30.26 -13.67,31.79 -5.17,-24.98 4.29,-54.24 -3.69,-79.07 -11.77,2.61 0.41,-0.17 -11.59,7.52 -3.85,51.92 -0.43,98.02 -0.26,147.7l-1.33 15.85c-0.18,0.78 -0.59,1.73 -0.76,2.33 -0.17,0.61 -0.48,1.57 -0.83,2.29l-14.3 0.57c-10.06,3.44 -4.15,0.29 -10.93,8.92 31.62,0 26.78,-3.36 39.29,-2.98 12.62,0.37 31.62,-20.78 38.94,-30.43l-72.37 74.44c3.47,4.14 -1.05,1.05 5.8,3.9 8.06,3.34 1.86,0.24 1.98,-0.43 -5.67,7.62 -4.39,10.72 -3.31,21.12 -9.6,7.93 -5.25,1.42 -2.89,12.54 -12.14,3.36 -4.96,-1.84 -10.2,9.52 -10.95,-3.21 -2.33,-1.94 -7.61,-3.43 -0.45,-0.12 -1.25,-0.35 -1.68,-0.43l-3.12 -0.1c-0.37,0.02 -1.15,0.19 -1.52,0.23l-6.62 1.28c-0.52,0.12 -1.45,0.28 -1.95,0.39l-4.2 1.14c0.42,0.09 -1.55,0.31 -2.2,0.71l18.76 3.87c6.42,1.04 11.78,1.94 18.04,3.61 -13.06,14.68 6.43,14.86 -28.37,23.25 -6.2,1.5 -15.8,4.84 -22.19,5.46 -8.75,0.84 -6.73,-3.39 -9.92,-2.13 -0.07,0.02 -0.48,0.34 -0.55,0.38l-78.01 26.07c1.99,-12.24 4.8,-19.55 -5.47,-24.81 -3.19,3.25 -3.21,9.01 -3.4,12.9 -0.29,5.88 -0.03,13.27 -0.35,19.71 -11.87,2.22 -15.78,4.78 -29.02,5.46 0,-24.18 -0.81,-140.61 13.84,-147.11 0.08,-0.03 0.65,-0.11 0.74,-0.15 3.18,-1.41 15.6,-10.51 25.88,-10.09l16.61 -0.43c0.4,-0.06 1.22,-0.14 1.61,-0.2 8.17,-1.29 5.65,1.93 9.11,-4.08 -5.74,-15.1 -0.13,-4.38 -7.69,-9.74l-8.05 9.38c-6.37,-13.05 -4.98,-217.73 -3.98,-248.94l-20.68 -1.46 -1.96 248.84c-7.45,5.65 -20.47,7.7 -20.69,17.43l-0.85 -127.27c-11.67,5.4 -10.82,7.34 -14.18,23.35 -2.25,10.72 -3.28,19.21 -3.16,31.76 0.24,24.63 0.09,49.24 0.11,73.87 0.04,47.33 2.47,100.57 -0.23,147.17 -2.5,0.45 -6.88,1.43 -12.83,2.85l0 29.22 211.54 0c3.63,-2.21 7.47,-4.53 11.56,-7 16.31,-9.83 40.69,-4.42 63.01,-2.63 0.77,47.09 -4.09,200.75 2.54,233.7 7.39,-1.73 6.08,4.07 4.88,-26.02 -0.6,-14.81 0.61,-13.22 -4.57,-24.57l-2.99 -5.52c11.45,-4.38 5.09,-5.26 12.95,-14.43 4.79,-5.59 10.02,-7.86 14.37,-12.9 2.99,0.83 8.99,3.83 9.48,3.92 0.11,0.02 -0.3,2.78 1.68,-1.91l28.14 1.63c-6.34,20.79 -6.17,15.5 -1.07,16.76 -0.32,-0.17 -4.43,7.27 0.02,-9.46l46.85 1c0.27,-1.48 1.13,-2.53 0.5,-2.86l2.3 -17.73c1.02,-12.42 -1.11,-15.93 -3.19,-26.88 17.83,4.98 13.84,2.38 30.04,2.1l2.59 44.34c5.29,-6.45 7.57,-17.61 9.85,-25.87l8.08 -47.91c2.53,-1.28 4.14,3.13 9.54,-7.11l1.93 5.75c3.64,7.09 -7.54,-3.56 2.52,3.74 8.09,5.88 22.11,-16.4 22.11,-16.41 1.74,-2.43 3.58,-4.72 5.44,-7.07 5.05,8.65 1.27,5.45 16.5,5.37l19.02 95.13 -86.73 0.06c-14.67,2.03 -4.96,-1.34 -10.78,5.28l5.92 3.1c0.71,0.22 1.48,0.51 2.31,0.72 2.18,0.56 10.45,1.33 13.46,1.41 22.19,0.59 57.5,-1.83 76.52,0.24l10.88 125.82c0.24,6.49 1.64,11.79 2.57,16.53l-0.02 -0.02 0 0.02z"/>
      <path class="fil11" d="M1967.32 3106.8c-1.92,0.09 -4.57,0.84 -10.71,4.57 -9.95,6.05 -22.04,12.31 -23.15,23.38 9.47,0.29 23.46,-6.53 33.86,-10.68l0 13.13c-27.48,7.39 -62.02,48.46 -51.54,102.84 5.19,26.91 19.97,22.02 14.11,49.46l-255.38 -43.02c-9.49,-41.35 -24.02,-109.4 -1.39,-142.66l239.68 -8.93c-0.32,-70.05 -4.84,-150.93 -8.72,-221.52 -8.33,-152.13 -10.05,-279.84 -23.01,-434.26l-17.19 -210.86c10.6,15.94 -1.78,4.63 13.56,10.91 -3.02,-15.17 -2.66,-30.76 -2.9,-46.46 -0.26,-17.28 -0.97,-25.37 5.5,-38.19 0.67,0.55 1.58,1.15 2.07,1.56 0.46,0.39 1.44,1.04 1.96,1.52 0.48,0.43 1.28,0.99 1.74,1.47 0.81,0.83 2.45,2.48 3.08,4.28 2.84,8.08 -5.28,3.92 1.35,27.96l1.19 4.4c4.78,22.06 5.47,26.5 0.61,41.02l-2.62 7.47c0.69,0.37 -0.48,1.62 -0.95,2.31 -2.99,-2.43 1.96,-3.15 -10.6,-1.83l22.07 26.98c0.63,0.95 5.14,7.73 5.59,8.22 6.59,7.31 -0.98,0.8 6.2,4.88 7.13,4.05 5.51,0.93 11.34,6.39 8.94,0.39 11.86,4.45 22.48,4.05 8.75,-0.32 14.59,-0.9 21.79,-1.01l0 812.67 0 -0.02 -0.02 -0.03z"/>
      <path class="fil12" d="M1772.8 1384.89l-12.61 0.04 -2.08 -24.6c-11.37,-7.6 -12.44,-3.18 -13.15,-23.07 -0.71,-20.05 -3.53,-90.78 4.2,-100.71 8.4,-11.3 22.94,-9.46 33.36,-0.66 6.54,11.65 1.31,24.07 4.02,37.46 0.54,-16.45 0.71,-35.6 0.51,-54.01l6.81 0 1.77 -257.24c4.96,-4.13 8.9,-7.17 10.83,-8.34 2.46,5.65 6.25,27.76 8.92,38.58 3.25,13.18 5.86,24.72 9.93,39.11 11.54,40.89 23.21,79.51 31.57,121.9l12.08 36.37c3.93,13.3 7.27,25.43 11.39,37.83 3.52,10.57 1.5,10.65 2.71,20.33 2.25,18.08 -6.57,-13.13 1.25,4.31l4.51 8.29c-1.11,1.09 -4.81,4.38 -5.79,5.39l-16.52 16.35c-25.09,21.7 5.07,11.6 -31.19,34.48l-14.91 12.43c-11.02,9.24 -12.46,14.27 -21.05,20.16 -3.05,-9.37 -5.6,-8.43 -9.39,-20.45l-4.57 5.54c-10.98,17.01 4.34,9.6 -13.83,21.37l-8.91 5.88c0,19.36 0.87,19.45 10.93,21.31l-0.81 1.94 0.01 -0.01 0 0.01zm23.27 -486.82l5.54 22.54c1.05,6.18 -2.72,9.47 4.79,14.57 3.36,-2.87 -1.05,-5.09 -10.51,-12.15l0.17 -24.96 0 0 0.01 0zm-0.26 37.9l6.72 7.4c-1.81,2.76 -4.13,5.78 -6.82,8.96l0.11 -16.37 -0.01 0.01z"/>
      <path class="fil13" d="M1967.32 2294.13c-7.19,0.11 -13.04,0.69 -21.79,1.01 -10.63,0.4 -13.54,-3.66 -22.48,-4.05 -5.42,-21.33 -12.7,-1.79 -5.24,-34.05 2.39,-10.33 5.26,-28.15 8.8,-36.48 6.87,0.91 4.28,-0.14 8.64,4.29 0.02,0.02 3.47,5.71 3.84,6.96 1.82,6.14 1.25,14.5 1.07,20.99 -0.48,17.28 0.34,29.55 1.82,36.46 10.87,1.52 19.21,3.13 25.32,1.45l0 3.43 0.01 -0.01 0.01 0zm0 -139.88c-30.01,-1.28 -64.18,3.1 -87.3,0.24 -6.46,12.82 -5.76,20.91 -5.5,38.19 0.23,15.7 -0.13,31.29 2.9,46.47 -15.33,-6.28 -2.95,5.03 -13.56,-10.91l-8.8 -103.86 25.11 -17.86c6.24,8.69 -2.24,-11.73 0.51,3.7 2.5,14.06 2.68,2.96 0.77,14.83l-1 7.22c-0.33,4.01 -0.21,8.92 -0.28,13.01 17.3,2.69 61.76,3.87 87.16,2.22l0 6.72 -0.02 0.01 0 0.01zm0 -110.52c-27.56,-2.31 -82.54,-2.5 -101.37,-1.96 3.01,8.22 11.67,47.19 10.17,54.55 -0.1,0.5 -0.36,1.26 -0.51,1.74 -0.22,0.67 -4.15,8.05 -4.56,8.76 -8.33,14.51 -10.13,11.9 -16.54,14.15l-5.16 -84.42c27.69,-3.81 78.43,0.78 96.45,-0.19l21.53 -2.06 0 9.43 0 -0.01 -0.01 0.01z"/>
      <path class="fil14" d="M1850.12 869.78l-2.8 -13.26c-0.02,-0.78 -0.09,-10.34 -0.29,-12.83l-43.1 -3.58 44.77 -3.37 -0.55 -21.88 10.17 0c3.69,11.22 9.54,30.47 8.2,40.49 2.87,7.62 1.31,4.18 4.81,9.22l14.33 15.52c28.13,0.42 19.28,-5.16 31.11,-8.72l50.56 -0.05 0 190.89c-4.63,0.09 -9.17,0.21 -13.48,0.31 -30.2,0.68 -27.02,8.5 -28.1,-20.77l-4.59 17.36c-18.46,0.49 -9.32,1.4 -12.79,-4.83l-9.29 -102.7c-3.5,-52.58 4.34,-49.1 -14.02,-65.23l-10.98 -10.4c-8.13,-5.99 -14,-5.58 -23.96,-6.17l0 -0.01 0 0.02z"/>
      <path class="fil15" d="M1967.32 1656.38c-1.89,-0.63 -3.7,-1.29 -5.45,-1.99 -5.44,-2.19 -15.93,-10.63 -20.77,-14.8 -36.06,-31.04 -28.83,-69.7 -17.37,-105.72 7.52,-9.51 23.7,-26.61 33.87,-31.82 3.17,-1.63 6.42,-2.94 9.72,-3.97l0 25.3c-32.91,16.77 -47.87,74.04 0,98.81l0 34.2 0 0 0 -0.02zm0 -59.07c-4.63,-4.88 -8.16,-11.01 -10.01,-18.36 -3.28,-13.04 1.19,-26.55 10.01,-34.2l0 52.56zm0 -112.31c-11.18,4.5 -21.89,9.78 -34.9,10.85 1.91,-15.69 20.51,-25.34 34.9,-29.62l0 18.76 0 0.01 0 -0z"/>
      <path class="fil16" d="M1967.32 3297.77c-0.69,5.57 -0.4,10.8 0,15.39l0 14.48c-1.22,2.72 -4.18,3.7 -10.65,2.27 -12.63,-2.79 0.36,-34.66 -11.53,-46.43 -9,-8.92 -2.88,-11.37 -8.07,-1.53 -2.31,-3.27 -1.3,0.83 -2.86,-6.93 -2.03,-10.13 1.76,-9.37 0.09,-21.31 -3.64,4.95 -1.79,-1.9 -2.55,8.06 -0.42,5.47 0.57,5.6 0.88,10.76 0.43,7.04 1.05,11.01 -2.76,16.98 5.86,-27.44 -8.93,-22.56 -14.11,-49.46 -10.47,-54.39 24.06,-95.45 51.54,-102.84l0 26.35c-31.58,14.41 -43.44,63.5 -19,84.55 7.56,6.51 13.54,11.3 19,14.83l0 34.86 0.01 -0.01 0.01 -0.02zm0 -63.4c-0.72,-0.94 -1.39,-1.89 -1.96,-2.85 -12.22,-20.5 -7.47,-36.53 1.96,-45.67l0 48.52zm0 -110.3c-10.4,4.15 -24.39,10.98 -33.86,10.68 1.11,-11.07 13.2,-17.33 23.15,-23.38 6.14,-3.73 8.8,-4.48 10.71,-4.57l0 17.26 0 0.01z"/>
      <path class="fil17" d="M1967.32 1245.7c-2.49,0.13 -5.11,0.31 -7.84,0.57 0.69,-11.63 6.19,-51.22 -2.8,-57.37 -3.18,7.98 -2.24,45.36 -0.8,55.88 -11.47,0.28 -31.64,-0.51 -40.55,1.57l3.38 -3.66c17.12,-18.81 28.81,-25.59 30.2,-36.56 -9.78,2.15 -15.11,8.91 -20.78,14.83 -9.9,10.32 -8.77,13.74 -20.1,20.39 4.98,-31.33 -4.39,-143.83 3.44,-159.89l23.27 -1.48c7.62,0.61 20.22,0.88 32.59,1.31l0 164.43 -0.01 0 -0.01 -0.02z"/>
      <path class="fil18" d="M1855.06 2124.38l-0.57 -3.41c6.41,-2.24 8.21,0.37 16.54,-14.15 0.41,-0.72 4.34,-8.09 4.56,-8.77 0.15,-0.49 0.41,-1.25 0.51,-1.74 1.51,-7.37 -7.15,-46.33 -10.17,-54.55 18.83,-0.54 73.81,-0.35 101.37,1.96l0 103.8c-25.4,1.65 -69.86,0.46 -87.16,-2.22 0.07,-4.1 -0.06,-9 0.28,-13.01l1.01 -7.22c1.92,-11.87 1.72,-0.78 -0.78,-14.83 -2.74,-15.43 5.74,4.98 -0.51,-3.7l-25.11 17.86 0.02 0 0.01 -0.01z"/>
      <path class="fil19" d="M1967.32 3262.91c-5.46,-3.52 -11.43,-8.32 -19,-14.83 -24.45,-21.04 -12.59,-70.13 19,-84.55l0 22.31c-9.43,9.14 -14.19,25.17 -1.96,45.67 0.57,0.96 1.24,1.91 1.96,2.85l0 28.55z"/>
     </g>
    </g>
    <g id="_1636447337136">
     <path class="fil20" d="M1709.33 1888.42l7.29 -5.45c0.67,-0.53 1.57,-1.2 2.22,-1.76l16.38 -17.42c8.31,-9.66 -0.32,-0.93 7.91,-8.74 6.24,-12.39 25.46,-21.74 27.39,-34.46l12.7 -17.9c7.4,-6.69 7.04,-4.29 14.95,-11.06 27.03,-23.11 31.41,-34.43 50.79,-54.19 11.51,-11.74 15.65,-10.74 27,-25.84l-15.7 -22.5c16.22,-18.67 7.63,-10.28 23.54,-12.51 20.26,-2.84 9.93,-9.57 15.57,-23.96 9.29,-23.68 7.42,7.94 25.97,-11.35 13.13,-13.67 -4.06,-7.27 7.02,-26.82 18.07,1.05 18.73,9.38 40.86,8.56 22.57,-0.85 21.04,-11.35 37.69,-5.57 8.81,20.45 -10.49,8.74 5.21,25.17 14.6,15.28 7.3,-0.74 24.69,4.9 8.18,17.25 -9.32,20.43 9.12,28.57 12.06,5.31 23.32,-1.13 26.54,11.94 8.96,9.12 3.37,-3.96 1.45,5.89 -1.69,8.67 -5.4,3.7 -12.24,17.67 7.21,14.08 37.67,37.53 59.06,62.99 0.43,0.51 2.6,1.99 1.9,2.37 -0.71,0.38 1.31,1.58 1.92,2.41l10.05 9 19.29 21.37c14.45,19.51 30.42,32.63 48.05,51.89l491.42 529.49c42.99,40.78 106.67,118.67 150.52,161.02 32.69,31.56 62.99,99.67 124.12,38.16 50.1,-50.42 67.45,-70.28 8.35,-121.83 -95.54,-83.32 -219.38,-208.63 -318.5,-296.98 -72.76,-64.86 -139.12,-130.56 -211.72,-197.39l-213.5 -195.98c-0.84,-0.8 -3.17,-2.07 -2.43,-2.51 0.72,-0.43 -1.81,-1.85 -2.37,-2.43l-10.03 -10.25c-5.04,-4.8 -8.31,-7.31 -13.85,-12.08l-28.17 -27.2 -21.83 -20.39c-8.5,-7.57 -15.68,-11.34 -22.44,-23.07l-19.15 -15.62c-15.91,7.33 -7.43,8.49 -23.07,14.4 -24.2,-16.74 -7.7,-14.72 -16.48,-34.6 -27.16,-14.07 0.69,7.26 -26.31,-2.05 -3.1,-10.21 -0.14,-13.27 0.64,-23.33 -27.1,-13.99 -12.85,1.13 -35.41,-9.83 -0.09,-23.06 8.5,-22.75 9.35,-43.92 0.91,-22.41 -10.28,-20.48 -5.2,-39.65 25.78,-7.56 4.64,7.53 27.71,-3.15l7.74 -2.72c-4.61,-30.78 -7.28,-14.05 -22.34,-36.79l-21.69 7.82c-9.8,31.33 8.62,5.79 -6.73,26.93 -35.64,-18.61 -59.66,-1.76 -69.93,-0.24 -5.8,-18.8 1.68,-35.11 -20.68,-32.73 -3.75,0.4 -16.91,8.84 -18.16,10.17 -9.63,10.42 -7.35,6.87 -8.48,24.8l7.91 2.28c22.57,9.65 1.28,-4.94 28.07,3.1 4.2,21.25 -9.9,19.09 -6.99,43.89 2.65,22.71 14.22,17.27 8.03,41.33 -14.71,4.57 -28.67,-8.52 -32.39,11.19l0.01 10.47c-0.68,6.08 -1.33,5.59 -4.29,12.3 -13.31,-3.09 -5.29,-0.65 -16.52,-7.52 -11.49,23.21 -8.77,4.42 -7.35,20.48 1.37,15.46 -0.48,9.02 -10.77,24.37 -18.82,-2.93 -17.53,-1.19 -26.25,-15.09 -7.17,9.29 -15.81,13.09 -25.49,19.86 -10.07,7.04 -15.48,14.49 -23.34,21.46 -19.51,17.3 -35.05,37.81 -50.08,45.67 -9.98,11.99 -24.03,21.75 -36.4,33.05l-37.62 35.74c-7.81,7.18 -31.48,31.57 -40.08,35.02 -13.12,14.21 -12.49,8.07 -26.4,27.44l-8.39 10.8c-0.08,0.02 -239.33,214.69 -279.54,257.06l-186.62 173.7c-16.08,14.22 -30.23,29.45 -46.39,43.67 -21.83,19.23 -132.67,120.88 -137.9,132.5 -15.05,33.43 5.57,50.14 20.43,64.48 43.4,41.89 58.6,72.57 110.17,20.89l130.43 -139.75c28.47,-32.59 58.12,-60.29 87.21,-92.94 15.52,-17.43 25.85,-28.26 43.55,-46.53l129.45 -140.86c80.04,-89.45 180.99,-189.06 259.56,-279.34l0 -0.02 0 0.04 -0.01 0.03z"/>
     <path class="fil20" d="M1705.34 1247.57l7.3 5.45c0.67,0.53 1.57,1.21 2.22,1.75l16.37 17.42c8.31,9.67 -0.32,0.93 7.91,8.73 6.24,12.39 25.47,21.74 27.39,34.45l12.7 17.9c7.41,6.68 7.04,4.29 14.95,11.06 27.04,23.11 31.41,34.43 50.79,54.2 11.51,11.74 15.64,10.74 27,25.83l-15.7 22.5c16.22,18.67 7.63,10.28 23.53,12.51 20.27,2.84 9.93,9.57 15.57,23.96 9.29,23.68 7.43,-7.93 25.97,11.36 13.13,13.66 -4.06,7.28 7.02,26.82 18.07,-1.06 18.73,-9.38 40.86,-8.56 22.57,0.83 21.04,11.35 37.69,5.57 8.81,-20.44 -10.49,-8.74 5.21,-25.17 14.6,-15.28 7.3,0.74 24.69,-4.9 8.17,-17.26 -9.33,-20.43 9.11,-28.56 12.06,-5.31 23.32,1.11 26.54,-11.94 8.96,-9.12 3.38,3.97 1.45,-5.9 -1.69,-8.67 -5.4,-3.7 -12.24,-17.67 7.21,-14.09 37.67,-37.52 59.06,-62.99 0.43,-0.52 2.6,-1.99 1.9,-2.38 -0.71,-0.38 1.31,-1.58 1.92,-2.41l10.05 -9 19.29 -21.36c14.45,-19.51 30.42,-32.64 48.05,-51.9l491.42 -529.48c42.99,-40.77 106.67,-118.67 150.52,-161.02 32.69,-31.56 62.99,-99.68 124.12,-38.16 50.1,50.42 67.45,70.3 8.35,121.83 -95.54,83.32 -219.38,208.63 -318.5,296.98 -72.76,64.86 -139.13,130.56 -211.72,197.39l-213.5 195.98c-0.84,0.8 -3.17,2.07 -2.43,2.51 0.72,0.43 -1.81,1.85 -2.37,2.44l-10.03 10.25c-5.04,4.8 -8.31,7.31 -13.84,12.07l-28.17 27.21 -21.83 20.39c-8.5,7.58 -15.68,11.34 -22.44,23.07l-19.16 15.61c-15.9,-7.33 -7.43,-8.49 -23.06,-14.4 -24.2,16.74 -7.7,14.72 -16.48,34.6 -27.16,14.07 0.68,-7.26 -26.31,2.04 -3.1,10.21 -0.14,13.27 0.65,23.35 -27.1,13.99 -12.85,-1.13 -35.4,9.83 -0.1,23.06 8.5,22.75 9.36,43.92 0.91,22.41 -10.28,20.48 -5.2,39.64 25.78,7.56 4.63,-7.52 27.71,3.15l7.74 2.72c-4.61,30.78 -7.28,14.05 -22.34,36.8l-21.69 -7.83c-9.8,-31.32 8.63,-5.79 -6.73,-26.93 -35.64,18.61 -59.66,1.76 -69.92,0.24 -5.81,18.79 1.68,35.11 -20.68,32.72 -3.75,-0.4 -16.92,-8.84 -18.15,-10.18 -9.63,-10.42 -7.35,-6.87 -8.48,-24.8l7.91 -2.28c22.56,-9.65 1.28,4.94 28.08,-3.1 4.2,-21.24 -9.89,-19.09 -7,-43.89 2.66,-22.7 14.22,-17.27 8.02,-41.33 -14.71,-4.57 -28.67,8.52 -32.39,-11.19l0.01 -10.47c-0.68,-6.08 -1.33,-5.59 -4.28,-12.3 -13.32,3.09 -5.29,0.65 -16.53,7.52 -11.49,-23.21 -8.76,-4.41 -7.35,-20.48 1.36,-15.46 -0.48,-9.02 -10.77,-24.37 -18.82,2.93 -17.53,1.19 -26.25,15.09 -7.17,-9.29 -15.81,-13.09 -25.49,-19.86 -10.07,-7.04 -15.48,-14.49 -23.34,-21.46 -19.51,-17.3 -35.05,-37.81 -50.08,-45.67 -9.98,-11.99 -24.03,-21.75 -36.4,-33.05l-37.62 -35.74c-7.82,-7.19 -31.48,-31.57 -40.08,-35.02 -13.12,-14.21 -12.49,-8.07 -26.4,-27.44l-8.39 -10.8c-0.08,-0.02 -239.33,-214.69 -279.55,-257.06l-186.62 -173.7c-16.08,-14.21 -30.23,-29.45 -46.39,-43.67 -21.83,-19.22 -132.67,-120.88 -137.9,-132.51 -15.05,-33.43 5.57,-50.14 20.43,-64.49 43.4,-41.89 58.6,-72.56 110.17,-20.89l130.43 139.75c28.47,32.59 58.11,60.3 87.22,92.94 15.52,17.43 25.85,28.26 43.55,46.52l129.45 140.86c80.03,89.45 180.98,189.06 259.56,279.34l-0.01 0.02 -0.02 0 0 0.01z"/>
    </g>
   </g>
  </g>
 </g>
</svg>
